<?xml version="1.0" encoding="utf-8"?>
<!-- Generator: Adobe Illustrator 19.1.0, SVG Export Plug-In . SVG Version: 6.00 Build 0)  -->
<!DOCTYPE svg PUBLIC "-//W3C//DTD SVG 1.1//EN" "http://www.w3.org/Graphics/SVG/1.1/DTD/svg11.dtd">
<svg version="1.1" id="Layer_1" xmlns="http://www.w3.org/2000/svg" xmlns:xlink="http://www.w3.org/1999/xlink" x="0px" y="0px"
	 width="562.5px" height="308.7px" viewBox="0 0 562.5 308.7" enable-background="new 0 0 562.5 308.7" xml:space="preserve">
<g>
	<path fill="#FAAF40" d="M455.9,147.7l-115.7,4.7c0,0-4.9-107.1,5.7-116.2s106.5-22,106.5-22L455.9,147.7z"/>
	<path fill="#FAAF40" d="M381.5,286.4L265.8,291c0,0-11.8-111.3-1.1-120.4c10.6-9,113.4-17.8,113.4-17.8L381.5,286.4z"/>
	<path fill="#FAAF40" d="M544.3,276.6l-0.5-126.4c0,0-102,5.8-111,16.4c-9,10.6-3.3,124.4-3.3,124.4L544.3,276.6z"/>
	<g>
		<g>
			<path fill="#3F4251" d="M312.3,35.5c11.3-3.9,20.8-11.4,31.8-15.8c-0.6-0.5-1.2-0.9-1.9-1.4c-0.2,34.4-1.5,68.8-1.8,103.2
				c-0.1,9.6-0.2,19.2-0.1,28.8c0.7-0.7,1.3-1.3,2-2c-9.1,0.4-18.1,1.6-27.2,1.9c0.7,0.5,1.4,1.1,2.1,1.6c-1.2-4.9-1-10.2-1.1-15.2
				c-0.2-8.7-0.9-17.3-1.3-26c-0.8-18.7-0.9-37.4-0.9-56.2c0-5.5-0.2-11,0.2-16.5c0.2-2.5-3.7-2.4-3.8,0
				c-0.8,13.2-0.5,26.6-0.4,39.8c0.1,19-0.9,38.2,0.7,57.1c0.5,5.9,0.6,12.3,2.4,18c0.3,0.9,1.2,1.7,2.1,1.6
				c9.1-0.5,18.1-2,27.2-2.4c1.1-0.1,2-0.9,2-2c-0.5-38.2,0.4-76.3,0.7-114.5c0.1-5.8,0.1-11.6,0.1-17.5c0-0.9-1-1.8-1.9-1.4
				c-11.1,4.6-20.7,12.2-31.6,17.4C311.1,34.5,311.6,35.7,312.3,35.5L312.3,35.5z"/>
		</g>
	</g>
	<g>
		<g>
			<path fill="#3F4251" d="M351.7,16.8c-1.5-1.1-3.8-2-5.7-1.6c-0.3,0.1-0.2,0.6,0.1,0.6c1-0.1,1.9-0.2,2.9,0c1,0.2,1.9,0.6,2.7,1.2
				C351.7,16.9,351.7,16.8,351.7,16.8L351.7,16.8z"/>
		</g>
	</g>
	<g>
		<g>
			<path fill="#3F4251" d="M346.6,17.6c26.9-0.2,53.7-2.5,80.6-2.3c6.6,0,13.2,0.1,19.8,0.3c1.8,0,4.1-0.2,5.8,0.2
				c0.7,0,1.3,0,2,0.1c2.4,1.4,3.2,3.2,2.2,5.3c-0.2,3.2-1,6.4-1.2,9.6c-0.9,14.1,1.7,28.4,2.8,42.4c1.2,14.9,1.8,29.9,1.1,44.9
				c-0.3,7.2-0.9,14.4-2,21.5c-0.1,0.7-0.7,6.3-0.4,6c-0.2,0.2-1.2,0.1-1.5,0.2c-4.8,1.5-11,1.1-16,1.5c-8.9,0.7-17.7,1.3-26.6,1.9
				c-23.5,1.4-47.2,2.5-70.8,1.2c-2.5-0.1-2.5,3.7,0,3.9c22.7,1.3,45.5,0.4,68.2-0.7c15.3-0.8,31.1-1.1,46.3-3.5
				c1.6-0.2,2.4-0.3,3.4-1.8c1.5-2.3,1.4-5.9,1.8-8.4c0.5-3.5,0.9-7.1,1.3-10.6c1.5-15.9,1.3-31.9,0.2-47.7
				c-1.1-15.7-4.2-31.3-4.2-47c0-4.1,0.3-8.2,1-12.3c0.4-2.4,1.5-5.2,0-7.4c-2.6-3.9-10.6-2.4-14.4-2.4c-33-0.6-66.8-0.8-99.5,3.4
				C345.4,15.8,345.3,17.6,346.6,17.6L346.6,17.6z"/>
		</g>
	</g>
	<g>
		<g>
			<path fill="#3F4251" d="M260.8,282c-4.1-40.4-4.9-81.3-3.7-121.9c-0.6,0.5-1.2,0.9-1.8,1.4c11.2,2.6,22.3,0.3,33.4-1.3
				c12.6-1.8,25.4-2.4,38.1-2.9c12.3-0.5,24.7-0.6,37.1-0.6c2.9,0,6.9-0.7,9.8,0c5.2,1.3,4.5,4.2,4.6,7.6c0,3,0,6,0,9.1
				c0,30.2-0.6,60.4-2.2,90.5c-0.3,6.5-0.7,13-1.3,19.5c-0.2,2.6-0.6,7.8-1.3,9.1c0.8-0.4,1.6-0.9,2.3-1.3
				c-13.1,0.4-26.3-0.2-39.4-0.5c-20.1-0.4-40.3-0.9-60.4-1.6c-6.9-0.2-13.9,0.2-20.8-0.2c-2.7-0.2-2.7,4,0,4.2
				c5.9,0.4,11.7,1.2,17.7,1.4c9.2,0.3,18.5,0.5,27.7,0.8c19.6,0.5,39.2,0.9,58.7,1.2c5.5,0.1,11,0.3,16.5,0.1
				c0.9,0,1.9-0.5,2.3-1.3c1.3-2.6,1.4-5.8,1.7-8.6c0.6-5.5,0.9-11.1,1.1-16.7c0.7-15.8,1-31.7,1.2-47.5c0.2-16.3,0.3-32.7,0.1-49
				c0-5,1.4-14.1-2-18.2c-2.9-3.5-8.6-2.4-12.6-2.4c-7.2,0-14.3,0.1-21.5,0.3c-15,0.3-29.9,1-44.8,2.4c-14.9,1.4-30.7,6.7-45.5,3.2
				c-0.9-0.2-1.8,0.4-1.8,1.4c-1.1,40.5-0.8,81.9,4.7,122.1C259,283.3,260.9,283.1,260.8,282L260.8,282z"/>
		</g>
	</g>
	<g>
		<g>
			<path fill="#3F4251" d="M390.6,151c-1.4,13.8-1.2,27.9-1.7,41.8c-0.4,13.6-0.8,27.2-0.9,40.8c-0.1,6.6-0.1,13.2-0.2,19.9
				c0,4.2,0.4,7.2-1.8,10.8c-2.1,3.4-4.3,6.9-6.3,10.4c-2.1,3.6-5.2,7.8-5.5,12c-0.1,1.4,1.7,1.9,2.6,1.1c3.2-3.1,5-8.3,7.4-12.1
				c2-3.4,4.2-6.7,6.3-10c1.6-2.6,2-4.8,2-7.9c0-7,0.4-14,0.6-21c0.5-13.9,0.5-27.8,0.2-41.7c-0.4-14.6-0.3-29.3-2.1-43.8
				C391.1,150.7,390.6,150.7,390.6,151L390.6,151z"/>
		</g>
	</g>
	<g>
		<g>
			<path fill="#3F4251" d="M393.9,153.7c11.8,1.4,22.9,3.4,34.6,0.8c-0.7-0.5-1.4-1.1-2.1-1.6c1.4,23.7,1.2,47.4,0.4,71.1
				c-0.7,22.3-2,44.7-0.5,67c1.3-1,2.7-2,4-3.1c-8.3-2.9-16.3-7.8-23.6-12.6c-4.2-2.8-8.8-5.8-12.1-9.7c-3.5-4.2-2.2-10.1-2-15.3
				c0.8-32.4,4.4-64.9,3.5-97.3c-0.1-3-4.7-3-4.6,0c0.9,35.1-3.3,70.1-4.1,105.1c-0.1,4.7,0.4,7.6,3.4,11.3c3.4,4,7.8,7.2,12,10.2
				c7.9,5.5,16.6,11,25.7,14.4c1.9,0.7,4.1-1.1,4-3.1c-2-46,2.2-92.3-3-138.1c-0.1-1-1-1.9-2.1-1.6c-11.3,3.2-22.2,1.7-33.8,1.1
				C393,152.3,393.1,153.6,393.9,153.7L393.9,153.7z"/>
		</g>
	</g>
	<g>
		<g>
			<path fill="#3F4251" d="M436.7,149.4c0.7,2.2,4.6,2.1,6.2,2.1c6.7,0.2,13.5-0.1,20.2-0.3c12.2-0.4,24.5-0.6,36.7-1.2
				c10-0.5,20-2.5,30-2.8c2.8-0.1,5.6,0.1,8.3,0.5c2.5,0.4,2.4,0.2,2.6,2.6c0.2,2.9,0.4,5.7,0.5,8.6c1,29.7-0.6,59.6-2.6,89.3
				c-0.7,10.4-1.2,20.9-2.5,31.2c0.7-0.9,1.4-1.9,2.2-2.8c-18.6,2.6-37.3,4.9-56.1,7c-9.2,1-18.3,2-27.5,2.8c-8.5,0.8-17.7,0.8-26,3
				c-1.8,0.5-1.2,2.8,0.4,3c8.9,1.1,18.6-0.4,27.6-1.1c9.5-0.7,19-1.6,28.5-2.5c18.3-1.8,36.5-4.1,54.7-6.6c1.4-0.2,2-1.7,2.2-2.8
				c1.8-13.8,2.2-27.8,2.8-41.7c1-21.3,1.6-42.6,1.2-63.9c-0.2-9.3-0.8-18.5-2.1-27.7c-0.1-0.6-0.7-1.2-1.3-1.3
				c-7.2-1.5-14-1.5-21.2-0.5c-10.1,1.4-20.2,2-30.3,2.4c-10.3,0.5-20.6,0.8-31,1.3c-4.9,0.2-9.8,0.5-14.6,1.1c-1,0.1-2,0.4-3,0.5
				c-1.8,0.1-3.6-0.5-5.3-0.5c-0.4,0-0.7-0.5-1.1-0.5c-0.2,0-0.3,0.2-0.2,0.3c0.1,0.1,0.1,0.3,0.2,0.4
				C436.4,149.7,436.7,149.6,436.7,149.4L436.7,149.4z"/>
		</g>
	</g>
	<g>
		<g>
			<path fill="#3F4251" d="M295.7,212.1c8.6-5.8,14.9-13.5,20.5-22.1c-1,0-1.9,0-2.9,0c2.2,4.8,1.8,10.1,2.3,15.3
				c0.4,5.1,0.7,10.1,0.8,15.2c0.1,10.1-0.3,20.3,0.1,30.4c1-0.8,2-1.5,3-2.3c-7.3-1.5-14.5-1.4-21.8,0.2c-2.7,0.6-2.1,5,0.7,4.9
				c14.1-0.6,28.3,1.7,42.4-0.4c3.1-0.5,1.3-6-1.8-4.2c-0.5,0.3-1,0.6-1.4,0.8c-1.2,0.7-0.9,2.4,0.4,2.8c0.5,0.2,1.1,0.4,1.6,0.5
				c0-1.5,0-2.9,0-4.4c-13.6,2.4-27.5-0.9-41.1-0.1c0.2,1.6,0.4,3.2,0.7,4.9c6.4-1.5,12.8-1.6,19.2-0.3c1.4,0.3,3.1-0.7,3-2.3
				c-0.6-11.4,0.2-22.8-0.5-34.2c-0.3-5.2-1.2-10.3-1.7-15.5c-0.4-4.5-0.9-8.7-3-12.8c-0.6-1.1-2.3-1-2.9,0
				c-5.1,8.7-10.9,16-18.3,22.9C294.5,211.7,295.1,212.5,295.7,212.1L295.7,212.1z"/>
		</g>
	</g>
	<g>
		<g>
			<path fill="#3F4251" d="M477.4,198.5c-0.2-3.9-1.5-9.1-0.1-12.9c2-5.3,12.4-5.5,16.8-3.8c7,2.7,6.7,16.8,3.3,22.1
				c-6.4,9.8-16.1,17.2-24,25.8c-2.2,2.5-6.1,6.1-5.7,9.9c0.5,5.3,7,3.8,10.6,3.7c6.5-0.1,13-0.8,19.5-1.2c4.2-0.3,9.6,0.3,13.5-1.7
				c1.4-0.7,1.3-2.8,0-3.6c-3.7-2.1-9.5-0.6-13.5-0.4c-6.2,0.4-12.4,0.8-18.6,0.7c-1.1,0-2.2-0.1-3.3-0.1c-0.5,0-1.3-0.2-1.7,0
				c-0.4,0-0.7,0.1-1.1,0.1c0.4,0.7,0.8,1.3,1.1,2c0.4,0,3.1-4.6,3.6-5.1c3.9-4.8,8.1-9.5,12.2-14.2c4-4.6,8.2-9.5,11.2-14.8
				c2-3.5,1.9-5.8,1.8-9.5c-0.1-4.1-0.6-8.7-2.8-12.3c-2.8-4.6-7.5-4.8-12.4-4.6c-4.3,0.2-9.9,0.8-11.9,5.2
				c-2,4.3-0.1,10.2,0.4,14.6C476.3,199.2,477.4,199.3,477.4,198.5L477.4,198.5z"/>
		</g>
	</g>
	<path fill="#FAAF40" d="M22.1,285.8l1.8-130.2c0,0,98.3-1,106,11.4c7.7,12.3,14.6,120.6,14.6,120.6L22.1,285.8z"/>
	<g>
		<g>
			<path fill="#3F4251" d="M158.1,171.2c-9.5-4.2-14.5-14.2-24.3-17.9c-0.9-0.3-1.9,0.5-1.8,1.4c1.5,38.9,3.9,77.7,6.1,116.5
				c0.3,5.1,0.6,10.2,0.8,15.2c0.1,1.4,1.7,2.7,3.1,1.8c2.9-2.1,5.9-4.1,8.8-6.2c2.7-1.9,6.5-3.7,8.9-6.1c2.6-2.7,1.2-9.6,1.1-13.1
				c-0.1-10-1.3-19.9-1.9-29.9c-0.7-11.2-1.2-22.3-1.8-33.5c-0.4-7.5-0.7-15-1.5-22.5c-0.3-2.4-4.1-2.4-3.8,0
				c1.8,16.2,1.7,32.9,2.4,49.2c0.4,10.2-0.1,20.5,0.5,30.6c0.2,3.7,0.6,7.4,0.8,11c0.1,1-0.3,4.9,0.4,5.6c0.3,0.3-0.8,1.3,0.4-0.5
				c1.1-1.7-0.3-0.3-0.7-0.1c-2.1,1.1-4,3.1-5.9,4.5c-3.3,2.4-6.6,4.9-9.8,7.3c1,0.6,2,1.2,3.1,1.8c-2.6-36.7-4.5-73.5-6.8-110.3
				c-0.4-7.2-0.9-14.3-1.3-21.5c-0.6,0.5-1.2,0.9-1.8,1.4c9.6,3.5,14.7,13.3,24.5,16.3C158.3,172.7,158.8,171.5,158.1,171.2
				L158.1,171.2z"/>
		</g>
	</g>
	<g>
		<g>
			<path fill="#3F4251" d="M125.6,153.7c0.8-0.6,1.7-1,2.6-1.3c1-0.3,1.9-0.2,2.9-0.2c0.4,0,0.3-0.5,0-0.6
				C129.2,151.5,126.9,152.5,125.6,153.7C125.4,153.7,125.5,153.8,125.6,153.7L125.6,153.7z"/>
		</g>
	</g>
	<g>
		<g>
			<path fill="#3F4251" d="M130.6,152.3c-29.3-2.4-59.3-1.1-88.6,0.6c-6.9,0.4-14.6,0-21.3,1.4c-5.4,1.1-4.7,5.3-3.7,9.7
				c3.6,15.8,0.8,32.2,0,48.2c-0.7,15.5-0.7,31.1,0.6,46.6c0.7,7.4,1.6,14.8,3,22.1c0.6,3.1,0.6,9.3,4.1,10.6
				c3.5,1.4,9,0.6,12.6,0.8c9,0.3,18,0.6,27,0.7c25.5,0.3,51.2,0.3,76.5-2.4c2.5-0.3,2.5-4.1,0-3.9c-36.6,3.6-74.1,2.9-110.7,0.9
				c-1-0.1-3.5,0.3-4.3-0.3c-0.5-0.3,0.2,0.3,0,0c0.4,0.5-0.2-3.9-0.3-4.1c-0.8-4.1-1.5-8.2-2.1-12.4c-2-14.3-2.6-28.8-2.5-43.3
				c0.1-14.7,1.6-29.3,1.6-43.9c0-6.3-0.4-12.6-1.7-18.8c-0.6-2.6-2.3-5.4,1.5-7.3c0.7-0.4,3-0.2,3.9-0.3c4.4-0.3,8.7-0.6,13.1-0.9
				c14.5-0.9,29.1-1.5,43.6-1.8c15.9-0.3,31.8,0.4,47.6-0.3C131.8,154.2,131.8,152.4,130.6,152.3L130.6,152.3z"/>
		</g>
	</g>
	<g>
		<g>
			<path fill="#3F4251" d="M61.4,202.2c-0.2-10.5,11.5-13.5,19.2-8.9c4,2.4,8,7.2,4.9,11.9c-1.9,2.8-5.6,4.1-8.6,5.5
				c-4.9,2.3-9.8,5.4-11.1,11.1c-1.3,6.1,3.1,11.9,1.4,17.8c-1.1,4.1,5.2,5.8,6.3,1.7c1.1-4.4,0-8.4-1.1-12.7
				c-1.7-6.9,1.4-10,7.3-13c6.8-3.5,14.8-8.9,11.3-17.8c-5.9-14.8-34.8-14.2-31.5,4.6C59.8,203.4,61.4,203.1,61.4,202.2L61.4,202.2z
				"/>
		</g>
	</g>
	<g>
		<g>
			<path fill="#3F4251" d="M65.4,248.6c-0.9,2.2,0.8,4.8,3,5.4c2.4,0.6,4.5-1.2,4.8-3.6c0.3-2.5-1.3-5.1-4-5.1
				c-1.6,0-3.1,1.2-3.2,2.9c-0.1,1.7,1.1,3,2.8,3.1c2.3,0.1,2.6-3.3,0.5-3.9c0.4,0.1,0.6,0.3,0.7,0.7c0.2,0.4,0,0.8-0.5,1.1
				c0,0,0,0,0,0c0-0.1,0.2,0.2,0.3,0.3c0.1,0.3,0.2,0.9-0.1,1.2c-0.7,1.2-2.3-0.5-2-1.6C68.1,247.7,65.9,247.2,65.4,248.6
				L65.4,248.6z"/>
		</g>
	</g>
	<g>
		<g>
			<path fill="#3F4251" d="M387.2,54.2c9.4-8.9,21.3-10.5,31.6-1.7c5,4.2,3.3,11-0.7,15.4c-4.9,5.4-12.8,4.5-19.3,3.7
				c-0.2,1.3-0.4,2.6-0.5,4c6.6,0.1,13.3,4.3,17.6,9.2c5.7,6.4,5.3,14.4,0.3,21.2c-4.1,5.5-9.8,9-16.8,8.9
				c-9.5-0.1-17-7.4-15.6-17.1c0.4-2.8-3.2-3.9-4.2-1.2c-3.7,9.9,4.1,20.4,13.8,22.6c9.4,2.1,18.7-1.6,24.8-8.8
				c5.9-7,8.5-17,3.2-25.2c-4.8-7.4-14.2-13.7-23.2-13.7c-2.6,0-2.5,3.8,0,4c7.9,0.8,16.9,1.1,22.4-5.6c3.8-4.6,6.2-12.1,2.2-17.3
				c-8.2-10.8-30.1-12.8-36.5,1C386.4,54.1,386.9,54.5,387.2,54.2L387.2,54.2z"/>
		</g>
	</g>
</g>
</svg>
