<?xml version="1.0" encoding="utf-8"?>
<!-- Generator: Adobe Illustrator 18.0.0, SVG Export Plug-In . SVG Version: 6.00 Build 0)  -->
<!DOCTYPE svg PUBLIC "-//W3C//DTD SVG 1.1//EN" "http://www.w3.org/Graphics/SVG/1.1/DTD/svg11.dtd">
<svg version="1.1" id="Layer_1" xmlns="http://www.w3.org/2000/svg" xmlns:xlink="http://www.w3.org/1999/xlink" x="0px" y="0px"
	 viewBox="0 0 230.8 100" enable-background="new 0 0 230.8 100" xml:space="preserve">
<path fill="#C9549E" d="M209.5,42.3c-24.5,0.6-45.7-12.5-52.5-32.8c-1.2-3.7-8.1-2.7-6.9,1.1c4.9,16.4,18.7,29,36.3,34.6
	C127.1,53.7,65.2,59.3,7.5,43.8c-0.2,0-0.3,0.1-0.1,0.2C30,59.1,63.7,58.5,91,58c31-0.6,61.7-2.8,92.3-6.8
	c-14.4,8.3-28.9,16.5-43.3,24.8c-3.4,1.9,0.2,6.2,3.7,4.9c24.1-8.9,46.7-20,67.8-33.4C213.9,46.2,212.6,42.2,209.5,42.3z"/>
</svg>
