<?xml version="1.0" encoding="utf-8"?>
<!-- Generator: Adobe Illustrator 18.0.0, SVG Export Plug-In . SVG Version: 6.00 Build 0)  -->
<!DOCTYPE svg PUBLIC "-//W3C//DTD SVG 1.1//EN" "http://www.w3.org/Graphics/SVG/1.1/DTD/svg11.dtd">
<svg version="1.1" id="Layer_1" xmlns="http://www.w3.org/2000/svg" xmlns:xlink="http://www.w3.org/1999/xlink" x="0px" y="0px"
	 viewBox="0 0 233.3 82.1" enable-background="new 0 0 233.3 82.1" xml:space="preserve">
<path fill="#C9549E" d="M133.9,42.8c-34,0-67.9-2.5-101.5-7.2c13.2-4.1,23.4-13,27.4-25.9c0.9-3-4.3-4.4-5.4-1.4
	c-5.5,15.9-20.9,25.1-40.1,25c-2.9,0-4,3.1-1.6,4.5c17.2,10.3,35.2,18.9,54.5,26c3,1.1,4.9-2.9,2.3-4.3L35.5,40.7
	c33.3,4.3,66.7,6.5,100.4,6c23.5-0.4,60.1,2.2,80.4-9.9c0.1-0.1,0.1-0.2-0.1-0.2C189.9,42.9,161.1,42.8,133.9,42.8z"/>
</svg>
