<?xml version="1.0" encoding="utf-8"?>
<!-- Generator: Adobe Illustrator 19.1.0, SVG Export Plug-In . SVG Version: 6.00 Build 0)  -->
<!DOCTYPE svg PUBLIC "-//W3C//DTD SVG 1.1//EN" "http://www.w3.org/Graphics/SVG/1.1/DTD/svg11.dtd">
<svg version="1.1" id="Layer_1" xmlns="http://www.w3.org/2000/svg" xmlns:xlink="http://www.w3.org/1999/xlink" x="0px" y="0px"
	 width="743.3px" height="179px" viewBox="0 0 743.3 179" enable-background="new 0 0 743.3 179" xml:space="preserve">
<g>
	<g>
		<defs>
			<rect id="SVGID_7_" x="-0.4" y="-9.7" width="799.3" height="205.7"/>
		</defs>
		<clipPath id="SVGID_2_">
			<use xlink:href="#SVGID_7_"  overflow="visible"/>
		</clipPath>
		<g clip-path="url(#SVGID_2_)">
			<defs>
				<rect id="SVGID_9_" x="-0.4" y="-9.7" width="799.3" height="205.7"/>
			</defs>
			<clipPath id="SVGID_4_">
				<use xlink:href="#SVGID_9_"  overflow="visible"/>
			</clipPath>
			<g clip-path="url(#SVGID_4_)">
				<text transform="matrix(1 0 0 1 -0.2299 130.2959)"><tspan x="0" y="0" fill="#41464E" font-family="'ATCOverlook-Regular'" font-size="21.77px">G</tspan><tspan x="16.6" y="0" fill="#41464E" font-family="'ATCOverlook-Regular'" font-size="21.77px">O</tspan><tspan x="34.1" y="0" fill="#41464E" font-family="'ATCOverlook-Regular'" font-size="21.77px">VERNMEN</tspan><tspan x="140.5" y="0" fill="#41464E" font-family="'ATCOverlook-Regular'" font-size="21.77px">T </tspan><tspan x="160.1" y="0" fill="#41464E" font-family="'ATCOverlook-Regular'" font-size="21.77px">EXPERIENCE</tspan></text>
			</g>
			
				<line clip-path="url(#SVGID_4_)" fill="none" stroke="#222B37" stroke-width="0.4447" stroke-miterlimit="10" x1="-0.4" y1="154.6" x2="741.5" y2="154.6"/>
			
				<line clip-path="url(#SVGID_4_)" fill="none" stroke="#222B37" stroke-width="0.8895" stroke-miterlimit="10" x1="-0.4" y1="155.9" x2="741.5" y2="155.9"/>
			
				<line clip-path="url(#SVGID_4_)" fill="none" stroke="#222B37" stroke-width="0.4447" stroke-miterlimit="10" x1="-0.4" y1="157.3" x2="741.5" y2="157.3"/>
			<path clip-path="url(#SVGID_4_)" fill="#BFD749" d="M419.5,169c6.9,0,12.5-5.6,12.5-12.5c0-6.9-5.6-12.5-12.5-12.5
				c-6.9,0-12.5,5.6-12.5,12.5C407,163.4,412.6,169,419.5,169"/>
		</g>
		<g clip-path="url(#SVGID_2_)">
			<text transform="matrix(1 0 0 1 465.5255 29.5312)"><tspan x="0" y="0" fill="#A5BB3F" font-family="'ATCOverlook-Medium'" font-size="21.77px">Significant exposu</tspan><tspan x="188" y="0" fill="#A5BB3F" font-family="'ATCOverlook-Medium'" font-size="21.77px">r</tspan><tspan x="195.8" y="0" fill="#A5BB3F" font-family="'ATCOverlook-Medium'" font-size="21.77px">e</tspan><tspan x="207.8" y="0" fill="#A5BB3F" font-family="'ATCOverlook-Medium'" font-size="21.77px">, </tspan></text>
		</g>
		<g clip-path="url(#SVGID_2_)">
			<text transform="matrix(1 0 0 1 691.3438 29.5312)" fill="#A5BB3F" font-family="'ATCOverlook-Medium'" font-size="21.77px"> </text>
		</g>
		<g clip-path="url(#SVGID_2_)">
			<text transform="matrix(1 0 0 1 465.5255 60.6396)"><tspan x="0" y="0" fill="#A5BB3F" font-family="'ATCOverlook-Medium'" font-size="21.77px">but of</tspan><tspan x="61.6" y="0" fill="#A5BB3F" font-family="'ATCOverlook-Medium'" font-size="21.77px">t</tspan><tspan x="70" y="0" fill="#A5BB3F" font-family="'ATCOverlook-Medium'" font-size="21.77px">e</tspan><tspan x="81.7" y="0" fill="#A5BB3F" font-family="'ATCOverlook-Medium'" font-size="21.77px">n it has be</tspan><tspan x="188.6" y="0" fill="#A5BB3F" font-family="'ATCOverlook-Medium'" font-size="21.77px">e</tspan><tspan x="200.3" y="0" fill="#A5BB3F" font-family="'ATCOverlook-Medium'" font-size="21.77px">n as a </tspan></text>
		</g>
		<g clip-path="url(#SVGID_2_)">
			<text transform="matrix(1 0 0 1 738.1915 60.6396)" fill="#A5BB3F" font-family="'ATCOverlook-Medium'" font-size="21.77px"> </text>
		</g>
		<g clip-path="url(#SVGID_2_)">
			<text transform="matrix(1 0 0 1 465.5255 91.751)"><tspan x="0" y="0" fill="#A5BB3F" font-family="'ATCOverlook-Medium'" font-size="21.77px">coun</tspan><tspan x="49.7" y="0" fill="#A5BB3F" font-family="'ATCOverlook-Medium'" font-size="21.77px">t</tspan><tspan x="58.1" y="0" fill="#A5BB3F" font-family="'ATCOverlook-Medium'" font-size="21.77px">e</tspan><tspan x="69.8" y="0" fill="#A5BB3F" font-family="'ATCOverlook-Medium'" font-size="21.77px">rpo</tspan><tspan x="104.2" y="0" fill="#A5BB3F" font-family="'ATCOverlook-Medium'" font-size="21.77px">i</tspan><tspan x="110.3" y="0" fill="#A5BB3F" font-family="'ATCOverlook-Medium'" font-size="21.77px">nt or ch</tspan><tspan x="190.1" y="0" fill="#A5BB3F" font-family="'ATCOverlook-Medium'" font-size="21.77px">a</tspan><tspan x="201.9" y="0" fill="#A5BB3F" font-family="'ATCOverlook-Medium'" font-size="21.77px">ll</tspan><tspan x="213.3" y="0" fill="#A5BB3F" font-family="'ATCOverlook-Medium'" font-size="21.77px">e</tspan><tspan x="225" y="0" fill="#A5BB3F" font-family="'ATCOverlook-Medium'" font-size="21.77px">n</tspan><tspan x="238" y="0" fill="#A5BB3F" font-family="'ATCOverlook-Medium'" font-size="21.77px">g</tspan><tspan x="251.2" y="0" fill="#A5BB3F" font-family="'ATCOverlook-Medium'" font-size="21.77px">e</tspan><tspan x="262.9" y="0" fill="#A5BB3F" font-family="'ATCOverlook-Medium'" font-size="21.77px">r</tspan></text>
		</g>
		<g clip-path="url(#SVGID_2_)">
			<defs>
				<rect id="SVGID_11_" x="-0.4" y="-9.7" width="799.3" height="205.7"/>
			</defs>
			<clipPath id="SVGID_6_">
				<use xlink:href="#SVGID_11_"  overflow="visible"/>
			</clipPath>
			<path clip-path="url(#SVGID_6_)" fill="#BFD749" d="M458.5,25.7c-16.5,2.8-27.2,17.5-32.5,32.4c-3.2,8.9-5.1,18.3-6.5,27.6
				c-0.7,4.9-1.2,9.8-1.5,14.7c-0.2,5.2,0.2,10.4,0.2,15.6c1.1-0.5,2.2-1.1,3.3-1.6c-4.7-4.4-8.4-9.1-11.7-14.6
				c-1.1,0.7-2.2,1.4-3.3,2.2c4.1,5.7,8.8,10.9,14,15.5c1,0.9,2.4,0.5,3-0.5c4.1-6.9,8.5-13.8,12-21c0.3-0.6,0.2-1.3-0.3-1.7
				c-0.3-0.3-0.7-0.6-1-0.9c-1-0.9-2.3,0.4-1.7,1.5c0.2,0.4,0.4,0.9,0.6,1.3c0-0.6,0.1-1.2,0.1-1.7c-4.8,6.6-9,13.8-13.1,20.8
				c1-0.2,2-0.4,3-0.5c-5-4.5-9.4-9.4-13.3-14.9c-1.5-2.2-4.4-0.1-3.3,2.2c2.8,5.8,7.2,11.3,12.3,15.4c1.6,1.3,3.7-0.1,3.2-2.1
				c-2.2-9-1.2-19.3-0.2-28.4c1-8.7,2.4-17.4,4.7-25.9c4.5-16,14.5-31.6,31.9-35C458.8,26,458.7,25.7,458.5,25.7"/>
		</g>
	</g>
</g>
</svg>
