<?xml version="1.0" encoding="utf-8"?>
<!-- Generator: Adobe Illustrator 19.1.0, SVG Export Plug-In . SVG Version: 6.00 Build 0)  -->
<!DOCTYPE svg PUBLIC "-//W3C//DTD SVG 1.1//EN" "http://www.w3.org/Graphics/SVG/1.1/DTD/svg11.dtd">
<svg version="1.1" id="Layer_1" xmlns="http://www.w3.org/2000/svg" xmlns:xlink="http://www.w3.org/1999/xlink" x="0px" y="0px"
	 width="743.3px" height="118.1px" viewBox="0 0 743.3 118.1" enable-background="new 0 0 743.3 118.1" xml:space="preserve">
<g>
	<g>
		<defs>
			<rect id="SVGID_25_" x="-0.4" y="-14.4" width="747.6" height="152.2"/>
		</defs>
		<clipPath id="SVGID_2_">
			<use xlink:href="#SVGID_25_"  overflow="visible"/>
		</clipPath>
		<g clip-path="url(#SVGID_2_)">
			<text transform="matrix(1 0 0 1 485.2213 24.9219)" fill="#47B549" font-family="'ATCOverlook-Medium'" font-size="21.8376px"> Significant</text>
		</g>
		<g clip-path="url(#SVGID_2_)">
			<defs>
				<rect id="SVGID_27_" x="-0.4" y="-14.4" width="747.6" height="152.2"/>
			</defs>
			<clipPath id="SVGID_4_">
				<use xlink:href="#SVGID_27_"  overflow="visible"/>
			</clipPath>
			<path clip-path="url(#SVGID_4_)" fill="#47B549" d="M615,17.1c1.7,6.8,2.8,13.5,1.1,20.3c-1.7,7-4.3,13.7-7.7,20
				c-2,3.7-4.4,7-7,10.2c-0.9,1-1.2,2-0.3,3.2c0.7,1,2.2,1.6,3.1,2.4c0.9,0.8,1.7,1.5,2.8,2.2c0.1-0.4,0.3-0.9,0.5-1.3
				c-5.5-0.3-9.9,1.9-14.9,3.6c0.2,0.4,0.4,0.8,0.6,1.2c1.7-1.2,2.2-3,2.4-5c0.4-3.7,0.1-7.5,0.4-11.2c-0.2,0.2-0.5,0.4-0.7,0.6
				c-0.6-0.1,0,0.5,0.3,1c0.5,0.8,0.9,1.6,1.3,2.4c0.6,1,1.1,2,1.6,3c0.4,0.8,1.7,0.2,1.2-0.6c-0.8-1.5-1.6-3-2.4-4.5
				c-0.4-0.7-1-2.6-2-2.7c-0.4,0-0.7,0.3-0.7,0.6c-0.2,3-0.2,6-0.3,9c0,2.2-0.1,4.7-2.1,6.1c-0.6,0.4-0.1,1.5,0.6,1.2
				c4.9-1.6,9.2-3.8,14.6-3.5c0.7,0,1-0.9,0.4-1.3c-1.5-1-5.8-3.9-5.2-5.7c0.4-1,2-2.4,2.7-3.3c2.9-4,5.2-8.5,7.2-13
				c2.6-5.9,4.9-12.3,5.7-18.8c0.7-5.5-0.8-11.4-2.3-16.6C615.7,16.4,614.9,16.6,615,17.1"/>
			<path clip-path="url(#SVGID_4_)" fill="#47B549" d="M599.3,69.3c-2.1-1.9-3.9-4-5.7-6.1c-0.5-0.6-1.3-0.1-1.2,0.6
				c0.3,2.5,0.2,5.1,0.1,7.6c-0.1,2.4-0.8,4.5-1.2,6.8c-0.1,0.6,0.7,0.9,1.2,0.6c1.7-1.4,1.5-5.1,1.6-6.9c0.1-2.8,0.1-5.6-0.3-8.3
				c-0.4,0.2-0.8,0.4-1.2,0.6c1.9,2.1,3.8,4.2,6.1,5.9C599.1,70.3,599.7,69.7,599.3,69.3"/>
			<g clip-path="url(#SVGID_4_)">
				<text transform="matrix(1 0 0 1 -0.226 73.7588)"><tspan x="0" y="0" fill="#41464E" font-family="'ATCOverlook-Regular'" font-size="21.8376px">G</tspan><tspan x="16.7" y="0" fill="#41464E" font-family="'ATCOverlook-Regular'" font-size="21.8376px">O</tspan><tspan x="34.2" y="0" fill="#41464E" font-family="'ATCOverlook-Regular'" font-size="21.8376px">VERNMEN</tspan><tspan x="140.9" y="0" fill="#41464E" font-family="'ATCOverlook-Regular'" font-size="21.8376px">T </tspan><tspan x="160.5" y="0" fill="#41464E" font-family="'ATCOverlook-Regular'" font-size="21.8376px">EXPERIENCE</tspan></text>
			</g>
			
				<line clip-path="url(#SVGID_4_)" fill="none" stroke="#222B37" stroke-width="0.4461" stroke-miterlimit="10" x1="-0.4" y1="98.1" x2="743.8" y2="98.1"/>
			
				<line clip-path="url(#SVGID_4_)" fill="none" stroke="#222B37" stroke-width="0.8922" stroke-miterlimit="10" x1="-0.4" y1="99.5" x2="743.8" y2="99.5"/>
			
				<line clip-path="url(#SVGID_4_)" fill="none" stroke="#222B37" stroke-width="0.4461" stroke-miterlimit="10" x1="-0.4" y1="100.8" x2="743.8" y2="100.8"/>
			<path clip-path="url(#SVGID_4_)" fill="#47B549" d="M572.5,110.7c6.9,0,12.5-5.6,12.5-12.5c0-6.9-5.6-12.5-12.5-12.5
				c-6.9,0-12.5,5.6-12.5,12.5C559.9,105,565.5,110.7,572.5,110.7"/>
		</g>
	</g>
</g>
</svg>
