<?xml version="1.0" encoding="utf-8"?>
<!-- Generator: Adobe Illustrator 19.1.0, SVG Export Plug-In . SVG Version: 6.00 Build 0)  -->
<!DOCTYPE svg PUBLIC "-//W3C//DTD SVG 1.1//EN" "http://www.w3.org/Graphics/SVG/1.1/DTD/svg11.dtd">
<svg version="1.1" id="Layer_1" xmlns="http://www.w3.org/2000/svg" xmlns:xlink="http://www.w3.org/1999/xlink" x="0px" y="0px"
	 width="743.3px" height="116px" viewBox="0 0 743.3 116" enable-background="new 0 0 743.3 116" xml:space="preserve">
<g>
	<defs>
		<rect id="SVGID_3_" x="-0.4" y="-14.8" width="765.4" height="148.9"/>
	</defs>
	<clipPath id="SVGID_2_">
		<use xlink:href="#SVGID_3_"  overflow="visible"/>
	</clipPath>
	<g clip-path="url(#SVGID_2_)">
		<text transform="matrix(1 0 0 1 508.8384 24.4746)"><tspan x="0" y="0" fill="#E86380" font-family="'ATCOverlook-Medium'" font-size="21.8433px">L</tspan><tspan x="13" y="0" fill="#E86380" font-family="'ATCOverlook-Medium'" font-size="21.8433px">o</tspan><tspan x="25.5" y="0" fill="#E86380" font-family="'ATCOverlook-Medium'" font-size="21.8433px" letter-spacing="-1">w</tspan><tspan x="41.9" y="0" fill="#E86380" font-family="'ATCOverlook-Medium'" font-size="21.8433px">. R</tspan><tspan x="67.4" y="0" fill="#E86380" font-family="'ATCOverlook-Medium'" font-size="21.8433px">e</tspan><tspan x="79.3" y="0" fill="#E86380" font-family="'ATCOverlook-Medium'" font-size="21.8433px">lati</tspan><tspan x="111.4" y="0" fill="#E86380" font-family="'ATCOverlook-Medium'" font-size="21.8433px">v</tspan><tspan x="122.9" y="0" fill="#E86380" font-family="'ATCOverlook-Medium'" font-size="21.8433px">e</tspan><tspan x="134.8" y="0" fill="#E86380" font-family="'ATCOverlook-Medium'" font-size="21.8433px">ly </tspan><tspan x="159.4" y="0" fill="#E86380" font-family="'ATCOverlook-Medium'" font-size="21.8433px">N</tspan><tspan x="175.4" y="0" fill="#E86380" font-family="'ATCOverlook-Medium'" font-size="21.8433px">e</tspan><tspan x="187.5" y="0" fill="#E86380" font-family="'ATCOverlook-Medium'" font-size="21.8433px">w </tspan></text>
	</g>
	<g clip-path="url(#SVGID_2_)">
		<text transform="matrix(1 0 0 1 508.8384 46.3188)"><tspan x="0" y="0" fill="#E86380" font-family="'ATCOverlook-Medium'" font-size="21.8433px">to G</tspan><tspan x="44" y="0" fill="#E86380" font-family="'ATCOverlook-Medium'" font-size="21.8433px">o</tspan><tspan x="56.4" y="0" fill="#E86380" font-family="'ATCOverlook-Medium'" font-size="21.8433px">v</tspan><tspan x="67.9" y="0" fill="#E86380" font-family="'ATCOverlook-Medium'" font-size="21.8433px">e</tspan><tspan x="79.6" y="0" fill="#E86380" font-family="'ATCOverlook-Medium'" font-size="21.8433px">r</tspan><tspan x="87.8" y="0" fill="#E86380" font-family="'ATCOverlook-Medium'" font-size="21.8433px">nm</tspan><tspan x="119.5" y="0" fill="#E86380" font-family="'ATCOverlook-Medium'" font-size="21.8433px">e</tspan><tspan x="131.3" y="0" fill="#E86380" font-family="'ATCOverlook-Medium'" font-size="21.8433px">nt</tspan></text>
	</g>
	<g clip-path="url(#SVGID_2_)">
		<defs>
			<rect id="SVGID_5_" x="-0.4" y="-14.8" width="765.4" height="148.9"/>
		</defs>
		<clipPath id="SVGID_4_">
			<use xlink:href="#SVGID_5_"  overflow="visible"/>
		</clipPath>
		<g clip-path="url(#SVGID_4_)">
			<text transform="matrix(1 0 0 1 -0.225 68.0366)"><tspan x="0" y="0" fill="#41464E" font-family="'ATCOverlook-Regular'" font-size="21.8433px">G</tspan><tspan x="16.7" y="0" fill="#41464E" font-family="'ATCOverlook-Regular'" font-size="21.8433px">O</tspan><tspan x="34.2" y="0" fill="#41464E" font-family="'ATCOverlook-Regular'" font-size="21.8433px">VERNMEN</tspan><tspan x="140.9" y="0" fill="#41464E" font-family="'ATCOverlook-Regular'" font-size="21.8433px">T </tspan><tspan x="160.6" y="0" fill="#41464E" font-family="'ATCOverlook-Regular'" font-size="21.8433px">EXPERIENCE</tspan></text>
		</g>
		
			<line clip-path="url(#SVGID_4_)" fill="none" stroke="#222B37" stroke-width="0.4462" stroke-miterlimit="10" x1="-0.4" y1="92.4" x2="744" y2="92.4"/>
		
			<line clip-path="url(#SVGID_4_)" fill="none" stroke="#222B37" stroke-width="0.8925" stroke-miterlimit="10" x1="-0.4" y1="93.8" x2="744" y2="93.8"/>
		
			<line clip-path="url(#SVGID_4_)" fill="none" stroke="#222B37" stroke-width="0.4462" stroke-miterlimit="10" x1="-0.4" y1="95.1" x2="744" y2="95.1"/>
		<path clip-path="url(#SVGID_4_)" fill="#E86380" d="M152.5,106.9c6.9,0,12.5-5.6,12.5-12.5c0-6.9-5.6-12.5-12.5-12.5
			S140,87.4,140,94.3C140,101.2,145.6,106.9,152.5,106.9"/>
		<path clip-path="url(#SVGID_4_)" fill="#E86380" d="M154.5,91.3c-11.5-24.5,7.9-46.1,24.5-50c14.7-3.4,30.5-1.6,45.3-1
			c31.1,1.3,62.4,6.5,93.4,9c95.3,2.6,114.4,0.5,125.9-2.8c10.9-3.2,26.8-9.9,26.6-20c-0.3-10.1-0.7-8.8-1.1-12.4
			c-0.2-1.9,20.6,10.9,23.5,12.5c2.6,1.5-4.5,7.7-6,9.6c-3.8,4.5-7.5,9-11,13.7c-0.9,1.2,0.5,3.2,1.4,1.9
			c6.1-8.4,12.8-16.2,19.4-23.8c0.4-0.5,0.3-1.7-0.2-2c-9.5-5.7-18.9-11.4-28.4-17.1c-0.7-0.4-1.4,0.3-1.3,1.3
			c0.4,4.1,2.1,10.9,1.6,14.9c-0.8,5.6-7.5,9.4-12,12.2c-16.2,10.6-34.7,10.8-52.4,10.9c-37.9,0.1-75.6-1.6-113.4-4.8
			c-18.9-1.6-37.8-3.2-56.8-4.2c-16.8-0.8-34.3-2.7-51,0.2C164.9,42.5,140.9,64.3,154.5,91.3C154.5,91.4,154.5,91.4,154.5,91.3"/>
	</g>
</g>
</svg>
