<?xml version="1.0" encoding="utf-8"?>
<!-- Generator: Adobe Illustrator 19.1.0, SVG Export Plug-In . SVG Version: 6.00 Build 0)  -->
<!DOCTYPE svg PUBLIC "-//W3C//DTD SVG 1.1//EN" "http://www.w3.org/Graphics/SVG/1.1/DTD/svg11.dtd">
<svg version="1.1" id="Layer_1" xmlns="http://www.w3.org/2000/svg" xmlns:xlink="http://www.w3.org/1999/xlink" x="0px" y="0px"
	 width="75.5px" height="97px" viewBox="-214.2 352 75.5 97" style="enable-background:new -214.2 352 75.5 97;"
	 xml:space="preserve">
<style type="text/css">
	.st0{display:none;}
	.st1{fill:#E1ECED;}
	.st2{fill:#FBB040;}
</style>
<g id="paint" class="st0">
</g>
<g id="Layer_1_1_">
</g>
<g id="doodles">
</g>
<g id="Layer_4">
</g>
<g id="Layer_6">
</g>
<g id="light">
	<g>
		<path class="st1" d="M-186.7,428.1c-0.1,2.1,1,2.2,0.9,4.3c0,0.7,0.6,3.9,0.9,4.6c0.3,0.8,7.2,6.6,8,7c1.2,0.5,2.6,0.4,3.8,0
			c3.6-1,6.5-3.8,8.1-7.2c1.6-3.4,1.9-7.2,1.3-10.9C-166.9,428.2-182.8,427.6-186.7,428.1"/>
	</g>
	<g>
		<g>
			<path class="st2" d="M-187.7,419.1c-3-11.2-13.6-31.4-13.1-33.7c0.4-2,3.3-17.7,24.2-17.2c19.1,0.4,22.2,13.6,22.6,17.4
				c0.2,2.2-9.8,24.9-11.2,30.2c-0.5,2.1-0.7,4.2-0.9,6.3c-6.7-1-13.6-0.8-20.3,0.4C-186.9,421.4-187.3,420.2-187.7,419.1"/>
		</g>
		<g>
			<g>
				<path d="M-189.3,420.2c-2.7-11.7-9.5-21.9-12.9-33.3c-2-6.7,5.6-14.4,11-17c11.7-5.5,30-2.7,35.2,10.4c2.9,7.5-2.9,16-5.7,22.8
					c-2,4.9-4.5,9.9-5.5,15.1c-0.4,2.3,0.2,3.5-2.3,4c-2.3,0.5-5.6-0.3-8-0.3s-4.8,0.2-7.1,0.5c-2.6,0.3-3.1-0.1-4.2-2.5
					c-0.4-0.8-1.6-0.2-1.4,0.6c0.3,1.3,0.7,2.5,1.1,3.7c0.2,0.5,0.6,0.8,1.2,0.7c6.9-1.2,13.9-1.5,20.9-0.4c0.7,0.1,1.2-0.3,1.2-0.9
					c1-11.9,7.3-22.7,11.2-33.8c2.2-6.2,0.1-12.1-4.6-16.8c-8.2-8.1-23.6-8.9-33.5-3.7c-5.2,2.8-11.1,9.3-11.2,15.7
					c-0.1,3.9,3.2,8.8,4.7,12.2c3.4,7.6,7,15.3,9.6,23.2C-189.7,420.7-189.2,420.6-189.3,420.2L-189.3,420.2z"/>
			</g>
		</g>
		<g>
			<g>
				<path d="M-181.5,422.9c-0.8-1.7-0.8-4-1.1-5.8c-0.6-3.3-1.2-6.6-2-9.8c-0.7-2.9-1.9-10.3-5.4-11.4c-3.1-1-4.7,3-3.1,5.2
					c2.6,3.7,7.5,4.4,10.9,1.8s8-8.4,7.5-13.1c-0.4-3.6-5.5-4.7-7.7-1.9c-3,3.9,1.6,10,4.5,12.2c2.6,2.1,10,5.2,13,2.2
					c2.6-2.6,0.4-9.1-3.7-6.5c-2.1,1.4-4,4.4-4.8,6.7c-2,5.9-2.1,14.5-1.7,20.6c0,0.5,0.8,0.7,0.9,0.1c1.1-6.9-0.4-15.5,2.7-21.9
					c0.4-0.9,1.2-2.2,1.9-2.9c1.8-1.6,4.7-1.9,3.8,1.5c-0.8,3.1-3.7,2.3-6.2,1.6c-2.9-0.8-5.4-2.2-7.3-4.5c-1.4-1.7-5.8-9.3,0.6-9.5
					c6.7-0.2-0.2,10.3-1.9,12.2c-2.7,3.1-7.9,5.6-11,1.1c-3.2-4.6,0.9-4.6,2.2-3.4c0.6,0.5,1,1.4,1.3,2.1c0.9,1.8,1.5,3.8,2,5.7
					c1.1,3.8,1.9,7.7,2.7,11.6c0.4,1.9,0.7,4.4,1.8,6.1C-181.5,423-181.4,423-181.5,422.9L-181.5,422.9z"/>
			</g>
		</g>
		<g>
			<g>
				<path d="M-189,428.1c0.1,2.5,0.5,7.2,1.8,9.5c1.3,2.3,5.4,5.5,7.7,6.7c3.6,1.8,8-1.1,10.4-3.7c3.7-4.1,4.4-9.5,3.7-14.8
					c0-0.3-0.4-0.4-0.6-0.2c-6.7,3.9-15.9-0.1-22.9,2.1c-0.5,0.2-0.4,0.9,0.1,0.9c4.3,0.3,9-0.2,13.4-0.5c2-0.1,4-0.3,6-0.6
					c0.7-0.1,2.2-0.8,2.8-0.7c1.3,0.2,0.8,1.6,0.7,3.1c-0.3,5.6-3.3,12.3-9.4,13.6c-3.7,0.8-5.5-1.4-7.9-3.5c-1.6-1.4-3-2.4-3.7-4.5
					c-0.7-2.3-1.3-5.2-1.7-7.5C-188.6,427.8-189,427.9-189,428.1L-189,428.1z"/>
			</g>
		</g>
		<g>
			<g>
				<path d="M-186.2,430.5c6.1,1.1,12.3,1.6,18.4,2.6c0-0.3,0-0.6,0-0.9c-4.1,1.1-8.1,2.2-12.2,3.3c-0.5,0.1-0.4,1,0.1,1
					s5.1-0.2,5.2,0.3c0.1,0.3-3.3,2.7-3.6,3c-0.3,0.2-0.1,0.6,0.1,0.8c1.2,0.9,0.7,0.6,2.2,1.1c0.4,0.1,0.6-0.5,0.3-0.6
					c-2.6-1.3,2-2.9,2.2-4.6c0-0.2-0.1-0.4-0.2-0.4c-1.8-0.9-4.2-0.6-6.2-0.6c0,0.3,0.1,0.6,0.1,1c4.1-1.1,8.1-2.3,12.2-3.4
					c0.4-0.1,0.5-0.8,0-0.9c-6.1-1-12.4-2.2-18.6-2C-186.3,430.3-186.3,430.5-186.2,430.5L-186.2,430.5z"/>
			</g>
		</g>
	</g>
	<g>
		<g>
			<path d="M-154.1,372.7c3-1,6-2.5,8.3-4.6c0.3-0.2-0.2-0.7-0.4-0.5c-2.8,1.6-5.5,3.1-8.4,4.5C-155,372.2-154.5,372.8-154.1,372.7
				L-154.1,372.7z"/>
		</g>
	</g>
	<g>
		<g>
			<path d="M-151.9,390.9c2.8,1.7,6,2.4,9.2,1.7c0.4-0.1,0.1-0.7-0.3-0.7c-3,0.4-6,0-8.7-1.5C-152.1,390.3-152.2,390.7-151.9,390.9
				L-151.9,390.9z"/>
		</g>
	</g>
	<g>
		<g>
			<path d="M-159.1,409.7c0.5,1.2,1.9,1.9,3,2.4c1.5,0.7,3.1,1.1,4.8,1c0.5,0,0.1-0.7-0.2-0.8c-2.1-0.4-5.4-1-6.8-2.9
				C-158.6,409.2-159.3,409.2-159.1,409.7L-159.1,409.7z"/>
		</g>
	</g>
	<g>
		<g>
			<path d="M-188,364c-0.1-1.1-0.7-2.2-0.9-3.4c-0.3-1.3-0.3-2.7-0.3-4c0-0.4-0.6-0.7-0.7-0.2c-0.6,2.4-0.6,5.9,1.3,7.8
				C-188.4,364.4-188,364.3-188,364L-188,364z"/>
		</g>
	</g>
	<g>
		<g>
			<path d="M-203.6,373.7c-1.1-0.8-2.5-1.3-3.7-2c-1.3-0.8-2.5-1.8-3.4-3c-0.3-0.3-1.1-0.3-0.8,0.3c0.8,1.7,2.2,2.8,3.8,3.7
				c1,0.6,3.2,2,4.2,1.2C-203.5,373.8-203.5,373.7-203.6,373.7L-203.6,373.7z"/>
		</g>
	</g>
	<g>
		<g>
			<path d="M-204.5,393.4c-0.4,0.4-1.3,0.4-1.8,0.5c-0.7,0.1-1.3,0.3-2,0.4c-1.4,0.2-2.9,0.1-4.2,0.4c-0.7,0.1-0.2,1,0.3,1.1
				C-211.1,396-203.6,395.4-204.5,393.4C-204.4,393.4-204.5,393.4-204.5,393.4L-204.5,393.4z"/>
		</g>
	</g>
	<g>
		<g>
			<path d="M-197,410.9c-2.1,1.7-4.3,3.1-6.8,4.1c-0.7,0.3,0.1,1.3,0.7,1.1C-200.5,415.2-198.2,413.4-197,410.9L-197,410.9
				L-197,410.9z"/>
		</g>
	</g>
	<g>
		<g>
			<path d="M-170.2,363.7c0.9-0.5,1.5-1.8,1.9-2.7c0.7-1.4,1.1-2.8,1.4-4.3c0.1-0.3-0.5-0.7-0.7-0.3c-0.6,1.2-1,2.5-1.6,3.8
				c-0.4,1-0.8,2.1-1.6,2.9C-171,363.3-170.6,363.8-170.2,363.7L-170.2,363.7z"/>
		</g>
	</g>
</g>
</svg>
