<?xml version="1.0" encoding="utf-8"?>
<!-- Generator: Adobe Illustrator 19.1.0, SVG Export Plug-In . SVG Version: 6.00 Build 0)  -->
<!DOCTYPE svg PUBLIC "-//W3C//DTD SVG 1.1//EN" "http://www.w3.org/Graphics/SVG/1.1/DTD/svg11.dtd">
<svg version="1.1" id="Layer_1" xmlns="http://www.w3.org/2000/svg" xmlns:xlink="http://www.w3.org/1999/xlink" x="0px" y="0px"
	 width="359px" height="349.6px" viewBox="0 0 359 349.6" enable-background="new 0 0 359 349.6" xml:space="preserve">
<g>
	<g opacity="0.57">
		<path fill="#6880BF" d="M48.7,106.5c14.4-11.1,48.6-23.9,48.6-23.9l-4.4,34.9c0,0,21.9-27.2,37.1-35.2
			c74.7-39.6,128,14.3,128,14.3l40.7,17l-5.5-50.4c0,0-39.9-42.8-114.3-40.6c-73.4,2.1-121.3,61-130.2,81.2"/>
	</g>
	<g opacity="0.57">
		<path fill="#6880BF" d="M282.1,125c11.1,24.5,18.4,56.8,13.5,83.2c-6.1,33.7-29.5,64.3-60.4,79.1c-5.1,2.4-37.3,28.6-37.3,28.6
			l48.3,16.3c0,0,68.5-29.9,83.4-73.9c34.1-100.7-15.8-169.2-15.8-169.2l-3,56.9l-31.1-20.6"/>
	</g>
	<g opacity="0.57">
		<path fill="#6880BF" d="M66.1,275.3c-4.4-15.9-6.6-49-6.6-49s53.8,62.5,133.5,68l-33.4,14.3c0,0,14.6,16.5,28,27.7
			c-21.6-0.5-81-7.2-120.7-57.9"/>
	</g>
	<g>
		<g>
			<path fill="#3F4251" d="M51.1,99.2c14.4-10.4,32-17.4,48.5-23.6c-0.3-0.3-0.7-0.5-1-0.8c-1.5,11.6-2.9,23.2-4.4,34.9
				c-0.1,0.7,1,1.1,1.4,0.6c10-12.3,21.5-25.9,35.2-34.1c21.5-12.8,48.4-18.1,73.1-14c15.8,2.7,31.3,9,44.4,18.3
				c5,3.5,9,8.3,14.6,10.7c12.5,5.3,25,10.5,37.5,15.7c0.7,0.3,1.6-0.4,1.5-1.1c-0.8-7.4-1.5-14.8-2.3-22.2
				c-0.9-9-1.1-18.4-2.9-27.3c-0.6-2.8-3-4.3-5.1-6.2c-6.4-5.5-13.3-10.3-20.6-14.5c-26.2-15.2-56.4-22.5-86.6-22.3
				c-31.9,0.3-62.5,11.3-88.2,30c-18.5,13.5-36.9,31-46.4,52.2c-0.6,1.3,1.3,2.4,1.9,1.1c3.1-6.8,8.4-13.5,13.1-19.3
				c7.2-9,15.4-17.2,24.3-24.6c23.4-19.5,52.2-32.9,82.7-35.9c31.2-3,63.9,3,91.8,17.6c8.2,4.3,16.1,9.3,23.3,15.2
				c1.9,1.6,3.9,3.2,5.7,4.9c0.9,0.8,2,2.7,1.4,0.9c0.8,2.6,0.6,5.9,0.9,8.6c0.6,5.7,1.2,11.4,1.9,17.1c1,8.2,1.9,16.5,2.8,24.7
				c0.5-0.4,1-0.8,1.5-1.1c-11.7-4.9-23.5-9.8-35.2-14.7c-1.7-0.7-3.8-1.3-5.4-2.2c0.7,0.4-0.2-0.2-0.7-0.7
				c-2.9-2.7-6.2-5.2-9.5-7.4c-13.4-9.2-28.3-15.9-44.3-18.9c-23.2-4.3-46.8-0.2-68,9.7c-17.7,8.3-31.5,23.5-43.7,38.6
				c0.5,0.2,0.9,0.4,1.4,0.6c1.5-11.6,2.9-23.2,4.4-34.9c0.1-0.5-0.6-1-1-0.8c-16.7,6.3-34.6,13.3-48.7,24.4
				C50,98.8,50.6,99.6,51.1,99.2L51.1,99.2z"/>
		</g>
	</g>
	<g>
		<g>
			<path fill="#3F4251" d="M266.5,103.6C266.5,103.6,266.5,103.5,266.5,103.6C266.5,103.5,266.5,103.6,266.5,103.6L266.5,103.6z"/>
		</g>
	</g>
	<g>
		<g>
			<path fill="#3F4251" d="M283.9,117.4c14,35.6,20.4,76.4,2.3,111.7c-8.3,16.1-20.5,30.4-35.5,40.7c-5.4,3.7-11.4,6.2-16.8,9.8
				c-4,2.7-7.9,5.7-11.7,8.7c-7.9,6-15.7,12.2-23.4,18.4c-1.2,1-0.4,2.7,0.8,3.2c7.6,2.5,15.2,5.1,22.7,7.6
				c5.5,1.8,10.9,3.7,16.4,5.5c2.7,0.9,6.1,2.7,9,3c3.9,0.3,9.4-3.9,12.7-5.6c10.6-5.6,20.9-12,30.5-19.1
				c11.4-8.4,22.2-18,30.8-29.4c10.5-13.8,15.2-30.3,18.8-47.1c7.1-32.9,6.6-67.4-2.9-99.8c-4.5-15.4-10.6-31.6-20.1-44.7
				c-1-1.4-3.1-0.9-3.2,0.9c-1,19-1.9,38-3,56.9c0.8-0.5,1.7-1,2.5-1.4c-5.2-3.4-10.4-6.9-15.5-10.3c-3.5-2.4-7-4.9-10.7-7
				c-1.7-0.9-3.6-1.6-5.2-2.7c-1.1-0.7-2.2,1.1-1.1,1.8c1.7,1.1,3.2,2.7,4.8,4c3.3,2.5,7,4.6,10.4,6.9c5.2,3.4,10.4,6.8,15.6,10.2
				c1.1,0.7,2.4-0.2,2.5-1.4c1-19,2.1-38,3.1-56.9c-1.1,0.3-2.1,0.6-3.2,0.9c7.4,10.2,12.5,22.4,16.6,34.1
				c10.1,28.8,13,59.9,9.3,90.2c-2.3,18.4-6.1,39-15.4,55.2c-7.2,12.5-17.7,22.9-29,31.9c-14.6,11.6-31.2,21.9-48.3,29.3
				c1.1-0.5,1.4,0.3,0.1-0.5c-1.4-0.8-3.4-1.1-4.9-1.7c-5.6-1.9-11.1-3.8-16.7-5.7c-8.5-2.9-17-5.8-25.5-8.7
				c0.3,1.1,0.6,2.1,0.8,3.2c7.1-5.7,14.1-11.4,21.2-17c4.3-3.4,8.6-6.8,13.2-9.9c5.7-3.8,12.1-6.5,17.8-10.5
				c28.9-20.6,47.8-54.8,47.4-90.6c-0.3-22.4-6.3-44.4-16.5-64.3C284.4,116.7,283.7,117,283.9,117.4L283.9,117.4z"/>
		</g>
	</g>
	<g>
		<g>
			<path fill="#3F4251" d="M69,267.4c-3.7-15.9-5.2-32.5-6.2-48.8c-0.6,0.3-1.3,0.5-1.9,0.8c7,8.2,15.4,15.5,23.7,22.2
				c18.7,15.1,39.5,27.6,62.2,36c15.6,5.7,31.8,9.3,48.3,10.5c-0.2-0.9-0.5-1.8-0.7-2.8c-11.2,4.8-22.3,9.5-33.5,14.3
				c-1,0.4-0.9,1.8-0.3,2.4c8.6,9.9,17.9,19.4,27.9,27.9c0.4-1,0.8-1.9,1.2-2.9c-17.9-0.6-35.7-3.9-52.5-9.9
				c-12-4.3-23.5-9.9-34.2-17c-12.8-8.5-22.5-19.4-33.2-30.1c-0.9-0.9-2.4,0.3-1.7,1.3c7.7,12.5,20.1,22.7,32.1,30.9
				c10.7,7.3,22.3,13.1,34.4,17.6c17.6,6.5,36.4,10.2,55.1,10.6c1.4,0,2.4-1.9,1.2-2.9c-10.1-8.4-19.4-17.8-28.1-27.6
				c-0.1,0.8-0.2,1.6-0.3,2.4c11.1-4.8,22.3-9.6,33.4-14.4c1.5-0.6,0.5-2.7-0.7-2.8c-47.1-3.4-91.7-27.1-125.4-59.7
				c-2.5-2.4-5-4.9-7.3-7.6c-0.6-0.7-1.9-0.2-1.9,0.8c1.1,16.3,2.1,33.6,6.9,49.3C67.8,268.8,69.2,268.4,69,267.4L69,267.4z"/>
		</g>
	</g>
	
		<circle fill="none" stroke="#3F4251" stroke-width="1.4919" stroke-miterlimit="10" stroke-dasharray="4.5085,3.0058" cx="190.8" cy="174.4" r="133.5"/>
	<g>
		<path fill="#FFFFFF" d="M52.5,119.6c-11.3,0.5-22.6,1.1-34,1.6c-1,0-2.1,0.1-2.8,0.9c-0.7,0.8-0.7,1.9-0.6,2.9
			c2.1,27.6,5.6,55.1,10.6,82.4c24.4-0.9,48.8-1.8,73.2-2.7c1.5-27.6-0.7-55.4-6.5-82.4c-0.1-0.5-0.2-1.1-0.6-1.4
			c-0.5-0.5-1.3-0.6-2.1-0.6c-11.2-0.1-22.4,0-33.6,0.3"/>
	</g>
	<g opacity="0.57">
		<path fill="#6880BF" d="M58.1,119.9c-11.3-0.1-22.7-0.3-34-0.4c-1,0-2.1,0-2.8,0.7c-0.7,0.7-0.8,1.9-0.7,2.9
			c0.5,27.7,2.4,55.4,5.7,82.9c24.4,0.5,48.9,1.1,73.3,1.6c3.2-27.4,2.6-55.3-1.7-82.6c-0.1-0.5-0.2-1.1-0.5-1.5
			c-0.5-0.5-1.3-0.6-2-0.7c-11.2-0.8-22.4-1.3-33.6-1.7"/>
	</g>
	<g>
		<g>
			<path fill="#3F4251" d="M52.5,116.9c-5.7,0-11.3,0.2-17,0.3c-5.7,0.2-11.8-0.2-17.5,0.6c-2.1,0.3-3.4,0.9-4,3.1
				c-1.1,4.5,0.6,10.8,1,15.4c2,23.2,5.2,46.4,9.2,69.3c0.1,0.6,0.9,1.1,1.5,1.1c24.4-0.6,48.8-1.6,73.2-2.5c1,0,1.7-0.8,1.7-1.7
				c0.3-5.4,1-11,1.1-16.4c0.1-5.4-0.5-11-0.9-16.4c-0.7-10.7-1.8-21.4-3.5-32.1c-0.9-5.4-1.8-10.8-3-16.1c-0.6-2.8-1.1-4.5-4-5
				c-5.2-0.9-11.1-0.1-16.4,0c-5.9,0.1-11.9,0.2-17.8,0.4c-1.9,0.1-1.9,2.9,0,2.9c9.9-0.2,19.8-0.3,29.7-0.2c3.5,0,4.3-0.4,5.5,2.8
				c0.9,2.3,1,5.2,1.5,7.6c0.9,4.9,1.7,9.8,2.3,14.8c1.2,9.6,2,19.2,2.2,28.8c0.1,4.5-0.5,9.1-0.3,13.5c0.3,5.2,0.5,10.1,0.2,15.4
				c0.6-0.6,1.1-1.1,1.7-1.7c-24.4,0.9-48.8,1.7-73.2,2.8c0.5,0.4,1,0.8,1.5,1.1c-3.7-20.2-6.6-40.4-8.8-60.8
				c-0.6-5.1-1.1-10.3-1.5-15.4c-0.1-1.5-0.8-4.4-0.5-5.8c0.7-3.1,3.2-2.7,6-2.9c10.1-0.6,20.2-1.1,30.2-2.1
				C53.1,117.7,53.1,116.9,52.5,116.9L52.5,116.9z"/>
		</g>
	</g>
</g>
</svg>
