<?xml version="1.0" encoding="utf-8"?>
<!-- Generator: Adobe Illustrator 19.1.0, SVG Export Plug-In . SVG Version: 6.00 Build 0)  -->
<!DOCTYPE svg PUBLIC "-//W3C//DTD SVG 1.1//EN" "http://www.w3.org/Graphics/SVG/1.1/DTD/svg11.dtd">
<svg version="1.1" id="Layer_1" xmlns="http://www.w3.org/2000/svg" xmlns:xlink="http://www.w3.org/1999/xlink" x="0px" y="0px"
	 width="162.8px" height="249px" viewBox="0 0 162.8 249" enable-background="new 0 0 162.8 249" xml:space="preserve">
<g>
	<g>
		<g>
			<path fill="#E86380" d="M41.6,185.8c-6.1,12.1-6.2,25.2-5.5,38.4c0.4,7.4,11.4,11.8,15.1,4.1c2.3-4.6,4.5-9.3,6.8-13.9
				c1.1-2.3,2.2-4.6,3.4-7c0.4-0.9,0.9-1.9,1.4-2.8c-0.5,1.3,0.1,1.5,1.8,0.6c2.3,0.2,5.4-0.8,7.7-1.2c2.6-0.4,5.1-0.8,7.7-1.2
				c5.1-0.8,10.2-1.6,15.3-2.3c9.2-1.4,6.7-15.9-2.2-15.9c-10.5,0-20.9,1.3-31,4c-8.7,2.3-7.1,16.3,2.2,15.9
				c9.2-0.3,18.4-1.6,27.4-3.8c-2.6-4.5-5.3-9-7.9-13.6c-1.5,1.6-5.9,1.6-8,2.1c-3.8,0.8-7.5,1.6-11.3,2.4c-7.7,1.7-7.8,14.1,0,15.6
				c2.1,0.4,4.2,0.8,6.3,1.3c-1.6-4-3.2-7.9-4.8-11.9c-0.2,0.3-0.3,0.6-0.5,0.8c1-1,1.9-1.9,2.9-2.9c-2.2,1.6-5.3,2.3-7.9,3.2
				c-3.3,1.2-6.5,2.5-9.8,3.7c-8,3-7.6,16.3,2.2,15.9c8.5-0.3,17-0.6,25.5-0.9c-0.7-5.3-1.4-10.6-2.2-15.9
				c-4.3,1.8-8.7,3.2-13.3,4.2c-7.4,1.7-8,14.3,0,15.6c4.1,0.7,8.2,1.1,12.4,1c-2.3-4.1-4.7-8.1-7-12.2c0,0.8-0.4,1.4-1.1,1.6
				c-3.5,2.9-2.7,8.5,0,11.5c0.5,0.5,0.9,1.1,1.4,1.6c0.5-4.2,1.1-8.5,1.6-12.7c-3.7,2.7-7.5,4.9-11.8,6.4c-6,2.1-8.7,11.5-1.9,14.8
				c2.4,1.2,4.9,2.2,7.2,3.5c-1-1-1.9-1.9-2.9-2.9c0.1,0.1,0.2,0.3,0.3,0.4c-0.3-2.1-0.5-4.2-0.8-6.3c-0.3,0.7-2.4,2.7-2.9,3.3
				c-2.6,3.5-0.6,9.1,2.9,11.1c4.2,2.4,8.4,0.6,11.1-2.9c3-4,6.6-8.2,3.7-13.5c-2.1-3.8-6.7-5.1-10.3-6.9c-0.6,4.9-1.3,9.9-1.9,14.8
				c5.6-2,10.8-4.5,15.6-8c4.4-3.2,5.4-8.5,1.6-12.7c-0.5-0.5-0.9-1.1-1.4-1.6c0,3.8,0,7.6,0,11.5c1.6-1.3,2.9-2.9,3.7-4.8
				c2.3-5.3-0.3-12.4-7-12.2c-2.7,0.1-5.4,0-8.1-0.4c0,5.2,0,10.4,0,15.6c4.6-1.1,9-2.5,13.3-4.2c3.7-1.5,6.5-4.6,5.8-8.9
				c-0.6-3.8-3.9-7.2-8-7c-8.5,0.3-17,0.6-25.5,0.9c0.7,5.3,1.4,10.6,2.2,15.9c4.7-1.8,9.5-3.6,14.2-5.4c4.2-1.6,8.3-2.8,10.7-6.9
				c2.4-4.3,0.4-10.9-4.8-11.9c-2.1-0.4-4.2-0.8-6.3-1.3c0,5.2,0,10.4,0,15.6c8.3-1.8,20.3-2.2,26.5-8.7c5.6-5.9,0-15.5-7.9-13.6
				c-7.6,1.9-15.2,3-23.1,3.2c0.7,5.3,1.4,10.6,2.2,15.9c8.8-2.4,17.6-3.5,26.7-3.4c-0.7-5.3-1.4-10.6-2.2-15.9
				c-6.1,0.9-12.2,1.8-18.2,2.8c-5.7,0.9-12.8,0.8-18,3.3c-5,2.4-6.7,7-9,11.7c-2.8,5.8-5.6,11.6-8.5,17.4c5,1.4,10.1,2.7,15.1,4.1
				c-0.5-10-1.4-20.9,3.3-30.2C60.3,184.7,46.3,176.5,41.6,185.8L41.6,185.8z"/>
		</g>
	</g>
	<g>
		<path fill="#E86380" d="M111.7,199.9c-5.6,2.5-11.5,4.4-17.5,5.8c1.8,2.9,2.8,6.2,4.2,9.3s3,6.2,5.7,8.4c2.7,2.1,6.5,3,9.6,1.4
			c0.6-0.3,1.2-0.8,1.5-1.4c0.2-0.4,0-0.9,0.3-1.2c3.2-3.9,0.9-7.3,1.3-11"/>
	</g>
	<g>
		<g>
			<g>
				<path fill="#3F4251" d="M84.3,43.7C65.4,54.4,46.6,65,27.7,75.7C25.4,77,22,78.2,20.1,80c-1.5,1.4-2.3,4.2-3.1,6.1
					c-5,12.2-7,26.5-1.7,38.9c7.3,17.2,27.2,27,44.7,29.9c16.6,2.7,34,0,49.2-7.2c12.1-5.8,24.9-15.4,29-28.8
					c1.5-4.8,1.9-11.3-0.5-16c-1.2-2.4-3.4-4.6-5-6.7c-8.9-11.6-17.7-23.2-26.6-34.8c-5.3-7-11.3-12.9-17.6-19.1
					c-0.3-0.3-0.8-0.4-1.2-0.2C86.3,42.6,85.3,43.2,84.3,43.7c-1.2,0.6-0.1,2.4,1,1.8c0.8-0.4,2-1.4,2.9-1.5
					c-1.3,0.2-0.8-0.4,0.1,0.8c1.8,2.3,4.4,4.4,6.5,6.5c2.3,2.3,4.2,4,5.9,6.2c6.6,8.6,13.1,17.2,19.7,25.8
					c3.5,4.6,7.1,9.3,10.6,13.9c1.6,2,3.7,4.2,4.9,6.4c6.3,12.2-4.9,26.5-13.7,33.6c-26.9,21.6-74.9,24.1-98.9-3.5
					c-10.7-12.3-10.7-29.2-5.5-43.8c0.9-2.5,1.9-6.4,3.7-8.5c-0.7,0.8,0.8-0.3,1.1-0.5c1.4-0.7,2.7-1.5,4-2.3
					c19.6-11.1,39.2-22.1,58.7-33.2C86.4,44.8,85.4,43.1,84.3,43.7z"/>
			</g>
		</g>
		<path fill="#2E3191" d="M111.1,59.9L111.1,59.9C111,59.7,111.1,59.9,111.1,59.9z"/>
		<path fill="#2E3191" d="M111.1,59.9L111.1,59.9C111,59.7,111.1,59.9,111.1,59.9z"/>
		<g>
			<path fill="#3F4251" d="M72.2,51.2c0,0,0.3,1.4,0.6,3.8c0.2,1.2,0.3,2.7,0.5,4.4c0.2,1.7,0.3,3.6,0.4,5.8
				c0.2,4.2,0.1,9.2-0.4,14.4c-0.5,5.3-1.5,10.9-3.1,16.3c-1.6,5.5-3.9,10.7-6.7,15.3c-0.3,0.6-0.5,0.9-0.5,1.3
				c0,0.4,0.2,0.8,0.5,1.2c0.6,0.8,1.6,1.4,2.7,1.8c2.1,0.8,4.3,1,6.3,0.8c1-0.1,1.9-0.3,2.6-0.7c0.7-0.4,1.2-1.1,1.4-1.8
				c0.4-1.5,0-3-0.5-4.1c-0.5-1.1-1-1.9-1.5-2.4c-0.5-0.5-0.8-0.5-0.8-0.5s0.1,0,0.3,0.1c0.2,0,0.4,0.2,0.7,0.4
				c0.5,0.4,1.2,1.2,1.8,2.3c0.3,0.6,0.6,1.2,0.8,1.9c0.2,0.7,0.3,1.6,0.1,2.5c-0.2,0.9-0.7,1.9-1.6,2.6c-0.9,0.7-2,0.9-3.1,1.1
				c-2.2,0.4-4.6,0.3-7.1-0.5c-1.2-0.4-2.5-1-3.5-2.2c-0.5-0.6-0.9-1.4-0.9-2.3c-0.1-0.9,0.4-1.8,0.7-2.3c1.3-2.2,2.5-4.6,3.6-7.1
				c1.1-2.5,2-5.1,2.8-7.8c0.8-2.6,1.5-5.3,2-8c0.6-2.7,1-5.3,1.3-7.9c0.3-2.6,0.6-5.1,0.7-7.5c0.1-2.4,0.3-4.7,0.3-6.8
				c0.1-4.2,0-7.7-0.1-10.1C72.4,52.6,72.2,51.2,72.2,51.2z"/>
		</g>
		<g>
			<path fill="#3F4251" d="M40.2,96c0,0,0.2-0.5,0.6-1.2c0.4-0.8,1.1-1.8,2-3c0.5-0.6,1-1.2,1.6-1.8c0.6-0.6,1.3-1.3,2-1.9
				c0.4-0.3,0.8-0.6,1.2-0.9c0.4-0.3,0.8-0.6,1.2-0.8c0.9-0.5,1.8-1.1,2.7-1.4l1.4-0.6c0.5-0.2,1-0.3,1.5-0.4c1-0.3,2-0.4,2.9-0.5
				c1-0.2,1.9-0.1,2.8,0c0.4,0,0.9,0,1.3,0.1c0.4,0.1,0.8,0.2,1.2,0.2c0.7,0.2,1.4,0.3,2,0.5c0.6,0.2,1.1,0.4,1.5,0.6
				c0.8,0.3,1.3,0.5,1.3,0.5s-0.5,0-1.4-0.1c-0.4-0.1-1-0.1-1.5-0.2c-0.6-0.1-1.3,0-2-0.1c-0.4,0-0.7,0-1.1,0
				c-0.4,0-0.8,0.1-1.2,0.1c-0.8,0.1-1.7,0.1-2.6,0.3c-0.4,0.1-0.9,0.2-1.3,0.3c-0.4,0.1-0.9,0.3-1.3,0.4c-0.4,0.1-0.9,0.3-1.3,0.4
				l-1.3,0.6c-0.9,0.3-1.7,0.8-2.5,1.2c-0.8,0.5-1.6,0.9-2.3,1.5c-0.7,0.5-1.5,1-2.1,1.6c-0.7,0.5-1.2,1-1.8,1.5
				c-1.1,1-2,1.8-2.6,2.5C40.5,95.6,40.2,96,40.2,96z"/>
		</g>
		<g>
			<path fill="#3F4251" d="M79.6,90.1c0,0,0.1-0.1,0.2-0.3c0.1-0.2,0.3-0.5,0.6-0.8c0.3-0.3,0.6-0.8,1-1.2c0.4-0.4,0.9-0.9,1.5-1.3
				c0.6-0.4,1.3-0.9,2.1-1.2c0.8-0.4,1.7-0.7,2.7-0.8c0.5-0.1,1-0.2,1.5-0.1c0.5,0,1,0,1.5,0.1c1,0.1,2,0.5,3,0.9l1.4,0.7
				c0.5,0.3,0.8,0.5,1.2,0.8c0.2,0.1,0.4,0.3,0.6,0.4l0.6,0.5c0.4,0.3,0.8,0.6,1.1,1c0.7,0.6,1.3,1.4,1.8,2.1
				c0.5,0.7,0.9,1.5,1.1,2.2c0.3,0.7,0.4,1.4,0.4,2c0,0.6,0,1.2-0.1,1.6c-0.1,0.4-0.2,0.7-0.3,1c-0.1,0.2-0.2,0.3-0.2,0.3
				s0.1-0.5,0-1.3c0-0.4-0.1-0.9-0.2-1.4c-0.2-0.5-0.4-1.1-0.7-1.7c-0.1-0.3-0.3-0.6-0.6-0.9c-0.2-0.3-0.4-0.6-0.7-0.9
				c-0.5-0.6-1.1-1.1-1.7-1.7c-0.3-0.3-0.7-0.5-1-0.8c-0.3-0.2-0.7-0.5-1.1-0.8c-0.4-0.2-0.8-0.6-1.2-0.7l-1.2-0.6
				c-0.8-0.3-1.6-0.6-2.5-0.8c-0.4-0.1-0.8-0.1-1.3-0.2c-0.4-0.1-0.8,0-1.2,0c-0.8,0.1-1.6,0.2-2.3,0.4c-0.7,0.2-1.4,0.5-2,0.8
				c-0.6,0.3-1.2,0.6-1.6,0.9c-0.5,0.3-0.9,0.6-1.2,0.9C79.9,89.7,79.6,90.1,79.6,90.1z"/>
		</g>
		
			<path fill="#3F4251" stroke="#3F4251" stroke-width="2.044" stroke-linecap="round" stroke-linejoin="round" stroke-miterlimit="10" d="
			M83,128.8c0,0,22.1-3,33-13c0,0-6.3,19.7-20.6,25S75,129.7,75,129.7L83,128.8z"/>
		<path fill="#404041" d="M77.6,135.5c0,0,4.8,9.1,14.5,6.9c9.7-2.1,18.7-14.4,18.7-14.4S81.9,133.3,77.6,135.5z"/>
		<g>
			<path fill="#3F4251" d="M117.4,27.1c0,0,0.2-0.2,0.5-0.7c0.3-0.4,0.7-1,1.2-1.7c0.2-0.4,0.5-0.8,0.7-1.2c0.2-0.4,0.5-0.9,0.7-1.3
				c0.2-0.5,0.5-0.9,0.6-1.4l0.3-0.7l0.3-0.8c0.2-0.5,0.3-1,0.4-1.5c0.1-0.5,0.2-1,0.3-1.5c0.1-0.5,0.1-1,0.2-1.5
				c0.1-0.5,0.1-0.9,0.1-1.3c0-0.4,0.1-0.8,0.1-1.2c0-0.3,0-0.7,0-0.9c0-0.5,0-0.8,0-0.8s0.1,0.3,0.4,0.7c0.1,0.2,0.2,0.5,0.4,0.9
				c0.2,0.3,0.2,0.7,0.3,1.2c0.1,0.4,0.2,0.9,0.3,1.4c0,0.5,0.1,1.1,0.1,1.6c-0.1,0.6,0,1.2-0.2,1.8c-0.1,0.6-0.2,1.2-0.4,1.8
				l-0.3,0.9c-0.1,0.3-0.3,0.6-0.4,0.8c-0.2,0.6-0.6,1-0.9,1.5c-0.3,0.5-0.7,0.9-1,1.3c-0.3,0.4-0.7,0.7-1,1c-0.7,0.6-1.3,1-1.8,1.3
				C117.7,27,117.4,27.1,117.4,27.1z"/>
		</g>
		<g>
			<path fill="#3F4251" d="M123.3,26.2c0,0,0.9-0.9,2.7-1.6c0.4-0.2,0.9-0.4,1.5-0.5c0.5-0.2,1.1-0.3,1.7-0.4
				c0.6-0.1,1.2-0.1,1.9-0.2c0.6,0,1.3,0,1.9,0.1l1,0.2c0.3,0.1,0.6,0.2,0.9,0.3c0.6,0.2,1.2,0.5,1.7,0.8c0.6,0.2,1,0.7,1.5,1
				c0.2,0.2,0.4,0.3,0.6,0.5c0.2,0.2,0.3,0.4,0.5,0.6c0.3,0.4,0.6,0.7,0.8,1c0.2,0.3,0.4,0.6,0.5,0.9c0.3,0.5,0.4,0.8,0.4,0.8
				s-0.3-0.2-0.7-0.5c-0.2-0.2-0.5-0.4-0.8-0.6c-0.3-0.2-0.7-0.4-1-0.7c-0.4-0.2-0.8-0.5-1.2-0.7c-0.4-0.2-0.9-0.5-1.4-0.6
				c-0.2-0.1-0.5-0.2-0.8-0.3c-0.3-0.1-0.5-0.1-0.8-0.2c-0.3-0.1-0.5-0.1-0.8-0.2l-0.8-0.1c-0.5-0.1-1.1-0.1-1.7-0.2
				c-0.6,0-1.1-0.1-1.7,0c-0.5,0-1.1,0-1.6,0.1c-0.5,0-1,0.1-1.4,0.1c-0.9,0.1-1.6,0.2-2.2,0.3C123.7,26.2,123.3,26.2,123.3,26.2z"
				/>
		</g>
		<path fill="#3F4251" d="M108.5,59.4c3.3,2.8,6,7,18,3.7c14.8-4.1,15.3-23,13.2-27.6c-2.9-6.2-25-19.4-25-19.4
			c-26.7-5.7-26.4,17-26.4,17c0.1,0.3,0.3,0.7,0.4,1l0,0L88,34.4l-0.1-0.2c0,0-50.7-12.8-74.6,39c-0.7,1.5-2.5,7.8,2.8,7.4
			c12.3-0.9,54.3,2.3,73.3-30.5c0,0,20.7,49.6,49,57.6c0,0-1.4-7.7-3.1-11.5C133.7,92.5,121.8,74.3,108.5,59.4z M111.1,59.9
			L111.1,59.9C111,59.7,111.1,59.9,111.1,59.9z"/>
		<g>
			<path fill="#E86380" d="M87.9,34.2c0,0,0.1,0.1,0.4,0.2c0.2,0.1,0.6,0.3,0.9,0.6c0.8,0.5,1.9,1.4,3.1,2.4c1.2,1,2.5,2.3,3.8,3.7
				c0.7,0.7,1.3,1.4,2,2.2c0.7,0.8,1.3,1.6,1.9,2.4c0.6,0.8,1.2,1.6,1.8,2.4c0.6,0.8,1.2,1.6,1.7,2.4c0.5,0.8,1,1.6,1.5,2.3
				c0.5,0.7,0.9,1.4,1.3,2.1c0.8,1.3,1.5,2.4,1.9,3.2c0.3,0.3,0.5,0.7,0.6,0.9c0.2,0.2,0.2,0.3,0.2,0.3s-0.1,0-0.4,0
				c-0.3,0-0.7-0.1-1.2-0.2c-0.5-0.2-1-0.3-1.7-0.6c-0.6-0.3-1.3-0.7-2-1.1c-0.7-0.4-1.4-0.9-2.2-1.5c-0.7-0.6-1.5-1.2-2.2-1.9
				c-0.7-0.7-1.5-1.4-2.2-2.2c-0.7-0.8-1.4-1.6-2-2.4c-0.6-0.8-1.3-1.7-1.8-2.5c-0.6-0.9-1.1-1.7-1.6-2.6c-1-1.7-1.8-3.4-2.4-4.9
				c-0.6-1.5-1-2.8-1.2-3.8c-0.1-0.5-0.2-0.9-0.2-1.1C87.9,34.4,87.9,34.2,87.9,34.2z"/>
		</g>
	</g>
	<g>
		<g>
			<path fill="#3F4251" d="M66.1,155.3c-0.8,6.8-2.1,13.4-3.8,20c-0.3,1,1.3,1.4,1.5,0.4c1.3-6.8,2.2-13.6,2.7-20.5
				C66.6,155,66.1,155,66.1,155.3L66.1,155.3z"/>
		</g>
	</g>
	<g>
		<g>
			<path fill="#3F4251" d="M94.6,153.3c0.8,7,2.6,14,6.1,20.2c0.5,1,2,0.1,1.5-0.9c-3.2-6.3-5.7-12.4-7-19.4
				C95.2,152.9,94.5,152.9,94.6,153.3L94.6,153.3z"/>
		</g>
	</g>
	<g>
		<g>
			<path fill="#3F4251" d="M61.4,167.4c-5.7,3.4-21.6,11.9-12.5,19.3c8.9,7.3,23,4.3,33.3,2.4c7.3-1.3,14.5-3.1,21.5-5.3
				c4.4-1.4,9.9-2.6,12.7-6.7c2.1-3.1,2.1-7.4-1-9.8c-4.2-3.2-10.4-1.4-15.2-1.8c-1-0.1-1.2,1.5-0.2,1.8c3.7,0.8,7.4-0.4,11,0.4
				c6.8,1.6,5.3,8,0.8,10.8c-1.6,1-3.3,1.5-5.1,2.1c-8.1,2.9-16.6,4.9-25,6.4c-8.1,1.5-17.6,3.5-25.7,1c-1.8-0.6-3.7-1.4-5.2-2.4
				c-4.2-2.8-2-6.9,0.9-9.6c3.2-3,6.6-5.6,10.3-8C62.2,167.9,61.8,167.2,61.4,167.4L61.4,167.4z"/>
		</g>
	</g>
	<g>
		<g>
			<path fill="#3F4251" d="M47.2,177.8c-5.2,10.6-8.9,21.9-10.8,33.7c-0.9,5.4-1.3,10.9-1.4,16.5c0,2.5-0.5,5.9,2.3,6.8
				c1.1,0.3,1.8-1.3,0.8-1.9c-3-1.5-1.4-10.4-1.2-13.1c0.4-5.1,1-10.1,2.1-15.1c1.9-9.2,4.9-18,8.9-26.5
				C48.2,177.7,47.5,177.3,47.2,177.8L47.2,177.8z"/>
		</g>
	</g>
	<g>
		<g>
			<path fill="#3F4251" d="M109.5,199.9c-5.7,2.3-11.6,4.1-17.6,5.5c-0.3,0.1-0.3,0.4-0.2,0.6c3.7,6.9,5.4,18.5,14.7,20.1
				c9.2,1.7,8.2-8.5,8.6-14.8c0-0.5-0.8-0.6-0.9-0.1c-0.9,5.1-0.1,15.4-8.1,13.6c-5.8-1.3-8.3-7.3-10.3-12.2c-0.5-1.2-1.4-2.8-1.7-4
				c-1-1-1-1.9,0-2.9c1.2-0.3,2.4-0.6,3.6-1C101.7,203.4,105.6,201.8,109.5,199.9C109.6,199.9,109.6,199.9,109.5,199.9L109.5,199.9z
				"/>
		</g>
	</g>
	<g>
		<g>
			<path fill="#3F4251" d="M112.3,168.6c5,1,10.7,1.4,15.4,3.6c4.9,2.3,7.7,8.2,10.4,12.7c4.2,6.9,7.4,14.2,11.1,21.4
				c0.5,0.9,1.8,0.1,1.4-0.8c-3.9-9-8.6-17.8-13.9-26c-2.2-3.4-4.4-6.9-8.2-8.7c-4.7-2.1-11-2.1-16-2.7
				C112.1,168,112,168.5,112.3,168.6L112.3,168.6z"/>
		</g>
	</g>
	<g>
		<g>
			<path fill="#E86380" d="M57.6,173.2c0.1,0,0.1-0.2,0-0.2C57.5,173,57.5,173.2,57.6,173.2L57.6,173.2z"/>
		</g>
	</g>
	<g>
		<g>
			<path fill="#E86380" d="M64.5,216.5c5.2,0,5.2-8.1,0-8.1C59.3,208.4,59.3,216.5,64.5,216.5L64.5,216.5z"/>
		</g>
	</g>
</g>
</svg>
