<?xml version="1.0" encoding="utf-8"?>
<!-- Generator: Adobe Illustrator 19.1.0, SVG Export Plug-In . SVG Version: 6.00 Build 0)  -->
<!DOCTYPE svg PUBLIC "-//W3C//DTD SVG 1.1//EN" "http://www.w3.org/Graphics/SVG/1.1/DTD/svg11.dtd">
<svg version="1.1" id="Layer_1" xmlns="http://www.w3.org/2000/svg" xmlns:xlink="http://www.w3.org/1999/xlink" x="0px" y="0px"
	 width="164.9px" height="249px" viewBox="0 0 164.9 249" enable-background="new 0 0 164.9 249" xml:space="preserve">
<g>
	<g>
		<g>
			<path fill="#3F4251" d="M31.6,172.2c-7.2,8.6-16.6,14.9-23.8,23.5c-2.2,2.6-5.4,5.5-5.5,9.1c-0.1,2.7,0.5,5.4,0.2,8.1
				c-0.3,3.3-1.2,6.4-2.3,9.5c-0.5,1.4,1.7,2,2.3,0.6c1.8-4.3,2.8-8.9,2.8-13.5c0-2.8-0.8-4.9,0.6-7.4c1.5-2.7,3.9-5.2,5.9-7.6
				c3.5-4.1,7.3-7.9,11.2-11.6c3.4-3.1,7.2-6.2,9-10.5C31.9,172.3,31.7,172.1,31.6,172.2L31.6,172.2z"/>
		</g>
	</g>
	<g>
		<g>
			<path fill="#3F4251" d="M126.2,178.4c10.9,5.1,19.3,11.1,25.1,21.8c5.5,10.3,7.9,21.6,11.7,32.4c0.4,1.1,2,0.7,1.8-0.5
				c-2.5-11.7-6.9-24.5-13.1-34.8c-6-10-14.6-15.2-25.3-19.3C126.2,178,126,178.4,126.2,178.4L126.2,178.4z"/>
		</g>
	</g>
	<g>
		<g>
			<path fill="#3F4251" d="M36.1,181.4c0.1-0.4,0.3-0.8,0.6-1.1c-0.1-0.1-0.3-0.2-0.4-0.2c-0.3,1.1-1.3,2.1-2,2.9
				c-0.7,0.9-1.5,1.8-2.1,2.9c-0.5,0.8,0.7,1.9,1.4,1.1c0.9-1.2,1.6-2.5,2.3-3.8c0.6-1,1.1-1.8,0.9-3c0-0.2-0.4-0.2-0.5-0.1
				c-0.2,0.5-0.3,0.9-0.3,1.4C35.9,181.5,36,181.5,36.1,181.4L36.1,181.4z"/>
		</g>
	</g>
	<g>
		<g>
			<path fill="#3F4251" d="M39.3,182.5c-1.2,2.1-2.7,4.1-3.8,6.3c-0.4,0.9,0.8,1.6,1.3,0.8c1.4-2.1,2.2-4.5,3.2-6.8
				C40.2,182.3,39.6,182.1,39.3,182.5L39.3,182.5z"/>
		</g>
	</g>
	<g>
		<g>
			<path fill="none" stroke="#3F4251" stroke-width="2.044" stroke-miterlimit="10" d="M124.6,79.3c-1.2,10-1.8,20.3-4.7,22.3
				c-1.4,0.9-2.8,1.1-3.9,1c-0.5,6.2-1.1,11-1.9,12.8c-3.3,7.4-18.1,34.5-41.4,33.9c-23.1-0.5-43.2-25.2-43.7-42.7
				c-0.1,1.1-0.2,1.8-0.2,1.8s-0.1,0.9-3,0.2c-4-1.1-4.5-27.8-2.3-34.4c2-6.2,4.1-7.7,6.4-2.6c0.7-11.8-0.2-25.9,1.9-27.1
				c4.1-2.3,28.4-11.4,28.4-11.4h45.5l12,19.4c0,0,0,10.7-0.4,23.3C118.7,74.9,125.7,70.2,124.6,79.3z"/>
			<path fill="#3F4251" d="M95.5,32.3c0,0,18.1-14.2,28.6,12.1c9.8,24.6-4.9,31.7-4.9,31.7s-1.8-21.4-9.6-23.8
				c-4.5-1.4-15.2-4.1-16.5-9.2C91.6,37,95.5,32.3,95.5,32.3z"/>
			<path fill="#3F4251" d="M96.6,20.1c0,0-41.4-20-68.1,2.2C13.3,34.9,5.2,65.8,38.6,68.6c0,0-4.7-10.3-2.5-17.3
				c2.5-7.8,37.2-0.2,49.8-4.6S102.2,21.8,96.6,20.1z"/>
			<g>
				<path fill="#3F4251" d="M47.6,68.1c0,0,0-0.2,0-0.6c0-0.2,0.1-0.4,0.2-0.7c0.1-0.2,0.2-0.5,0.3-0.8c0.1-0.3,0.3-0.6,0.6-0.9
					c0.2-0.3,0.5-0.6,0.9-0.9c0.3-0.3,0.7-0.5,1.2-0.7c0.4-0.2,0.9-0.3,1.4-0.4c0.5,0,0.9-0.1,1.4-0.1c0.4,0.1,0.9,0.1,1.3,0.2
					c0.4,0.1,0.8,0.3,1.1,0.4c0.3,0.2,0.6,0.4,0.9,0.5c0.3,0.2,0.5,0.4,0.7,0.5c0.2,0.2,0.4,0.3,0.5,0.5c0.3,0.3,0.4,0.4,0.4,0.4
					s-0.2,0-0.6-0.1c-0.4,0-0.9-0.2-1.4-0.3c-0.3,0-0.6-0.1-0.9-0.2c-0.3,0-0.7-0.1-1-0.1c-0.3-0.1-0.7,0-1,0c-0.3,0-0.7,0.1-1,0.1
					c-0.3,0.1-0.7,0.1-1,0.3l-0.5,0.2c-0.1,0.1-0.3,0.2-0.4,0.2c-0.3,0.1-0.6,0.3-0.8,0.5c-0.3,0.2-0.5,0.4-0.7,0.5
					c-0.4,0.4-0.8,0.7-1.1,1C47.7,68,47.6,68.1,47.6,68.1z"/>
			</g>
			<g>
				<path fill="#3F4251" d="M94.8,60.2c0,0,0.2-0.1,0.6-0.2c0.2-0.1,0.4-0.1,0.7-0.2c0.3,0,0.6-0.1,0.9-0.1c0.3,0,0.7,0,1.1,0.1
					c0.4,0.1,0.8,0.2,1.2,0.4c0.4,0.2,0.8,0.4,1.2,0.7c0.4,0.3,0.7,0.7,1,1c0.2,0.4,0.5,0.8,0.7,1.2c0.2,0.4,0.4,0.8,0.4,1.3
					c0.1,0.4,0.1,0.8,0.2,1.2c0,0.4,0,0.7-0.1,1.1c0,0.3-0.1,0.6-0.1,0.9c-0.1,0.3-0.1,0.5-0.2,0.7c-0.1,0.4-0.2,0.6-0.2,0.6
					s-0.1-0.2-0.2-0.6c-0.1-0.3-0.2-0.8-0.4-1.4c-0.1-0.3-0.2-0.6-0.3-0.9c-0.1-0.3-0.2-0.6-0.4-0.9c-0.1-0.3-0.3-0.6-0.5-0.9
					c-0.2-0.3-0.4-0.6-0.6-0.8c-0.2-0.2-0.4-0.5-0.7-0.7L98.8,62c-0.1-0.1-0.3-0.2-0.4-0.3c-0.3-0.2-0.5-0.3-0.8-0.5
					c-0.3-0.1-0.5-0.3-0.8-0.4c-0.5-0.2-1-0.4-1.4-0.5C95.1,60.2,94.8,60.2,94.8,60.2z"/>
			</g>
			<path fill="#3F4251" d="M86.7,77c0,1.8-1.5,2.6-3.4,2.6S80,78.8,80,77s1.5-3.3,3.4-3.3S86.7,75.2,86.7,77z"/>
			<path fill="#3F4251" d="M63.4,78.8c0,1.8-1.5,2.5-3.4,2.5c-1.9,0-3.4-0.7-3.4-2.5s1.5-3.3,3.4-3.3C61.9,75.5,63.4,77,63.4,78.8z"
				/>
			<path fill="#404041" d="M75.9,111.4c9.3-2.2,16.9-8.6,22.4-2.7c8.4,9.1-7.3,24.4-20.7,25.3s-24.8,1.4-26.3-11.6
				C50.3,111.9,66.6,113.6,75.9,111.4z"/>
			<path fill="#3F4251" d="M57.1,132.1c0,0,1.8-5.2,19.4-8.4c17.5-3.2,20.3,0,20.3,0S84.6,140.9,57.1,132.1z"/>
			<g>
				<path fill="#3F4251" d="M68,64.4c0,0,0.1,0.2,0.3,0.5c0.2,0.3,0.5,0.8,0.8,1.4c0.3,0.6,0.7,1.4,1,2.3c0.3,0.9,0.6,2,0.8,3.2
					c0.4,2.4,0.2,5.3-0.3,8.3c-0.5,3-1.5,6.1-2.6,9.1c-0.5,1.5-1.1,3-1.5,4.4c-0.3,0.8-0.3,1.1,0,1.6c0.3,0.5,0.8,0.8,1.3,0.9
					c0.3,0.1,0.5,0.1,0.9,0c0.4,0,0.8,0,1.1,0c0.7,0,1.4,0,2.1,0c1.4,0,2.6,0,3.8-0.1c1.2-0.1,2.2-0.4,3.1-0.7
					c0.9-0.3,1.6-0.7,2.1-1.2c0.5-0.4,0.9-0.8,1.1-1.1c0.2-0.3,0.3-0.5,0.3-0.5s-0.1,0.2-0.3,0.5c-0.2,0.3-0.5,0.8-1,1.3
					C80.7,95,80,95.5,79.1,96c-0.9,0.5-2,0.8-3.2,1c-1.2,0.2-2.5,0.3-3.9,0.4c-0.7,0-1.4,0-2.1,0.1c-0.4,0-0.7,0-1,0.1
					c-0.3,0-0.8,0.1-1.3,0c-0.9-0.2-1.8-0.7-2.3-1.6c-0.3-0.4-0.4-0.9-0.4-1.5c0-0.6,0.2-0.9,0.3-1.3c0.5-1.5,1-3,1.6-4.5
					c1.1-3,2.1-5.9,2.7-8.8c0.6-2.9,0.9-5.6,0.7-7.9c-0.1-1.2-0.2-2.2-0.5-3.2c-0.2-0.9-0.5-1.7-0.7-2.4c-0.3-0.6-0.5-1.1-0.7-1.5
					C68.1,64.5,68,64.4,68,64.4z"/>
			</g>
			<g>
				<g>
					<path fill="#3F4251" d="M55.6,144.7c-1.8,2.2-2.3,5.2-3.2,7.9c-1.1,3.5-2.5,7.1-3.3,10.7c-0.3,1.3,1.6,1.8,2,0.6
						c1.2-3.3,2-6.7,2.9-10.1c0.8-2.9,2.1-5.9,1.8-9C55.9,144.7,55.7,144.6,55.6,144.7L55.6,144.7z"/>
				</g>
			</g>
			<g>
				<g>
					<path fill="#3F4251" d="M95.4,139.8c3.1,5.8,6.1,11.5,7.7,17.9c0.4,1.5,2.7,0.8,2.3-0.6C103.4,150.6,100.4,144.4,95.4,139.8
						C95.4,139.7,95.4,139.8,95.4,139.8L95.4,139.8z"/>
				</g>
			</g>
		</g>
		<g>
			<g>
				<path fill="#BFD749" d="M75.2,225.8c18.8-5.5,36-15.2,50.3-28.7c-4-3.1-8-6.2-12-9.3c-4.1,9-13,13.6-21.3,18.2
					c2.6,4.4,5.2,8.8,7.7,13.2c13.7-8,25.3-18.9,34-32.2c-4.4,0-8.8,0-13.2,0c4.9,6.7,10,13.3,14.7,20.2c4,5.9,8,12.3,8.8,19.6
					c5-0.7,10-1.4,15.1-2c-3.7-10.2-8.3-24-18.4-29.9c-2.6-1.5-5.6-2.3-8.6-2.2c-1.2,0-2.5,0.3-3.7,0.6c-2.1,0.5,2.1,0.1,2.4,0.2
					c-3.1-1.2-7.1,0.8-8.7,3.5c-1.8,3.2-0.9,6.6,1.2,9.3c2.1,2.6,4.1,5.3,5.9,8.1c0.9,1.4,1.8,2.9,2.5,4.4c0.2,0.4,0.4,0.9,0.6,1.3
					c0.5,1.8,0.5,1.6,0.2-0.5c0.7-1.1,1.3-2.3,2-3.4c0.7-0.9-0.2,0.1-0.9,0.4c-0.7,0.4-1.5,0.7-2.2,1.2c-2.5,1.6-4.2,3.6-5.8,5.9
					c4.7,0.6,9.3,1.2,14,1.8c-2.1-9.2-8.3-16.8-16.8-20.8c-4.8-2.2-12.1,0.3-11.5,6.6c0.6,7.1,1.9,14.1,4.2,20.9
					c4.3-2.5,8.5-5,12.8-7.5c-2.2-2.1-4-4.4-5.1-7.3c-3.2-8.3-14-6.7-15.1,2c-0.5,4.6-1.1,9.2-1.6,13.9c-0.5,4.1,3.9,7.7,7.7,7.7
					c4.5,0,7.2-3.5,7.7-7.7c0.5-4.6,1.1-9.2,1.6-13.9c-5,0.7-10,1.4-15.1,2c2.1,5.4,4.9,10,9.1,14.1c5.2,5.1,15.4,0.1,12.8-7.5
					c-1.9-5.5-3.2-11-3.7-16.8c-3.8,2.2-7.7,4.4-11.5,6.6c5.2,2.4,8.5,6,9.8,11.6c1.6,6.9,10.5,6.9,14,1.8c1.3-1.8,4.4-2.3,6.1-3.9
					c2.7-2.6,3.4-6.3,2.6-9.8c-1.8-8.4-8.2-15.7-13.4-22.3c-2.5,4.3-5,8.5-7.5,12.8c1.9,0.8,4.1,0.2,6-0.2c1.9-0.4-1.8,0.1,0,0
					c1.4,0-0.2,0.1-0.6-0.1c0.3,0.2,1.7,0.8,0.7,0.1c-1.2-0.8,0.5,0.3,0.6,0.4c0.4,0.3,0.3,0.2-0.4-0.3c0.3,0.3,0.7,0.6,1,0.9
					c1.2,1.3,1.6,1.6,2.5,3.1c3.4,5.2,5.7,11,7.8,16.8c2.7,7.5,16,7.1,15.1-2c-2-18.6-14.9-32.9-25.6-47.5c-3.4-4.7-9.9-5.1-13.2,0
					c-7.2,11.1-17,20.1-28.5,26.7c-8.5,5-0.9,18,7.7,13.2c10.4-5.7,21.6-12.4,26.8-23.7c3.5-7.7-5.4-15.6-12-9.3
					c-12.4,11.6-27.3,20-43.6,24.7C61.7,213.8,65.7,228.6,75.2,225.8L75.2,225.8z"/>
			</g>
		</g>
		<g>
			<g>
				<path fill="#3F4251" d="M49.7,164c8.2,7,20.2,11.1,30.2,14.9c-0.2-0.6-0.3-1.3-0.5-1.9c-5.6,5.6-4,14.2-8.3,20.5
					c0.7,0,1.4,0,2,0c-1.4-2.1-3.2-3.2-5.4-4.3c-4-2.2-8.1-4.2-12-6.6c-7.9-4.9-15.5-10.3-22.7-16.2c-0.1,0.9-0.2,1.9-0.4,2.8
					c5.4-4,10.5-8.3,15.4-12.9c-0.8,0.1-1.5,0.2-2.3,0.3c2,1.1,3.5,2.4,5,4c1.5,1.7,4-0.8,2.5-2.5c-1.6-2-3.4-3.4-5.6-4.7
					c-0.7-0.4-1.6-0.3-2.3,0.3c-4.8,4.4-9.8,8.7-14.9,12.7c-1,0.8-0.5,2.2,0.4,2.8c6.3,4.8,12.8,9.3,19.6,13.3
					c3.1,1.9,6.3,3.6,9.6,5.4c3.5,1.9,8.7,3.5,11,6.8c0.5,0.7,1.5,0.8,2,0c4.1-6.1,2.6-14.7,7.9-20c0.7-0.7,0.3-1.6-0.5-1.9
					c-5.7-2.2-11.3-4.5-16.8-7.1c-4.5-2-8.9-4.7-13.6-6.2C49.7,163.4,49.4,163.8,49.7,164L49.7,164z"/>
			</g>
		</g>
		<g>
			<g>
				<path fill="#3F4251" d="M82,177.6c2.1,4.9,3.6,10.1,5.1,15.2c0.2,0.6,0.7,0.7,1.2,0.5c5.4-2.4,10.8-4.9,16.2-7.3
					c4.6-2.1,9.2-4.1,13.9-6c1.6-0.7,5.8-1.4,6.4-3.4c0.4-1.4-0.5-2.4-1.3-3.3c-2.5-3.2-4.5-6-5.8-9.9c-1-2.8-1.6-4.7-4.8-3
					c-2.6,1.3-4.8,3.3-7.4,4.6c-3.3,1.7-6.7,3-10.3,4c-2.4,0.7-4.9,1.2-7.2,2.4c-2.5,1.3-3.7,3.8-5.9,5.3c-0.8,0.5-0.3,2,0.7,1.6
					c1.6-0.5,1.4-0.5,2.6-1.8c2.7-2.8,5.2-4,8.9-5.1c4.5-1.3,8.8-2.8,12.9-5.1c1.9-1,4.1-3.3,6.1-3.9c2.9-0.8,2.7,2.6,3.5,4.6
					c0.8,1.9,1.9,3.7,3.2,5.4c1.9,2.5,2.6,3.5-0.4,5.1c-10.4,5.4-21.8,9.1-32.3,14.4c0.4,0.2,0.8,0.3,1.2,0.5
					c-1.8-5-3.4-10.5-6.4-15C82.2,177.2,81.9,177.4,82,177.6L82,177.6z"/>
			</g>
		</g>
		<g>
			<g>
				<path fill="#3F4251" d="M29.4,178.7c-0.1-0.7-0.7-1.1-1.4-0.7c-2.5,1.5,2,8.7,2.9,10c6.9,9.6,19.4,14.1,30.6,16
					c12.6,2.1,26.8,2.1,38.9-2.2c9.7-3.5,20.2-11.4,22.1-22.2c0.2-1.2-1.3-1.6-1.8-0.5c-3.4,8.5-8.5,14.9-17,19
					c-9.3,4.4-19.9,5.2-30.1,4.9c-9.1-0.2-18.3-1.6-26.8-5.3c-4.2-1.8-8.3-4.2-11.8-7.3c-1.8-1.6-3.4-3.4-4.6-5.4
					c-0.7-1.2-1.3-2.4-1.8-3.7c-0.8-1-0.6-1.8,0.6-2.4C29.2,178.8,29.4,178.8,29.4,178.7L29.4,178.7z"/>
			</g>
		</g>
		<g>
			<g>
				<path fill="#3F4251" d="M31.1,174.5c9.5,14,25.9,22.7,42.5,25c8.5,1.2,17.6,0.8,25.9-1.9c8.9-2.9,14.8-9.6,19.1-17.6
					c0.5-0.9-0.8-1.6-1.3-0.8c-2.7,3.9-5,8-8.5,11.2c-3.7,3.4-8.2,5.3-13.1,6.5c-8,2-16.6,2-24.7,0.6c-15.7-2.8-29.1-11.3-39.7-23
					C31.1,174.3,31,174.4,31.1,174.5L31.1,174.5z"/>
			</g>
		</g>
		<g>
			<g>
				<path fill="#3F4251" d="M82.9,187.4c0.3-0.5-0.4-1-0.8-1.2c-0.6-0.3-1.3-0.3-1.9,0c-0.2,0.1-0.3,0.4-0.2,0.6
					c0.1,0.8,0.5,1.4,1.2,1.8c0.7,0.4,1.3-0.6,0.6-1c-0.4-0.2-0.7-0.6-0.8-1c-0.1,0.2-0.2,0.4-0.2,0.6c0.4-0.3,0.8-0.3,1.2-0.2
					C82.3,187,82.5,187.4,82.9,187.4C82.9,187.5,82.9,187.5,82.9,187.4L82.9,187.4z"/>
			</g>
		</g>
		<g>
			<g>
				<path fill="#3F4251" d="M43.3,187.3c0-0.1,0-0.2,0-0.4c0-0.1-0.2-0.2-0.3-0.1c-0.8,1-1.2,2.2-1.8,3.3c-0.5,1.2-1.2,2.4-1.5,3.7
					c-0.2,0.9,1.1,1.6,1.6,0.7c0.6-1.2,0.9-2.5,1.2-3.8c0.3-1.2,0.8-2.5,0.8-3.7c-0.1,0-0.2,0.1-0.3,0.1c0.1,0.1,0.1,0.2,0.2,0.3
					C43.2,187.4,43.3,187.3,43.3,187.3L43.3,187.3z"/>
			</g>
		</g>
		<g>
			<g>
				<path fill="#3F4251" d="M45.5,189.9c0.5,0.7-0.1,2-0.3,2.7c-0.2,0.9-0.5,1.7-0.5,2.6c0,0.7,1.1,1.1,1.4,0.4
					c0.5-1.2,0.5-2.5,0.7-3.8c0.1-1,0.2-1.8-0.4-2.6C45.9,188.7,45.1,189.3,45.5,189.9L45.5,189.9z"/>
			</g>
		</g>
		<g>
			<g>
				<path fill="#3F4251" d="M48.8,190.6c0,1.2-0.1,2.3-0.3,3.5c-0.1,1.1-0.5,2.1-0.5,3.2c0,1,1.3,1.1,1.6,0.2c0.8-2,0.5-4.7,0.4-6.9
					C50,189.8,48.8,189.8,48.8,190.6L48.8,190.6z"/>
			</g>
		</g>
		<g>
			<g>
				<path fill="#3F4251" d="M52.7,192.6c0.1,1.9,0,4,0.5,5.8c0.2,0.9,1.3,0.6,1.4-0.2c0.2-1.8-0.2-3.8-0.4-5.6
					C54.2,191.7,52.7,191.6,52.7,192.6L52.7,192.6z"/>
			</g>
		</g>
		<g>
			<g>
				<path fill="#3F4251" d="M56.7,194c-0.2,1.7-0.1,3.5,0.2,5.2c0.2,0.9,1.6,0.5,1.4-0.4c-0.3-1.6-0.5-3.2-0.4-4.8
					C58,193.2,56.8,193.3,56.7,194L56.7,194z"/>
			</g>
		</g>
		<g>
			<g>
				<path fill="#3F4251" d="M61.6,196.9c0.2,1.3,0.4,2.6,0.5,4c0.1,1.1,1.7,0.6,1.6-0.4c-0.2-1.3-0.4-2.6-0.5-4
					C63.1,195.4,61.5,195.9,61.6,196.9L61.6,196.9z"/>
			</g>
		</g>
		<g>
			<g>
				<path fill="#3F4251" d="M66.2,197.5c-0.1,1.4-0.4,2.9-0.4,4.3c0,0.8,1.3,1.1,1.4,0.2c0.2-1.5,0.1-3,0.1-4.5
					C67.4,196.7,66.3,196.7,66.2,197.5L66.2,197.5z"/>
			</g>
		</g>
		<g>
			<g>
				<path fill="#3F4251" d="M70.1,198.5c0.1,1.3,0.4,3,1.5,3.8c0.4,0.3,1-0.2,0.8-0.6c-0.2-0.5-0.6-0.9-0.8-1.4
					c-0.3-0.6-0.4-1.2-0.5-1.8C71.1,197.8,70,197.8,70.1,198.5L70.1,198.5z"/>
			</g>
		</g>
		<g>
			<g>
				<path fill="#3F4251" d="M75,199.5c0.1,0.9,0.1,1.9,0.2,2.8c0.1,0.8,1.4,0.8,1.3,0c-0.1-0.9-0.2-1.9-0.3-2.8
					C76.1,198.8,75,198.8,75,199.5L75,199.5z"/>
			</g>
		</g>
		<g>
			<g>
				<path fill="#3F4251" d="M79.2,199.4c0,0.8,0,1.7,0.2,2.5c0.2,0.6,1.2,0.6,1.2-0.2c0-0.8-0.2-1.5-0.3-2.3
					C80.3,198.7,79.3,198.7,79.2,199.4L79.2,199.4z"/>
			</g>
		</g>
		<g>
			<g>
				<path fill="#3F4251" d="M83.7,199.3c0,0.8,0,1.6-0.1,2.4c0,0.8,1.3,0.8,1.3,0c0-0.8,0-1.6-0.1-2.4
					C84.8,198.5,83.7,198.5,83.7,199.3L83.7,199.3z"/>
			</g>
		</g>
		<g>
			<g>
				<path fill="#3F4251" d="M87,200.2c0,0.7,0.1,1.4,0.3,2.1c0.3,0.8,1.5,0.3,1.1-0.5c-0.2-0.5-0.4-1-0.4-1.6
					C88,199.5,87,199.5,87,200.2L87,200.2z"/>
			</g>
		</g>
		<g>
			<g>
				<path fill="#3F4251" d="M91,199.9c0.1,0.6,0.3,1.3,0.4,1.9c0.1,0.7,1.2,0.4,1-0.3c-0.1-0.6-0.2-1.3-0.4-1.9
					C92,198.9,90.9,199.2,91,199.9L91,199.9z"/>
			</g>
		</g>
		<g>
			<g>
				<path fill="#3F4251" d="M95.4,198.1c0,0.9,0.2,1.8,0.5,2.7c0.3,0.8,1.5,0.3,1.1-0.5c-0.4-0.8-0.6-1.5-0.8-2.4
					C96.1,197.6,95.3,197.7,95.4,198.1L95.4,198.1z"/>
			</g>
		</g>
		<g>
			<g>
				<path fill="#3F4251" d="M98.8,197.4c0,0.8,0.2,1.5,0.4,2.3c0.2,0.6,1,0.2,0.8-0.3c-0.3-0.6-0.4-1.3-0.5-2
					C99.4,197,98.8,196.9,98.8,197.4L98.8,197.4z"/>
			</g>
		</g>
		<g>
			<g>
				<path fill="#3F4251" d="M101.6,196.1c0.2,0.6,0.4,1.2,0.6,1.8c0.2,0.9,1.7,0.5,1.4-0.4c-0.2-0.7-0.5-1.3-0.8-2
					C102.4,195,101.3,195.4,101.6,196.1L101.6,196.1z"/>
			</g>
		</g>
		<g>
			<g>
				<path fill="#3F4251" d="M104.9,195.1c0.1,0.5,0.2,1,0.6,1.4c0.3,0.4,0.9,0.1,0.9-0.4c0-0.5-0.2-0.9-0.4-1.3
					C105.7,194.1,104.7,194.4,104.9,195.1L104.9,195.1z"/>
			</g>
		</g>
		<g>
			<g>
				<path fill="#3F4251" d="M109.4,193.3c0,0.4-0.1,0.9-0.1,1.3c0,0.5,0.8,0.5,0.8,0c0.1-0.4,0.1-0.9,0.2-1.3
					C110.3,192.7,109.4,192.7,109.4,193.3L109.4,193.3z"/>
			</g>
		</g>
	</g>
</g>
</svg>
