<?xml version="1.0" encoding="utf-8"?>
<!-- Generator: Adobe Illustrator 19.1.0, SVG Export Plug-In . SVG Version: 6.00 Build 0)  -->
<!DOCTYPE svg PUBLIC "-//W3C//DTD SVG 1.1//EN" "http://www.w3.org/Graphics/SVG/1.1/DTD/svg11.dtd">
<svg version="1.1" id="Layer_1" xmlns="http://www.w3.org/2000/svg" xmlns:xlink="http://www.w3.org/1999/xlink" x="0px" y="0px"
	 width="1029px" height="263.4px" viewBox="0 0 1029 263.4" enable-background="new 0 0 1029 263.4" xml:space="preserve">
<g>
	<path fill="#EA4E3C" d="M48.2,160.7c26.6,41.9,71.5,65.4,100.2,52.3c28.7-13.1,30.5-57.6,3.9-99.6C125.7,71.4,80.8,48,52,61.1
		C23.3,74.1,21.6,118.7,48.2,160.7"/>
	<path fill="#3F4251" d="M106.9,117.6c3.4,1.2,5.9,6.9,7.4,9.5c3.2,5.6,6.4,12,7.2,18.4c1.9,15.6-17.5,6.6-23.6,0.3
		c-6.5-6.7-19.3-25.8-8.6-33.5c5.4-3.9,11.8-0.7,16.4,2.7c2.9,2.1,5.4,4.5,7.6,7.3c3,3.8,7.1,7.9,9.2,12.3c0.7,1.4-1.2,2.4-2.2,1.2
		c-5.6-7.1-13.5-20.2-23.6-22.2c-17.2-3.4-1.6,24.8,2.6,29.5c3.2,3.5,16.2,14.4,19.8,6.4c1.5-3.3-0.7-8.7-1.8-11.8
		c-1.4-4.2-3.4-8.3-5.5-12.3c-1.1-2.1-2.7-6.3-5.1-7.3C106.4,118,106.6,117.5,106.9,117.6"/>
	<path fill="#3F4251" d="M141.1,123.6c6.8,11.4,11.6,24.5,13.3,37.4c1.2,9.2,1.4,23.1-9.7,27.2c-10.5,3.9-24.5,1.1-34.4-2.9
		c-12.2-4.9-22.5-13.4-31-22.9c-15-16.8-28.5-40.4-28.5-63c0-6.7,1.6-13.6,7.9-17.4c9.6-5.7,21.8-3.6,31.7,0.3
		c15.4,6.1,28.8,16.9,40,28.4c8.1,8.4,18.2,19.3,20,31c0.2,1.5-2.3,2.2-2.5,0.7c-1.4-9.3-8.6-18-14.8-25
		c-8.2-9.4-17.8-17.9-28.4-24.8c-12.8-8.3-47.1-22.3-51,1.9c-3,18.6,8,39.8,18.4,54.8c12.8,18.5,32.5,36.5,57.1,38.3
		c6.3,0.5,14.8,0.7,19.4-4c4.7-4.8,4.9-12.5,4.6-18.5C152.5,151.1,147.8,136.2,141.1,123.6C141,123.6,141.1,123.6,141.1,123.6"/>
	<path fill="#3F4251" d="M169.9,150.9c5.1,17.5,11.8,34.1-0.7,50.6c-10,13.1-25.1,19.4-41.9,16.1c-17.5-3.3-33.1-13.7-46.3-24.5
		c-13.9-11.3-26.6-24.5-36.7-39c-6.6-9.5-11-20.2-14.5-31c-4.2-13.1-7.4-27.9-4.1-41.5C29.4,66.6,42,58.3,57.6,56
		c17.6-2.5,34.2,3.2,48.4,12.8c30.1,20.4,51.5,53.2,67.1,84.4c0.7,1.5-1.6,2.7-2.3,1.3C158.6,130,143,106,123.3,86.3
		c-11.8-11.7-26-22.7-42.9-27c-15.9-4.1-37.8-1.8-47.7,12.1c-14.1,19.7-2.7,50.8,6.8,70.4c5.9,12.2,15.3,23.1,24.8,33
		c12,12.5,25.7,24.1,41.3,32.5c15.2,8.2,34.8,13.9,50.6,4c12.3-7.7,19.6-20.5,19.3-34.4C175.2,168,172,159.6,169.9,150.9
		C169.8,150.9,169.9,150.9,169.9,150.9"/>
	<path fill="#3F4251" d="M118,219.1c-23.2,8.2-45.4-5.4-62.7-19.2c-13.5-10.7-23.6-24.2-32.2-38.7c-8.9-15-17.4-32.3-17.6-49.7
		C5.2,92,22.1,76.5,36.3,64.2c1-0.9,2.6,0.6,1.5,1.4C23.5,78.1,6.7,93.4,7.7,113.1c0.8,16.6,8.8,32.9,17.3,47.1
		c7.1,12,15.4,24,26.1,33.6c17.4,15.6,41.7,31.7,66.9,25.2C118,218.9,118.1,219,118,219.1"/>
	<path fill="#3F4251" d="M144.5,217.4c0.3,12,3.1,23.6,7.9,34.7c0.3,0.6-0.4,1.2-1,1.2c-10.8-0.1-21.6,0.2-32.4,1
		c-0.6,0.1-1.3-0.7-1-1.3c4.9-10.9,7.2-22.1,6.9-33.9c0-1.2,1.9-1.2,1.9,0c0.3,7.6-0.4,15.2-2.4,22.6c-0.6,2.1-3.9,8.6-2.8,10
		c1,1.2,11.9-0.3,13.7-0.3c2.4-0.1,11.6,1.4,13.3,0c2-1.7-1.7-8.7-2.3-11c-1.9-7.5-2.5-15.3-2.3-23
		C144,217.1,144.5,217.1,144.5,217.4"/>
	<path fill="#3F4251" d="M94.6,223.4c0.5,5.8,0.3,11.7,0.1,17.6c-0.1,4.2,0.4,9.8-1.4,13.7c-0.2,0.4-0.5,0.6-0.9,0.7
		c-10.4,1.1-23.2-2.8-33.4-4.8c-1-0.2-0.9-1.4-0.3-1.9c5-3.6,9.4-7.8,12.6-12.9c2.8-4.5,5.4-7.6,0.4-10.5c-7.3-4.2-13.9-7.9-20-13.8
		c-5.8-5.6-10.8-11.9-15.4-18.4c-5-7.1-10.8-14.3-9.8-23.2c0.1-1.3,2.3-1.3,2.2,0c-1.3,11.7,11.4,25.7,19.1,34.4
		c8,9.1,17.5,16.5,29.3,20.9c0.5,0.2,0.9,0.7,0.8,1.3c-3.1,9.9-9.2,17.8-18,24c-0.1-0.6-0.2-1.2-0.3-1.9c4.8,0.9,9.5,1.8,14.3,2.6
		c4.6,0.8,12.7,3.5,16.4,0.7c3.7-2.7,2.8-9.3,3.1-13.6c0.4-4.9,0.5-9.9,1-14.9C94.5,223.3,94.6,223.3,94.6,223.4"/>
	<path fill="#3F4251" d="M125.5,232.7c-4.4,1.3-9.5,0.6-14.1,0.9c-5.5,0.3-10.9,1.1-16.4,1.7c-1,0.1-1.2-1.5-0.2-1.7
		c5.1-1,10.3-1.5,15.5-1.8c4.9-0.3,10.6-1,15.3,0.7C125.6,232.6,125.6,232.6,125.5,232.7"/>
	<path fill="#3F4251" d="M123.4,240.9c-4.6,1.5-9.7,1.6-14.5,2.1c-4.9,0.5-9.7,2-14.4,3.3c-0.9,0.2-1.4-1-0.6-1.4
		c3.7-1.9,8.8-3,13-3.5c5.3-0.7,11.3-1.4,16.6-0.7C123.6,240.7,123.5,240.9,123.4,240.9"/>
	<path fill="#3F4251" d="M100.5,130.4c2.7-12,11.3-24,17.8-34.5c7.4-11.9,15.6-23.3,24.4-34.3c1.3-1.7,4.4,0,3,1.6
		c-8.9,10.9-17.3,22.2-24.9,34c-6.9,10.7-12,23.4-20.2,33.2C100.6,130.5,100.5,130.4,100.5,130.4"/>
	<path fill="#3F4251" d="M100.2,130.1c10.6-10.5,21.6-20.7,31.8-31.6c8.5-9.2,16.4-18.6,28.5-23.6c1.9-0.8,3.6,1.8,1.7,2.7
		c-13,5.6-21.6,16.2-31.1,25.8c-9.6,9.7-19.6,18.9-30.8,26.9C100.2,130.3,100.1,130.1,100.2,130.1"/>
	<path fill="#3F4251" d="M102,129.7c4.9-4.1,11.1-7,16.6-10.4c6.6-4.1,12.9-8.5,19-13.3c9.9-7.7,18.5-17.1,29.5-23.4
		c1.8-1,3.3,1.5,1.6,2.6c-11.8,7.3-21.5,17-32.7,25.2c-9.9,7.2-21.7,16.3-34,19.5C102,129.9,101.9,129.8,102,129.7"/>
	<path fill="#3F4251" d="M101.5,131.2c31.7-7.2,60.1-22.2,91.6-30.1c2.1-0.5,3,2.6,0.9,3.1c-16,3.8-31.3,8.3-46.6,14.2
		c-14.9,5.8-29.8,10.6-45.8,13.4C101.2,131.9,101,131.3,101.5,131.2"/>
	<path fill="none" stroke="#EA4E3C" stroke-width="2.8977" stroke-dasharray="11.4892,11.4892" d="M209.3,78.6
		c0,0,293.1-210.6,812.2,102.4"/>
</g>
</svg>
