<?xml version="1.0" standalone="no"?>
<!DOCTYPE svg PUBLIC "-//W3C//DTD SVG 20010904//EN"
 "http://www.w3.org/TR/2001/REC-SVG-20010904/DTD/svg10.dtd">
<svg version="1.0" xmlns="http://www.w3.org/2000/svg"
 width="260.000000pt" height="260.000000pt" viewBox="0 0 260.000000 260.000000"
 preserveAspectRatio="xMidYMid meet">
<metadata>
Created by potrace 1.11, written by Peter Selinger 2001-2013
</metadata>
<g transform="translate(0.000000,260.000000) scale(0.100000,-0.100000)"
fill="#000000" stroke="none">
<path d="M996 2424 c-20 -52 8 -181 41 -191 13 -5 12 8 -6 73 -6 22 -11 58
-11 81 0 44 -13 64 -24 37z"/>
<path d="M1552 2418 c-42 -87 -73 -160 -69 -164 19 -19 74 73 92 154 8 37 -6
43 -23 10z"/>
<path d="M1190 2188 c-127 -14 -256 -61 -335 -122 -105 -80 -190 -200 -211
-296 -17 -81 0 -144 88 -322 120 -243 254 -572 256 -628 2 -38 25 -109 38
-114 7 -3 54 1 106 9 106 15 292 17 387 4 36 -5 69 -5 73 -1 8 8 10 17 22 92
21 132 72 286 179 540 97 230 111 278 112 370 0 77 -3 92 -34 155 -87 177
-283 297 -511 311 -41 3 -82 6 -90 7 -8 2 -44 -1 -80 -5z m213 -42 c62 -9 61
-24 -1 -16 -50 6 -164 5 -222 -3 -183 -25 -339 -134 -414 -289 -20 -41 -39
-95 -42 -120 -7 -49 1 -70 175 -472 64 -147 181 -460 181 -485 0 -2 -9 4 -21
15 -29 26 -46 62 -80 166 -26 82 -111 286 -194 464 -62 132 -108 282 -103 335
14 142 165 305 349 373 97 37 251 50 372 32z m112 -26 c25 -11 -1 -11 -35 0
-20 6 -21 8 -5 8 11 0 29 -3 40 -8z m-151 -1342 c-3 -4 -11 -5 -19 -1 -21 7
-19 12 4 10 11 0 18 -5 15 -9z m126 2 c35 -2 35 -2 8 -10 -16 -5 -36 -7 -45
-5 -10 2 -26 4 -36 4 -10 1 -16 5 -13 10 3 4 16 7 28 6 13 -1 39 -3 58 -5z"/>
<path d="M2035 2118 c-38 -23 -89 -49 -113 -60 -43 -19 -49 -44 -9 -32 38 10
141 64 171 89 52 42 22 44 -49 3z"/>
<path d="M450 2117 c0 -30 121 -122 171 -129 42 -6 29 17 -24 42 -28 13 -71
41 -93 62 -44 41 -54 45 -54 25z"/>
<path d="M1965 1555 c47 -38 225 -62 225 -30 0 7 -19 11 -52 9 -29 -1 -73 4
-98 11 -100 29 -98 29 -75 10z"/>
<path d="M598 1490 c-16 -5 -61 -11 -100 -15 -40 -4 -77 -10 -82 -15 -10 -10
23 -28 44 -25 8 1 39 5 68 9 63 8 102 24 102 43 0 7 -1 13 -2 12 -2 0 -15 -4
-30 -9z"/>
<path d="M1777 1092 c-21 -33 135 -110 187 -92 25 8 16 13 -59 35 -33 9 -74
28 -92 41 -17 13 -34 21 -36 16z"/>
<path d="M780 1029 c-14 -11 -51 -33 -83 -50 -57 -29 -72 -56 -28 -51 31 3
105 56 131 92 25 35 16 39 -20 9z"/>
<path d="M1555 667 c-46 -20 -65 -21 -265 -19 -232 2 -276 -3 -273 -34 18
-192 31 -226 112 -304 111 -108 173 -128 289 -91 116 36 173 94 232 236 13 33
22 169 13 203 -4 18 -9 20 -24 11 -15 -7 -19 -6 -19 6 0 18 -3 18 -65 -8z
m-472 -90 c8 -18 17 -58 20 -88 4 -31 11 -67 16 -81 7 -19 107 -116 179 -174
2 -1 -5 0 -17 3 -25 7 -165 124 -187 158 -9 14 -24 55 -34 92 -33 129 -32 123
-10 123 13 0 24 -11 33 -33z"/>
</g>
</svg>
