<?xml version="1.0" encoding="utf-8"?>
<!-- Generator: Adobe Illustrator 19.1.0, SVG Export Plug-In . SVG Version: 6.00 Build 0)  -->
<!DOCTYPE svg PUBLIC "-//W3C//DTD SVG 1.1//EN" "http://www.w3.org/Graphics/SVG/1.1/DTD/svg11.dtd">
<svg version="1.1" id="Layer_1" xmlns="http://www.w3.org/2000/svg" xmlns:xlink="http://www.w3.org/1999/xlink" x="0px" y="0px"
	 width="611.2px" height="303.9px" viewBox="0 0 611.2 303.9" enable-background="new 0 0 611.2 303.9" xml:space="preserve">
<g id="XMLID_2_">
	<g id="XMLID_7_">
		<g>
			<path fill="#F79B36" d="M0,230.8l3.9-3.1c0,0,0,0,0.1,0c0,0,0,0,0,0.1c0,0,0,0,0,0L0,230.8z"/>
			<path fill="#F79B36" d="M13.8,219.3l7.4-6.6c0.1-0.1,0.3-0.1,0.3,0c0.1,0.1,0.1,0.3,0,0.3c0,0,0,0,0,0l-7.6,6.5
				c-0.1,0.1-0.2,0-0.2,0C13.7,219.5,13.7,219.4,13.8,219.3z"/>
			<path fill="#F79B36" d="M30.7,203.9l7.1-7c0.2-0.2,0.4-0.2,0.6,0s0.2,0.4,0,0.6c0,0,0,0,0,0l-7.2,6.9c-0.1,0.1-0.4,0.1-0.5,0
				C30.5,204.2,30.5,204,30.7,203.9z"/>
			<path fill="#F79B36" d="M46.7,187.5l6.7-7.4c0.2-0.3,0.6-0.3,0.9,0c0.3,0.2,0.3,0.6,0,0.9c0,0,0,0,0,0l-6.8,7.3
				c-0.2,0.2-0.6,0.2-0.8,0C46.5,188.1,46.5,187.7,46.7,187.5z"/>
			<path fill="#F79B36" d="M61.7,170.3l6.3-7.7c0.3-0.4,0.8-0.4,1.1-0.1c0.4,0.3,0.4,0.8,0.1,1.1c0,0,0,0,0,0l-6.4,7.7
				c-0.3,0.3-0.7,0.4-1.1,0.1C61.5,171.1,61.5,170.6,61.7,170.3z"/>
			<path fill="#F79B36" d="M75.8,152.3l5.8-8.1c0.3-0.4,0.9-0.5,1.4-0.2c0.4,0.3,0.5,0.9,0.2,1.4c0,0,0,0,0,0l-5.9,8
				c-0.3,0.4-0.9,0.5-1.3,0.2C75.6,153.3,75.5,152.7,75.8,152.3z"/>
			<path fill="#F79B36" d="M88.8,133.5l5.3-8.4c0.3-0.5,1-0.7,1.6-0.4s0.7,1,0.4,1.6c0,0,0,0,0,0l-5.4,8.4c-0.3,0.5-1,0.6-1.5,0.3
				C88.7,134.7,88.5,134,88.8,133.5z"/>
			<path fill="#F79B36" d="M100.6,114l4.8-8.7c0.3-0.6,1.1-0.9,1.8-0.5c0.6,0.3,0.9,1.1,0.5,1.8c0,0,0,0,0,0l-4.9,8.7
				c-0.3,0.6-1.1,0.8-1.7,0.5C100.5,115.3,100.3,114.6,100.6,114z"/>
			<path fill="#F79B36" d="M111.2,93.7l4.1-9.1c0.3-0.7,1.2-1.1,1.9-0.7c0.7,0.3,1.1,1.2,0.7,1.9c0,0,0,0,0,0l-4.3,9
				c-0.3,0.7-1.2,1-1.9,0.7C111.1,95.3,110.8,94.4,111.2,93.7z"/>
			<path fill="#F79B36" d="M120.2,72.8c0,0,0.9-2.3,1.7-4.6c0.8-2.3,1.6-4.7,1.6-4.7c0.3-0.9,1.2-1.3,2.1-1c0.9,0.3,1.3,1.2,1,2.1
				c0,0,0,0,0,0c0,0-0.8,2.4-1.7,4.7c-0.9,2.3-1.8,4.7-1.8,4.7l0,0c-0.3,0.8-1.2,1.2-2,0.9C120.2,74.5,119.9,73.6,120.2,72.8z"/>
			<path fill="#F79B36" d="M127.3,51.2c0,0,0.2-0.6,0.4-1.5c0.2-0.9,0.5-2.1,0.8-3.3c0.6-2.4,1.1-4.8,1.1-4.8c0.2-1,1.2-1.6,2.1-1.4
				c1,0.2,1.6,1.2,1.4,2.1c0,0,0,0,0,0c0,0-0.6,2.5-1.2,4.9c-0.3,1.2-0.7,2.4-0.9,3.3c-0.3,0.9-0.4,1.5-0.4,1.5
				c-0.3,0.9-1.2,1.4-2.1,1.2C127.6,53.1,127.1,52.1,127.3,51.2L127.3,51.2z"/>
			<path fill="#F79B36" d="M131.8,29.1c0,0,0.1-0.6,0.2-1.5c0.1-0.9,0.2-2.1,0.3-3.3c0.2-2.4,0.2-4.9,0.2-4.9c0-1.1,0.9-2,2-2
				c1.1,0,2,0.9,2,2c0,0,0,0,0,0l0,0c0,0,0,2.6-0.2,5.1c-0.1,1.3-0.2,2.5-0.3,3.5c-0.1,0.9-0.2,1.6-0.2,1.6c-0.1,1-1.1,1.8-2.1,1.6
				C132.4,31,131.7,30.1,131.8,29.1L131.8,29.1z"/>
			<path fill="#F79B36" d="M130.8,7.3L130.3,6l0.4,0.6c-0.8-0.9-1.8-1.8-2.6-2.1c-0.4-0.2-0.8-0.3-1.1-0.2c-0.2,0-0.3,0-0.5,0.1
				c-0.2,0.1-0.3,0.1-0.5,0.2l-0.1,0.1c-1,0.6-2.3,0.2-2.9-0.8c-0.6-1-0.2-2.3,0.8-2.9c0.4-0.2,0.9-0.5,1.4-0.6
				c0.5-0.2,1.1-0.3,1.6-0.3c0.6,0,1.1,0,1.6,0.2c0.5,0.1,1,0.3,1.4,0.5c0.9,0.4,1.6,1,2.3,1.5c0.6,0.6,1.2,1.2,1.7,1.8l0,0
				c0.2,0.2,0.3,0.4,0.4,0.6l0.5,1.3c0.4,1.1-0.1,2.2-1.2,2.6C132.4,8.9,131.2,8.3,130.8,7.3z"/>
			<path fill="#F79B36" d="M120.6,14.4c0,0-0.2,0.6-0.4,1.5c-0.2,0.9-0.6,2-0.8,3.2c-0.6,2.4-1,4.8-1,4.8c-0.2,1.3-1.5,2.1-2.8,1.9
				c-1.3-0.2-2.1-1.5-1.9-2.8c0,0,0,0,0,0l0,0c0,0,0.5-2.5,1.2-5c0.3-1.2,0.7-2.5,0.9-3.4c0.3-0.9,0.5-1.5,0.5-1.5
				c0.4-1.2,1.6-1.9,2.8-1.5C120.3,12,120.9,13.2,120.6,14.4L120.6,14.4z"/>
			<path fill="#F79B36" d="M116.4,36.5c0,0-0.3,2.4-0.5,4.9c-0.2,2.4-0.5,4.9-0.5,4.9l0,0c-0.1,1.4-1.4,2.4-2.8,2.3
				c-1.4-0.1-2.4-1.4-2.3-2.8l0,0c0,0,0.3-2.5,0.5-4.9c0.1-1.2,0.3-2.5,0.4-3.4c0.1-0.9,0.2-1.5,0.2-1.5c0.2-1.4,1.4-2.3,2.8-2.1
				C115.6,33.9,116.5,35.1,116.4,36.5L116.4,36.5z"/>
			<path fill="#F79B36" d="M114.5,59l-0.4,9.9c-0.1,1.4-1.2,2.5-2.7,2.4c-1.4-0.1-2.5-1.2-2.4-2.6l0.4-9.9c0.1-1.4,1.2-2.5,2.7-2.5
				C113.5,56.4,114.6,57.6,114.5,59L114.5,59z"/>
			<path fill="#F79B36" d="M113.8,81.7l0,10c0,1.4-1.1,2.5-2.5,2.5c-1.4,0-2.5-1.1-2.5-2.5l-0.1-10c0-1.4,1.1-2.5,2.5-2.5
				C112.7,79.2,113.8,80.3,113.8,81.7L113.8,81.7z"/>
			<path fill="#F79B36" d="M114.2,104.5l0.5,9.9c0.1,1.4-1,2.6-2.4,2.6c-1.4,0.1-2.6-1-2.6-2.4l-0.5-9.9c-0.1-1.4,1-2.6,2.4-2.6
				S114.1,103.1,114.2,104.5z"/>
			<path fill="#F79B36" d="M115.6,127.3l0.9,9.9c0.1,1.4-0.9,2.6-2.3,2.7c-1.4,0.1-2.6-0.9-2.7-2.3l-0.9-9.9
				c-0.1-1.4,0.9-2.6,2.3-2.7C114.2,124.9,115.5,125.9,115.6,127.3z"/>
			<path fill="#F79B36" d="M118,149.9l1.5,9.9c0.2,1.4-0.7,2.6-2.1,2.8c-1.4,0.2-2.6-0.7-2.8-2.1l-1.5-9.9c-0.2-1.4,0.7-2.6,2.1-2.8
				C116.6,147.6,117.8,148.5,118,149.9z"/>
			<path fill="#F79B36" d="M121.8,172.3c0,0,0.1,0.6,0.3,1.5c0.2,0.9,0.5,2.1,0.7,3.3c0.5,2.4,1.1,4.8,1.1,4.8
				c0.3,1.3-0.5,2.7-1.8,3c-1.3,0.3-2.7-0.5-3-1.8l0,0c0,0-0.6-2.4-1.2-4.9c-0.3-1.2-0.5-2.5-0.7-3.4c-0.2-0.9-0.3-1.5-0.3-1.5
				c-0.3-1.4,0.6-2.7,1.9-3C120.2,170.1,121.5,171,121.8,172.3L121.8,172.3z"/>
			<path fill="#F79B36" d="M127.5,194.2c0,0,0.2,0.6,0.5,1.5c0.3,0.9,0.7,2,1.1,3.2c0.8,2.3,1.8,4.5,1.8,4.5
				c0.5,1.3-0.1,2.7-1.3,3.3c-1.3,0.5-2.7-0.1-3.3-1.3l0,0l0,0c0,0-1-2.4-1.9-4.7c-0.4-1.2-0.9-2.4-1.2-3.3
				c-0.3-0.9-0.5-1.5-0.5-1.5c-0.4-1.3,0.3-2.7,1.6-3.2S127.1,192.9,127.5,194.2L127.5,194.2L127.5,194.2z"/>
			<path fill="#F79B36" d="M136.6,214.5c0,0,0.3,0.5,0.8,1.2c0.5,0.7,1.2,1.7,1.9,2.6c0.7,0.9,1.5,1.8,2.1,2.4c0.6,0.6,1,1,1,1
				c1,0.9,1.1,2.5,0.2,3.5c-0.9,1-2.5,1.1-3.5,0.2h0l0,0c0,0-0.5-0.5-1.2-1.2c-0.7-0.7-1.6-1.7-2.5-2.7c-0.8-1-1.6-2.1-2.2-2.9
				c-0.5-0.8-0.9-1.3-0.9-1.3c-0.8-1.1-0.5-2.7,0.7-3.5S135.8,213.3,136.6,214.5L136.6,214.5L136.6,214.5z"/>
			<path fill="#F79B36" d="M152.5,226c0,0,0.1,0,0.4,0c0.2,0,0.6,0,1,0c0.4,0,0.9-0.1,1.4-0.2c0.3,0,0.5-0.1,0.8-0.1
				c0.3-0.1,0.6-0.1,0.9-0.2c2.3-0.5,4.6-1.2,4.6-1.2c1.3-0.4,2.7,0.3,3.1,1.6c0.4,1.3-0.3,2.7-1.6,3.1l0,0c0,0-2.5,0.8-5.1,1.3
				c-0.3,0.1-0.6,0.1-1,0.2c-0.3,0.1-0.6,0.1-0.9,0.2c-0.7,0.1-1.3,0.2-1.8,0.2c-0.5,0-1,0-1.3,0c-0.3,0-0.5,0-0.5,0
				c-1.4,0-2.5-1.1-2.5-2.5C150,227.1,151.1,226,152.5,226L152.5,226L152.5,226z"/>
			<path fill="#F79B36" d="M172.6,219.2c0,0,0.5-0.3,1.3-0.8c0.7-0.5,1.7-1.2,2.7-1.9c1.9-1.4,3.7-3,3.7-3c1-0.9,2.6-0.8,3.5,0.2
				s0.8,2.6-0.2,3.5l0,0c0,0-1.9,1.7-4,3.3c-1,0.8-2.1,1.5-2.9,2.1c-0.8,0.5-1.4,0.9-1.4,0.9c-1.2,0.7-2.7,0.4-3.5-0.8
				S171.4,219.9,172.6,219.2L172.6,219.2L172.6,219.2z"/>
			<path fill="#F79B36" d="M188.8,204.4c0,0,0.4-0.5,0.9-1.2c0.6-0.7,1.3-1.7,2-2.7c1.4-2,2.7-4,2.7-4c0.7-1.2,2.3-1.5,3.4-0.8
				s1.5,2.3,0.8,3.4l0,0c0,0-1.3,2.2-2.8,4.3c-0.7,1-1.5,2.1-2.1,2.8c-0.6,0.8-1,1.3-1,1.3c-0.8,1.1-2.4,1.3-3.5,0.4
				C188.1,207.1,187.9,205.5,188.8,204.4L188.8,204.4L188.8,204.4z"/>
			<path fill="#F79B36" d="M200.4,185.4c0,0,0.3-0.6,0.6-1.4c0.4-0.8,0.9-1.9,1.3-3.1c1-2.2,1.8-4.5,1.8-4.5c0.5-1.3,1.9-2,3.2-1.5
				s2,1.9,1.5,3.2l0,0c0,0-0.9,2.4-1.9,4.7c-0.5,1.2-1,2.3-1.4,3.2c-0.4,0.9-0.7,1.4-0.7,1.4c-0.6,1.3-2.1,1.8-3.3,1.2
				C200.4,188.1,199.8,186.6,200.4,185.4L200.4,185.4L200.4,185.4z"/>
			<path fill="#F79B36" d="M208.1,164.3c0,0,0.2-0.6,0.4-1.5c0.2-0.9,0.5-2.1,0.8-3.3c0.6-2.4,1-4.8,1-4.8c0.3-1.4,1.6-2.2,2.9-2
				c1.4,0.3,2.2,1.6,2,2.9l0,0c0,0-0.5,2.5-1,5c-0.3,1.2-0.6,2.5-0.8,3.4c-0.2,0.9-0.4,1.5-0.4,1.5c-0.3,1.3-1.7,2.1-3.1,1.8
				C208.5,167,207.7,165.6,208.1,164.3L208.1,164.3L208.1,164.3z"/>
			<path fill="#F79B36" d="M212,142.2c0,0,0-0.6,0.1-1.5c0.1-0.9,0.1-2.1,0.2-3.3c0.1-2.4,0.1-4.9,0.1-4.9c0-1.4,1.1-2.5,2.5-2.5
				c1.4,0,2.5,1.1,2.5,2.5v0l0,0c0,0,0,2.6-0.1,5.1c-0.1,1.3-0.1,2.5-0.2,3.5c-0.1,0.9-0.1,1.6-0.1,1.6c-0.1,1.4-1.3,2.4-2.7,2.3
				C212.9,144.8,211.9,143.6,212,142.2L212,142.2L212,142.2z"/>
			<path fill="#F79B36" d="M211.3,120.1c0,0-0.1-0.6-0.3-1.5c0-0.2-0.1-0.5-0.2-0.7c0-0.1-0.1-0.3-0.1-0.4l0-0.1l0-0.1l0,0l0,0l0,0
				c0-0.1,0,0.1,0,0.1l0,0l-0.1-0.2c-0.1-0.3-0.1-0.5-0.2-0.8c-0.1-0.3-0.2-0.5-0.3-0.8c-0.7-2.2-1.8-4.2-1.8-4.2
				c-0.6-1.2-0.2-2.7,1-3.4c1.2-0.6,2.7-0.2,3.4,1l0,0c0,0,1.2,2.4,2.1,4.9c0.1,0.3,0.2,0.6,0.3,1c0.1,0.3,0.2,0.6,0.3,1l0.1,0.2
				l0.1,0.3c0,0.1,0.1,0.3,0.1,0.4c0.1,0.3,0.1,0.5,0.2,0.7c0.2,0.9,0.3,1.5,0.3,1.5c0.3,1.3-0.6,2.7-1.9,3
				C212.9,122.3,211.6,121.4,211.3,120.1z"/>
			<path fill="#F79B36" d="M201.2,101.5c0,0-0.4-0.4-1.1-1c-0.6-0.6-1.5-1.4-2.4-2.2c-1.8-1.5-3.8-2.8-3.8-2.8
				c-1.1-0.8-1.5-2.3-0.7-3.5c0.8-1.1,2.3-1.5,3.5-0.7h0l0,0c0,0,2.2,1.5,4.2,3.1c1,0.8,2,1.7,2.7,2.4c0.7,0.7,1.2,1.1,1.2,1.1
				c1,1,1,2.6,0,3.5C203.8,102.5,202.3,102.5,201.2,101.5L201.2,101.5L201.2,101.5z"/>
			<path fill="#F79B36" d="M183.1,90.1c0,0-0.1,0-0.4-0.1c-0.2-0.1-0.6-0.2-1-0.3c-0.8-0.2-2-0.5-3.1-0.7c-2.3-0.4-4.6-0.5-4.6-0.5
				c-1.4,0-2.5-1.2-2.5-2.5c0-1.4,1.2-2.5,2.5-2.5h0l0,0c0,0,2.7,0,5.3,0.5c1.3,0.2,2.6,0.5,3.6,0.8c0.5,0.1,0.9,0.3,1.2,0.3
				c0.3,0.1,0.4,0.1,0.4,0.1c1.3,0.4,2.1,1.8,1.7,3.1C185.8,89.7,184.4,90.5,183.1,90.1z"/>
			<path fill="#F79B36" d="M162.5,90.8c0,0-0.1,0.1-0.4,0.2c-0.3,0.1-0.5,0.3-0.9,0.5c-0.8,0.4-1.7,1-2.7,1.6
				c-1.9,1.3-3.6,2.9-3.6,2.9c-1,1-2.6,0.9-3.5,0c-1-1-0.9-2.6,0-3.5l0,0c0,0,1.9-1.9,4.2-3.4c1.1-0.8,2.3-1.5,3.2-1.9
				c0.4-0.2,0.9-0.4,1.1-0.6c0.2-0.1,0.4-0.2,0.4-0.2c1.2-0.6,2.7-0.1,3.3,1.2C164.3,88.7,163.8,90.2,162.5,90.8z"/>
			<path fill="#F79B36" d="M147.7,105.7c0,0-0.3,0.5-0.7,1.3c-0.4,0.8-0.9,1.9-1.4,3c-1,2.2-1.8,4.4-1.8,4.4c-0.5,1.3-1.9,2-3.2,1.5
				c-1.3-0.5-2-1.9-1.5-3.2l0,0c0,0,0.9-2.4,1.9-4.8c0.5-1.2,1.1-2.3,1.5-3.2c0.5-0.9,0.8-1.4,0.8-1.4c0.7-1.2,2.2-1.7,3.4-1
				C147.9,102.9,148.4,104.4,147.7,105.7L147.7,105.7L147.7,105.7z"/>
			<path fill="#F79B36" d="M140.3,126.5c0,0-0.1,0.6-0.3,1.5c-0.2,0.9-0.3,2.1-0.5,3.3c-0.3,2.4-0.5,4.8-0.5,4.8
				c-0.1,1.4-1.3,2.4-2.6,2.3s-2.4-1.3-2.3-2.6l0,0c0,0,0.2-2.6,0.5-5.1c0.2-1.3,0.4-2.6,0.5-3.5c0.2-0.9,0.3-1.6,0.3-1.6
				c0.3-1.4,1.6-2.2,2.9-2C139.7,123.8,140.6,125.1,140.3,126.5L140.3,126.5L140.3,126.5z"/>
			<path fill="#F79B36" d="M139.1,148.7c0,0,0.1,2.5,0.3,4.9c0.2,2.5,0.3,5,0.3,5c0.1,1.4-1,2.6-2.4,2.6s-2.6-1-2.6-2.4l0,0l0,0
				c0,0-0.1-2.4-0.3-4.9c-0.1-2.5-0.3-5-0.3-5c-0.1-1.4,1-2.6,2.3-2.6C137.8,146.2,139,147.3,139.1,148.7L139.1,148.7z"/>
			<path fill="#F79B36" d="M131.9,171.1l-0.3-0.1l-0.4-0.1c-0.2-0.1-0.5-0.2-0.7-0.2c-0.5-0.2-0.9-0.3-1.3-0.5
				c-0.9-0.4-1.7-0.8-2.4-1.2c-0.7-0.4-1.2-1.1-1.3-1.9l0,0c-0.2-1.8-0.2-3.7,0.1-5.6c0.2-1.4,1.4-2.3,2.8-2.1
				c1.4,0.2,2.3,1.4,2.1,2.8c-0.2,1.4-0.2,2.9,0,4.4l-1.3-1.9c0.7,0.4,1.4,0.7,2,1c0.3,0.1,0.7,0.3,1,0.4c0.2,0.1,0.3,0.1,0.5,0.1
				l0.2,0.1l0.3,0.1l0,0c1.3,0.3,2.2,1.7,1.8,3C134.6,170.6,133.2,171.4,131.9,171.1z"/>
			<path fill="#F79B36" d="M131.5,148.4c0,0,0.1-0.1,0.3-0.3c0.2-0.2,0.5-0.6,0.8-0.9c0.7-0.7,1.6-1.7,2.6-2.6
				c2-1.8,4.1-3.3,4.1-3.3l0,0c1.1-0.8,2.7-0.5,3.5,0.6c0.8,1.1,0.5,2.7-0.6,3.5c0,0-2,1.4-3.7,3c-0.9,0.8-1.7,1.6-2.3,2.3
				c-0.3,0.3-0.5,0.6-0.7,0.8c-0.2,0.2-0.3,0.3-0.3,0.3c-0.9,1-2.5,1.2-3.5,0.3C130.7,151,130.6,149.5,131.5,148.4z"/>
			<path fill="#F79B36" d="M151,134.4c0,0,0.6-0.3,1.4-0.7c0.9-0.4,2-1,3.2-1.5c2.3-1.1,4.7-2,4.7-2l0,0c1.3-0.5,2.7,0.1,3.3,1.4
				c0.5,1.3-0.1,2.7-1.4,3.3c0,0-2.3,0.9-4.5,2c-1.1,0.5-2.2,1-3.1,1.4c-0.8,0.4-1.4,0.7-1.4,0.7l0,0c-1.2,0.6-2.7,0.1-3.3-1.1
				S149.7,135,151,134.4L151,134.4z"/>
			<path fill="#F79B36" d="M172.6,125.4l9.6-3.1c1.3-0.4,2.7,0.3,3.2,1.6c0.4,1.3-0.3,2.7-1.6,3.2l-9.6,3.1
				c-1.3,0.4-2.7-0.3-3.2-1.6C170.6,127.3,171.3,125.9,172.6,125.4z"/>
			<path fill="#F79B36" d="M194.8,118.5l9.7-2.7c1.3-0.4,2.7,0.4,3.1,1.7c0.4,1.3-0.4,2.7-1.7,3.1l-9.7,2.7
				c-1.3,0.4-2.7-0.4-3.1-1.7C192.7,120.3,193.5,118.9,194.8,118.5z"/>
			<path fill="#F79B36" d="M217.1,112.3l9.7-2.7c1.3-0.4,2.7,0.4,3.1,1.7s-0.4,2.7-1.7,3.1l-9.7,2.7c-1.3,0.4-2.7-0.4-3.1-1.7
				C215.1,114,215.8,112.7,217.1,112.3z"/>
			<path fill="#F79B36" d="M239.2,105.7c0,0,0.6-0.2,1.5-0.5c0.9-0.3,2-0.7,3.2-1.1c2.3-0.8,4.6-1.8,4.6-1.8
				c1.3-0.5,2.7,0.1,3.3,1.3c0.5,1.3-0.1,2.7-1.3,3.3l0,0c0,0-2.4,1-4.8,1.9c-1.2,0.4-2.4,0.9-3.3,1.2c-0.9,0.3-1.5,0.5-1.5,0.5
				c-1.3,0.4-2.7-0.3-3.2-1.6C237.2,107.6,237.9,106.1,239.2,105.7L239.2,105.7L239.2,105.7z"/>
			<path fill="#F79B36" d="M259.2,96.3c0,0,0.1-0.1,0.3-0.3c0.1-0.1,0.2-0.2,0.3-0.3c0.1-0.1,0.2-0.2,0.4-0.3
				c0.5-0.6,1.2-1.3,1.5-2.1c0.2-0.4,0.3-0.8,0.3-1.1c0-0.2,0-0.3,0-0.5c0-0.2,0-0.3,0-0.5c0-0.3-0.1-0.5-0.1-0.7
				c-0.1-0.2-0.1-0.3-0.1-0.3l-0.1-0.2c-0.4-1.3,0.4-2.7,1.7-3.1c1.3-0.4,2.7,0.4,3.1,1.7c0,0,0.1,0.2,0.2,0.6
				c0.1,0.4,0.2,0.9,0.3,1.5c0,0.3,0,0.7,0.1,1.1c0,0.4,0,0.8-0.1,1.2c-0.1,0.8-0.4,1.7-0.7,2.4c-0.7,1.5-1.7,2.7-2.5,3.5
				c-0.2,0.2-0.4,0.4-0.6,0.6c-0.2,0.2-0.3,0.3-0.4,0.4c-0.2,0.2-0.3,0.3-0.3,0.3c-1,0.9-2.6,0.8-3.5-0.2S258.2,97.3,259.2,96.3z"/>
			<path fill="#F79B36" d="M255.6,84.1c0,0-0.1,0.1-0.4,0.1c-0.1,0-0.1,0-0.1,0.1c-0.1,0.1-0.2,0.1-0.3,0.2c-0.5,0.3-1.2,1-1.8,1.9
				c-0.6,0.9-1.2,1.8-1.6,2.6c-0.4,0.8-0.7,1.3-0.7,1.3c-0.6,1.3-2.1,1.8-3.3,1.2s-1.8-2.1-1.2-3.3l0,0c0,0,0.3-0.6,0.8-1.5
				c0.5-0.9,1.2-2.1,2-3.3c0.9-1.2,1.9-2.3,3-3c0.3-0.2,0.5-0.3,0.8-0.5c0.3-0.1,0.6-0.3,0.8-0.4c0.3-0.1,0.4-0.1,0.4-0.1
				c1.3-0.5,2.7,0.2,3.2,1.5C257.6,82.2,256.9,83.6,255.6,84.1z"/>
			<path fill="#F79B36" d="M246.6,102.2c0,0-0.1,0.6-0.4,1.5c-0.2,0.9-0.5,2.1-0.8,3.3c-0.5,2.4-0.9,4.9-0.9,4.9
				c-0.2,1.4-1.5,2.3-2.9,2c-1.4-0.2-2.3-1.5-2-2.9l0,0c0,0,0.4-2.5,1-5.1c0.3-1.3,0.6-2.5,0.8-3.5c0.2-0.9,0.4-1.6,0.4-1.6
				c0.3-1.3,1.7-2.2,3-1.8C246.2,99.5,247,100.8,246.6,102.2L246.6,102.2L246.6,102.2z"/>
			<path fill="#F79B36" d="M242.8,124.7c0,0-0.1,0.6-0.2,1.5c-0.1,0.9-0.2,2.2-0.3,3.4c-0.2,2.5-0.3,5-0.3,5
				c-0.1,1.4-1.2,2.4-2.6,2.4c-1.4-0.1-2.4-1.2-2.4-2.6l0,0c0,0,0.1-2.5,0.3-5.1c0.1-1.3,0.2-2.5,0.3-3.5c0.1-0.9,0.2-1.6,0.2-1.6
				c0.1-1.4,1.4-2.4,2.7-2.2C241.9,122.1,242.9,123.3,242.8,124.7L242.8,124.7L242.8,124.7z"/>
			<path fill="#F79B36" d="M241.9,147.5c0,0,0,0.6,0,1.6c0,0.9,0.1,2.2,0.1,3.4c0.1,2.5,0.3,4.9,0.3,4.9c0.1,1.4-0.9,2.6-2.3,2.7
				s-2.6-0.9-2.7-2.3l0,0c0,0-0.2-2.6-0.3-5.1c0-1.3-0.1-2.6-0.1-3.5c0-1,0-1.6,0-1.6c0-1.4,1.1-2.5,2.4-2.6
				S241.8,146.1,241.9,147.5L241.9,147.5L241.9,147.5z"/>
			<path fill="#F79B36" d="M244,170.1c0,0,0.1,0.6,0.3,1.5c0.2,0.9,0.4,2.1,0.7,3.3c0.6,2.4,1.3,4.7,1.3,4.7
				c0.4,1.3-0.3,2.7-1.6,3.1s-2.7-0.3-3.1-1.6l0,0l0,0c0,0-0.8-2.5-1.4-5c-0.3-1.3-0.6-2.5-0.8-3.5c-0.2-0.9-0.3-1.6-0.3-1.6
				c-0.3-1.4,0.6-2.7,2-2.9S243.7,168.7,244,170.1L244,170.1L244,170.1z"/>
			<path fill="#F79B36" d="M251.5,190.8c0,0,0.1,0.1,0.2,0.4c0.2,0.2,0.3,0.5,0.6,0.8c0.5,0.7,1.2,1.6,2,2.4c0.8,0.8,1.6,1.5,2.3,2
				c0.7,0.5,1.1,0.8,1.1,0.8c1.2,0.7,1.6,2.2,0.9,3.4c-0.7,1.2-2.2,1.6-3.4,0.9l-0.1,0c0,0-0.6-0.4-1.5-1c-0.9-0.6-2-1.5-2.9-2.5
				c-1-1-1.9-2.1-2.5-2.9c-0.3-0.4-0.6-0.8-0.7-1c-0.2-0.2-0.2-0.4-0.2-0.4c-0.8-1.1-0.5-2.7,0.6-3.5
				C249.1,189.4,250.7,189.7,251.5,190.8z"/>
			<path fill="#F79B36" d="M268.7,199c0,0,0.2,0,0.4-0.1c0.3-0.1,0.5-0.1,1-0.2c0.8-0.2,1.9-0.5,2.9-1c2.1-0.9,4-2.1,4-2.1
				c1.1-0.8,2.7-0.5,3.5,0.7c0.8,1.1,0.5,2.7-0.7,3.5l-0.1,0c0,0-2.3,1.5-4.8,2.6c-1.3,0.5-2.6,1-3.6,1.2c-0.5,0.1-1,0.2-1.3,0.3
				c-0.3,0-0.4,0.1-0.4,0.1c-1.4,0.2-2.7-0.6-2.9-2C266.4,200.6,267.3,199.3,268.7,199z"/>
			<path fill="#F79B36" d="M286.1,187.3c0,0,0.4-0.5,1-1.2c0.6-0.7,1.3-1.7,2-2.6c1.5-2,2.8-4,2.8-4c0.7-1.2,2.3-1.5,3.5-0.7
				c1.2,0.7,1.5,2.3,0.7,3.5l0,0c0,0-1.4,2.2-2.9,4.3c-0.8,1-1.6,2.1-2.2,2.8c-0.6,0.7-1,1.2-1,1.2c-0.9,1.1-2.5,1.2-3.5,0.3
				C285.4,190,285.2,188.4,286.1,187.3L286.1,187.3L286.1,187.3z"/>
			<path fill="#F79B36" d="M298.3,168.4c0,0,0.3-0.6,0.7-1.4c0.4-0.8,0.9-1.9,1.5-3.1c1-2.2,2-4.5,2-4.5c0.5-1.3,2-1.9,3.3-1.3
				s1.9,2,1.3,3.3l0,0c0,0-1,2.4-2.1,4.7c-0.5,1.2-1.1,2.3-1.5,3.2c-0.4,0.9-0.7,1.4-0.7,1.4c-0.6,1.2-2.1,1.7-3.4,1.1
				C298.1,171.2,297.6,169.7,298.3,168.4L298.3,168.4L298.3,168.4z"/>
			<path fill="#F79B36" d="M307,147.4c0,0,0.2-0.6,0.5-1.5c0.3-0.9,0.7-2.1,1.1-3.3c0.8-2.4,1.4-4.8,1.4-4.8
				c0.4-1.3,1.8-2.1,3.1-1.7c1.3,0.4,2.1,1.8,1.7,3.1l0,0c0,0-0.7,2.4-1.5,4.9c-0.4,1.2-0.8,2.4-1.1,3.3c-0.3,0.9-0.5,1.5-0.5,1.5
				c-0.4,1.3-1.9,2-3.2,1.6C307.3,150.1,306.6,148.7,307,147.4L307,147.4z"/>
			<path fill="#F79B36" d="M313.2,125.4c0,0,0.1-0.6,0.3-1.5c0.2-0.9,0.4-2.1,0.7-3.3c0.5-2.4,0.9-4.9,0.9-4.9
				c0.2-1.4,1.5-2.3,2.9-2.1c1.4,0.2,2.3,1.5,2.1,2.9l0,0c0,0-0.4,2.5-0.9,5c-0.3,1.3-0.5,2.5-0.7,3.4c-0.2,0.9-0.3,1.6-0.3,1.6
				c-0.3,1.3-1.6,2.2-3,1.9C313.8,128,312.9,126.7,313.2,125.4L313.2,125.4z"/>
			<path fill="#F79B36" d="M316.6,102.9c0,0,0-0.6,0.1-1.5c0-0.9,0.1-2.1,0.1-3.4c0-2.4-0.2-4.8-0.2-4.8c-0.1-1.4,0.9-2.6,2.3-2.7
				c1.4-0.1,2.6,0.9,2.7,2.3l0,0c0,0,0.2,2.6,0.2,5.2c0,1.3,0,2.6-0.1,3.6c-0.1,1-0.1,1.6-0.1,1.6c-0.1,1.4-1.2,2.4-2.6,2.4
				C317.6,105.4,316.5,104.3,316.6,102.9L316.6,102.9L316.6,102.9z"/>
			<path fill="#F79B36" d="M313.1,83.4c0,0-0.1-0.1-0.4-0.2c-0.1,0-0.1-0.1-0.2-0.1c-0.1,0-0.1,0-0.1-0.1c-0.1,0-0.2-0.1-0.3-0.1
				c-0.1,0-0.3-0.1-0.4-0.1c-0.1,0-0.3,0-0.4,0c-0.1,0-0.3,0-0.4,0c-0.1,0-0.3,0.1-0.4,0.1c-0.1,0-0.3,0.2-0.4,0.2
				c-0.1,0.1-0.3,0.2-0.4,0.4c-0.3,0.3-0.6,0.6-0.8,0.8c-0.2,0.3-0.4,0.5-0.5,0.7c-0.1,0.2-0.2,0.3-0.2,0.3l-0.1,0.1
				c-0.8,1.2-2.3,1.5-3.5,0.7c-1.2-0.8-1.5-2.3-0.7-3.5c0,0,0.1-0.2,0.3-0.4c0.2-0.3,0.4-0.7,0.8-1.1c0.4-0.5,0.8-1,1.4-1.5
				c0.3-0.3,0.6-0.5,1-0.8c0.4-0.2,0.8-0.5,1.2-0.7c0.4-0.2,0.9-0.3,1.4-0.4c0.5-0.1,1-0.1,1.4-0.1c0.5,0,0.9,0,1.3,0.1
				c0.4,0.1,0.8,0.2,1.1,0.3c0.3,0.1,0.6,0.2,0.9,0.4c0.1,0.1,0.2,0.1,0.4,0.2c0.1,0,0.1,0.1,0.2,0.1c0.2,0.1,0.4,0.2,0.4,0.2l0,0
				c1.2,0.7,1.7,2.2,1,3.4C315.9,83.6,314.4,84.1,313.1,83.4z"/>
			<path fill="#F79B36" d="M304.3,97c0,0-0.1,0.6-0.3,1.5c-0.2,0.9-0.4,2.1-0.5,3.3c-0.4,2.4-0.6,4.9-0.6,4.9
				c-0.1,1.4-1.4,2.4-2.7,2.2c-1.4-0.1-2.4-1.4-2.2-2.7l0,0c0,0,0.3-2.5,0.6-5.1c0.2-1.3,0.4-2.5,0.6-3.5c0.2-1,0.3-1.6,0.3-1.6
				c0.3-1.4,1.6-2.3,2.9-2C303.7,94.3,304.5,95.6,304.3,97L304.3,97L304.3,97z"/>
			<path fill="#F79B36" d="M302.1,119.6c0,0,0,0.6,0,1.6c0,0.9,0,2.2,0,3.4c0,2.5,0,5,0,5c0,1.4-1.1,2.5-2.5,2.5
				c-1.4,0-2.5-1.1-2.5-2.5l0,0c0,0,0-2.5,0-5.1c0-1.3,0-2.5,0-3.5c0-1,0-1.6,0-1.6c0-1.4,1.2-2.5,2.6-2.4
				C301,117,302.1,118.2,302.1,119.6L302.1,119.6z"/>
			<path fill="#F79B36" d="M302.5,142.5l0.7,10c0.1,1.4-0.9,2.6-2.3,2.7c-1.4,0.1-2.6-0.9-2.7-2.3l-0.7-10c-0.1-1.4,0.9-2.6,2.3-2.7
				C301.2,140.1,302.4,141.1,302.5,142.5z"/>
			<path fill="#F79B36" d="M304.5,165.3c0,0,0,0.2,0.1,0.4c0.1,0.3,0.1,0.6,0.2,1c0.2,0.8,0.5,1.9,0.9,3c0.7,2.2,1.9,4.1,1.9,4.1
				c0.7,1.2,0.4,2.7-0.8,3.4c-1.2,0.7-2.7,0.4-3.4-0.8l0,0c0,0-0.4-0.6-0.8-1.5c-0.5-0.9-1.1-2.2-1.5-3.5c-0.5-1.3-0.8-2.6-1-3.6
				c-0.1-0.5-0.2-1-0.2-1.2c0-0.3-0.1-0.4-0.1-0.4c-0.2-1.4,0.7-2.7,2-2.9C302.9,163,304.2,163.9,304.5,165.3z"/>
			<path fill="#F79B36" d="M316,181.8c0,0,0.1,0.1,0.4,0.2c0.3,0.1,0.5,0.3,0.9,0.4c0.8,0.4,1.8,0.8,2.9,1.1c1.1,0.3,2.2,0.6,3,0.7
				c0.8,0.1,1.4,0.2,1.4,0.2c1.4,0.1,2.4,1.3,2.3,2.7c-0.1,1.4-1.3,2.4-2.7,2.3l-0.1,0c0,0-0.7-0.1-1.7-0.2c-1-0.2-2.4-0.5-3.7-0.9
				c-1.3-0.4-2.6-0.9-3.5-1.4c-0.5-0.2-0.9-0.4-1.1-0.6c-0.2-0.1-0.4-0.2-0.4-0.2c-1.2-0.6-1.7-2.1-1.1-3.4
				C313.2,181.7,314.7,181.2,316,181.8z"/>
			<path fill="#F79B36" d="M336.2,182.7c0,0,0.1-0.1,0.4-0.2c0.3-0.1,0.5-0.2,0.9-0.4c0.8-0.4,1.8-0.9,2.7-1.6
				c1.9-1.3,3.5-2.9,3.5-2.9c1-1,2.5-1,3.5,0c1,1,1,2.5,0,3.5l0,0l0,0c0,0-0.5,0.5-1.2,1.2c-0.8,0.7-1.8,1.6-3,2.3
				c-1.1,0.8-2.3,1.5-3.3,1.9c-0.4,0.2-0.9,0.4-1.1,0.5c-0.3,0.1-0.4,0.2-0.4,0.2c-1.3,0.6-2.7,0-3.3-1.3
				C334.3,184.7,334.9,183.2,336.2,182.7z"/>
			<path fill="#F79B36" d="M350.4,167.5c0,0,0.2-0.6,0.6-1.4c0.3-0.8,0.8-2,1.2-3.1c0.8-2.3,1.4-4.6,1.4-4.6
				c0.4-1.3,1.7-2.1,3.1-1.8c1.3,0.4,2.1,1.7,1.8,3.1l0,0c0,0-0.7,2.5-1.5,5c-0.4,1.2-0.9,2.5-1.3,3.4c-0.4,0.9-0.6,1.5-0.6,1.5
				c-0.5,1.3-2,1.9-3.3,1.3C350.4,170.3,349.8,168.8,350.4,167.5L350.4,167.5L350.4,167.5z"/>
			<path fill="#F79B36" d="M356.2,145.8c0,0,0.1-0.6,0.2-1.5c0.1-0.9,0.3-2.2,0.5-3.4c0.3-2.5,0.6-4.9,0.6-4.9
				c0.1-1.4,1.4-2.4,2.7-2.2c1.4,0.1,2.4,1.4,2.2,2.7l0,0c0,0-0.3,2.5-0.6,5c-0.2,1.3-0.3,2.5-0.5,3.5c-0.1,0.9-0.2,1.6-0.2,1.6
				c-0.2,1.4-1.5,2.3-2.8,2.1C356.9,148.5,356,147.2,356.2,145.8L356.2,145.8z"/>
			<path fill="#F79B36" d="M358.6,123l0.8-10c0.1-1.4,1.3-2.4,2.7-2.3c1.4,0.1,2.4,1.3,2.3,2.7l0,0l-0.8,10
				c-0.1,1.4-1.3,2.4-2.7,2.3C359.5,125.6,358.5,124.4,358.6,123L358.6,123z"/>
			<path fill="#F79B36" d="M360.6,99.8c0,0,0.1-0.6,0.2-1.6c0.1-0.9,0.3-2.2,0.5-3.5c0.4-2.5,0.8-5.1,0.8-5.1c0.2-1.4,1.5-2.3,2.9-2
				c1.4,0.2,2.3,1.5,2,2.9l0,0c0,0-0.4,2.4-0.8,4.9c-0.2,1.2-0.3,2.5-0.5,3.4c-0.1,0.9-0.2,1.5-0.2,1.5l0,0
				c-0.2,1.4-1.4,2.3-2.8,2.2S360.4,101.2,360.6,99.8z"/>
			<path fill="#F79B36" d="M365.4,76.6c0,0,0.2-0.6,0.6-1.5c0.4-0.9,0.9-2.2,1.4-3.4c0.6-1.2,1.2-2.4,1.7-3.3
				c0.5-0.9,0.9-1.4,0.9-1.4l0,0c0.8-1.2,2.3-1.5,3.5-0.7c1.2,0.8,1.5,2.3,0.7,3.5c0,0-1.3,1.9-2.3,4.1c-0.5,1.1-1,2.2-1.3,3
				c-0.3,0.9-0.5,1.4-0.5,1.4l0,0c-0.5,1.3-1.9,2-3.2,1.5C365.6,79.4,364.9,77.9,365.4,76.6L365.4,76.6z"/>
			<path fill="#F79B36" d="M380.5,57.4c0,0,0.1-0.1,0.4-0.2c0.2-0.1,0.7-0.3,1.2-0.5c1-0.4,2.3-0.9,3.6-1.2c2.7-0.7,5.4-0.8,5.4-0.8
				l0.1,0c1.4-0.1,2.6,1,2.6,2.4c0.1,1.4-1,2.6-2.4,2.6c0,0-2.3,0.1-4.5,0.7c-1.1,0.3-2.2,0.6-2.9,1c-0.4,0.2-0.7,0.3-0.9,0.4
				c-0.2,0.1-0.4,0.2-0.4,0.2c-1.2,0.6-2.7,0.1-3.3-1.2C378.7,59.5,379.2,58,380.5,57.4z"/>
			<path fill="#F79B36" d="M405,56.3c0,0,0.1,0.1,0.4,0.1c0.1,0.1,0.3,0.1,0.5,0.2c0.2,0.1,0.4,0.2,0.7,0.3c1,0.4,2.2,1,3.4,1.8
				c1.2,0.7,2.3,1.6,3.1,2.4c0.8,0.7,1.3,1.3,1.3,1.3l0.1,0.1c0.9,1,0.8,2.6-0.2,3.5c-1,0.9-2.6,0.8-3.5-0.2c0,0-0.4-0.4-1-1
				c-0.6-0.6-1.5-1.2-2.4-1.8c-0.9-0.6-1.9-1.1-2.7-1.4c-0.2-0.1-0.4-0.1-0.5-0.2c-0.2-0.1-0.3-0.1-0.4-0.2
				c-0.3-0.1-0.4-0.1-0.4-0.1c-1.3-0.5-2-1.9-1.5-3.2C402.3,56.6,403.7,55.9,405,56.3z"/>
			<path fill="#F79B36" d="M420.1,75.6c0,0,0,0.2,0,0.4c0,0.3,0.1,0.7,0.1,1.2c0.1,1,0.1,2.4,0.1,3.7c-0.1,2.7-0.5,5.3-0.5,5.3l0,0
				c-0.2,1.4-1.5,2.3-2.9,2.1c-1.4-0.2-2.3-1.5-2.1-2.9c0,0,0.4-2.4,0.4-4.7c0-1.2,0-2.3-0.1-3.2c0-0.5-0.1-0.7-0.1-1
				c0-0.3,0-0.4,0-0.4c-0.2-1.4,0.8-2.6,2.2-2.8C418.7,73.2,420,74.2,420.1,75.6z"/>
			<path fill="#F79B36" d="M416.4,99.4c0,0-0.2,0.6-0.6,1.5c-0.4,0.9-0.9,2.1-1.4,3.3c-1.1,2.4-2.4,4.6-2.4,4.6l0,0
				c-0.7,1.2-2.2,1.6-3.4,1c-1.2-0.7-1.6-2.2-1-3.4h0c0,0,1.2-2.1,2.2-4.3c0.5-1.1,1-2.2,1.3-3.1c0.3-0.9,0.6-1.4,0.6-1.4l0,0
				c0.5-1.3,2-1.9,3.2-1.4C416.3,96.7,416.9,98.1,416.4,99.4L416.4,99.4z"/>
			<path fill="#F79B36" d="M404.1,120c0,0-0.1,0.1-0.3,0.3c-0.2,0.2-0.5,0.5-0.9,0.9c-0.7,0.7-1.7,1.6-2.8,2.5
				c-1.1,0.9-2.3,1.6-3.3,2.1c-1,0.5-1.7,0.8-1.7,0.8l-0.1,0c-1.3,0.4-2.7-0.3-3.2-1.6c-0.4-1.3,0.3-2.7,1.6-3.2l0,0
				c0,0,0.5-0.1,1.1-0.5c0.7-0.4,1.6-0.9,2.5-1.6c0.9-0.7,1.7-1.5,2.4-2.1c0.3-0.3,0.6-0.6,0.7-0.8c0.2-0.2,0.3-0.3,0.3-0.3
				c0.9-1,2.5-1,3.5-0.1C405,117.4,405,119,404.1,120z"/>
			<path fill="#F79B36" d="M389,115.2c0,0,0.1-0.1,0.2-0.4c0.2-0.2,0.5-0.6,0.8-1c0.6-0.8,1.5-1.9,2.5-2.8c1-1,2.1-1.9,2.9-2.5
				c0.8-0.6,1.5-1,1.5-1l0,0c1.2-0.7,2.7-0.4,3.4,0.8c0.7,1.2,0.4,2.7-0.8,3.4c0,0-0.5,0.3-1.1,0.8c-0.7,0.5-1.6,1.2-2.4,2
				c-0.8,0.8-1.6,1.7-2.1,2.3c-0.3,0.4-0.4,0.6-0.6,0.8c-0.2,0.2-0.2,0.4-0.2,0.4c-0.8,1.1-2.3,1.4-3.5,0.6
				C388.5,117.9,388.2,116.4,389,115.2z"/>
			<path fill="#F79B36" d="M411.6,106c0,0,0.1,0.1,0.4,0.2c0.1,0.1,0.3,0.1,0.5,0.2c0.2,0.1,0.4,0.2,0.7,0.3c0.9,0.4,2.2,1,3.3,1.6
				c2.4,1.3,4.5,2.8,4.5,2.8l0,0c1.1,0.8,1.4,2.3,0.6,3.5c-0.8,1.1-2.3,1.4-3.5,0.6c0,0-2-1.4-4.1-2.5c-1-0.6-2.1-1.1-2.9-1.4
				c-0.2-0.1-0.4-0.2-0.5-0.2c-0.2-0.1-0.3-0.1-0.4-0.2c-0.3-0.1-0.4-0.2-0.4-0.2c-1.3-0.5-2-1.9-1.5-3.2
				C408.8,106.2,410.3,105.5,411.6,106z"/>
			<path fill="#F79B36" d="M431.3,119.8c0,0,0.4,0.5,1.1,1.2c0.7,0.7,1.5,1.7,2.4,2.6c1.7,2,3.3,4,3.3,4l0,0
				c0.8,1.1,0.6,2.7-0.5,3.5c-1.1,0.8-2.7,0.6-3.5-0.5c0,0-1.5-1.9-3.1-3.8c-0.8-0.9-1.6-1.8-2.2-2.5c-0.6-0.7-1.1-1.1-1.1-1.1l0,0
				c-1-1-0.9-2.6,0.1-3.5C428.8,118.8,430.4,118.8,431.3,119.8L431.3,119.8z"/>
			<path fill="#F79B36" d="M445.5,138.8c0,0,0.3,0.6,0.8,1.4c0.5,0.8,1.1,2,1.6,3.1c1.2,2.3,2.2,4.7,2.2,4.7l0,0
				c0.6,1.3,0,2.7-1.3,3.3c-1.3,0.6-2.7,0-3.3-1.3c0,0-1-2.3-2.1-4.4c-0.6-1.1-1.1-2.2-1.6-3c-0.5-0.8-0.8-1.3-0.8-1.3l0,0
				c-0.7-1.2-0.2-2.7,1-3.4S444.9,137.6,445.5,138.8L445.5,138.8z"/>
			<path fill="#F79B36" d="M454.8,160.6c0,0,0.2,0.6,0.5,1.5c0.3,0.9,0.6,2.2,0.9,3.4c0.6,2.5,1.2,5,1.2,5l0,0
				c0.3,1.4-0.6,2.7-1.9,3c-1.4,0.3-2.7-0.6-3-1.9c0,0-0.5-2.4-1.1-4.8c-0.3-1.2-0.6-2.4-0.9-3.3c-0.3-0.9-0.4-1.5-0.4-1.5l0,0
				c-0.4-1.3,0.4-2.7,1.7-3.1S454.4,159.2,454.8,160.6L454.8,160.6z"/>
			<path fill="#F79B36" d="M459.4,183.8c0,0,0.1,0.6,0.1,1.6c0.1,1,0.2,2.2,0.3,3.5c0.2,2.6,0.2,5.1,0.2,5.1l0,0
				c0,1.4-1.1,2.5-2.5,2.5c-1.4,0-2.5-1.1-2.5-2.5c0,0,0-2.5-0.2-4.9c-0.1-1.2-0.2-2.5-0.2-3.4c-0.1-0.9-0.1-1.5-0.1-1.5l0,0
				c-0.1-1.4,0.9-2.6,2.3-2.7C458,181.4,459.2,182.4,459.4,183.8z"/>
			<path fill="#F79B36" d="M459.6,207.3c0,0-0.1,0.6-0.1,1.6c-0.1,1-0.2,2.2-0.3,3.5c-0.3,2.5-0.6,5.1-0.6,5.1l0,0
				c-0.2,1.4-1.5,2.3-2.8,2.1s-2.3-1.5-2.1-2.8l0,0c0,0,0.4-2.5,0.6-4.9c0.1-1.2,0.2-2.5,0.3-3.4c0.1-0.9,0.1-1.5,0.1-1.5l0,0
				c0.1-1.4,1.3-2.4,2.7-2.3S459.7,205.9,459.6,207.3L459.6,207.3z"/>
			<path fill="#F79B36" d="M456.2,230.6c0,0-0.1,0.6-0.3,1.6c-0.2,0.9-0.5,2.2-0.8,3.4c-0.6,2.5-1.3,4.9-1.3,4.9l0,0
				c-0.4,1.4-1.8,2.2-3.1,1.8c-1.4-0.4-2.2-1.8-1.8-3.1l0,0c0,0,0.7-2.4,1.3-4.8c0.3-1.2,0.6-2.4,0.8-3.3c0.2-0.9,0.3-1.5,0.3-1.5
				l0,0c0.3-1.4,1.7-2.2,3-1.9C455.6,227.8,456.5,229.2,456.2,230.6z"/>
			<path fill="#F79B36" d="M449.7,253.1c0,0-0.2,0.6-0.5,1.5c-0.3,0.9-0.8,2.1-1.2,3.3c-0.9,2.4-1.9,4.7-1.9,4.7l0,0
				c-0.5,1.2-1.9,1.8-3.2,1.3c-1.2-0.5-1.8-1.9-1.3-3.1c0,0,0.9-2.3,1.7-4.7c0.8-2.3,1.7-4.7,1.7-4.7l0,0c0.5-1.3,1.9-2,3.2-1.5
				S450.2,251.8,449.7,253.1L449.7,253.1z"/>
			<path fill="#F79B36" d="M440.8,274.7l-4.4,9.1c-0.5,1.1-1.9,1.6-3,1c-1.1-0.5-1.5-1.8-1-2.9l0,0l4.2-9.1l0,0
				c0.5-1.2,1.9-1.7,3.1-1.1C440.8,272.1,441.3,273.5,440.8,274.7C440.8,274.7,440.8,274.7,440.8,274.7z"/>
			<path fill="#F79B36" d="M429.9,295.5c0,0-0.4,0.5-0.9,1.3c-0.6,0.8-1.3,1.9-2.2,2.9c-0.9,1-1.8,2-2.7,2.7
				c-0.8,0.7-1.4,1.1-1.4,1.1l-0.1,0c-0.9,0.6-2.2,0.3-2.8-0.6c-0.6-0.9-0.3-2.1,0.6-2.7c0,0,0.4-0.3,1.1-0.8
				c0.6-0.5,1.4-1.4,2.1-2.3c0.7-0.9,1.4-1.9,1.9-2.6c0.5-0.8,0.8-1.3,0.8-1.3l0,0c0.6-1,1.9-1.3,2.9-0.6S430.5,294.5,429.9,295.5
				C429.9,295.5,429.9,295.5,429.9,295.5z"/>
			<path fill="#F79B36" d="M408.2,303.6c0,0-0.1-0.1-0.4-0.2c-0.1-0.1-0.3-0.2-0.5-0.3c-0.2-0.1-0.4-0.3-0.6-0.4
				c-0.9-0.6-2-1.5-2.9-2.5c-1-1-1.8-2.1-2.3-3c-0.6-0.9-0.9-1.4-0.9-1.4l0,0c-0.5-0.9-0.2-1.9,0.7-2.4c0.9-0.5,1.9-0.2,2.4,0.7
				c0,0,1.2,2.1,2.8,3.7c0.8,0.8,1.7,1.5,2.4,1.9c0.4,0.2,0.6,0.4,0.8,0.5c0.2,0.1,0.4,0.2,0.4,0.2c0.9,0.5,1.3,1.6,0.8,2.5
				C410.3,303.8,409.1,304.1,408.2,303.6C408.2,303.6,408.2,303.6,408.2,303.6z"/>
			<path fill="#F79B36" d="M396.2,282.9c0,0-0.1-0.6-0.3-1.6c-0.2-1-0.3-2.2-0.5-3.5c-0.3-2.6-0.4-5.1-0.4-5.1l0,0
				c0-0.9,0.6-1.6,1.5-1.6c0.9,0,1.6,0.6,1.6,1.5c0,0,0.1,2.5,0.4,4.9c0.1,1.2,0.3,2.4,0.5,3.3c0.2,0.9,0.3,1.5,0.3,1.5l0,0
				c0.2,0.9-0.4,1.8-1.3,1.9C397.2,284.4,396.3,283.8,396.2,282.9C396.2,282.9,396.2,282.9,396.2,282.9z"/>
			<path fill="#F79B36" d="M395.4,259.4c0,0,0.1-0.6,0.1-1.6c0.1-1,0.2-2.2,0.4-3.5c0.3-2.5,0.7-5,0.7-5l0,0
				c0.1-0.7,0.8-1.2,1.5-1.1c0.7,0.1,1.2,0.8,1.1,1.5c0,0-0.3,2.5-0.6,5c-0.1,1.2-0.2,2.5-0.3,3.4c-0.1,0.9-0.1,1.6-0.1,1.6l0,0
				c-0.1,0.8-0.7,1.4-1.5,1.4S395.3,260.2,395.4,259.4C395.4,259.4,395.4,259.4,395.4,259.4z"/>
			<path fill="#F79B36" d="M399,236.4c0,0,0.6-2.5,1.2-4.9c0.6-2.5,1.4-4.9,1.4-4.9c0.2-0.6,0.8-1,1.4-0.8c0.6,0.2,0.9,0.8,0.8,1.4
				c0,0-0.7,2.4-1.2,4.8c-0.6,2.4-1.1,4.9-1.1,4.9c-0.1,0.7-0.8,1.1-1.5,1C399.3,237.7,398.9,237.1,399,236.4
				C399,236.4,399,236.4,399,236.4L399,236.4z"/>
			<path fill="#F79B36" d="M405.7,214.1c0,0,0.9-2.4,1.8-4.7c0.9-2.4,1.9-4.7,1.9-4.7c0.2-0.5,0.7-0.7,1.2-0.5
				c0.5,0.2,0.7,0.7,0.5,1.2c0,0-1,2.3-1.8,4.7c-0.9,2.3-1.7,4.7-1.7,4.7c-0.2,0.5-0.8,0.8-1.3,0.6
				C405.8,215.2,405.5,214.6,405.7,214.1C405.7,214.1,405.7,214.1,405.7,214.1L405.7,214.1z"/>
			<path fill="#F79B36" d="M415.1,192.8c0,0,1.2-2.2,2.4-4.4c1.2-2.2,2.5-4.4,2.5-4.4c0.2-0.3,0.6-0.4,1-0.2c0.3,0.2,0.4,0.6,0.2,1
				c0,0-1.3,2.2-2.4,4.4c-1.2,2.2-2.3,4.5-2.3,4.5c-0.2,0.4-0.7,0.6-1.1,0.4C415.1,193.7,414.9,193.2,415.1,192.8
				C415.1,192.8,415.1,192.8,415.1,192.8L415.1,192.8z"/>
			<path fill="#F79B36" d="M427.3,173c0,0,1.5-2,3-4c1.6-2,3.2-3.9,3.2-3.9c0.2-0.2,0.4-0.2,0.6-0.1c0.2,0.2,0.2,0.4,0.1,0.6
				c0,0-1.6,1.9-3.1,4c-1.5,2-2.9,4.1-2.9,4.1c-0.2,0.3-0.5,0.3-0.8,0.1S427.1,173.3,427.3,173C427.3,173,427.3,173,427.3,173
				L427.3,173z"/>
			<path fill="#F79B36" d="M442.6,155.5c0,0,1.8-1.7,3.8-3.4c1.9-1.6,3.9-3.2,3.9-3.2c0.1-0.1,0.2-0.1,0.3,0c0.1,0.1,0.1,0.2,0,0.3
				c0,0-2,1.6-3.8,3.2c-1.9,1.7-3.7,3.4-3.7,3.4c-0.1,0.1-0.3,0.1-0.4,0C442.5,155.9,442.5,155.7,442.6,155.5
				C442.6,155.5,442.6,155.5,442.6,155.5z"/>
			<path fill="#F79B36" d="M461.4,141.7c0,0,1.1-0.6,2.2-1.2c1.1-0.6,2.2-1.1,2.2-1.1s-1.1,0.6-2.2,1.2
				C462.5,141.1,461.4,141.8,461.4,141.7C461.4,141.8,461.4,141.8,461.4,141.7C461.3,141.7,461.3,141.7,461.4,141.7
				C461.4,141.7,461.4,141.7,461.4,141.7z"/>
		</g>
	</g>
	<g id="XMLID_5_">
		<g>
			<path fill="#F79B36" d="M427.4,71.5l1.3-4.8c0-0.1,0.1-0.1,0.2-0.1s0.1,0.1,0.1,0.2c0,0,0,0,0,0L427.4,71.5z"/>
			<path fill="#F79B36" d="M433.2,54.6c0,0,1-2.3,2.2-4.5c1.2-2.2,2.5-4.3,2.5-4.3l0,0c0.3-0.4,0.8-0.5,1.2-0.3
				c0.4,0.3,0.5,0.8,0.3,1.2c0,0,0,0,0,0c0,0-1.4,2-2.7,4c-1.3,2.1-2.4,4.2-2.4,4.2c-0.2,0.3-0.5,0.4-0.8,0.2
				C433.2,55.3,433.1,54.9,433.2,54.6L433.2,54.6z"/>
			<path fill="#F79B36" d="M446.2,35.8c0,0,0.4-0.4,1.2-1c0.7-0.6,1.8-1.4,2.8-2.1c1.1-0.7,2.2-1.3,3.1-1.8c0.9-0.4,1.5-0.7,1.5-0.7
				l0,0c0.8-0.3,1.7,0.1,2,0.9s-0.1,1.7-0.9,2c0,0,0,0-0.1,0c0,0-0.5,0.2-1.3,0.5c-0.8,0.3-1.9,0.8-2.9,1.4c-1,0.6-2,1.2-2.7,1.8
				c-0.7,0.5-1.2,0.9-1.2,0.9c-0.5,0.4-1.3,0.4-1.8-0.2C445.7,37.1,445.7,36.3,446.2,35.8L446.2,35.8z"/>
			<path fill="#F79B36" d="M468.3,28.3c0,0,0.2,0,0.4,0c0.3,0,0.7,0.1,1.2,0.2c1,0.2,2.3,0.4,3.5,0.8c1.3,0.3,2.5,0.8,3.4,1.1
				c0.5,0.2,0.8,0.3,1.1,0.4c0.2,0.1,0.4,0.2,0.4,0.2c1.1,0.5,1.6,1.7,1.2,2.8c-0.5,1.1-1.7,1.6-2.8,1.2c0,0-0.1,0-0.1,0
				c0,0-0.1-0.1-0.4-0.2c-0.2-0.1-0.6-0.3-1-0.4c-0.8-0.4-1.9-0.8-3-1.1c-1.1-0.4-2.2-0.7-3.1-0.8c-0.4-0.1-0.8-0.2-1-0.2
				c-0.3,0-0.4-0.1-0.4-0.1c-1-0.2-1.7-1.1-1.6-2.2C466.4,28.9,467.3,28.2,468.3,28.3z"/>
			<path fill="#F79B36" d="M489.4,39.4c0,0,0.1,0.1,0.2,0.3c0.1,0.2,0.4,0.6,0.7,1c0.6,0.9,1.2,2.1,1.8,3.3c1.1,2.5,1.6,5.2,1.6,5.2
				l0,0c0.2,1.4-0.7,2.7-2.1,3c-1.4,0.2-2.7-0.6-3-2c0,0-0.1-0.5-0.3-1.4c-0.2-0.8-0.5-1.9-1-2.9c-0.4-1-0.9-2-1.3-2.7
				c-0.2-0.4-0.3-0.6-0.5-0.8c-0.1-0.2-0.2-0.4-0.2-0.4c-0.7-1.1-0.4-2.7,0.7-3.4C487.1,38.1,488.6,38.4,489.4,39.4z"/>
			<path fill="#F79B36" d="M493.7,63c0,0-0.1,0.6-0.3,1.6c-0.2,1-0.4,2.2-0.7,3.5c-0.6,2.5-1.4,4.9-1.4,4.9l0,0
				c-0.4,1.3-1.9,2-3.2,1.6c-1.3-0.4-2-1.9-1.6-3.2c0,0,0.8-2.3,1.3-4.5c0.3-1.1,0.5-2.3,0.7-3.2c0.1-0.9,0.2-1.5,0.2-1.5l0,0
				c0.2-1.4,1.5-2.3,2.9-2.1S494,61.6,493.7,63L493.7,63z"/>
			<path fill="#F79B36" d="M486.1,85.1c0,0-0.3,0.6-0.7,1.4c-0.5,0.8-1.1,1.9-1.8,3c-1.3,2.2-2.8,4.3-2.8,4.3l0,0
				c-0.8,1.1-2.4,1.4-3.5,0.6c-1.1-0.8-1.4-2.4-0.6-3.5l0,0c0,0,1.4-1.9,2.6-4c0.6-1,1.2-2,1.6-2.8c0.4-0.8,0.7-1.3,0.7-1.3l0,0
				c0.7-1.2,2.2-1.7,3.4-1C486.3,82.4,486.8,83.9,486.1,85.1L486.1,85.1z"/>
			<path fill="#F79B36" d="M469.6,103.2c0,0-0.1,0-0.2,0c-0.2,0-0.4,0-0.7,0c-0.2,0-0.3,0-0.5-0.1c-0.1,0-0.2-0.1-0.3-0.1l-0.2-0.1
				l-0.1,0l-0.2-0.1c-0.2-0.1-0.4-0.2-0.6-0.3c-0.3-0.2-0.8-0.5-1.1-0.7c-0.3-0.3-0.7-0.6-1-1c-0.3-0.4-0.6-0.9-0.8-1.4
				c-0.2-0.5-0.3-1-0.4-1.5c-0.1-0.5-0.1-1,0-1.4c0-0.5,0.1-0.9,0.2-1.3c0.2-0.8,0.4-1.4,0.7-1.9c0.1-0.3,0.2-0.5,0.3-0.7
				c0.1-0.2,0.2-0.4,0.3-0.5c0.2-0.3,0.3-0.4,0.3-0.4c0.7-1.2,2.2-1.6,3.4-0.9c1.2,0.7,1.6,2.2,0.9,3.4l-0.1,0.1
				c0,0-0.1,0.1-0.2,0.3c-0.1,0.1-0.1,0.2-0.2,0.3c-0.1,0.1-0.2,0.3-0.2,0.4c-0.1,0.3-0.3,0.7-0.4,1c0,0.2-0.1,0.4-0.1,0.5
				c0,0.2,0,0.3,0,0.4c0,0.1,0,0.2,0.1,0.3c0,0.1,0.1,0.1,0.1,0.2c0.1,0.1,0.1,0.1,0.2,0.2c0.1,0.1,0.1,0.1,0.1,0.1
				c0.2,0.1,0.4,0.2,0.5,0.3l-0.2-0.1l0,0l-0.1,0c0,0-0.1,0-0.1,0c0,0-0.1,0-0.1,0c0,0,0,0,0,0c0,0,0,0,0,0l0,0
				c1.4-0.1,2.6,0.9,2.7,2.3C472.1,102,471,103.1,469.6,103.2C469.7,103.2,469.6,103.2,469.6,103.2z"/>
			<path fill="#F79B36" d="M475.9,82.4c0,0,0.1-0.1,0.4-0.2c0.2-0.1,0.7-0.3,1.1-0.5c0.9-0.4,2.2-0.9,3.5-1.3
				c1.3-0.4,2.6-0.7,3.7-0.8c1-0.2,1.7-0.2,1.7-0.2l0.1,0c1.4-0.1,2.6,1,2.6,2.4s-1,2.6-2.4,2.6c0,0-0.5,0-1.3,0.1
				c-0.8,0.1-1.9,0.3-2.9,0.7c-1.1,0.3-2.1,0.7-2.8,1.1c-0.4,0.2-0.6,0.3-0.9,0.4c-0.2,0.1-0.4,0.2-0.4,0.2
				c-1.2,0.6-2.7,0.2-3.4-1.1C474.2,84.5,474.7,83,475.9,82.4z"/>
			<path fill="#F79B36" d="M499.8,81.7c0,0,0.1,0.1,0.4,0.1c0.3,0.1,0.7,0.2,1.1,0.4c0.9,0.4,2.1,0.9,3.3,1.5
				c2.3,1.1,4.5,2.6,4.5,2.6l0,0c1.2,0.8,1.5,2.3,0.7,3.5c-0.8,1.2-2.3,1.5-3.5,0.7c0,0-1.9-1.3-4-2.3c-1-0.5-2.1-1-2.9-1.3
				c-0.4-0.2-0.7-0.3-1-0.4c-0.3-0.1-0.4-0.1-0.4-0.1c-1.3-0.5-2-1.9-1.5-3.2C497.1,81.9,498.5,81.2,499.8,81.7z"/>
			<path fill="#F79B36" d="M519.3,95.1c0,0,0.4,0.5,1,1.2c0.6,0.7,1.4,1.7,2.2,2.8c1.5,2.1,2.9,4.2,2.9,4.2l0,0
				c0.7,1.2,0.4,2.7-0.8,3.4c-1.2,0.7-2.7,0.4-3.4-0.8c0,0-1.3-2-2.7-3.9c-0.7-0.9-1.4-1.9-2-2.5c-0.6-0.7-1-1.1-1-1.1l0,0
				c-0.9-1-0.8-2.6,0.3-3.5S518.4,94.1,519.3,95.1L519.3,95.1z"/>
			<path fill="#F79B36" d="M531.5,115c0,0,0.2,0.6,0.6,1.4c0.4,0.9,0.8,2,1.3,3.2c0.9,2.4,1.7,4.8,1.7,4.8l0,0
				c0.4,1.3-0.3,2.7-1.6,3.1c-1.3,0.4-2.7-0.3-3.1-1.6c0,0-0.7-2.3-1.6-4.5c-0.4-1.1-0.9-2.2-1.2-3.1c-0.4-0.8-0.6-1.4-0.6-1.4l0,0
				c-0.5-1.3,0.1-2.7,1.3-3.3C529.5,113.1,531,113.7,531.5,115L531.5,115z"/>
			<path fill="#F79B36" d="M538.4,137.1l1.8,9.7c0.3,1.4-0.6,2.7-2,2.9s-2.7-0.6-2.9-2l-1.8-9.7c-0.3-1.4,0.6-2.7,2-2.9
				S538.2,135.8,538.4,137.1z"/>
			<path fill="#F79B36" d="M541.9,159.8l0.6,9.8c0.1,1.4-1,2.6-2.3,2.7c-1.4,0.1-2.6-1-2.7-2.3l-0.6-9.8c-0.1-1.4,1-2.6,2.3-2.7
				C540.6,157.4,541.8,158.4,541.9,159.8z"/>
			<path fill="#F79B36" d="M542.7,182.7l-0.3,9.8c0,1.4-1.2,2.5-2.6,2.4c-1.4,0-2.5-1.2-2.4-2.6l0.3-9.8c0-1.4,1.2-2.5,2.6-2.4
				C541.6,180.1,542.7,181.3,542.7,182.7z"/>
			<path fill="#F79B36" d="M541.3,205.5l-1.2,9.8c-0.2,1.4-1.4,2.3-2.8,2.2c-1.4-0.2-2.3-1.4-2.2-2.8l1.2-9.8
				c0.2-1.4,1.4-2.3,2.8-2.2S541.5,204.1,541.3,205.5z"/>
			<path fill="#F79B36" d="M537.8,228.1l-2.2,9.6c-0.3,1.3-1.7,2.2-3,1.9c-1.3-0.3-2.2-1.7-1.9-3l2.2-9.6c0.3-1.3,1.7-2.2,3-1.9
				S538.1,226.8,537.8,228.1z"/>
			<path fill="#F79B36" d="M531.8,250.3l-3.5,9.2c-0.5,1.3-1.9,1.9-3.2,1.5c-1.3-0.5-1.9-1.9-1.5-3.2l0,0l3.5-9.2
				c0.5-1.3,1.9-1.9,3.2-1.5C531.7,247.6,532.3,249.1,531.8,250.3L531.8,250.3z"/>
			<path fill="#F79B36" d="M522.5,271.4c0,0-0.3,0.5-0.8,1.4c-0.5,0.8-1.2,1.9-1.9,2.9c-1.4,2.1-3.1,4.1-3.1,4.1l0,0
				c-0.9,1.1-2.5,1.2-3.5,0.3c-1.1-0.9-1.2-2.5-0.3-3.5l0,0c0,0,1.5-1.8,2.8-3.8c0.7-1,1.3-2,1.8-2.7c0.5-0.8,0.8-1.3,0.8-1.3l0,0
				c0.7-1.2,2.2-1.6,3.4-0.9C522.8,268.7,523.2,270.2,522.5,271.4L522.5,271.4z"/>
			<path fill="#F79B36" d="M506.2,288.7c0,0-0.1,0.1-0.4,0.2c-0.3,0.1-0.7,0.3-1.1,0.5c-0.9,0.4-2.2,0.9-3.6,1.2
				c-0.7,0.2-1.4,0.3-2,0.4c-0.2,0-0.3,0-0.5,0.1c-0.2,0-0.4,0-0.5,0c-0.3,0-0.7,0-1,0c-1.2,0-2.1-0.3-2.1-0.3l-0.2-0.1
				c-1.3-0.4-2-1.8-1.6-3.1c0.4-1.3,1.8-2,3.1-1.6c0,0,0,0,0,0c0,0,0.4,0.1,1,0.1c0.2,0,0.3,0,0.5,0c0.1,0,0.2,0,0.3,0
				c0.1,0,0.2,0,0.4,0c0.5-0.1,1-0.2,1.5-0.3c1-0.3,2-0.6,2.8-1c0.4-0.2,0.7-0.3,0.9-0.4c0.2-0.1,0.4-0.2,0.4-0.2
				c1.2-0.6,2.7-0.1,3.4,1.1C507.9,286.6,507.4,288.1,506.2,288.7z"/>
			<path fill="#F79B36" d="M486.2,279c0,0,0-0.2-0.1-0.4c-0.1-0.3-0.1-0.7-0.2-1.2c-0.2-1-0.4-2.2-0.5-3.5c-0.3-2.6-0.4-5.1-0.4-5.1
				l0,0c0-1.4,1-2.5,2.4-2.6s2.5,1,2.6,2.4c0,0,0.1,2.4,0.4,4.7c0.1,1.2,0.3,2.3,0.5,3.2c0.1,0.4,0.2,0.8,0.2,1
				c0.1,0.3,0.1,0.4,0.1,0.4c0.3,1.3-0.5,2.7-1.9,3C487.8,281.2,486.5,280.4,486.2,279z"/>
			<path fill="#F79B36" d="M485.3,255.6l1.1-9.8l0,0c0.2-1.4,1.4-2.4,2.8-2.2c1.4,0.2,2.4,1.4,2.2,2.8l-1.1,9.8l0,0
				c-0.2,1.4-1.4,2.4-2.8,2.2S485.1,257,485.3,255.6z"/>
			<path fill="#F79B36" d="M488.8,233l2.2-9.6c0.3-1.3,1.7-2.2,3-1.9c1.3,0.3,2.2,1.7,1.9,3l-2.2,9.6c-0.3,1.3-1.7,2.2-3,1.9
				C489.3,235.7,488.5,234.3,488.8,233z"/>
			<path fill="#F79B36" d="M494.5,210.8l3-9.4c0.4-1.3,1.8-2,3.1-1.6c1.3,0.4,2,1.8,1.6,3.1l-3,9.4c-0.4,1.3-1.8,2-3.1,1.6
				C494.8,213.6,494.1,212.2,494.5,210.8z"/>
			<path fill="#F79B36" d="M502,189.3l3.7-9.1c0.5-1.3,2-1.9,3.3-1.4c1.3,0.5,1.9,2,1.4,3.3l-3.7,9.1c-0.5,1.3-2,1.9-3.3,1.4
				C502.1,192,501.4,190.5,502,189.3z"/>
			<path fill="#F79B36" d="M511.1,168.3l4.4-8.8c0.6-1.2,2.1-1.7,3.4-1.1c1.2,0.6,1.7,2.1,1.1,3.4l-4.4,8.8
				c-0.6,1.2-2.1,1.7-3.4,1.1C511,171.1,510.5,169.6,511.1,168.3z"/>
			<path fill="#F79B36" d="M521.8,148.2l5.2-8.4c0.7-1.2,2.3-1.5,3.4-0.8c1.2,0.7,1.5,2.3,0.8,3.4l-5.2,8.4
				c-0.7,1.2-2.3,1.5-3.4,0.8S521.1,149.3,521.8,148.2z"/>
			<path fill="#F79B36" d="M534.3,129c0,0,0.4-0.5,0.9-1.2c0.6-0.7,1.3-1.7,2.1-2.7c1.5-1.9,3.1-3.9,3.1-3.9c0.8-1,2.4-1.2,3.4-0.4
				c1,0.8,1.2,2.3,0.4,3.3c0,0-1.4,2-2.9,4c-0.7,1-1.5,2-2,2.7c-0.6,0.7-0.9,1.2-0.9,1.2c-0.9,1.1-2.5,1.3-3.6,0.5
				C533.7,131.7,533.5,130.1,534.3,129z"/>
			<path fill="#F79B36" d="M549.1,111.5l7.1-6.9c0.7-0.7,1.9-0.7,2.6,0c0.7,0.7,0.7,1.8,0,2.5l-6.7,7.3c-0.8,0.9-2.1,0.9-3,0.1
				S548.3,112.4,549.1,111.5C549.1,111.5,549.1,111.5,549.1,111.5z"/>
			<path fill="#F79B36" d="M566.1,96.2l8-5.8c0.5-0.4,1.3-0.3,1.7,0.3c0.4,0.5,0.3,1.3-0.2,1.7l-7.7,6.2c-0.6,0.5-1.6,0.4-2.1-0.2
				C565.3,97.7,565.4,96.7,566.1,96.2C566.1,96.2,566.1,96.2,566.1,96.2z"/>
			<path fill="#F79B36" d="M585.2,83.7c0,0,2.2-1.2,4.4-2.2c2.2-1.1,4.5-2,4.5-2c0.3-0.1,0.6,0,0.8,0.3c0.1,0.3,0,0.6-0.3,0.7
				c0,0-2.2,1.1-4.3,2.3c-2.2,1.2-4.2,2.4-4.2,2.4c-0.4,0.2-0.9,0.1-1.2-0.3C584.6,84.5,584.8,84,585.2,83.7
				C585.2,83.7,585.2,83.7,585.2,83.7L585.2,83.7z"/>
			<path fill="#F79B36" d="M606.3,75.2l4.8-1.3l-4.8,1.6c-0.1,0-0.2,0-0.2-0.1C606.2,75.3,606.2,75.2,606.3,75.2
				C606.3,75.2,606.3,75.2,606.3,75.2z"/>
		</g>
	</g>
</g>
</svg>
