<?xml version="1.0" encoding="utf-8"?>
<!-- Generator: Adobe Illustrator 19.1.0, SVG Export Plug-In . SVG Version: 6.00 Build 0)  -->
<!DOCTYPE svg PUBLIC "-//W3C//DTD SVG 1.1//EN" "http://www.w3.org/Graphics/SVG/1.1/DTD/svg11.dtd">
<svg version="1.1" id="Layer_1" xmlns="http://www.w3.org/2000/svg" xmlns:xlink="http://www.w3.org/1999/xlink" x="0px" y="0px"
	 width="726.4px" height="372.9px" viewBox="0 0 726.4 372.9" enable-background="new 0 0 726.4 372.9" xml:space="preserve">
<g>
	<g>
		<g>
			<line fill="none" stroke="#3F4251" stroke-width="3.193" stroke-miterlimit="10" x1="139" y1="88.1" x2="145.4" y2="88.1"/>
			<path fill="none" stroke="#3F4251" stroke-width="3.193" stroke-miterlimit="10" stroke-dasharray="12.745,12.745" d="
				M158.1,88.1H558l114.9-1.3c18.6-0.2,33.7,14.8,33.7,33.4v30.1c0,18.4-14.9,33.4-33.4,33.4H95.6c-15.6,0-28.3,12.7-28.3,28.3V267
				c0,15.6,12.7,28.3,28.3,28.3h533.7"/>
			<line fill="none" stroke="#3F4251" stroke-width="3.193" stroke-miterlimit="10" x1="635.7" y1="295.3" x2="642" y2="295.3"/>
		</g>
	</g>
	<g>
		<path fill="#FFFFFF" d="M135.6,357.1c46.8-2.6,93.6-4.7,140.5-6.4c19.2-0.7,38.6,8.6,57.6,11.2c-1.8-3.5-2.7-17.3-2.3-21.2
			c0.4-3.6,2-18.2,1.5-22c-5.4-35.6,0.5-71.7,0.8-107.7c-53.3,6.3-115.8,4.3-169.4,2.3c-8.3-0.3-16.6-0.6-24.8-2
			c0.1,5.2,1.4,19.1-0.7,23.8c-3.8,8.6,2.2,32.5,2.7,40.9c1.7,28.6,1.1,57.4-1.9,85.9"/>
		<g>
			<path fill="#3F4251" d="M135.6,357.7c34-1,67.9-3.1,101.9-4.5c8.2-0.3,16.5-0.7,24.7-1c8.6-0.3,17.2-1,25.8,0.2
				c15.4,2.2,30,8.2,45.4,10.4c1,0.1,1.6-0.7,1.2-1.6c-3.1-7.1-2.5-16.8-1.7-24.4c0.5-4.5,1-9,1.2-13.5c0.3-5.8-1-11.6-1.5-17.4
				c-2.6-31.7,2.2-63.4,2.3-95c0-0.6-0.6-1.3-1.3-1.3c-31.7,3.8-63.7,4.6-95.6,4.4c-16-0.1-31.9-0.5-47.8-1
				c-16.8-0.5-34-0.2-50.6-2.9c-0.6-0.1-1.3,0.3-1.3,1c0.2,4.9,0.6,9.8,0.5,14.6c-0.1,4.7-1.6,8.7-2.2,13.2
				c-1.3,9.6,1.2,19.8,2.7,29.3c2.2,14,2,28.6,1.9,42.8c-0.1,17-1.1,33.9-2.8,50.8c-0.1,1.3,1.9,1.3,2,0c1.8-16.9,2.8-33.8,2.9-50.8
				c0.1-13.6,0.4-27.7-1.7-41.2c-1.6-10.1-5.2-22-2.8-32.2c0.9-4.1,1.9-7.5,2-11.8c0.1-4.9-0.3-9.8-0.4-14.6c-0.4,0.3-0.8,0.6-1.3,1
				c15.6,2.6,31.8,2.4,47.6,2.9c16.5,0.5,33,1,49.5,1.1c32.5,0.3,65.1-0.4,97.4-4c-0.4-0.4-0.8-0.8-1.3-1.3
				c-0.5,32.9-5.2,66-1.8,98.9c0.6,5.3,1.4,10.4,1.1,15.7c-0.3,4.5-0.7,9-1.2,13.5c-0.7,7.2-0.7,16.6,2.3,23.3
				c0.4-0.5,0.8-1,1.2-1.6c-15.4-2.2-30-8.2-45.4-10.4c-16-2.3-33,0-49.1,0.7c-34.6,1.4-69.3,2.6-103.9,5.4
				C134.9,356.6,134.8,357.7,135.6,357.7L135.6,357.7z"/>
		</g>
	</g>
	<g>
		<path fill="#FFFFFF" d="M354,210c46.8,2.6,172.5,1.3,191.5-1.3c-1.8,3.5-2.5,13.9-2.1,17.7c0.4,3.6,1.8,7,2.2,10.6
			c0.5,3.8-0.2,7.6-0.7,11.4c-5.4,35.6,0.5,71.7,0.8,107.7c-34.5,7.7-186.1,2.6-194.2,4c0.1-5.2,1.5-60.6,2-69
			c1.7-28.6,1.1-48.9-1.9-77.4"/>
		<g>
			<path fill="#3F4251" d="M354,210.6c26.6,2.2,53.5,1.8,80.1,1.8c28.3,0,56.6-0.2,84.9-1.1c8.8-0.3,17.7-0.3,26.4-1.5
				c-0.3-0.5-0.6-1.1-0.9-1.6c-2.1,4.8-2.5,10.8-2.4,16c0.1,3,0.8,5.8,1.4,8.7c1.5,6.2,0.6,11.9-0.3,18.1
				c-2.6,19.2-2.1,38.6-1.1,57.9c0.5,9.8,1.2,19.6,1.6,29.5c0.2,4.9,0.4,9.8,0.5,14.7c0,1.8,0.8,1.3-0.4,2c-0.5,0.3-1.7,0.3-2.4,0.4
				c-7.4,1.3-15,1.8-22.6,2.3c-43,2.7-86.3,1.6-129.4,1.1c-8.7-0.1-17.4-0.2-26.1-0.2c-4,0-8.3-0.3-12.3,0.3c0.4,0.3,0.8,0.6,1.3,1
				c0.3-18.8,0.9-37.5,1.5-56.3c0.4-11.5,1.2-23,1.4-34.6c0.3-18.6-0.9-37.1-2.9-55.5c-0.1-1.3-2.1-1.3-2,0
				c1.9,18.5,3.1,37,2.7,55.5c-0.2,11.5-1,23-1.3,34.6c-0.5,18.8-1,37.5-1.5,56.3c0,0.7,0.7,1.1,1.3,1c6.4-1,13.6-0.2,20.1-0.2
				c13.5,0.1,26.9,0.3,40.4,0.4c32.5,0.3,65.1,0.6,97.7-0.8c12-0.5,24.4-0.6,36.2-3.2c0.5-0.1,0.9-0.7,0.9-1.2
				c-0.3-26.5-3.5-52.9-3.1-79.4c0.1-6.5,0.4-13,1.1-19.5c0.6-6.3,2.4-12.8,1.9-19.2c-0.4-5.1-2.5-9.8-2.4-14.9
				c0-4.5,0.2-9.7,2.1-13.8c0.3-0.6,0-1.7-0.9-1.6c-19.8,2.6-40.3,2-60.2,2.3c-30.1,0.5-60.3,0.6-90.4,0.2
				c-13.6-0.2-27.2-0.4-40.9-0.8C353.3,209.4,353.3,210.6,354,210.6L354,210.6z"/>
		</g>
	</g>
	<g>
		<path fill="#FFFFFF" d="M18.8,15.7c46.8,2.6,93.6,4.7,140.5,6.4c19.2,0.7,38.4,1.3,57.4-1.3c-1.8,3.5-2.5,7.5-2.1,11.4
			c0.4,3.6,1.8,7,2.2,10.6c0.5,3.8-0.2,7.6-0.7,11.4c-5.4,35.6,0.5,71.7,0.8,107.7c-53.3-6.3-115.8-4.3-169.4-2.3
			c-8.3,0.3-16.6,0.6-24.8,2c0.1-5.2,2.3-10.1,3.1-15.2c1.3-8-0.8-16.2-1.6-24.3c-0.8-8.4-0.1-16.8,0.4-25.2
			c1.7-28.6,1.1-57.4-1.9-85.9"/>
		<g>
			<path fill="#3F4251" d="M18.8,16.3c33.2,2.7,66.6,3.8,99.9,5.2c32.4,1.4,65.7,4.6,98,0.4c-0.3-0.5-0.6-1.1-0.9-1.6
				c-4.9,10.6,1,20.7-0.5,31.7c-1.6,11.8-2.6,23.4-2.7,35.3c-0.1,24.9,2.7,49.7,3,74.6c0.4-0.4,0.9-0.9,1.3-1.3
				c-32.3-3.7-64.9-4.3-97.4-4c-16.2,0.1-32.4,0.6-48.7,1.1c-16.1,0.5-32.5,0.3-48.5,2.9c0.4,0.3,0.9,0.7,1.3,1
				c0.4-5.8,2.7-11.3,3.3-17.1c0.6-6.3-0.6-12.5-1.4-18.7c-1.6-12.6,0-25.1,0.6-37.7c1.2-25.7,0.2-51.5-2.5-77.2
				c-0.1-1.3-2.1-1.3-2,0c2.6,25.6,3.3,51.4,2.3,77.2c-0.5,12.6-2,25.2-0.4,37.7c0.8,6.2,2,12.4,1.4,18.7c-0.6,5.8-3,11.2-3.4,17.1
				c0,0.7,0.7,1.1,1.3,1c16.6-2.7,33.8-2.4,50.6-2.9c15.9-0.5,31.9-0.9,47.8-1c31.9-0.2,63.8,0.8,95.6,4.4c0.7,0.1,1.3-0.7,1.3-1.3
				c-0.2-23.6-2.8-47.1-3.1-70.6c-0.2-11.7,0.3-23.4,1.9-35c0.7-4.9,1.6-9.7,0.8-14.7c-1.1-7.3-3.5-13-0.1-20.2
				c0.3-0.6,0-1.7-0.9-1.6c-32.3,4.2-65.6,1.1-98-0.2c-33.3-1.4-66.6-3.5-99.9-4.4C18,15.1,18.1,16.2,18.8,16.3L18.8,16.3z"/>
		</g>
	</g>
	<g opacity="0.19">
		<path fill="#80BABE" d="M31.6,27.8c39.1,2.1,78.2,3.9,117.2,5.3c16,0.6,32.1,1.1,47.9-1.1c-1.5,2.9-2.1,6.2-1.8,9.5
			c0.3,3,1.5,5.9,1.8,8.9c0.4,3.2-0.1,6.4-0.6,9.5c-4.5,29.7,0.4,59.8,0.7,89.9c-44.5-5.2-96.6-3.6-141.4-1.9
			c-6.9,0.3-13.9,0.5-20.7,1.7c0.1-4.3,1.9-8.4,2.6-12.7c1.1-6.7-0.7-13.5-1.3-20.2c-0.6-7-0.1-14,0.4-21
			c1.4-23.9,0.9-47.9-1.6-71.7"/>
	</g>
	<g opacity="0.19">
		<path fill="#80BABE" d="M152,222.2c39.1,2.1,78.1,3.9,117.2,5.3c16,0.6,32.1,1.1,47.9-1.1c-1.5,2.9-2.1,6.2-1.8,9.5
			c0.3,3,1.5,5.9,1.8,8.9c0.4,3.2-0.1,6.4-0.6,9.5c-4.5,29.7,0.4,59.8,0.7,89.9c-44.5-5.2-96.6-3.6-141.4-1.9
			c-6.9,0.3-13.9,0.5-20.7,1.7c0.1-4.3,1.9-8.4,2.6-12.7c1.1-6.7-0.7-13.5-1.3-20.2c-0.6-7-0.1-14,0.4-21
			c1.4-23.9,0.9-47.9-1.6-71.7"/>
	</g>
	<g>
		<path fill="#FFFFFF" d="M440.8,160.6c-46.8-2.6-178.9-1.3-197.9,1.3c1.8-3.5,0.1-111.4-0.2-147.4c53.3,6.3,115.8,4.3,169.4,2.3
			c8.3-0.3,16.6-0.6,24.8-2c-0.1,5.2-2.3,10.1-3.1,15.2c-1.3,8,0.8,16.2,1.6,24.3c0.8,8.4,0.1,16.8-0.4,25.2
			c-1.7,28.6-1.1,48.9,1.9,77.4"/>
		<g>
			<path fill="#3F4251" d="M440.8,160c-27.3-2.2-55-1.8-82.4-1.8c-29.5,0-59,0.2-88.4,1.1c-9,0.3-18.1,0.3-27,1.5
				c0.3,0.5,0.6,1.1,0.9,1.6c1.5-3.4,0.8-8.5,0.8-12.1c0.2-9.5,0.2-19,0.2-28.4c0-24.9-0.2-49.8-0.5-74.7
				c-0.1-10.9-0.2-21.8-0.4-32.7c-0.4,0.4-0.8,0.8-1.3,1.3c32.3,3.5,64.9,4.3,97.4,4c16.2-0.1,32.4-0.6,48.7-1.1
				c16.1-0.5,32.5-0.3,48.5-2.9c-0.4-0.3-0.8-0.6-1.2-0.9c-0.4,5.9-2.8,11.3-3.4,17.1c-0.6,6.3,0.6,12.5,1.4,18.7
				c1.5,12.5,0,25-0.5,37.5c-1,23.1,0.1,46,2.5,68.9c0.1,1.3,2.1,1.3,2,0c-2.4-22.9-3.4-45.8-2.3-68.9c0.6-12.5,2-25,0.4-37.5
				c-0.8-6.2-2-12.4-1.4-18.7c0.6-5.8,3-11.2,3.4-17.1c0-0.7-0.7-1-1.2-0.9c-16.6,2.6-33.8,2.3-50.6,2.9c-15.9,0.5-31.9,0.9-47.8,1
				c-31.9,0.2-63.9-0.6-95.6-4.4c-0.7-0.1-1.3,0.6-1.3,1.3c0.1,43.5,1.4,86.9,1.1,130.4c0,3.8-0.1,7.5-0.2,11.3
				c-0.1,1.4,0.1,4.1-0.4,5.2c-0.3,0.6,0,1.7,0.9,1.6c20.5-2.7,41.9-2,62.5-2.3c31.3-0.5,62.6-0.6,94-0.2
				c13.8,0.2,27.6,0.4,41.4,0.8C441.5,161.2,441.5,160,440.8,160L440.8,160z"/>
		</g>
	</g>
	<g opacity="0.19">
		<path fill="#80BABE" d="M427.2,150.6c-40.4-2.2-154.4-1.1-170.8,1.1c1.5-3,0.1-96.1-0.1-127.2c46,5.4,99.9,3.7,146.2,2
			c7.2-0.3,14.4-0.5,21.4-1.8c-0.1,4.5-2,8.7-2.7,13.1c-1.1,6.9,0.7,13.9,1.4,20.9c0.7,7.2,0.1,14.5-0.4,21.8
			c-1.5,24.7-0.9,42.2,1.7,66.8"/>
	</g>
	<g opacity="0.19">
		<path fill="#80BABE" d="M534.1,348.9c-40.4-2.2-154.4-1.1-170.8,1.1c1.5-3,0.1-96.1-0.1-127.2c46,5.4,99.9,3.7,146.2,2
			c7.2-0.3,14.4-0.5,21.4-1.8c-0.1,4.5-2,8.7-2.7,13.1c-1.1,6.9,0.7,13.9,1.4,20.9c0.7,7.2,0.1,14.5-0.4,21.8
			c-1.5,24.7-0.9,42.2,1.7,66.8"/>
	</g>
	<g>
		<path fill="#FFFFFF" d="M657.5,13.3c-46.8,2.6-185-0.4-193.6,0.8s-4.2,109.3-4.4,145.3c53.3-6.3,115.8-4.3,169.4-2.3
			c8.3,0.3,16.6,0.6,24.8,2c-0.1-5.2-2.3-31.4-1.6-39.5c0.8-8.4,0.1-16.8-0.4-25.2c-1.7-28.6-1.1-48.9,1.9-77.4"/>
		<g>
			<path fill="#3F4251" d="M657.5,12.7c-52.7,1.4-105.4,0.5-158.2,0.1c-9.2-0.1-18.4-0.1-27.6,0c-3,0-8.1-0.9-10.1,2
				c-3.4,5-2.9,14.1-3.3,19.8c-0.8,12.5-0.9,25-1,37.4c-0.1,29.1,0.9,58.3,0.8,87.4c0,0.6,0.6,1.4,1.3,1.3
				c31.7-3.9,63.7-4.6,95.6-4.4c16,0.1,31.9,0.5,47.8,1c16.8,0.5,34,0.2,50.6,2.9c0.6,0.1,1.3-0.3,1.2-0.9c-0.3-7.9-1-15.7-1.4-23.6
				c-0.5-10.8,0.5-21.6,0-32.4c-0.7-14.4-1.6-28.8-1.4-43.3c0.2-14.3,1.3-28.6,2.8-42.8c0.1-1.3-1.9-1.3-2,0
				c-3,28.9-3,57.2-1.5,86.2c0.6,10.6-0.4,21.2,0.1,31.8c0.4,8.1,1.2,16.1,1.4,24.2c0.4-0.3,0.8-0.6,1.2-0.9
				c-15.6-2.6-31.8-2.4-47.6-2.9c-16.5-0.5-33-1-49.5-1.1c-32.5-0.3-65.1,0.4-97.4,4c0.4,0.4,0.8,0.8,1.3,1.3
				c0.3-24.6-0.7-49.3-1-73.9c-0.1-13.2-0.2-26.4,0.2-39.6c0.3-8.8,0.2-18.2,2.3-26.8c1.2-4.9,3.3-4.1,7.9-4.2
				c8.5-0.1,16.9-0.1,25.4,0c26.6,0.1,53.3,0.4,79.9,0.4c27.3,0.1,54.8,0.7,82-1.5C658.2,13.8,658.3,12.7,657.5,12.7L657.5,12.7z"/>
		</g>
	</g>
	<g opacity="0.19">
		<path fill="#80BABE" d="M643.9,23.8c-40.1,2.1-158.6-0.4-166,0.7s-3.6,90.7-3.8,120.6c45.7-5.2,99.2-3.6,145.2-1.9
			c7.1,0.3,14.3,0.5,21.3,1.7c-0.1-4.3-2-26.1-1.3-32.8c0.7-7,0.1-14-0.4-20.9c-1.5-23.8-0.9-40.6,1.7-64.3"/>
	</g>
	<g>
		<path fill="#231F20" d="M59.7,46.4v11.5h-2.2V46.4h-4v-2h10.3v2H59.7z"/>
		<path fill="#231F20" d="M66.4,48.3c0.1,0.2,0.2,0.5,0.2,1c1.1-1,2.4-1.7,3.7-0.8l-0.6,1.8c-0.9-0.6-2-0.5-3,0.7v6.8h-2.1v-9.6
			H66.4z"/>
		<path fill="#231F20" d="M72.4,49.3c0.9-0.6,2.7-1.2,4.2-1.2c2.3,0,3.4,1.5,3.4,3.3v6.5h-1.8c-0.1-0.3-0.2-0.6-0.3-1
			c-0.5,0.7-1.5,1.4-2.8,1.4c-2.3,0-3.4-1.6-3.4-3.4c0-1.6,0.9-3.3,3.4-3.3c0.9,0,1.9,0.2,2.8,0.5v-0.2c0-1.5-0.6-2.2-1.6-2.2
			c-1,0-2,0.3-3,1L72.4,49.3z M77.8,53.5c-0.6-0.2-1.5-0.5-2.4-0.5c-1.1,0-1.7,0.7-1.7,1.7c0,1.2,0.4,2,1.7,2c0.8,0,1.7-0.5,2.4-1.3
			V53.5z"/>
		<path fill="#231F20" d="M84.3,48.3c0.1,0.2,0.2,0.7,0.3,1.3c0.8-0.9,2.1-1.5,3.5-1.5c2.2,0,3.3,1.5,3.3,3.5v6.3h-2.1v-5.7
			c0-3.2-2.7-2.7-4.6-0.9v6.6h-2.1v-9.6H84.3z"/>
		<path fill="#231F20" d="M94,55.3c0.6,0.8,1.6,1.2,2.6,1.2c1,0,1.8-0.5,1.8-1.4c0-0.9-0.9-1.3-2.3-1.7c-1.8-0.5-2.9-1-2.9-2.5
			c0-1.8,1.5-2.7,3.4-2.7c1.2,0,2.5,0.4,3.4,0.9l-0.6,1.4c-0.8-0.5-1.7-0.8-2.6-0.8c-0.7,0-1.5,0.3-1.5,1.1c0,0.7,0.8,0.9,1.9,1.2
			c2.1,0.6,3.3,1.3,3.3,3c0,2.2-1.9,3.2-3.7,3.2c-1.9,0-3.1-0.8-3.7-1.4L94,55.3z"/>
		<path fill="#231F20" d="M104.6,48.3c0.1,0.4,0.2,0.7,0.2,1.1c0.9-0.9,1.9-1.4,3.1-1.4c2.8,0,4.2,2.2,4.2,5.1
			c0,2.9-1.4,5.1-4.2,5.1c-1.2,0-2.2-0.5-3.1-1.5v5.1h-2.1V48.3H104.6z M104.9,54.7c0.5,1.1,1.5,1.8,2.7,1.8c1.6,0,2.2-1.4,2.2-3.4
			c0-2-0.7-3.4-2.2-3.4c-1.2,0-2.2,0.7-2.7,1.8V54.7z"/>
		<path fill="#231F20" d="M114.5,49.3c0.9-0.6,2.7-1.2,4.2-1.2c2.3,0,3.4,1.5,3.4,3.3v6.5h-1.8c-0.1-0.3-0.2-0.6-0.3-1
			c-0.5,0.7-1.5,1.4-2.8,1.4c-2.3,0-3.4-1.6-3.4-3.4c0-1.6,0.9-3.3,3.4-3.3c0.9,0,1.9,0.2,2.8,0.5v-0.2c0-1.5-0.6-2.2-1.6-2.2
			c-1,0-2,0.3-3,1L114.5,49.3z M119.9,53.5c-0.6-0.2-1.5-0.5-2.4-0.5c-1.1,0-1.7,0.7-1.7,1.7c0,1.2,0.4,2,1.7,2
			c0.8,0,1.7-0.5,2.4-1.3V53.5z"/>
		<path fill="#231F20" d="M126.5,48.3c0.1,0.2,0.2,0.5,0.2,1c1.1-1,2.4-1.7,3.7-0.8l-0.6,1.8c-0.9-0.6-2-0.5-3,0.7v6.8h-2.1v-9.6
			H126.5z"/>
		<path fill="#231F20" d="M133,54.1c0.2,1.4,1,2.5,2.5,2.5c1.2,0,2.3-0.6,2.7-0.9l0.7,1.5c-0.8,0.6-2.2,1-3.3,1
			c-3.4,0-4.8-2.5-4.8-5.1c0-3.1,1.9-5.1,4.5-5.1c3.5,0,4.5,2.5,4.5,6H133z M137.9,52.7c-0.1-1.7-0.6-3-2.5-3c-1.6,0-2.3,1.3-2.4,3
			H137.9z"/>
		<path fill="#231F20" d="M143.6,48.3c0.1,0.2,0.2,0.7,0.3,1.3c0.8-0.9,2.1-1.5,3.5-1.5c2.2,0,3.3,1.5,3.3,3.5v6.3h-2.1v-5.7
			c0-3.2-2.7-2.7-4.6-0.9v6.6h-2.1v-9.6H143.6z"/>
		<path fill="#231F20" d="M161,57c-0.7,0.7-2.3,1.2-3.5,1.2c-3.3,0-4.9-2-4.9-5.2s1.6-5.2,4.9-5.2c1.1,0,2.7,0.5,3.5,1.2l-0.7,1.5
			c-0.6-0.5-1.7-1-2.9-1c-1.6,0-2.6,1.2-2.6,3.4c0,2.3,1,3.4,2.6,3.4c1.2,0,2.3-0.5,2.9-1L161,57z"/>
		<path fill="#231F20" d="M167.6,58.8c-1.3,3.2-2.7,3.9-5.2,2.9L163,60c1.6,0.8,2.2,0.2,3-2.1l-3.8-9.6h2.3l2.6,7.1l2.9-7.1h2
			L167.6,58.8z"/>
		<path fill="#231F20" d="M172.9,45.1c1.2-0.6,2.5-0.9,4.1-0.9c2.7,0,4.2,1.6,4.2,3.6c0,2.3-1.9,3.5-3.5,3.5v2.3h-2.1v-3.6
			c2.1,0,3.5-0.7,3.5-2.2c0-1.2-0.7-1.9-2.2-1.9c-1.2,0-2.3,0.3-3.1,0.9L172.9,45.1z M177.8,56.8c0,0.7-0.5,1.2-1.2,1.2
			s-1.2-0.5-1.2-1.2c0-0.7,0.5-1.2,1.2-1.2S177.8,56.2,177.8,56.8z"/>
		<path fill="#231F20" d="M60.4,74.3c4,0,5.7,1.9,5.7,4.7c0,3-2,4.4-4.8,4.4h-2.2v4.4h-2.2V74.3H60.4z M61.2,81.4
			c2.1,0,2.7-0.8,2.7-2.5c0-1.5-0.7-2.7-3.9-2.7h-0.9v5.2H61.2z"/>
		<path fill="#231F20" d="M68.2,79.1c0.9-0.6,2.7-1.2,4.2-1.2c2.3,0,3.4,1.5,3.4,3.3v6.5h-1.8c-0.1-0.3-0.2-0.6-0.3-1
			c-0.5,0.7-1.5,1.4-2.8,1.4c-2.3,0-3.4-1.6-3.4-3.4c0-1.6,0.9-3.3,3.4-3.3c0.9,0,1.9,0.2,2.8,0.5v-0.2c0-1.5-0.6-2.2-1.6-2.2
			c-1,0-2,0.3-3,1L68.2,79.1z M73.6,83.3c-0.6-0.2-1.5-0.5-2.4-0.5c-1.1,0-1.7,0.7-1.7,1.7c0,1.2,0.4,2,1.7,2c0.8,0,1.7-0.5,2.4-1.3
			V83.3z"/>
		<path fill="#231F20" d="M80.2,78.1c0.1,0.2,0.2,0.5,0.2,1c1.1-1,2.4-1.7,3.7-0.8l-0.6,1.8c-0.9-0.6-2-0.5-3,0.7v6.8h-2.1v-9.6
			H80.2z"/>
		<path fill="#231F20" d="M89,83.5c0,2.7,0.1,2.9,2.3,2.3v2c-3.6,0.7-4.5,0-4.5-4v-3.9h-1.6v-1.7h1.6v-4.2H89v4.2h2.3v1.7H89V83.5z"
			/>
		<path fill="#231F20" d="M96.1,75c0,0.7-0.6,1.3-1.3,1.3s-1.3-0.6-1.3-1.3c0-0.7,0.6-1.3,1.3-1.3S96.1,74.3,96.1,75z M93.7,87.7
			v-9.6h2.1v9.6H93.7z"/>
		<path fill="#231F20" d="M106.7,86.8c-0.7,0.7-2.3,1.2-3.5,1.2c-3.3,0-4.9-2-4.9-5.2s1.6-5.2,4.9-5.2c1.2,0,2.7,0.5,3.5,1.2
			l-0.7,1.5c-0.6-0.5-1.7-1-2.9-1c-1.6,0-2.6,1.2-2.6,3.4s1,3.4,2.6,3.4c1.2,0,2.3-0.5,2.9-1L106.7,86.8z"/>
		<path fill="#231F20" d="M111.2,75c0,0.7-0.6,1.3-1.3,1.3c-0.7,0-1.3-0.6-1.3-1.3c0-0.7,0.6-1.3,1.3-1.3
			C110.7,73.7,111.2,74.3,111.2,75z M108.9,87.7v-9.6h2.1v9.6H108.9z"/>
		<path fill="#231F20" d="M115.9,78.1c0.1,0.4,0.2,0.7,0.2,1.1c0.9-0.9,1.9-1.4,3.1-1.4c2.8,0,4.2,2.2,4.2,5.1
			c0,2.9-1.4,5.1-4.2,5.1c-1.2,0-2.2-0.5-3.1-1.5v5.1H114V78.1H115.9z M116.1,84.5c0.5,1.1,1.5,1.8,2.7,1.8c1.6,0,2.2-1.4,2.2-3.4
			s-0.7-3.4-2.2-3.4c-1.2,0-2.2,0.7-2.7,1.8V84.5z"/>
		<path fill="#231F20" d="M125.8,79.1c0.9-0.6,2.7-1.2,4.2-1.2c2.3,0,3.4,1.5,3.4,3.3v6.5h-1.8c-0.1-0.3-0.2-0.6-0.3-1
			c-0.5,0.7-1.5,1.4-2.8,1.4c-2.3,0-3.4-1.6-3.4-3.4c0-1.6,0.9-3.3,3.4-3.3c0.9,0,1.9,0.2,2.8,0.5v-0.2c0-1.5-0.6-2.2-1.6-2.2
			c-1,0-2,0.3-3,1L125.8,79.1z M131.2,83.3c-0.6-0.2-1.5-0.5-2.4-0.5c-1.1,0-1.7,0.7-1.7,1.7c0,1.2,0.4,2,1.7,2
			c0.8,0,1.7-0.5,2.4-1.3V83.3z"/>
		<path fill="#231F20" d="M138.9,83.5c0,2.7,0.1,2.9,2.3,2.3v2c-3.6,0.7-4.5,0-4.5-4v-3.9h-1.6v-1.7h1.6v-4.2h2.1v4.2h2.3v1.7h-2.3
			V83.5z"/>
		<path fill="#231F20" d="M146,75c0,0.7-0.6,1.3-1.3,1.3s-1.3-0.6-1.3-1.3c0-0.7,0.6-1.3,1.3-1.3S146,74.3,146,75z M143.7,87.7v-9.6
			h2.1v9.6H143.7z"/>
		<path fill="#231F20" d="M157.7,82.9c0,3-1.6,5.1-4.7,5.1c-3.1,0-4.7-2.1-4.7-5.1c0-3.3,2-5.1,4.7-5.1
			C156.1,77.9,157.7,80,157.7,82.9z M150.4,82.9c0,1.9,0.8,3.5,2.5,3.5c1.7,0,2.5-1.5,2.5-3.5c0-1.9-0.8-3.4-2.5-3.4
			C151.2,79.5,150.4,81,150.4,82.9z"/>
		<path fill="#231F20" d="M161.7,78.1c0.1,0.2,0.2,0.7,0.3,1.3c0.8-0.9,2.1-1.5,3.5-1.5c2.2,0,3.3,1.5,3.3,3.5v6.3h-2.1V82
			c0-3.2-2.7-2.7-4.6-0.9v6.6h-2.1v-9.6H161.7z"/>
		<path fill="#231F20" d="M170.4,74.9c1.2-0.6,2.5-0.9,4.1-0.9c2.7,0,4.2,1.6,4.2,3.6c0,2.3-1.9,3.5-3.5,3.5v2.3H173v-3.6
			c2.1,0,3.5-0.7,3.5-2.2c0-1.2-0.7-1.9-2.2-1.9c-1.2,0-2.3,0.3-3.1,0.9L170.4,74.9z M175.2,86.6c0,0.7-0.5,1.2-1.2,1.2
			c-0.7,0-1.2-0.5-1.2-1.2c0-0.7,0.5-1.2,1.2-1.2C174.7,85.4,175.2,86,175.2,86.6z"/>
		<path fill="#231F20" d="M51.3,114.7l-1.3,2.8h-2.3l6.5-13.8l6.5,13.8h-2.3l-1.3-2.8H51.3z M54.2,108.3l-2.1,4.5h4.1L54.2,108.3z"
			/>
		<path fill="#231F20" d="M69.9,116.6c-0.7,0.7-2.3,1.2-3.5,1.2c-3.3,0-4.9-2-4.9-5.2c0-3.2,1.6-5.2,4.9-5.2c1.1,0,2.7,0.5,3.5,1.2
			l-0.7,1.5c-0.6-0.5-1.7-1-2.9-1c-1.6,0-2.6,1.2-2.6,3.4s1,3.4,2.6,3.4c1.2,0,2.3-0.5,2.9-1L69.9,116.6z"/>
		<path fill="#231F20" d="M79.7,116.6c-0.7,0.7-2.3,1.2-3.5,1.2c-3.3,0-4.9-2-4.9-5.2c0-3.2,1.6-5.2,4.9-5.2c1.1,0,2.7,0.5,3.5,1.2
			l-0.7,1.5c-0.6-0.5-1.7-1-2.9-1c-1.6,0-2.6,1.2-2.6,3.4s1,3.4,2.6,3.4c1.2,0,2.3-0.5,2.9-1L79.7,116.6z"/>
		<path fill="#231F20" d="M90.6,112.8c0,3-1.6,5.1-4.7,5.1c-3.1,0-4.7-2.1-4.7-5.1c0-3.3,2-5.1,4.7-5.1
			C88.9,107.7,90.6,109.8,90.6,112.8z M83.3,112.8c0,1.9,0.8,3.5,2.5,3.5c1.7,0,2.5-1.5,2.5-3.5s-0.8-3.4-2.5-3.4
			C84.1,109.3,83.3,110.8,83.3,112.8z"/>
		<path fill="#231F20" d="M101.5,117.5h-1.9c-0.1-0.2-0.2-0.7-0.3-1.3c-0.8,0.9-2.1,1.5-3.5,1.5c-2.2,0-3.3-1.5-3.3-3.5v-6.3h2.1
			v5.7c0,3.2,2.7,2.7,4.6,0.9v-6.6h2.1V117.5z"/>
		<path fill="#231F20" d="M106,107.9c0.1,0.2,0.2,0.7,0.3,1.3c0.8-0.9,2.1-1.5,3.5-1.5c2.2,0,3.3,1.5,3.3,3.5v6.3h-2.1v-5.7
			c0-3.2-2.7-2.7-4.6-0.9v6.6h-2.1v-9.6H106z"/>
		<path fill="#231F20" d="M118.7,113.3c0,2.7,0.1,2.9,2.3,2.3v2c-3.6,0.7-4.5,0-4.5-4v-3.9h-1.6v-1.7h1.6v-4.2h2.1v4.2h2.3v1.7h-2.3
			V113.3z"/>
		<path fill="#231F20" d="M123.3,108.9c0.9-0.6,2.7-1.2,4.2-1.2c2.3,0,3.4,1.5,3.4,3.3v6.5H129c-0.1-0.3-0.2-0.6-0.3-1
			c-0.5,0.7-1.5,1.4-2.8,1.4c-2.3,0-3.4-1.6-3.4-3.4c0-1.6,0.9-3.3,3.4-3.3c0.9,0,1.9,0.2,2.8,0.5v-0.2c0-1.5-0.6-2.2-1.6-2.2
			c-1,0-2,0.3-3,1L123.3,108.9z M128.7,113.1c-0.6-0.2-1.5-0.5-2.4-0.5c-1.1,0-1.7,0.7-1.7,1.7c0,1.2,0.4,2,1.7,2
			c0.8,0,1.7-0.5,2.4-1.3V113.1z"/>
		<path fill="#231F20" d="M135.5,109.1c0.9-1,1.9-1.5,3.1-1.5c2.8,0,4.2,2.2,4.2,5.1c0,2.9-1.4,5.1-4.2,5.1c-1.2,0-2.2-0.5-3.1-1.4
			c0,0.4-0.1,0.7-0.2,1.1h-1.9v-13.8h2.1V109.1z M135.5,114.4c0.5,1.1,1.5,1.8,2.7,1.8c1.6,0,2.2-1.4,2.2-3.4s-0.6-3.4-2.2-3.4
			c-1.2,0-2.2,0.7-2.7,1.8V114.4z"/>
		<path fill="#231F20" d="M147.6,104.8c0,0.7-0.6,1.3-1.3,1.3c-0.7,0-1.3-0.6-1.3-1.3s0.6-1.3,1.3-1.3
			C147.1,103.5,147.6,104.1,147.6,104.8z M145.3,117.5v-9.6h2.1v9.6H145.3z"/>
		<path fill="#231F20" d="M150.5,117.5v-13.8h2.1v13.8H150.5z"/>
		<path fill="#231F20" d="M158.2,104.8c0,0.7-0.6,1.3-1.3,1.3c-0.7,0-1.3-0.6-1.3-1.3s0.6-1.3,1.3-1.3
			C157.6,103.5,158.2,104.1,158.2,104.8z M155.8,117.5v-9.6h2.1v9.6H155.8z"/>
		<path fill="#231F20" d="M164,113.3c0,2.7,0.1,2.9,2.3,2.3v2c-3.6,0.7-4.5,0-4.5-4v-3.9h-1.6v-1.7h1.6v-4.2h2.1v4.2h2.3v1.7H164
			V113.3z"/>
		<path fill="#231F20" d="M173.1,118.4c-1.3,3.2-2.7,3.9-5.2,2.9l0.6-1.8c1.6,0.8,2.2,0.2,3-2.1l-3.8-9.6h2.3l2.6,7.1l2.9-7.1h2
			L173.1,118.4z"/>
		<path fill="#231F20" d="M178.4,104.7c1.2-0.6,2.5-0.9,4.1-0.9c2.7,0,4.2,1.6,4.2,3.6c0,2.3-1.9,3.5-3.5,3.5v2.3H181v-3.6
			c2.1,0,3.5-0.7,3.5-2.2c0-1.2-0.7-1.9-2.2-1.9c-1.2,0-2.3,0.3-3.1,0.9L178.4,104.7z M183.3,116.5c0,0.7-0.5,1.2-1.2,1.2
			c-0.7,0-1.2-0.5-1.2-1.2s0.5-1.2,1.2-1.2C182.7,115.2,183.3,115.8,183.3,116.5z"/>
	</g>
	<g>
		<path fill="#231F20" d="M213.4,233.4c2.8,0,4.5,1.2,4.5,3.4c0,1.6-0.7,2.6-2.1,3c1.7,0.3,2.9,1.2,2.9,3.2c0,2.5-1.8,3.8-4.7,3.8
			h-5.3v-13.4H213.4z M212.4,238.9c1.8,0,3.2-0.5,3.2-1.8c0-1.2-1-1.7-2.8-1.7h-2v3.6H212.4z M213.3,244.8c1.9,0,3.1-0.4,3.1-1.9
			c0-1.7-1.7-2.1-3.7-2.1h-1.8v4H213.3z"/>
		<path fill="#231F20" d="M222.7,237.2c0.1,0.2,0.2,0.5,0.2,1c1.1-1,2.4-1.7,3.7-0.8l-0.6,1.8c-0.9-0.6-2-0.5-3,0.7v6.8h-2.1v-9.6
			H222.7z"/>
		<path fill="#231F20" d="M237.3,242.1c0,3-1.6,5.1-4.7,5.1c-3.1,0-4.7-2.1-4.7-5.1c0-3.3,2-5.1,4.7-5.1
			C235.6,237,237.3,239.1,237.3,242.1z M230,242.1c0,1.9,0.8,3.5,2.5,3.5c1.7,0,2.5-1.5,2.5-3.5c0-1.9-0.8-3.4-2.5-3.4
			C230.8,238.6,230,240.1,230,242.1z"/>
		<path fill="#231F20" d="M239.6,238.2c0.9-0.6,2.7-1.2,4.2-1.2c2.3,0,3.4,1.5,3.4,3.3v6.5h-1.8c-0.1-0.3-0.2-0.6-0.3-1
			c-0.5,0.7-1.5,1.4-2.8,1.4c-2.3,0-3.4-1.6-3.4-3.4c0-1.6,0.9-3.3,3.4-3.3c0.9,0,1.9,0.2,2.8,0.5v-0.2c0-1.5-0.6-2.2-1.6-2.2
			c-1,0-2,0.3-3,1L239.6,238.2z M245,242.4c-0.6-0.2-1.5-0.5-2.4-0.5c-1.1,0-1.7,0.7-1.7,1.7c0,1.2,0.4,2,1.7,2
			c0.8,0,1.7-0.5,2.4-1.3V242.4z"/>
		<path fill="#231F20" d="M258.6,246.8h-1.9c-0.1-0.4-0.2-0.7-0.2-1.1c-0.9,0.9-1.9,1.4-3.1,1.4c-2.8,0-4.2-2.2-4.2-5.1
			c0-2.9,1.4-5.1,4.2-5.1c1.2,0,2.2,0.5,3.1,1.5V233h2.1V246.8z M256.5,240.4c-0.5-1.1-1.5-1.8-2.7-1.8c-1.6,0-2.2,1.4-2.2,3.4
			s0.7,3.4,2.2,3.4c1.2,0,2.2-0.7,2.7-1.8V240.4z"/>
		<path fill="#231F20" d="M177.4,260.6c0.1,0.4,0.2,0.7,0.2,1.1c0.9-0.9,1.9-1.4,3.1-1.4c2.8,0,4.2,2.2,4.2,5.1
			c0,2.9-1.4,5.1-4.2,5.1c-1.2,0-2.2-0.5-3.1-1.5v5.1h-2.1v-13.4H177.4z M177.7,267c0.5,1.1,1.5,1.8,2.7,1.8c1.6,0,2.2-1.4,2.2-3.4
			s-0.7-3.4-2.2-3.4c-1.2,0-2.2,0.7-2.7,1.8V267z"/>
		<path fill="#231F20" d="M187.3,261.6c0.9-0.6,2.7-1.2,4.2-1.2c2.3,0,3.4,1.5,3.4,3.3v6.5H193c-0.1-0.3-0.2-0.6-0.3-1
			c-0.5,0.7-1.5,1.4-2.8,1.4c-2.3,0-3.4-1.6-3.4-3.4c0-1.6,0.9-3.3,3.4-3.3c0.9,0,1.9,0.2,2.8,0.5v-0.2c0-1.5-0.6-2.2-1.6-2.2
			c-1,0-2,0.3-3,1L187.3,261.6z M192.7,265.8c-0.6-0.2-1.5-0.5-2.4-0.5c-1.1,0-1.7,0.7-1.7,1.7c0,1.2,0.4,2,1.7,2
			c0.8,0,1.7-0.5,2.4-1.3V265.8z"/>
		<path fill="#231F20" d="M199.3,260.6c0.1,0.2,0.2,0.5,0.2,1c1.1-1,2.4-1.7,3.7-0.8l-0.6,1.8c-0.9-0.6-2-0.5-3,0.7v6.8h-2.1v-9.6
			H199.3z"/>
		<path fill="#231F20" d="M208.1,266c0,2.7,0.1,2.9,2.3,2.3v2c-3.6,0.7-4.5,0-4.5-4v-3.9h-1.6v-1.7h1.6v-4.2h2.1v4.2h2.3v1.7h-2.3
			V266z"/>
		<path fill="#231F20" d="M215.2,257.5c0,0.7-0.6,1.3-1.3,1.3c-0.7,0-1.3-0.6-1.3-1.3c0-0.7,0.6-1.3,1.3-1.3
			C214.6,256.3,215.2,256.8,215.2,257.5z M212.8,270.2v-9.6h2.1v9.6H212.8z"/>
		<path fill="#231F20" d="M225.8,269.3c-0.7,0.7-2.3,1.2-3.5,1.2c-3.3,0-4.9-2-4.9-5.2s1.6-5.2,4.9-5.2c1.1,0,2.7,0.5,3.5,1.2
			l-0.7,1.5c-0.6-0.5-1.7-1-2.9-1c-1.6,0-2.6,1.2-2.6,3.4c0,2.3,1,3.4,2.6,3.4c1.2,0,2.3-0.5,2.9-1L225.8,269.3z"/>
		<path fill="#231F20" d="M230.3,257.5c0,0.7-0.6,1.3-1.3,1.3s-1.3-0.6-1.3-1.3c0-0.7,0.6-1.3,1.3-1.3S230.3,256.8,230.3,257.5z
			 M228,270.2v-9.6h2.1v9.6H228z"/>
		<path fill="#231F20" d="M235,260.6c0.1,0.4,0.2,0.7,0.2,1.1c0.9-0.9,1.9-1.4,3.1-1.4c2.8,0,4.2,2.2,4.2,5.1c0,2.9-1.4,5.1-4.2,5.1
			c-1.2,0-2.2-0.5-3.1-1.5v5.1h-2.1v-13.4H235z M235.3,267c0.5,1.1,1.5,1.8,2.7,1.8c1.6,0,2.2-1.4,2.2-3.4s-0.7-3.4-2.2-3.4
			c-1.2,0-2.2,0.7-2.7,1.8V267z"/>
		<path fill="#231F20" d="M244.9,261.6c0.9-0.6,2.7-1.2,4.2-1.2c2.3,0,3.4,1.5,3.4,3.3v6.5h-1.8c-0.1-0.3-0.2-0.6-0.3-1
			c-0.5,0.7-1.5,1.4-2.8,1.4c-2.3,0-3.4-1.6-3.4-3.4c0-1.6,0.9-3.3,3.4-3.3c0.9,0,1.9,0.2,2.8,0.5v-0.2c0-1.5-0.6-2.2-1.6-2.2
			c-1,0-2,0.3-3,1L244.9,261.6z M250.3,265.8c-0.6-0.2-1.5-0.5-2.4-0.5c-1.1,0-1.7,0.7-1.7,1.7c0,1.2,0.4,2,1.7,2
			c0.8,0,1.7-0.5,2.4-1.3V265.8z"/>
		<path fill="#231F20" d="M258.1,266c0,2.7,0.1,2.9,2.3,2.3v2c-3.6,0.7-4.5,0-4.5-4v-3.9h-1.6v-1.7h1.6v-4.2h2.1v4.2h2.3v1.7h-2.3
			V266z"/>
		<path fill="#231F20" d="M265.1,257.5c0,0.7-0.6,1.3-1.3,1.3c-0.7,0-1.3-0.6-1.3-1.3c0-0.7,0.6-1.3,1.3-1.3
			C264.6,256.3,265.1,256.8,265.1,257.5z M262.8,270.2v-9.6h2.1v9.6H262.8z"/>
		<path fill="#231F20" d="M276.8,265.5c0,3-1.6,5.1-4.7,5.1c-3.1,0-4.7-2.1-4.7-5.1c0-3.3,2-5.1,4.7-5.1
			C275.2,260.4,276.8,262.5,276.8,265.5z M269.6,265.5c0,1.9,0.8,3.5,2.5,3.5c1.7,0,2.5-1.5,2.5-3.5s-0.8-3.4-2.5-3.4
			C270.4,262.1,269.6,263.5,269.6,265.5z"/>
		<path fill="#231F20" d="M280.8,260.6c0.1,0.2,0.2,0.7,0.3,1.3c0.8-0.9,2.1-1.5,3.5-1.5c2.2,0,3.3,1.5,3.3,3.5v6.3h-2.1v-5.7
			c0-3.2-2.7-2.7-4.6-0.9v6.6H279v-9.6H280.8z"/>
		<path fill="#231F20" d="M289.5,257.4c1.2-0.6,2.5-0.9,4.1-0.9c2.7,0,4.2,1.6,4.2,3.6c0,2.3-1.9,3.5-3.5,3.5v2.3h-2.1v-3.6
			c2.1,0,3.5-0.7,3.5-2.2c0-1.2-0.7-1.9-2.2-1.9c-1.2,0-2.3,0.3-3.1,0.9L289.5,257.4z M294.3,269.2c0,0.7-0.5,1.2-1.2,1.2
			s-1.2-0.5-1.2-1.2c0-0.7,0.5-1.2,1.2-1.2S294.3,268.5,294.3,269.2z"/>
		<path fill="#231F20" d="M191.5,293.2c-2-1.1-5.5-1.5-5.5,1c0,1.1,1.4,1.6,2.5,2c2.7,0.9,4.3,1.9,4.3,4.2c0,5.7-7.7,4.5-9.2,2.8
			l1-1.7c2.1,1.7,6,1.8,6-1c0-1.3-1.5-1.9-2.9-2.4c-2.4-0.9-3.9-1.6-3.9-3.7c0-4.2,5.1-4.3,8.5-2.9L191.5,293.2z"/>
		<path fill="#231F20" d="M196.9,294.7c0.1,0.4,0.2,0.7,0.2,1.1c0.9-0.9,1.9-1.4,3.1-1.4c2.8,0,4.2,2.2,4.2,5.1
			c0,2.9-1.4,5.1-4.2,5.1c-1.2,0-2.2-0.5-3.1-1.5v5.1H195v-13.4H196.9z M197.2,301.1c0.5,1.1,1.5,1.8,2.7,1.8c1.6,0,2.2-1.4,2.2-3.4
			s-0.7-3.4-2.2-3.4c-1.2,0-2.2,0.7-2.7,1.8V301.1z"/>
		<path fill="#231F20" d="M208.3,300.5c0.2,1.4,1,2.5,2.5,2.5c1.2,0,2.3-0.6,2.7-0.9l0.7,1.5c-0.8,0.6-2.2,1-3.3,1
			c-3.4,0-4.8-2.5-4.8-5.1c0-3.1,1.9-5.1,4.5-5.1c3.5,0,4.5,2.5,4.5,6H208.3z M213.2,299c-0.1-1.7-0.6-3-2.5-3c-1.6,0-2.3,1.3-2.4,3
			H213.2z"/>
		<path fill="#231F20" d="M225.1,303.4c-0.7,0.7-2.3,1.2-3.5,1.2c-3.3,0-4.9-2-4.9-5.2s1.6-5.2,4.9-5.2c1.2,0,2.7,0.5,3.5,1.2
			l-0.7,1.5c-0.6-0.5-1.7-1-2.9-1c-1.6,0-2.6,1.2-2.6,3.4c0,2.3,1,3.4,2.6,3.4c1.2,0,2.3-0.5,2.9-1L225.1,303.4z"/>
		<path fill="#231F20" d="M229.7,291.6c0,0.7-0.6,1.3-1.3,1.3c-0.7,0-1.3-0.6-1.3-1.3c0-0.7,0.6-1.3,1.3-1.3
			C229.1,290.3,229.7,290.9,229.7,291.6z M227.3,304.3v-9.6h2.1v9.6H227.3z"/>
		<path fill="#231F20" d="M232.6,295.7c0.9-0.6,2.7-1.2,4.2-1.2c2.3,0,3.4,1.5,3.4,3.3v6.5h-1.8c-0.1-0.3-0.2-0.6-0.3-1
			c-0.5,0.7-1.5,1.4-2.8,1.4c-2.3,0-3.4-1.6-3.4-3.4c0-1.6,0.9-3.3,3.4-3.3c0.9,0,1.9,0.2,2.8,0.5v-0.2c0-1.5-0.6-2.2-1.6-2.2
			c-1,0-2,0.3-3,1L232.6,295.7z M238,299.9c-0.6-0.2-1.5-0.5-2.4-0.5c-1.1,0-1.7,0.7-1.7,1.7c0,1.2,0.4,2,1.7,2
			c0.8,0,1.7-0.5,2.4-1.3V299.9z"/>
		<path fill="#231F20" d="M243,304.3v-13.8h2.1v13.8H243z"/>
		<path fill="#231F20" d="M250.6,291.6c0,0.7-0.6,1.3-1.3,1.3s-1.3-0.6-1.3-1.3c0-0.7,0.6-1.3,1.3-1.3S250.6,290.9,250.6,291.6z
			 M248.3,304.3v-9.6h2.1v9.6H248.3z"/>
		<path fill="#231F20" d="M260.6,302.6v1.7h-7.7l5-7.9h-4.2v-1.7h7.5l-5,7.9H260.6z"/>
		<path fill="#231F20" d="M264.9,300.5c0.2,1.4,1,2.5,2.5,2.5c1.2,0,2.3-0.6,2.7-0.9l0.7,1.5c-0.8,0.6-2.2,1-3.3,1
			c-3.4,0-4.8-2.5-4.8-5.1c0-3.1,1.9-5.1,4.5-5.1c3.5,0,4.5,2.5,4.5,6H264.9z M269.8,299c-0.1-1.7-0.6-3-2.5-3c-1.6,0-2.3,1.3-2.4,3
			H269.8z"/>
		<path fill="#231F20" d="M282.9,304.3H281c-0.1-0.4-0.2-0.7-0.2-1.1c-0.9,0.9-1.9,1.4-3.1,1.4c-2.8,0-4.2-2.2-4.2-5.1
			c0-2.9,1.4-5.1,4.2-5.1c1.2,0,2.2,0.5,3.1,1.5v-5.5h2.1V304.3z M280.8,297.9c-0.5-1.1-1.5-1.8-2.7-1.8c-1.6,0-2.2,1.4-2.2,3.4
			s0.7,3.4,2.2,3.4c1.2,0,2.2-0.7,2.7-1.8V297.9z"/>
		<path fill="#231F20" d="M177.4,318.1c0.1,0.4,0.2,0.7,0.2,1.1c0.9-0.9,1.9-1.4,3.1-1.4c2.8,0,4.2,2.2,4.2,5.1
			c0,2.9-1.4,5.1-4.2,5.1c-1.2,0-2.2-0.5-3.1-1.5v5.1h-2.1v-13.4H177.4z M177.7,324.5c0.5,1.1,1.5,1.8,2.7,1.8
			c1.6,0,2.2-1.4,2.2-3.4s-0.7-3.4-2.2-3.4c-1.2,0-2.2,0.7-2.7,1.8V324.5z"/>
		<path fill="#231F20" d="M187.3,319.1c0.9-0.6,2.7-1.2,4.2-1.2c2.3,0,3.4,1.5,3.4,3.3v6.5H193c-0.1-0.3-0.2-0.6-0.3-1
			c-0.5,0.7-1.5,1.4-2.8,1.4c-2.3,0-3.4-1.6-3.4-3.4c0-1.6,0.9-3.3,3.4-3.3c0.9,0,1.9,0.2,2.8,0.5v-0.2c0-1.5-0.6-2.2-1.6-2.2
			c-1,0-2,0.3-3,1L187.3,319.1z M192.7,323.3c-0.6-0.2-1.5-0.5-2.4-0.5c-1.1,0-1.7,0.7-1.7,1.7c0,1.2,0.4,2,1.7,2
			c0.8,0,1.7-0.5,2.4-1.3V323.3z"/>
		<path fill="#231F20" d="M199.3,318.1c0.1,0.2,0.2,0.5,0.2,1c1.1-1,2.4-1.7,3.7-0.8l-0.6,1.8c-0.9-0.6-2-0.5-3,0.7v6.8h-2.1v-9.6
			H199.3z"/>
		<path fill="#231F20" d="M208.1,323.5c0,2.7,0.1,2.9,2.3,2.3v2c-3.6,0.7-4.5,0-4.5-4v-3.9h-1.6v-1.7h1.6v-4.2h2.1v4.2h2.3v1.7h-2.3
			V323.5z"/>
		<path fill="#231F20" d="M215.2,315c0,0.7-0.6,1.3-1.3,1.3c-0.7,0-1.3-0.6-1.3-1.3c0-0.7,0.6-1.3,1.3-1.3
			C214.6,313.7,215.2,314.3,215.2,315z M212.8,327.7v-9.6h2.1v9.6H212.8z"/>
		<path fill="#231F20" d="M225.8,326.8c-0.7,0.7-2.3,1.2-3.5,1.2c-3.3,0-4.9-2-4.9-5.2s1.6-5.2,4.9-5.2c1.1,0,2.7,0.5,3.5,1.2
			l-0.7,1.5c-0.6-0.5-1.7-1-2.9-1c-1.6,0-2.6,1.2-2.6,3.4c0,2.3,1,3.4,2.6,3.4c1.2,0,2.3-0.5,2.9-1L225.8,326.8z"/>
		<path fill="#231F20" d="M230.3,315c0,0.7-0.6,1.3-1.3,1.3s-1.3-0.6-1.3-1.3c0-0.7,0.6-1.3,1.3-1.3S230.3,314.3,230.3,315z
			 M228,327.7v-9.6h2.1v9.6H228z"/>
		<path fill="#231F20" d="M235,318.1c0.1,0.4,0.2,0.7,0.2,1.1c0.9-0.9,1.9-1.4,3.1-1.4c2.8,0,4.2,2.2,4.2,5.1c0,2.9-1.4,5.1-4.2,5.1
			c-1.2,0-2.2-0.5-3.1-1.5v5.1h-2.1v-13.4H235z M235.3,324.5c0.5,1.1,1.5,1.8,2.7,1.8c1.6,0,2.2-1.4,2.2-3.4s-0.7-3.4-2.2-3.4
			c-1.2,0-2.2,0.7-2.7,1.8V324.5z"/>
		<path fill="#231F20" d="M244.9,319.1c0.9-0.6,2.7-1.2,4.2-1.2c2.3,0,3.4,1.5,3.4,3.3v6.5h-1.8c-0.1-0.3-0.2-0.6-0.3-1
			c-0.5,0.7-1.5,1.4-2.8,1.4c-2.3,0-3.4-1.6-3.4-3.4c0-1.6,0.9-3.3,3.4-3.3c0.9,0,1.9,0.2,2.8,0.5v-0.2c0-1.5-0.6-2.2-1.6-2.2
			c-1,0-2,0.3-3,1L244.9,319.1z M250.3,323.3c-0.6-0.2-1.5-0.5-2.4-0.5c-1.1,0-1.7,0.7-1.7,1.7c0,1.2,0.4,2,1.7,2
			c0.8,0,1.7-0.5,2.4-1.3V323.3z"/>
		<path fill="#231F20" d="M258.1,323.5c0,2.7,0.1,2.9,2.3,2.3v2c-3.6,0.7-4.5,0-4.5-4v-3.9h-1.6v-1.7h1.6v-4.2h2.1v4.2h2.3v1.7h-2.3
			V323.5z"/>
		<path fill="#231F20" d="M265.1,315c0,0.7-0.6,1.3-1.3,1.3c-0.7,0-1.3-0.6-1.3-1.3c0-0.7,0.6-1.3,1.3-1.3
			C264.6,313.7,265.1,314.3,265.1,315z M262.8,327.7v-9.6h2.1v9.6H262.8z"/>
		<path fill="#231F20" d="M276.8,323c0,3-1.6,5.1-4.7,5.1c-3.1,0-4.7-2.1-4.7-5.1c0-3.3,2-5.1,4.7-5.1
			C275.2,317.9,276.8,320,276.8,323z M269.6,323c0,1.9,0.8,3.5,2.5,3.5c1.7,0,2.5-1.5,2.5-3.5s-0.8-3.4-2.5-3.4
			C270.4,319.5,269.6,321,269.6,323z"/>
		<path fill="#231F20" d="M280.8,318.1c0.1,0.2,0.2,0.7,0.3,1.3c0.8-0.9,2.1-1.5,3.5-1.5c2.2,0,3.3,1.5,3.3,3.5v6.3h-2.1V322
			c0-3.2-2.7-2.7-4.6-0.9v6.6H279v-9.6H280.8z"/>
		<path fill="#231F20" d="M289.5,314.9c1.2-0.6,2.5-0.9,4.1-0.9c2.7,0,4.2,1.6,4.2,3.6c0,2.3-1.9,3.5-3.5,3.5v2.3h-2.1v-3.6
			c2.1,0,3.5-0.7,3.5-2.2c0-1.2-0.7-1.9-2.2-1.9c-1.2,0-2.3,0.3-3.1,0.9L289.5,314.9z M294.3,326.7c0,0.7-0.5,1.2-1.2,1.2
			s-1.2-0.5-1.2-1.2c0-0.7,0.5-1.2,1.2-1.2S294.3,326,294.3,326.7z"/>
	</g>
	<g>
		<path fill="#231F20" d="M404,243.5v5.1c-1.3,1.8-3.1,2.7-5.6,2.7c-4.3,0-6.5-3.4-6.5-7c0-4.4,3-7,6.5-7c2.6,0,4.4,1.1,5.6,2.7
			l-1.6,1.2c-0.8-1.1-2.2-2-3.9-2c-2.6,0-4.3,2-4.3,5c0,3,1.7,5,4.2,5c1.5,0,2.6-0.5,3.4-1.4v-2.7h-3v-1.9H404z"/>
		<path fill="#231F20" d="M415.5,246.3c0,3-1.6,5.1-4.7,5.1c-3.1,0-4.7-2.1-4.7-5.1c0-3.3,2-5.1,4.7-5.1
			C413.8,241.3,415.5,243.3,415.5,246.3z M408.2,246.3c0,1.9,0.8,3.5,2.5,3.5c1.7,0,2.5-1.5,2.5-3.5c0-1.9-0.8-3.4-2.5-3.4
			C409,242.9,408.2,244.4,408.2,246.3z"/>
		<path fill="#231F20" d="M421.3,251.7l-4.7-10.2h2.3l2.5,5.9l2.4-5.9h2.1L421.3,251.7z"/>
		<path fill="#231F20" d="M429.1,247.3c0.2,1.4,1,2.5,2.5,2.5c1.2,0,2.3-0.6,2.7-0.9l0.7,1.5c-0.8,0.6-2.2,1-3.3,1
			c-3.4,0-4.8-2.5-4.8-5.1c0-3.1,1.9-5.1,4.5-5.1c3.5,0,4.5,2.5,4.5,6H429.1z M434,245.8c-0.1-1.7-0.6-3-2.5-3c-1.6,0-2.3,1.3-2.4,3
			H434z"/>
		<path fill="#231F20" d="M439.6,241.5c0.1,0.2,0.2,0.5,0.2,1c1.1-1,2.4-1.7,3.7-0.8l-0.6,1.8c-0.9-0.6-2-0.5-3,0.7v6.8h-2.1v-9.6
			H439.6z"/>
		<path fill="#231F20" d="M446.8,241.5c0.1,0.2,0.2,0.7,0.3,1.3c0.8-0.9,2.1-1.5,3.5-1.5c2.2,0,3.3,1.5,3.3,3.5v6.3h-2.1v-5.7
			c0-3.2-2.7-2.7-4.6-0.9v6.6h-2.1v-9.6H446.8z"/>
		<path fill="#231F20" d="M458.3,241.5c0.1,0.2,0.2,0.6,0.2,1.2c0.9-1,2-1.5,3.1-1.5c1.3,0,2.1,0.5,2.5,1.5c0.9-1,2-1.5,3.2-1.5
			c1.9,0,2.9,1.2,2.9,3.5v6.3H468v-5.9c0-0.9,0-1.5-0.4-1.9c-0.5-0.6-2.3-0.1-3.2,0.8v7h-2.1v-5.9c0-0.9,0-1.5-0.4-1.9
			c-0.6-0.6-2.4-0.1-3.3,1v6.7h-2.1v-9.6H458.3z"/>
		<path fill="#231F20" d="M474.4,247.3c0.2,1.4,1,2.5,2.5,2.5c1.2,0,2.3-0.6,2.7-0.9l0.7,1.5c-0.8,0.6-2.2,1-3.3,1
			c-3.4,0-4.8-2.5-4.8-5.1c0-3.1,1.9-5.1,4.5-5.1c3.5,0,4.5,2.5,4.5,6H474.4z M479.3,245.8c-0.1-1.7-0.6-3-2.5-3
			c-1.6,0-2.3,1.3-2.4,3H479.3z"/>
		<path fill="#231F20" d="M484.9,241.5c0.1,0.2,0.2,0.7,0.3,1.3c0.8-0.9,2.1-1.5,3.5-1.5c2.2,0,3.3,1.5,3.3,3.5v6.3h-2.1v-5.7
			c0-3.2-2.7-2.7-4.6-0.9v6.6h-2.1v-9.6H484.9z"/>
		<path fill="#231F20" d="M497.5,246.8c0,2.7,0.1,2.9,2.3,2.3v2c-3.6,0.7-4.5,0-4.5-4v-3.9h-1.6v-1.7h1.6v-4.2h2.1v4.2h2.3v1.7h-2.3
			V246.8z"/>
		<path fill="#231F20" d="M377.8,261.8c0,0.7-0.6,1.3-1.3,1.3c-0.7,0-1.3-0.6-1.3-1.3c0-0.7,0.6-1.3,1.3-1.3
			C377.2,260.5,377.8,261.1,377.8,261.8z M375.4,274.5v-9.6h2.1v9.6H375.4z"/>
		<path fill="#231F20" d="M382.4,264.9c0.1,0.2,0.2,0.6,0.2,1.2c0.9-1,2-1.5,3.1-1.5c1.3,0,2.1,0.5,2.5,1.5c0.9-1,2-1.5,3.2-1.5
			c1.9,0,2.9,1.2,2.9,3.5v6.3h-2.1v-5.9c0-0.9,0-1.5-0.4-1.9c-0.5-0.6-2.3-0.1-3.2,0.8v7h-2.1v-5.9c0-0.9,0-1.5-0.4-1.9
			c-0.6-0.6-2.4-0.1-3.3,1v6.7h-2.1v-9.6H382.4z"/>
		<path fill="#231F20" d="M398.8,264.9c0.1,0.4,0.2,0.7,0.2,1.1c0.9-0.9,1.9-1.4,3.1-1.4c2.8,0,4.2,2.2,4.2,5.1
			c0,2.9-1.4,5.1-4.2,5.1c-1.2,0-2.2-0.5-3.1-1.5v5.1h-2.1v-13.4H398.8z M399.1,271.3c0.5,1.1,1.5,1.8,2.7,1.8
			c1.6,0,2.2-1.4,2.2-3.4s-0.7-3.4-2.2-3.4c-1.2,0-2.2,0.7-2.7,1.8V271.3z"/>
		<path fill="#231F20" d="M408.6,274.5v-13.8h2.1v13.8H408.6z"/>
		<path fill="#231F20" d="M415.2,270.7c0.2,1.4,1,2.5,2.5,2.5c1.2,0,2.3-0.6,2.7-0.9l0.7,1.5c-0.8,0.6-2.2,1-3.3,1
			c-3.4,0-4.8-2.5-4.8-5.1c0-3.1,1.9-5.1,4.5-5.1c3.5,0,4.5,2.5,4.5,6H415.2z M420.1,269.2c-0.1-1.7-0.6-3-2.5-3
			c-1.6,0-2.3,1.3-2.4,3H420.1z"/>
		<path fill="#231F20" d="M425.9,264.9c0.1,0.2,0.2,0.6,0.2,1.2c0.9-1,2-1.5,3.1-1.5c1.3,0,2.1,0.5,2.5,1.5c0.9-1,2-1.5,3.2-1.5
			c1.9,0,2.9,1.2,2.9,3.5v6.3h-2.1v-5.9c0-0.9,0-1.5-0.4-1.9c-0.5-0.6-2.3-0.1-3.2,0.8v7h-2.1v-5.9c0-0.9,0-1.5-0.4-1.9
			c-0.6-0.6-2.4-0.1-3.3,1v6.7H424v-9.6H425.9z"/>
		<path fill="#231F20" d="M442,270.7c0.2,1.4,1,2.5,2.5,2.5c1.2,0,2.3-0.6,2.7-0.9l0.7,1.5c-0.8,0.6-2.2,1-3.3,1
			c-3.4,0-4.8-2.5-4.8-5.1c0-3.1,1.9-5.1,4.5-5.1c3.5,0,4.5,2.5,4.5,6H442z M446.9,269.2c-0.1-1.7-0.6-3-2.5-3c-1.6,0-2.3,1.3-2.4,3
			H446.9z"/>
		<path fill="#231F20" d="M452.5,264.9c0.1,0.2,0.2,0.7,0.3,1.3c0.8-0.9,2.1-1.5,3.5-1.5c2.2,0,3.3,1.5,3.3,3.5v6.3h-2.1v-5.7
			c0-3.2-2.7-2.7-4.6-0.9v6.6h-2.1v-9.6H452.5z"/>
		<path fill="#231F20" d="M465.2,270.3c0,2.7,0.1,2.9,2.3,2.3v2c-3.6,0.7-4.5,0-4.5-4v-3.9h-1.6v-1.7h1.6v-4.2h2.1v4.2h2.3v1.7h-2.3
			V270.3z"/>
		<path fill="#231F20" d="M469.8,265.9c0.9-0.6,2.7-1.2,4.2-1.2c2.3,0,3.4,1.5,3.4,3.3v6.5h-1.8c-0.1-0.3-0.2-0.6-0.3-1
			c-0.5,0.7-1.5,1.4-2.8,1.4c-2.3,0-3.4-1.6-3.4-3.4c0-1.6,0.9-3.3,3.4-3.3c0.9,0,1.9,0.2,2.8,0.5v-0.2c0-1.5-0.6-2.2-1.6-2.2
			c-1,0-2,0.3-3,1L469.8,265.9z M475.2,270.1c-0.6-0.2-1.5-0.5-2.4-0.5c-1.1,0-1.7,0.7-1.7,1.7c0,1.2,0.4,2,1.7,2
			c0.8,0,1.7-0.5,2.4-1.3V270.1z"/>
		<path fill="#231F20" d="M482.9,270.3c0,2.7,0.1,2.9,2.3,2.3v2c-3.6,0.7-4.5,0-4.5-4v-3.9h-1.6v-1.7h1.6v-4.2h2.1v4.2h2.3v1.7h-2.3
			V270.3z"/>
		<path fill="#231F20" d="M490,261.8c0,0.7-0.6,1.3-1.3,1.3s-1.3-0.6-1.3-1.3c0-0.7,0.6-1.3,1.3-1.3S490,261.1,490,261.8z
			 M487.7,274.5v-9.6h2.1v9.6H487.7z"/>
		<path fill="#231F20" d="M501.7,269.7c0,3-1.6,5.1-4.7,5.1c-3.1,0-4.7-2.1-4.7-5.1c0-3.3,2-5.1,4.7-5.1
			C500.1,264.7,501.7,266.8,501.7,269.7z M494.5,269.7c0,1.9,0.8,3.5,2.5,3.5c1.7,0,2.5-1.5,2.5-3.5s-0.8-3.4-2.5-3.4
			C495.3,266.3,494.5,267.8,494.5,269.7z"/>
		<path fill="#231F20" d="M505.7,264.9c0.1,0.2,0.2,0.7,0.3,1.3c0.8-0.9,2.1-1.5,3.5-1.5c2.2,0,3.3,1.5,3.3,3.5v6.3h-2.1v-5.7
			c0-3.2-2.7-2.7-4.6-0.9v6.6h-2.1v-9.6H505.7z"/>
		<path fill="#231F20" d="M514.4,261.7c1.2-0.6,2.5-0.9,4.1-0.9c2.7,0,4.2,1.6,4.2,3.6c0,2.3-1.9,3.5-3.5,3.5v2.3H517v-3.6
			c2.1,0,3.5-0.7,3.5-2.2c0-1.2-0.7-1.9-2.2-1.9c-1.2,0-2.3,0.3-3.1,0.9L514.4,261.7z M519.2,273.4c0,0.7-0.5,1.2-1.2,1.2
			s-1.2-0.5-1.2-1.2c0-0.7,0.5-1.2,1.2-1.2S519.2,272.8,519.2,273.4z"/>
		<path fill="#231F20" d="M404.5,308.2c-1.3,1.8-3.4,2.7-5.5,2.7c-4.6,0-6.5-3.4-6.5-7c0-4.4,2.6-7,6.5-7c2.1,0,4.2,0.9,5.5,2.7
			l-1.7,1.3c-0.8-1.2-2.4-2-3.8-2c-2.9,0-4.2,2-4.2,5c0,3,1.3,5,4.2,5c1.4,0,3-0.9,3.8-2L404.5,308.2z"/>
		<path fill="#231F20" d="M409.1,298c0,0.7-0.6,1.3-1.3,1.3s-1.3-0.6-1.3-1.3c0-0.7,0.6-1.3,1.3-1.3S409.1,297.3,409.1,298z
			 M406.8,310.7v-9.6h2.1v9.6H406.8z"/>
		<path fill="#231F20" d="M415.7,311.3l-4.7-10.2h2.3l2.5,5.9l2.4-5.9h2.1L415.7,311.3z"/>
		<path fill="#231F20" d="M424.7,298c0,0.7-0.6,1.3-1.3,1.3s-1.3-0.6-1.3-1.3c0-0.7,0.6-1.3,1.3-1.3S424.7,297.3,424.7,298z
			 M422.3,310.7v-9.6h2.1v9.6H422.3z"/>
		<path fill="#231F20" d="M427.5,310.7v-13.8h2.1v13.8H427.5z"/>
		<path fill="#231F20" d="M438.2,308.1c0.6,0.8,1.6,1.2,2.6,1.2c1,0,1.8-0.5,1.8-1.4c0-0.9-0.9-1.3-2.3-1.7c-1.8-0.5-2.9-1-2.9-2.5
			c0-1.8,1.5-2.7,3.4-2.7c1.2,0,2.5,0.4,3.4,0.9l-0.6,1.4c-0.8-0.5-1.7-0.8-2.6-0.8c-0.7,0-1.5,0.3-1.5,1.1c0,0.7,0.8,0.9,1.9,1.2
			c2.1,0.6,3.3,1.3,3.3,3c0,2.2-1.9,3.2-3.7,3.2c-1.9,0-3.1-0.8-3.7-1.4L438.2,308.1z"/>
		<path fill="#231F20" d="M455.8,305.9c0,3-1.6,5.1-4.7,5.1c-3.1,0-4.7-2.1-4.7-5.1c0-3.3,2-5.1,4.7-5.1
			C454.1,300.9,455.8,302.9,455.8,305.9z M448.5,305.9c0,1.9,0.8,3.5,2.5,3.5c1.7,0,2.5-1.5,2.5-3.5s-0.8-3.4-2.5-3.4
			C449.3,302.5,448.5,304,448.5,305.9z"/>
		<path fill="#231F20" d="M465.8,309.8c-0.7,0.7-2.3,1.2-3.5,1.2c-3.3,0-4.9-2-4.9-5.2s1.6-5.2,4.9-5.2c1.2,0,2.7,0.5,3.5,1.2
			l-0.7,1.5c-0.6-0.5-1.7-1-2.9-1c-1.6,0-2.6,1.2-2.6,3.4c0,2.3,1,3.4,2.6,3.4c1.2,0,2.3-0.5,2.9-1L465.8,309.8z"/>
		<path fill="#231F20" d="M470.3,298c0,0.7-0.6,1.3-1.3,1.3s-1.3-0.6-1.3-1.3c0-0.7,0.6-1.3,1.3-1.3S470.3,297.3,470.3,298z
			 M467.9,310.7v-9.6h2.1v9.6H467.9z"/>
		<path fill="#231F20" d="M474.5,306.9c0.2,1.4,1,2.5,2.5,2.5c1.2,0,2.3-0.6,2.7-0.9l0.7,1.5c-0.8,0.6-2.2,1-3.3,1
			c-3.4,0-4.8-2.5-4.8-5.1c0-3.1,1.9-5.1,4.5-5.1c3.5,0,4.5,2.5,4.5,6H474.5z M479.4,305.4c-0.1-1.7-0.6-3-2.5-3
			c-1.6,0-2.3,1.3-2.4,3H479.4z"/>
		<path fill="#231F20" d="M486.1,306.4c0,2.7,0.1,2.9,2.3,2.3v2c-3.6,0.7-4.5,0-4.5-4v-3.9h-1.6v-1.7h1.6v-4.2h2.1v4.2h2.3v1.7h-2.3
			V306.4z"/>
		<path fill="#231F20" d="M495.2,311.6c-1.3,3.2-2.7,3.9-5.2,2.9l0.6-1.8c1.6,0.8,2.2,0.2,3-2.1l-3.8-9.6h2.3l2.6,7.1l2.9-7.1h2
			L495.2,311.6z"/>
		<path fill="#231F20" d="M395.5,324.5c0.1,0.4,0.2,0.7,0.2,1.1c0.9-0.9,1.9-1.4,3.1-1.4c2.8,0,4.2,2.2,4.2,5.1
			c0,2.9-1.4,5.1-4.2,5.1c-1.2,0-2.2-0.5-3.1-1.5v5.1h-2.1v-13.4H395.5z M395.7,330.9c0.5,1.1,1.5,1.8,2.7,1.8
			c1.6,0,2.2-1.4,2.2-3.4s-0.7-3.4-2.2-3.4c-1.2,0-2.2,0.7-2.7,1.8V330.9z"/>
		<path fill="#231F20" d="M405.4,325.5c0.9-0.6,2.7-1.2,4.2-1.2c2.3,0,3.4,1.5,3.4,3.3v6.5h-1.8c-0.1-0.3-0.2-0.6-0.3-1
			c-0.5,0.7-1.5,1.4-2.8,1.4c-2.3,0-3.4-1.6-3.4-3.4c0-1.6,0.9-3.3,3.4-3.3c0.9,0,1.9,0.2,2.8,0.5v-0.2c0-1.5-0.6-2.2-1.6-2.2
			c-1,0-2,0.3-3,1L405.4,325.5z M410.8,329.7c-0.6-0.2-1.5-0.5-2.4-0.5c-1.1,0-1.7,0.7-1.7,1.7c0,1.2,0.4,2,1.7,2
			c0.8,0,1.7-0.5,2.4-1.3V329.7z"/>
		<path fill="#231F20" d="M417.3,324.5c0.1,0.2,0.2,0.5,0.2,1c1.1-1,2.4-1.7,3.7-0.8l-0.6,1.8c-0.9-0.6-2-0.5-3,0.7v6.8h-2.1v-9.6
			H417.3z"/>
		<path fill="#231F20" d="M426.2,329.9c0,2.7,0.1,2.9,2.3,2.3v2c-3.6,0.7-4.5,0-4.5-4v-3.9h-1.6v-1.7h1.6v-4.2h2.1v4.2h2.3v1.7h-2.3
			V329.9z"/>
		<path fill="#231F20" d="M432.5,324.5c0.1,0.2,0.2,0.7,0.3,1.3c0.8-0.9,2.1-1.5,3.5-1.5c2.2,0,3.3,1.5,3.3,3.5v6.3h-2.1v-5.7
			c0-3.2-2.7-2.7-4.6-0.9v6.6h-2.1v-9.6H432.5z"/>
		<path fill="#231F20" d="M443.4,330.3c0.2,1.4,1,2.5,2.5,2.5c1.2,0,2.3-0.6,2.7-0.9l0.7,1.5c-0.8,0.6-2.2,1-3.3,1
			c-3.4,0-4.8-2.5-4.8-5.1c0-3.1,1.9-5.1,4.5-5.1c3.5,0,4.5,2.5,4.5,6H443.4z M448.3,328.8c-0.1-1.7-0.6-3-2.5-3
			c-1.6,0-2.3,1.3-2.4,3H448.3z"/>
		<path fill="#231F20" d="M453.9,324.5c0.1,0.2,0.2,0.5,0.2,1c1.1-1,2.4-1.7,3.7-0.8l-0.6,1.8c-0.9-0.6-2-0.5-3,0.7v6.8H452v-9.6
			H453.9z"/>
		<path fill="#231F20" d="M459.8,331.5c0.6,0.8,1.6,1.2,2.6,1.2c1,0,1.8-0.5,1.8-1.4c0-0.9-0.9-1.3-2.3-1.7c-1.8-0.5-2.9-1-2.9-2.5
			c0-1.8,1.5-2.7,3.4-2.7c1.2,0,2.5,0.4,3.4,0.9l-0.6,1.4c-0.8-0.5-1.7-0.8-2.6-0.8c-0.7,0-1.5,0.3-1.5,1.1c0,0.7,0.8,0.9,1.9,1.2
			c2.1,0.6,3.3,1.3,3.3,3c0,2.2-1.9,3.2-3.7,3.2c-1.9,0-3.1-0.8-3.7-1.4L459.8,331.5z"/>
		<path fill="#231F20" d="M470.6,325.7c0.8-0.8,2.1-1.5,3.4-1.5c2.2,0,3.3,1.5,3.3,3.5v6.3h-2.1v-5.7c0-3.2-2.7-2.7-4.6-0.9v6.6
			h-2.1v-13.8h2.1V325.7z"/>
		<path fill="#231F20" d="M482.5,321.4c0,0.7-0.6,1.3-1.3,1.3s-1.3-0.6-1.3-1.3c0-0.7,0.6-1.3,1.3-1.3S482.5,320.7,482.5,321.4z
			 M480.2,334.1v-9.6h2.1v9.6H480.2z"/>
		<path fill="#231F20" d="M487.2,324.5c0.1,0.4,0.2,0.7,0.2,1.1c0.9-0.9,1.9-1.4,3.1-1.4c2.8,0,4.2,2.2,4.2,5.1
			c0,2.9-1.4,5.1-4.2,5.1c-1.2,0-2.2-0.5-3.1-1.5v5.1h-2.1v-13.4H487.2z M487.4,330.9c0.5,1.1,1.5,1.8,2.7,1.8
			c1.6,0,2.2-1.4,2.2-3.4s-0.7-3.4-2.2-3.4c-1.2,0-2.2,0.7-2.7,1.8V330.9z"/>
		<path fill="#231F20" d="M496,321.3c1.2-0.6,2.5-0.9,4.1-0.9c2.7,0,4.2,1.6,4.2,3.6c0,2.3-1.9,3.5-3.5,3.5v2.3h-2.1v-3.6
			c2.1,0,3.5-0.7,3.5-2.2c0-1.2-0.7-1.9-2.2-1.9c-1.2,0-2.3,0.3-3.1,0.9L496,321.3z M500.8,333c0,0.7-0.5,1.2-1.2,1.2
			s-1.2-0.5-1.2-1.2c0-0.7,0.5-1.2,1.2-1.2S500.8,332.4,500.8,333z"/>
	</g>
	<g>
		<path fill="#231F20" d="M487.8,40.4c4.6,0,6.9,3,6.9,6.7c0,4.5-3,6.7-6.9,6.7h-4.6V40.4H487.8z M487.8,51.8c2.9,0,4.6-1.4,4.6-4.7
			c0-3.3-1.7-4.7-4.6-4.7h-2.4v9.4H487.8z"/>
		<path fill="#231F20" d="M499.8,41.1c0,0.7-0.6,1.3-1.3,1.3s-1.3-0.6-1.3-1.3s0.6-1.3,1.3-1.3S499.8,40.4,499.8,41.1z M497.4,53.8
			v-9.6h2.1v9.6H497.4z"/>
		<path fill="#231F20" d="M504.4,44.2c0.1,0.2,0.2,0.5,0.2,1c1.1-1,2.4-1.7,3.7-0.8l-0.6,1.8c-0.9-0.6-2-0.5-3,0.7v6.8h-2.1v-9.6
			H504.4z"/>
		<path fill="#231F20" d="M511,50c0.2,1.4,1,2.5,2.5,2.5c1.2,0,2.3-0.6,2.7-0.9l0.7,1.5c-0.8,0.6-2.2,1-3.3,1
			c-3.4,0-4.8-2.5-4.8-5.1c0-3.1,1.9-5.1,4.5-5.1c3.5,0,4.5,2.5,4.5,6H511z M515.9,48.6c-0.1-1.7-0.6-3-2.5-3c-1.6,0-2.3,1.3-2.4,3
			H515.9z"/>
		<path fill="#231F20" d="M527.8,52.9c-0.7,0.7-2.3,1.2-3.5,1.2c-3.3,0-4.9-2-4.9-5.2s1.6-5.2,4.9-5.2c1.2,0,2.7,0.5,3.5,1.2
			l-0.7,1.5c-0.6-0.5-1.7-1-2.9-1c-1.6,0-2.6,1.2-2.6,3.4c0,2.3,1,3.4,2.6,3.4c1.2,0,2.3-0.5,2.9-1L527.8,52.9z"/>
		<path fill="#231F20" d="M532.8,49.6c0,2.7,0.1,2.9,2.3,2.3v2c-3.6,0.7-4.5,0-4.5-4v-3.9H529v-1.7h1.6V40h2.1v4.2h2.3v1.7h-2.3
			V49.6z"/>
		<path fill="#231F20" d="M551.8,49.1c0,3-1.6,5.1-4.7,5.1c-3.1,0-4.7-2.1-4.7-5.1c0-3.3,2-5.1,4.7-5.1
			C550.2,44,551.8,46.1,551.8,49.1z M544.6,49.1c0,1.9,0.8,3.5,2.5,3.5c1.7,0,2.5-1.5,2.5-3.5s-0.8-3.4-2.5-3.4
			C545.4,45.6,544.6,47.1,544.6,49.1z"/>
		<path fill="#231F20" d="M555.8,44.2c0.1,0.2,0.2,0.5,0.2,1c1.1-1,2.4-1.7,3.7-0.8l-0.6,1.8c-0.9-0.6-2-0.5-3,0.7v6.8H554v-9.6
			H555.8z"/>
		<path fill="#231F20" d="M569.9,41.1c0,0.7-0.6,1.3-1.3,1.3s-1.3-0.6-1.3-1.3s0.6-1.3,1.3-1.3S569.9,40.4,569.9,41.1z M567.5,53.8
			v-9.6h2.1v9.6H567.5z"/>
		<path fill="#231F20" d="M574.5,44.2c0.1,0.2,0.2,0.7,0.3,1.3c0.8-0.9,2.1-1.5,3.5-1.5c2.2,0,3.3,1.5,3.3,3.5v6.3h-2.1v-5.7
			c0-3.2-2.7-2.7-4.6-0.9v6.6h-2.1v-9.6H574.5z"/>
		<path fill="#231F20" d="M593,53.8h-1.9c-0.1-0.4-0.2-0.7-0.2-1.1c-0.9,0.9-1.9,1.4-3.1,1.4c-2.8,0-4.2-2.2-4.2-5.1
			c0-2.9,1.4-5.1,4.2-5.1c1.2,0,2.2,0.5,3.1,1.5V40h2.1V53.8z M590.9,47.4c-0.5-1.1-1.5-1.8-2.7-1.8c-1.6,0-2.2,1.4-2.2,3.4
			s0.7,3.4,2.2,3.4c1.2,0,2.2-0.7,2.7-1.8V47.4z"/>
		<path fill="#231F20" d="M598.3,41.1c0,0.7-0.6,1.3-1.3,1.3s-1.3-0.6-1.3-1.3s0.6-1.3,1.3-1.3S598.3,40.4,598.3,41.1z M595.9,53.8
			v-9.6h2.1v9.6H595.9z"/>
		<path fill="#231F20" d="M602.9,44.2c0.1,0.2,0.2,0.5,0.2,1c1.1-1,2.4-1.7,3.7-0.8l-0.6,1.8c-0.9-0.6-2-0.5-3,0.7v6.8h-2.1v-9.6
			H602.9z"/>
		<path fill="#231F20" d="M609.5,50c0.2,1.4,1,2.5,2.5,2.5c1.2,0,2.3-0.6,2.7-0.9l0.7,1.5c-0.8,0.6-2.2,1-3.3,1
			c-3.4,0-4.8-2.5-4.8-5.1c0-3.1,1.9-5.1,4.5-5.1c3.5,0,4.5,2.5,4.5,6H609.5z M614.4,48.6c-0.1-1.7-0.6-3-2.5-3
			c-1.6,0-2.3,1.3-2.4,3H614.4z"/>
		<path fill="#231F20" d="M626.3,52.9c-0.7,0.7-2.3,1.2-3.5,1.2c-3.3,0-4.9-2-4.9-5.2s1.6-5.2,4.9-5.2c1.2,0,2.7,0.5,3.5,1.2
			l-0.7,1.5c-0.6-0.5-1.7-1-2.9-1c-1.6,0-2.6,1.2-2.6,3.4c0,2.3,1,3.4,2.6,3.4c1.2,0,2.3-0.5,2.9-1L626.3,52.9z"/>
		<path fill="#231F20" d="M631.3,49.6c0,2.7,0.1,2.9,2.3,2.3v2c-3.6,0.7-4.5,0-4.5-4v-3.9h-1.6v-1.7h1.6V40h2.1v4.2h2.3v1.7h-2.3
			V49.6z"/>
		<path fill="#231F20" d="M491.9,76.3c-0.7,0.7-2.3,1.2-3.5,1.2c-3.3,0-4.9-2-4.9-5.2c0-3.2,1.6-5.2,4.9-5.2c1.2,0,2.7,0.5,3.5,1.2
			l-0.7,1.5c-0.6-0.5-1.7-1-2.9-1c-1.6,0-2.6,1.2-2.6,3.4s1,3.4,2.6,3.4c1.2,0,2.3-0.5,2.9-1L491.9,76.3z"/>
		<path fill="#231F20" d="M502.7,72.5c0,3-1.6,5.1-4.7,5.1c-3.1,0-4.7-2.1-4.7-5.1c0-3.3,2-5.1,4.7-5.1
			C501.1,67.4,502.7,69.5,502.7,72.5z M495.5,72.5c0,1.9,0.8,3.5,2.5,3.5c1.7,0,2.5-1.5,2.5-3.5s-0.8-3.4-2.5-3.4
			C496.3,69.1,495.5,70.5,495.5,72.5z"/>
		<path fill="#231F20" d="M506.7,67.6c0.1,0.2,0.2,0.7,0.3,1.3c0.8-0.9,2.1-1.5,3.5-1.5c2.2,0,3.3,1.5,3.3,3.5v6.3h-2.1v-5.7
			c0-3.2-2.7-2.7-4.6-0.9v6.6h-2.1v-9.6H506.7z"/>
		<path fill="#231F20" d="M518.2,67.6c0.1,0.2,0.2,0.7,0.3,1.3c0.8-0.9,2.1-1.5,3.5-1.5c2.2,0,3.3,1.5,3.3,3.5v6.3H523v-5.7
			c0-3.2-2.7-2.7-4.6-0.9v6.6h-2.1v-9.6H518.2z"/>
		<path fill="#231F20" d="M529.1,73.4c0.2,1.4,1,2.5,2.5,2.5c1.2,0,2.3-0.6,2.7-0.9l0.7,1.5c-0.8,0.6-2.2,1-3.3,1
			c-3.4,0-4.8-2.5-4.8-5.1c0-3.1,1.9-5.1,4.5-5.1c3.5,0,4.5,2.5,4.5,6H529.1z M534,72c-0.1-1.7-0.6-3-2.5-3c-1.6,0-2.3,1.3-2.4,3
			H534z"/>
		<path fill="#231F20" d="M545.9,76.3c-0.7,0.7-2.3,1.2-3.5,1.2c-3.3,0-4.9-2-4.9-5.2c0-3.2,1.6-5.2,4.9-5.2c1.2,0,2.7,0.5,3.5,1.2
			l-0.7,1.5c-0.6-0.5-1.7-1-2.9-1c-1.6,0-2.6,1.2-2.6,3.4s1,3.4,2.6,3.4c1.2,0,2.3-0.5,2.9-1L545.9,76.3z"/>
		<path fill="#231F20" d="M550.9,73c0,2.7,0.1,2.9,2.3,2.3v2c-3.6,0.7-4.5,0-4.5-4v-3.9h-1.6v-1.7h1.6v-4.2h2.1v4.2h2.3v1.7h-2.3V73
			z"/>
		<path fill="#231F20" d="M558,64.5c0,0.7-0.6,1.3-1.3,1.3s-1.3-0.6-1.3-1.3s0.6-1.3,1.3-1.3S558,63.8,558,64.5z M555.6,77.2v-9.6
			h2.1v9.6H555.6z"/>
		<path fill="#231F20" d="M569.7,72.5c0,3-1.6,5.1-4.7,5.1c-3.1,0-4.7-2.1-4.7-5.1c0-3.3,2-5.1,4.7-5.1
			C568,67.4,569.7,69.5,569.7,72.5z M562.4,72.5c0,1.9,0.8,3.5,2.5,3.5c1.7,0,2.5-1.5,2.5-3.5s-0.8-3.4-2.5-3.4
			C563.2,69.1,562.4,70.5,562.4,72.5z"/>
		<path fill="#231F20" d="M573.7,67.6c0.1,0.2,0.2,0.7,0.3,1.3c0.8-0.9,2.1-1.5,3.5-1.5c2.2,0,3.3,1.5,3.3,3.5v6.3h-2.1v-5.7
			c0-3.2-2.7-2.7-4.6-0.9v6.6h-2.1v-9.6H573.7z"/>
		<path fill="#231F20" d="M595.5,71.8l-2.7,6l-4.7-10.2h2.2l2.5,5.7l2.6-6l2.6,6l2.5-5.7h2.2l-4.7,10.2L595.5,71.8z"/>
		<path fill="#231F20" d="M607.3,64.5c0,0.7-0.6,1.3-1.3,1.3s-1.3-0.6-1.3-1.3s0.6-1.3,1.3-1.3S607.3,63.8,607.3,64.5z M604.9,77.2
			v-9.6h2.1v9.6H604.9z"/>
		<path fill="#231F20" d="M613.1,73c0,2.7,0.1,2.9,2.3,2.3v2c-3.6,0.7-4.5,0-4.5-4v-3.9h-1.6v-1.7h1.6v-4.2h2.1v4.2h2.3v1.7h-2.3V73
			z"/>
		<path fill="#231F20" d="M619.7,68.9c0.8-0.8,2.1-1.5,3.4-1.5c2.2,0,3.3,1.5,3.3,3.5v6.3h-2.1v-5.7c0-3.2-2.7-2.7-4.6-0.9v6.6h-2.1
			V63.4h2.1V68.9z"/>
		<path fill="#231F20" d="M508.6,93.9c0,4.5-3,7-6.7,7c-3.7,0-6.7-2.5-6.7-7c0-3.7,2.3-7,6.7-7S508.6,90.2,508.6,93.9z M497.5,93.9
			c0,3.2,1.6,5,4.4,5c2.8,0,4.4-1.9,4.4-5c0-3.2-1.6-5-4.4-5C499.1,88.9,497.5,90.7,497.5,93.9z"/>
		<path fill="#231F20" d="M522.8,93.1v5.1c-1.3,1.8-3.1,2.7-5.6,2.7c-4.3,0-6.5-3.4-6.5-7c0-4.4,3-7,6.5-7c2.6,0,4.4,1.1,5.6,2.7
			l-1.6,1.2c-0.8-1.1-2.2-2-3.9-2c-2.6,0-4.3,2-4.3,5c0,3,1.7,5,4.2,5c1.5,0,2.6-0.5,3.4-1.4v-2.7h-3v-1.9H522.8z"/>
		<path fill="#231F20" d="M529.2,87.2c4,0,5.7,1.9,5.7,4.7c0,3-2,4.4-4.8,4.4h-2.2v4.4h-2.2V87.2H529.2z M529.9,94.3
			c2.1,0,2.7-0.8,2.7-2.5c0-1.5-0.7-2.7-3.9-2.7h-0.9v5.2H529.9z"/>
		<path fill="#231F20" d="M544.9,92.1v8.6h-2.2V86.8l8.8,9v-8.6h2.2v13.8L544.9,92.1z"/>
		<path fill="#231F20" d="M556.8,92c0.9-0.6,2.7-1.2,4.2-1.2c2.3,0,3.4,1.5,3.4,3.3v6.5h-1.8c-0.1-0.3-0.2-0.6-0.3-1
			c-0.5,0.7-1.5,1.4-2.8,1.4c-2.3,0-3.4-1.6-3.4-3.4c0-1.6,0.9-3.3,3.4-3.3c0.9,0,1.9,0.2,2.8,0.5v-0.2c0-1.5-0.6-2.2-1.6-2.2
			c-1,0-2,0.3-3,1L556.8,92z M562.2,96.3c-0.6-0.2-1.5-0.5-2.4-0.5c-1.1,0-1.7,0.7-1.7,1.7c0,1.2,0.4,2,1.7,2c0.8,0,1.7-0.5,2.4-1.3
			V96.3z"/>
		<path fill="#231F20" d="M569.9,96.4c0,2.7,0.1,2.9,2.3,2.3v2c-3.6,0.7-4.5,0-4.5-4v-3.9h-1.6v-1.7h1.6v-4.2h2.1v4.2h2.3v1.7h-2.3
			V96.4z"/>
		<path fill="#231F20" d="M577,87.9c0,0.7-0.6,1.3-1.3,1.3s-1.3-0.6-1.3-1.3c0-0.7,0.6-1.3,1.3-1.3S577,87.2,577,87.9z M574.7,100.6
			v-9.6h2.1v9.6H574.7z"/>
		<path fill="#231F20" d="M588.7,95.9c0,3-1.6,5.1-4.7,5.1c-3.1,0-4.7-2.1-4.7-5.1c0-3.3,2-5.1,4.7-5.1
			C587.1,90.8,588.7,92.9,588.7,95.9z M581.5,95.9c0,1.9,0.8,3.5,2.5,3.5c1.7,0,2.5-1.5,2.5-3.5c0-1.9-0.8-3.4-2.5-3.4
			C582.3,92.5,581.5,94,581.5,95.9z"/>
		<path fill="#231F20" d="M592.7,91.1c0.1,0.2,0.2,0.7,0.3,1.3c0.8-0.9,2.1-1.5,3.5-1.5c2.2,0,3.3,1.5,3.3,3.5v6.3h-2.1v-5.7
			c0-3.2-2.7-2.7-4.6-0.9v6.6h-2.1v-9.6H592.7z"/>
		<path fill="#231F20" d="M602.3,92c0.9-0.6,2.7-1.2,4.2-1.2c2.3,0,3.4,1.5,3.4,3.3v6.5H608c-0.1-0.3-0.2-0.6-0.3-1
			c-0.5,0.7-1.5,1.4-2.8,1.4c-2.3,0-3.4-1.6-3.4-3.4c0-1.6,0.9-3.3,3.4-3.3c0.9,0,1.9,0.2,2.8,0.5v-0.2c0-1.5-0.6-2.2-1.6-2.2
			c-1,0-2,0.3-3,1L602.3,92z M607.7,96.3c-0.6-0.2-1.5-0.5-2.4-0.5c-1.1,0-1.7,0.7-1.7,1.7c0,1.2,0.4,2,1.7,2c0.8,0,1.7-0.5,2.4-1.3
			V96.3z"/>
		<path fill="#231F20" d="M612.7,100.6V86.8h2.1v13.8H612.7z"/>
		<path fill="#231F20" d="M506.1,121.3l-1.3,2.8h-2.3l6.5-13.8l6.5,13.8h-2.3l-1.3-2.8H506.1z M509.1,114.9l-2.1,4.5h4.1
			L509.1,114.9z"/>
		<path fill="#231F20" d="M524.8,123.2c-0.7,0.7-2.3,1.2-3.5,1.2c-3.3,0-4.9-2-4.9-5.2s1.6-5.2,4.9-5.2c1.2,0,2.7,0.5,3.5,1.2
			l-0.7,1.5c-0.6-0.5-1.7-1-2.9-1c-1.6,0-2.6,1.2-2.6,3.4c0,2.3,1,3.4,2.6,3.4c1.2,0,2.3-0.5,2.9-1L524.8,123.2z"/>
		<path fill="#231F20" d="M529.7,119.8c0,2.7,0.1,2.9,2.3,2.3v2c-3.6,0.7-4.5,0-4.5-4v-3.9H526v-1.7h1.6v-4.2h2.1v4.2h2.3v1.7h-2.3
			V119.8z"/>
		<path fill="#231F20" d="M536.8,111.3c0,0.7-0.6,1.3-1.3,1.3s-1.3-0.6-1.3-1.3s0.6-1.3,1.3-1.3S536.8,110.6,536.8,111.3z
			 M534.5,124v-9.6h2.1v9.6H534.5z"/>
		<path fill="#231F20" d="M548.5,119.3c0,3-1.6,5.1-4.7,5.1c-3.1,0-4.7-2.1-4.7-5.1c0-3.3,2-5.1,4.7-5.1
			C546.9,114.3,548.5,116.3,548.5,119.3z M541.3,119.3c0,1.9,0.8,3.5,2.5,3.5c1.7,0,2.5-1.5,2.5-3.5s-0.8-3.4-2.5-3.4
			C542.1,115.9,541.3,117.4,541.3,119.3z"/>
		<path fill="#231F20" d="M552.5,114.5c0.1,0.2,0.2,0.7,0.3,1.3c0.8-0.9,2.1-1.5,3.5-1.5c2.2,0,3.3,1.5,3.3,3.5v6.3h-2.1v-5.7
			c0-3.2-2.7-2.7-4.6-0.9v6.6h-2.1v-9.6H552.5z"/>
		<path fill="#231F20" d="M571.6,110.6c4,0,5.7,1.9,5.7,4.7c0,3-2,4.4-4.8,4.4h-2.2v4.4H568v-13.4H571.6z M572.3,117.7
			c2.1,0,2.7-0.8,2.7-2.5c0-1.5-0.7-2.7-3.9-2.7h-0.9v5.2H572.3z"/>
		<path fill="#231F20" d="M579.3,124v-13.8h2.1V124H579.3z"/>
		<path fill="#231F20" d="M584.3,115.4c0.9-0.6,2.7-1.2,4.2-1.2c2.3,0,3.4,1.5,3.4,3.3v6.5H590c-0.1-0.3-0.2-0.6-0.3-1
			c-0.5,0.7-1.5,1.4-2.8,1.4c-2.3,0-3.4-1.6-3.4-3.4c0-1.6,0.9-3.3,3.4-3.3c0.9,0,1.9,0.2,2.8,0.5v-0.2c0-1.5-0.6-2.2-1.6-2.2
			c-1,0-2,0.3-3,1L584.3,115.4z M589.7,119.7c-0.6-0.2-1.5-0.5-2.4-0.5c-1.1,0-1.7,0.7-1.7,1.7c0,1.2,0.4,2,1.7,2
			c0.8,0,1.7-0.5,2.4-1.3V119.7z"/>
		<path fill="#231F20" d="M596.3,114.5c0.1,0.2,0.2,0.7,0.3,1.3c0.8-0.9,2.1-1.5,3.5-1.5c2.2,0,3.3,1.5,3.3,3.5v6.3h-2.1v-5.7
			c0-3.2-2.7-2.7-4.6-0.9v6.6h-2.1v-9.6H596.3z"/>
		<path fill="#231F20" d="M604.9,111.2c1.2-0.6,2.5-0.9,4.1-0.9c2.7,0,4.2,1.6,4.2,3.6c0,2.3-1.9,3.5-3.5,3.5v2.3h-2.1v-3.6
			c2.1,0,3.5-0.7,3.5-2.2c0-1.2-0.7-1.9-2.2-1.9c-1.2,0-2.3,0.3-3.1,0.9L604.9,111.2z M609.8,123c0,0.7-0.5,1.2-1.2,1.2
			s-1.2-0.5-1.2-1.2c0-0.7,0.5-1.2,1.2-1.2S609.8,122.3,609.8,123z"/>
	</g>
	<g>
		<path fill="#231F20" d="M320.7,61.7c4,0,5.7,1.9,5.7,4.7c0,3-2,4.4-4.8,4.4h-2.2v4.4h-2.2V61.7H320.7z M321.4,68.8
			c2.1,0,2.7-0.8,2.7-2.5c0-1.5-0.7-2.7-3.9-2.7h-0.9v5.2H321.4z"/>
		<path fill="#231F20" d="M337,75.1h-1.9c-0.1-0.2-0.2-0.7-0.3-1.3c-0.8,0.9-2.1,1.5-3.5,1.5c-2.2,0-3.3-1.5-3.3-3.5v-6.3h2.1v5.7
			c0,3.2,2.7,2.7,4.6,0.9v-6.6h2.1V75.1z"/>
		<path fill="#231F20" d="M339.8,72.5c0.6,0.8,1.6,1.2,2.6,1.2c1,0,1.8-0.5,1.8-1.4c0-0.9-0.9-1.3-2.3-1.7c-1.8-0.5-2.9-1-2.9-2.5
			c0-1.8,1.5-2.7,3.4-2.7c1.2,0,2.5,0.4,3.4,0.9l-0.6,1.4c-0.8-0.5-1.7-0.8-2.6-0.8c-0.7,0-1.5,0.3-1.5,1.1c0,0.7,0.8,0.9,1.9,1.2
			c2.1,0.6,3.3,1.3,3.3,3c0,2.2-1.9,3.2-3.7,3.2c-1.9,0-3.1-0.8-3.7-1.4L339.8,72.5z"/>
		<path fill="#231F20" d="M350.6,66.8c0.8-0.8,2.1-1.5,3.4-1.5c2.2,0,3.3,1.5,3.3,3.5v6.3h-2.1v-5.7c0-3.2-2.7-2.7-4.6-0.9v6.6h-2.1
			V61.3h2.1V66.8z"/>
		<path fill="#231F20" d="M359,62.3c1.2-0.6,2.5-0.9,4.1-0.9c2.7,0,4.2,1.6,4.2,3.6c0,2.3-1.9,3.5-3.5,3.5v2.3h-2.1v-3.6
			c2.1,0,3.5-0.7,3.5-2.2c0-1.2-0.7-1.9-2.2-1.9c-1.2,0-2.3,0.3-3.1,0.9L359,62.3z M363.9,74.1c0,0.7-0.5,1.2-1.2,1.2
			s-1.2-0.5-1.2-1.2c0-0.7,0.5-1.2,1.2-1.2S363.9,73.4,363.9,74.1z"/>
		<path fill="#231F20" d="M325.8,97.9c4,0,5.7,1.9,5.7,4.7c0,3-2,4.4-4.8,4.4h-2.2v4.4h-2.2V97.9H325.8z M326.5,105
			c2.1,0,2.7-0.8,2.7-2.5c0-1.5-0.7-2.7-3.9-2.7h-0.9v5.2H326.5z"/>
		<path fill="#231F20" d="M342.1,111.3h-1.9c-0.1-0.2-0.2-0.7-0.3-1.3c-0.8,0.9-2.1,1.5-3.5,1.5c-2.2,0-3.3-1.5-3.3-3.5v-6.3h2.1
			v5.7c0,3.2,2.7,2.7,4.6,0.9v-6.6h2.1V111.3z"/>
		<path fill="#231F20" d="M344.9,111.3V97.5h2.1v13.8H344.9z"/>
		<path fill="#231F20" d="M349.9,111.3V97.5h2.1v13.8H349.9z"/>
		<path fill="#231F20" d="M353.9,98.5c1.2-0.6,2.5-0.9,4.1-0.9c2.7,0,4.2,1.6,4.2,3.6c0,2.3-1.9,3.5-3.5,3.5v2.3h-2.1v-3.6
			c2.1,0,3.5-0.7,3.5-2.2c0-1.2-0.7-1.9-2.2-1.9c-1.2,0-2.3,0.3-3.1,0.9L353.9,98.5z M358.7,110.2c0,0.7-0.5,1.2-1.2,1.2
			c-0.7,0-1.2-0.5-1.2-1.2c0-0.7,0.5-1.2,1.2-1.2C358.2,109,358.7,109.6,358.7,110.2z"/>
	</g>
</g>
</svg>
