<?xml version="1.0" encoding="utf-8"?>
<!-- Generator: Adobe Illustrator 19.1.0, SVG Export Plug-In . SVG Version: 6.00 Build 0)  -->
<!DOCTYPE svg PUBLIC "-//W3C//DTD SVG 1.1//EN" "http://www.w3.org/Graphics/SVG/1.1/DTD/svg11.dtd">
<svg version="1.1" id="Layer_1" xmlns="http://www.w3.org/2000/svg" xmlns:xlink="http://www.w3.org/1999/xlink" x="0px" y="0px"
	 width="781.5px" height="312px" viewBox="0 0 781.5 312" enable-background="new 0 0 781.5 312" xml:space="preserve">
<g>
	<g>
		<defs>
			<rect id="SVGID_3_" x="14.6" y="16.3" width="754.1" height="279.4"/>
		</defs>
		<clipPath id="SVGID_2_">
			<use xlink:href="#SVGID_3_"  overflow="visible"/>
		</clipPath>
		<path clip-path="url(#SVGID_2_)" fill="#E1EDED" d="M638.7,46.2c-32.6,0-65.3,7.4-93.7,23.3c-15.4,8.7-30.6,21.4-33.5,38.9
			c-1.8,10.4,1.1,21,4.5,31c8.1,23.5,21.1,47.6,43.8,57.7c9.5,4.2,20,5.6,30.3,7.6c23.4,4.6,46.2,12.7,67.2,23.9l3.9-0.4
			c2.4,1,4.8,2,7.4,2c0.2,0,0.4,0,0.7,0c2.8-0.2,5.7-2.1,5.9-4.9c0.1-1.3-0.3-2.5-0.7-3.7c-3.6-10.4-6.6-22.5-0.7-31.8
			c5.8-9.3,17.8-11.9,27.3-17.3c10.8-6.2,18.7-16.5,23.5-28c4.8-11.5,6.5-24,6.9-36.4c0.2-8.6-0.2-17.4-3.4-25.3
			c-4.3-10.7-13.2-19-23.4-24.3c-10.2-5.4-21.5-8-32.9-9.7C660.8,47.1,649.7,46.2,638.7,46.2"/>
		<path clip-path="url(#SVGID_2_)" fill="#E1EDED" d="M150.2,43.4c-3.4,0-6.9,0-10.3,0.1c-23.1,0.2-47.5,1.4-67.1,13.7
			c-11.3,7.1-20.1,17.4-27.6,28.3c-6.1,9-11.5,18.8-12.9,29.5c-1.7,13.7,3.5,27.7,12,38.6c8.5,10.9,20.1,19.1,32.2,25.8
			c9.4,5.3,20,10.4,24.8,20.1c2.3,4.5,3,9.7,3.4,14.7c0.8,10.2,0.1,21.3-6.2,29.5l20-20.9c181.3-7.5,209.5-87.7,211.4-89.9
			c2.2-2.5,2.4-6.2,2.1-9.6c-1.9-21.9-19.7-39.2-38.6-50.4C251,47.7,199.9,43.4,150.2,43.4"/>
		<path clip-path="url(#SVGID_2_)" fill="#E1EDED" d="M423.1,151.8c-17.9,0-35.8,3.3-52.4,10c-10.6,4.3-21,10-28.2,18.9
			c-7.2,8.9-10.9,21.3-7.1,32.1c2.9,8.4,9.8,14.7,16.8,20.2c43.9,34.5,100.2,48.2,154.5,60.9l10.1-3.5c9.9-20.6,14.3-43.8,12.6-66.6
			c-0.9-12-3.7-24.3-10.9-34c-4.5-6-10.5-10.7-16.8-14.9C478.5,159.6,450.8,151.8,423.1,151.8"/>
		<path clip-path="url(#SVGID_2_)" fill="#3F4251" d="M58.6,259.1c26.2-8.2,34.1-30.1,38.9-55c0.2-1.1-0.6-1.9-1.7-1.7
			c-8.6,1.2-19.6-3.4-27.4-6.4c-15.2-5.8-32-14.7-40.7-29C6.2,131.7,19.2,76,49.4,50.3c32.5-27.7,78.3-31,119.2-30.2
			c31.8,0.6,63.9,5.4,93.5,17.5c44.7,18.3,105.7,71.2,75.5,124.8c-9.4,16.6-27,26.1-44.6,31.8c-36.2,11.7-76.1,11.1-113.6,9.1
			c-0.7,0-1.3,0.4-1.7,1c-24.5,42.6-77.3,56.4-123.4,50.6c-2.6-0.3-2.6,3.8,0,4.1c42.5,5.2,92.4-6,119.5-41.7
			c3.8-5,4.4-8.5,11.4-9.9c6.6-1.3,15.3,0.6,22.1,0.6c13.3,0.1,26.7-0.3,40-1.5c17.6-1.6,35.3-4.5,51.9-10.6
			c28.8-10.7,49-32.5,50.5-63.8c2.1-41.6-44.5-78.5-77.3-93.9c-38.3-18-81.7-23-123.7-21.6c-46.3,1.5-99.4,12.6-123,57.3
			c-11.5,21.7-13.3,47.7-8.7,71.5c4.2,21.8,14.9,36,34.5,46.5c7.9,4.2,16.4,7.6,25.1,10.1c4.1,1.2,14.3,1.1,17.6,3.5
			c1,0.7-2,11.9-3.4,16.6c-5.1,17.1-15.6,29.4-32.6,35.5C57.1,257.8,57.5,259.5,58.6,259.1"/>
		<path clip-path="url(#SVGID_2_)" fill="#3F4251" d="M500.6,293.1c-8.8-3.7-21.4-11.6-22.1-22.7c-0.5-7.5,4.3-7.4,10-8.7
			c9.9-2.3,20.1-4.8,29.3-9.3c13.7-6.7,22.9-18.9,19.2-34.4c-7.4-31-45.6-52.6-75.1-56.8c-25.8-3.6-54.5,0.9-78.5,10.9
			c-15.1,6.3-33.8,15.7-41.6,31.1c-11.9,23.7,5.6,49.2,26.7,59.9c7.4,3.8,15.3,6.1,23.5,7.3c6.2,0.9,12.5,1.2,18.8,0.9
			c5.7-0.2,13.8-2.9,19.4-2.1c9.3,1.2,21,13.4,30.1,17c12.9,5.2,26.5,8,40.2,9.5c2.8,0.3,2.8-4.2,0-4.4
			c-14.6-1.5-29.4-4.6-42.8-10.8c-8.4-3.8-14.7-12.3-23.4-14.8c-6.8-2-14.5,0.9-21.3,1.3c-10.6,0.6-21.3-0.3-31.5-3.4
			c-29.6-9-55.7-44.7-26.9-70.3c36.1-32.2,100.3-40.1,142-15.7c16.9,9.9,47.2,34.2,35.1,57.6c-9.3,17.9-37.9,22.1-55.4,26.8
			c-0.5,0.1-0.9,0.6-0.9,1.2c0.8,16,10.2,25.6,25,30.8C500.8,294,501,293.3,500.6,293.1"/>
		<path clip-path="url(#SVGID_2_)" fill="#3F4251" d="M592.4,207.1c-41.5-0.9-74.2-24.2-81.8-65.9c-3.2-17.4-1.1-34.2,6.9-49.9
			c12.5-24.3,36.4-39.3,62.1-46.6C627.2,31,690.5,32,728.9,66.7c20.1,18.1,32.9,43.6,34.8,70.6c1.4,19.4-10,31.8-26,41
			c-15.8,9.1-32.7,5.5-49.7,9.3c-1.2,0.3-2.4,1.7-2.3,3c2,17.7,6,34.7,12.6,51.3c1.5-1.5,3-3,4.5-4.5c-13.6-4.2-26.1-10.2-37.4-18.9
			c-7.1-5.5-12.2-11-21-13.4c-3.5-1-6.1,4.6-2.6,6.1c10.6,4.5,18.5,13.9,28.2,19.9c9.6,6,19.9,10.2,30.8,13.3c3.4,1,5.3-2.6,4.1-5.4
			c-3.9-9.3-10-21.8-10.4-32.2c-0.7-18,9.3-14.6,22.7-16c13.2-1.4,24.7-7.6,34.9-16.2c20.8-17.5,19-40.6,10.8-64.6
			c-20.1-58.5-76.4-78.5-133.7-76.9c-55.9,1.6-128.1,29.3-123.5,96.4c3.3,48.4,38.7,78.9,86.7,78.5
			C593.1,208.1,593.1,207.1,592.4,207.1"/>
	</g>
	<text transform="matrix(1 0 0 1 66.7009 106.1169)" fill="#3F4251" font-family="'ATCOverlook-Medium'" font-size="29.3469px">Implem</text>
	<text transform="matrix(1 0 0 1 167.0095 106.1169)" fill="#3F4251" font-family="'ATCOverlook-Medium'" font-size="29.3469px">en</text>
	<text transform="matrix(1 0 0 1 200.407 106.1169)" fill="#3F4251" font-family="'ATCOverlook-Medium'" font-size="29.3469px">ted by </text>
	<text transform="matrix(1 0 0 1 48.947 142.0094)" fill="#3F4251" font-family="'ATCOverlook-Medium'" font-size="29.3469px">“</text>
	<text transform="matrix(1 0 0 1 58.6326 142.0094)" fill="#3F4251" font-family="'ATCOverlook-Medium'" font-size="29.3469px">outside</text>
	<text transform="matrix(1 0 0 1 159.8503 142.0094)" fill="#3F4251" font-family="'ATCOverlook-Medium'" font-size="29.3469px">r-inside</text>
	<text transform="matrix(1 0 0 1 262.945 142.0094)" fill="#3F4251" font-family="'ATCOverlook-Medium'" font-size="29.3469px">rs.” </text>
	<text transform="matrix(1 0 0 1 548.6355 100.5993)" fill="#3F4251" font-family="'ATCOverlook-Medium'" font-size="29.3469px">Building the </text>
	<text transform="matrix(1 0 0 1 554.0369 132.2077)" fill="#3F4251" font-family="'ATCOverlook-Medium'" font-size="29.3469px">plan</text>
	<text transform="matrix(1 0 0 1 612.3181 132.2077)" fill="#3F4251" font-family="'ATCOverlook-Medium'" font-size="29.3469px">e while</text>
	<text transform="matrix(1 0 0 1 575.4373 163.8239)" fill="#3F4251" font-family="'ATCOverlook-Medium'" font-size="29.3469px">flying it. </text>
	<text transform="matrix(1 0 0 1 372.6511 211.3957)" fill="#3F4251" font-family="'ATCOverlook-Medium'" font-size="29.3469px">No model</text>
	<text transform="matrix(1 0 0 1 370.6823 243.0031)" fill="#3F4251" font-family="'ATCOverlook-Medium'" font-size="29.3469px">to follow</text>
	<text transform="matrix(1 0 0 1 489.4499 243.0031)" fill="#3F4251" font-family="'ATCOverlook-Medium'" font-size="29.3469px">. </text>
</g>
</svg>
