<?xml version="1.0" encoding="utf-8"?>
<!-- Generator: Adobe Illustrator 19.1.0, SVG Export Plug-In . SVG Version: 6.00 Build 0)  -->
<!DOCTYPE svg PUBLIC "-//W3C//DTD SVG 1.1//EN" "http://www.w3.org/Graphics/SVG/1.1/DTD/svg11.dtd">
<svg version="1.1" id="Layer_1" xmlns="http://www.w3.org/2000/svg" xmlns:xlink="http://www.w3.org/1999/xlink" x="0px" y="0px"
	 width="743.3px" height="104px" viewBox="0 0 743.3 104" enable-background="new 0 0 743.3 104" xml:space="preserve">
<g>
	<text transform="matrix(1 0 0 1 -0.226 25.8721)"><tspan x="0" y="0" fill="#41464E" font-family="'ATCOverlook-Regular'" font-size="21.8433px">G</tspan><tspan x="16.7" y="0" fill="#41464E" font-family="'ATCOverlook-Regular'" font-size="21.8433px">O</tspan><tspan x="34.2" y="0" fill="#41464E" font-family="'ATCOverlook-Regular'" font-size="21.8433px">VERNMEN</tspan><tspan x="140.9" y="0" fill="#41464E" font-family="'ATCOverlook-Regular'" font-size="21.8433px">T </tspan><tspan x="160.6" y="0" fill="#41464E" font-family="'ATCOverlook-Regular'" font-size="21.8433px">EXPERIENCE</tspan></text>
	<g>
		<defs>
			<rect id="SVGID_19_" x="4.6" y="4.4" width="760.4" height="109.6"/>
		</defs>
		<clipPath id="SVGID_2_">
			<use xlink:href="#SVGID_19_"  overflow="visible"/>
		</clipPath>
	</g>
	<line fill="none" stroke="#222B37" stroke-width="0.4462" stroke-miterlimit="10" x1="-0.4" y1="50.3" x2="744" y2="50.3"/>
	<line fill="none" stroke="#222B37" stroke-width="0.8925" stroke-miterlimit="10" x1="-0.4" y1="51.6" x2="744" y2="51.6"/>
	<line fill="none" stroke="#222B37" stroke-width="0.4462" stroke-miterlimit="10" x1="-0.4" y1="52.9" x2="744" y2="52.9"/>
	<g>
		<defs>
			<rect id="SVGID_21_" x="4.6" y="4.4" width="760.4" height="109.6"/>
		</defs>
		<clipPath id="SVGID_4_">
			<use xlink:href="#SVGID_21_"  overflow="visible"/>
		</clipPath>
		<path clip-path="url(#SVGID_4_)" fill="#FFCE1C" d="M43.9,70.2c7.9,3,15.2,7.3,22.9,10.6c7.7,3.3,15.9,5.4,24.2,7.4
			c-0.3,0.4-0.6,0.8-0.9,1.2c-2.4-2.8-4.8-5.6-7.2-8.4c0.4-0.4,0.8-0.7,1.3-1.1c2.8,3.3,5.5,6.7,8.4,10c0.3,0.4,0,1.1-0.5,1.2
			c-4.6,1-9.3,2.1-13.9,2.7c-0.8,0.1-0.9-1-0.1-1.2c1.9-0.5,11.2-1.5,11.8-3c0.7-1.5-5.8-7.5-6.9-8.7c-0.6-0.7,0.7-1.8,1.3-1.1
			c2.4,2.8,4.8,5.7,7.1,8.5c0.4,0.5-0.2,1.3-0.9,1.2c-16.5-4.2-32.5-10.3-46.6-19.2C43.7,70.3,43.8,70.2,43.9,70.2"/>
	</g>
	<text transform="matrix(1 0 0 1 96.837 98.8936)" fill="#41464E" font-family="'ATCOverlook-Bold'" font-size="21.8433px"> </text>
	<text transform="matrix(1 0 0 1 102.8668 98.8936)" fill="#FFCE1C" font-family="'ATCOverlook-Heavy'" font-size="21.8433px">Little to None</text>
	<g>
		<defs>
			<rect id="SVGID_23_" x="4.6" y="4.4" width="760.4" height="109.6"/>
		</defs>
		<clipPath id="SVGID_6_">
			<use xlink:href="#SVGID_23_"  overflow="visible"/>
		</clipPath>
		<path clip-path="url(#SVGID_6_)" fill="#FFCE1C" d="M35.8,66.6c6.9,0,12.5-5.6,12.5-12.5c0-6.9-5.6-12.5-12.5-12.5
			s-12.5,5.6-12.5,12.5C23.3,61,28.9,66.6,35.8,66.6"/>
	</g>
	<rect x="4.6" y="4.5" fill="none" width="760.4" height="109.6"/>
</g>
</svg>
