<?xml version="1.0" encoding="utf-8"?>
<!-- Generator: Adobe Illustrator 19.1.0, SVG Export Plug-In . SVG Version: 6.00 Build 0)  -->
<!DOCTYPE svg PUBLIC "-//W3C//DTD SVG 1.1//EN" "http://www.w3.org/Graphics/SVG/1.1/DTD/svg11.dtd">
<svg version="1.1" id="Layer_1" xmlns="http://www.w3.org/2000/svg" xmlns:xlink="http://www.w3.org/1999/xlink" x="0px" y="0px"
	 width="743.3px" height="138px" viewBox="0 0 743.3 138" enable-background="new 0 0 743.3 138" xml:space="preserve">
<g>
	<g>
		<defs>
			<rect id="SVGID_13_" x="-0.4" y="-17.1" width="772.3" height="173.4"/>
		</defs>
		<clipPath id="SVGID_2_">
			<use xlink:href="#SVGID_13_"  overflow="visible"/>
		</clipPath>
		<g clip-path="url(#SVGID_2_)">
			<defs>
				<rect id="SVGID_15_" x="-0.4" y="-17.1" width="772.3" height="173.4"/>
			</defs>
			<clipPath id="SVGID_4_">
				<use xlink:href="#SVGID_15_"  overflow="visible"/>
			</clipPath>
			<g clip-path="url(#SVGID_4_)">
				<text transform="matrix(1 0 0 1 -0.2241 90.7749)"><tspan x="0" y="0" fill="#41464E" font-family="'ATCOverlook-Regular'" font-size="21.8748px">G</tspan><tspan x="16.7" y="0" fill="#41464E" font-family="'ATCOverlook-Regular'" font-size="21.8748px">O</tspan><tspan x="34.3" y="0" fill="#41464E" font-family="'ATCOverlook-Regular'" font-size="21.8748px">VERNMEN</tspan><tspan x="141.1" y="0" fill="#41464E" font-family="'ATCOverlook-Regular'" font-size="21.8748px">T </tspan><tspan x="160.8" y="0" fill="#41464E" font-family="'ATCOverlook-Regular'" font-size="21.8748px">EXPERIENCE</tspan></text>
			</g>
			
				<line clip-path="url(#SVGID_4_)" fill="none" stroke="#222B37" stroke-width="0.4469" stroke-miterlimit="10" x1="-0.4" y1="115.2" x2="745.1" y2="115.2"/>
			
				<line clip-path="url(#SVGID_4_)" fill="none" stroke="#222B37" stroke-width="0.8937" stroke-miterlimit="10" x1="-0.4" y1="116.5" x2="745.1" y2="116.5"/>
			
				<line clip-path="url(#SVGID_4_)" fill="none" stroke="#222B37" stroke-width="0.4469" stroke-miterlimit="10" x1="-0.4" y1="117.9" x2="745.1" y2="117.9"/>
			<path clip-path="url(#SVGID_4_)" fill="#F79B36" d="M707.1,129.2c6.9,0,12.6-5.6,12.6-12.6c0-6.9-5.6-12.6-12.6-12.6
				c-6.9,0-12.6,5.6-12.6,12.6C694.5,123.5,700.1,129.2,707.1,129.2"/>
		</g>
		<g clip-path="url(#SVGID_2_)">
			<text transform="matrix(1 0 0 1 619.7003 22.3208)"><tspan x="0" y="0" fill="#F79B36" font-family="'ATCOverlook-Medium'" font-size="21.8748px">Ex</tspan><tspan x="25.1" y="0" fill="#F79B36" font-family="'ATCOverlook-Medium'" font-size="21.8748px">t</tspan><tspan x="33.5" y="0" fill="#F79B36" font-family="'ATCOverlook-Medium'" font-size="21.8748px">e</tspan><tspan x="45.3" y="0" fill="#F79B36" font-family="'ATCOverlook-Medium'" font-size="21.8748px">nsi</tspan><tspan x="74.5" y="0" fill="#F79B36" font-family="'ATCOverlook-Medium'" font-size="21.8748px">v</tspan><tspan x="86" y="0" fill="#F79B36" font-family="'ATCOverlook-Medium'" font-size="21.8748px">e</tspan></text>
		</g>
		<g clip-path="url(#SVGID_2_)">
			<defs>
				<rect id="SVGID_17_" x="-0.4" y="-17.1" width="772.3" height="173.4"/>
			</defs>
			<clipPath id="SVGID_6_">
				<use xlink:href="#SVGID_17_"  overflow="visible"/>
			</clipPath>
			<path clip-path="url(#SVGID_6_)" fill="#F79B36" d="M729.5,16c8.7,3.6,14.9,14,14.8,24.9c-0.1,13.3-9.6,22.5-15.8,32.1
				c-0.2-0.5-0.4-1-0.5-1.5c5.2,1.7,9.8,4.5,14.1,8.6c0.6,0.6,0.4,1.6-0.3,1.8c-8.9,1.7-17.2,5.2-24.8,10.6c-0.6,0.4-1.6,0-1.5-1
				c1.2-8.3,3.3-16.5,3.8-25c0-0.7,0.9-1.3,1.4-0.7c1.4,1.6,2.9,3.3,4.3,4.9c0.7,0.8-0.4,2.2-1.1,1.4c-1.4-1.5-2.8-3.1-4.2-4.7
				c0.5-0.2,0.9-0.5,1.4-0.7c-0.5,8.5-2.6,16.7-3.8,25c-0.5-0.3-1-0.7-1.5-1c7.9-5.6,16.5-9.2,25.7-10.8c-0.1,0.6-0.2,1.2-0.3,1.8
				c-4-4-8.3-6.7-13.3-8.4c-0.5-0.2-0.9-0.9-0.5-1.5c5.2-8,12.5-15.2,15-25.3c3-12.1-3.2-25.1-12.9-30.2
				C729.2,16.2,729.3,15.9,729.5,16"/>
		</g>
	</g>
</g>
</svg>
