<?xml version="1.0" encoding="utf-8"?>
<!-- Generator: Adobe Illustrator 19.1.0, SVG Export Plug-In . SVG Version: 6.00 Build 0)  -->
<!DOCTYPE svg PUBLIC "-//W3C//DTD SVG 1.1//EN" "http://www.w3.org/Graphics/SVG/1.1/DTD/svg11.dtd">
<svg version="1.1" id="Layer_1" xmlns="http://www.w3.org/2000/svg" xmlns:xlink="http://www.w3.org/1999/xlink" x="0px" y="0px"
	 width="616px" height="56.5px" viewBox="0 0 616 56.5" enable-background="new 0 0 616 56.5" xml:space="preserve">
<path fill="#C9549E" d="M606.3,2.6c2-0.1,3.8,0.7,3.9,1.9c0.4,5.8,1.7,22.8,2,36.5c0.1,5.9-2.5,4.2-3.9,3.4
	c-1.8-1.1-1.2-21.3-2.3-26.3c-1-4.5-1.3-8.6-1.3-10.8c0-0.9-1.5-1.7-3.2-1.6c-12.3,0.6-56.1,2.5-66.1,3.4
	c-41.6,3.6-80.5,3.8-122.6,5.1c-85.8,2.6-172.9,1.2-258-0.8c-41.2-1-78.6-2.8-119.8-0.9c-9.6,0.5-18.5,1.4-21.8,1.8
	c-0.8,0.1-1.4,0.5-1.5,0.9c-1.1,4.5-6.6,27.7-3.1,37c1,2.7-1.5,3.2-4.4,1c-1.9-1.5,0.9-32.7,1.6-40.8c0.1-1.1,1.7-1.9,3.7-2
	c19.8-0.3,118.4-1.6,160.8,0.6c78.9,4,155.1,3,234.4,0.4c38.3-1.3,75.8,0.6,113.5-3.6C526.7,6.9,590.2,3.5,606.3,2.6"/>
<path fill="#C9549E" d="M606.3,2.6c2-0.1,3.8,0.7,3.9,1.9c0.4,5.8,1.7,22.8,2,36.5c0.1,5.9-2.5,4.2-3.9,3.4
	c-1.8-1.1-1.2-21.3-2.3-26.3c-1-4.5-1.3-8.6-1.3-10.8c0-0.9-1.5-1.7-3.2-1.6c-12.3,0.6-56.1,2.5-66.1,3.4
	c-41.6,3.6-80.5,3.8-122.6,5.1c-85.8,2.6-172.9,1.2-258-0.8c-41.2-1-78.6-2.8-119.8-0.9c-9.6,0.5-18.5,1.4-21.8,1.8
	c-0.8,0.1-1.4,0.5-1.5,0.9c-1.1,4.5-6.6,27.7-3.1,37c1,2.7-1.5,3.2-4.4,1c-1.9-1.5,0.9-32.7,1.6-40.8c0.1-1.1,1.7-1.9,3.7-2
	c19.8-0.3,118.4-1.6,160.8,0.6c78.9,4,155.1,3,234.4,0.4c38.3-1.3,75.8,0.6,113.5-3.6C526.7,6.9,590.2,3.5,606.3,2.6z"/>
</svg>
