<?xml version="1.0" encoding="utf-8"?>
<!-- Generator: Adobe Illustrator 19.1.0, SVG Export Plug-In . SVG Version: 6.00 Build 0)  -->
<!DOCTYPE svg PUBLIC "-//W3C//DTD SVG 1.1//EN" "http://www.w3.org/Graphics/SVG/1.1/DTD/svg11.dtd">
<svg version="1.1" id="Layer_1" xmlns="http://www.w3.org/2000/svg" xmlns:xlink="http://www.w3.org/1999/xlink" x="0px" y="0px"
	 width="616px" height="56.5px" viewBox="0 0 616 56.5" enable-background="new 0 0 616 56.5" xml:space="preserve">
<path fill="#F79B36" d="M606.3,54.6c-16.1-0.9-79.6-4.3-88.1-5.2c-37.7-4.2-75.2-2.3-113.5-3.6c-79.3-2.6-155.5-3.6-234.4,0.4
	c-42.4,2.2-141,0.9-160.8,0.6c-2-0.1-3.6-0.9-3.7-2C5.1,36.7,2.3,5.5,4.2,4c2.9-2.2,5.4-1.7,4.4,1c-3.5,9.3,2,32.5,3.1,37
	c0.1,0.4,0.7,0.8,1.5,0.9c3.3,0.4,12.2,1.3,21.8,1.8c41.2,1.9,78.6,0.1,119.8-0.9c85.1-2,172.2-3.4,258-0.8
	c42.1,1.3,81,1.5,122.6,5.1c10,0.9,53.8,2.8,66.1,3.4c1.7,0.1,3.2-0.7,3.2-1.6c0-2.2,0.3-6.3,1.3-10.8c1.1-5,0.5-25.2,2.3-26.3
	c1.4-0.8,4-2.5,3.9,3.4c-0.3,13.7-1.6,30.7-2,36.5C610.1,53.9,608.3,54.7,606.3,54.6"/>
<path fill="#F79B36" d="M518.2,49.4c-37.7-4.2-75.2-2.3-113.5-3.6c-79.3-2.6-155.5-3.6-234.4,0.4c-42.4,2.2-141,0.9-160.8,0.6
	c-2-0.1-3.6-0.9-3.7-2C5.1,36.7,2.3,5.5,4.2,4c2.9-2.2,5.4-1.7,4.4,1c-3.5,9.3,2,32.5,3.1,37c0.1,0.4,0.7,0.8,1.5,0.9
	c3.3,0.4,12.2,1.3,21.8,1.8c41.2,1.9,78.6,0.1,119.8-0.9c85.1-2,172.2-3.4,258-0.8c42.1,1.3,81,1.5,122.6,5.1
	c10,0.9,53.8,2.8,66.1,3.4c1.7,0.1,3.2-0.7,3.2-1.6c0-2.2,0.3-6.3,1.3-10.8c1.1-5,0.5-25.2,2.3-26.3c1.4-0.8,4-2.5,3.9,3.4
	c-0.3,13.7-1.6,30.7-2,36.5c-0.1,1.2-1.9,2-3.9,1.9C590.2,53.7,526.7,50.3,518.2,49.4z"/>
</svg>
