<?xml version="1.0" encoding="utf-8"?>
<!-- Generator: Adobe Illustrator 19.1.0, SVG Export Plug-In . SVG Version: 6.00 Build 0)  -->
<!DOCTYPE svg PUBLIC "-//W3C//DTD SVG 1.1//EN" "http://www.w3.org/Graphics/SVG/1.1/DTD/svg11.dtd">
<svg version="1.1" id="Layer_1" xmlns="http://www.w3.org/2000/svg" xmlns:xlink="http://www.w3.org/1999/xlink" x="0px" y="0px"
	 width="616px" height="56.5px" viewBox="0 0 616 56.5" enable-background="new 0 0 616 56.5" xml:space="preserve">
<g>
	<g>
		<g>
			<path fill="#F79B36" d="M1132.9,976.3c-3.8,6.8-7.6,13.6-11.4,20.4c-4,7.2-1.8,16.7,5.5,21c7.3,4.3,16.6,1.6,21-5.5
				c0.9-1.5,1.8-2.9,2.8-4.3c-1,1.4,0.9-1.1,1.2-1.4c0.9-1,1.8-2,2.7-2.9c0.4-0.4,3.6-3.2,1.6-1.6c-7.5-5.8-15-11.5-22.5-17.3
				c-3.3,14.5,8.2,26.1,18.7,34.2c4.3,3.4,8.8,6.6,13.8,8.9c6.4,2.9,15,5.6,21.3,0.9c-7.7-4.4-15.4-8.8-23.1-13.2
				c1,9.6,1.2,19.1,0.6,28.7c-0.5,8.4,7.5,15.1,15.3,15.3c4.9,0.1,9.8,0.1,14.7-0.1c8-0.3,15.7-6.8,15.3-15.3
				c-0.4-8-6.7-15.7-15.3-15.3c-4.9,0.2-9.8,0.2-14.7,0.1c5.1,5.1,10.2,10.2,15.3,15.3c0.6-9.6,0.4-19.1-0.6-28.7
				c-0.6-5.5-2.5-10.3-7.6-13.2c-4.3-2.5-11.2-3.2-15.5,0c-2.5,1.8,9.4-1.6,6.1-1.7c4,0.1,3.9,0.6,2,0.1c-2.7-0.7,1.1-0.6,1.1,0.5
				c0-0.2-2-1-2.2-1.1c-1.5-0.8-2.9-1.7-4.4-2.6c-0.8-0.5-1.7-1.1-2.5-1.7c-0.4-0.3-3.2-2.5-1.3-1c1.9,1.5-0.5-0.4-0.9-0.8
				c-0.8-0.7-1.6-1.3-2.3-2c-1.4-1.3-2.7-2.9-4.1-4.2c-2.1-2,1.5,2.7,0.3,0.4c-0.3-0.6-0.8-1.4-1.2-2c-1.4-1.9,1.1,3,0.7,1.5
				c-0.3-1.2-0.2-0.4,0.3,2.6c0-1.6-0.1-0.7-0.4,2.5c1.4-6-0.4-12.3-5.5-16.1c-4.4-3.3-12.2-4.9-17-1.2c-7.9,6-14.1,12.7-19.3,21.3
				c8.8,5.2,17.6,10.3,26.5,15.5c3.8-6.8,7.6-13.6,11.4-20.4c4-7.2,1.8-16.7-5.5-21C1146.9,966.7,1137,969,1132.9,976.3
				L1132.9,976.3z"/>
		</g>
	</g>
	<g>
		<path fill="#F79B36" d="M1092.1,987c-13.2,4.7-20.7,8.8-33.3,14.9c6.8,5.2,13.3,10.7,20.3,15.6c12.2,8.5,26.6-18.2,28-17.1"/>
	</g>
	<g>
		<path fill="#F79B36" d="M1098.5,974.8c1-0.3-3.6,2-4.4,2.8c-3.7,4.2-6.4,8.7-10.1,12.9c7.9,2.9,11.1,7.5,19,10.4
			c1.7,0.6,12.7,7.4,15.7,6.8c0.9-5,2.3-9.9,4.3-14.6c-10-4.8-20-9.5-30.1-14.3"/>
	</g>
	<g>
		<g>
			<path fill="#3F4251" d="M1165.5,899.4c0.1,5.2,0,10.5-0.6,15.8c-0.4,3.5-0.6,8.3-2.5,11.4c-0.8,1.4-3.3,3.8-5.1,3.4
				c-0.8-0.2-1.8-1.8-2.3-2.5c-0.5-0.7-0.9-1.5-1.3-2.3c-0.3-0.6-1-0.2-1.1,0.3c-1.3,10.3-5,20.7-11,29.2
				c-7.2,10.2-16.9,14.8-29.3,13.6c-10.9-1.1-20.5-6.2-26.2-15.7c-5.4-9-7.1-19.7-7.9-30c0-0.6-0.8-0.8-1.1-0.3
				c-3.1,4.5-4.9-1.1-6.1-3.6c-1.6-3.5-3.1-7.1-4.1-10.8c-0.8-2.8-2.4-7.4-1.2-10.2c2.4-5.4,5.4-0.3,7.8,1.1
				c0.4,0.3,1.1-0.2,0.9-0.7c-2.8-7.2-3.9-13.7-1.8-21.3c2.1-7.7,7-14.4,13.6-19c9.9-6.9,22.3-8.8,34.1-8.6
				c13.3,0.2,29.1,2.5,38.7,12.8c8.8,9.4,7.7,22.4,1.5,32.9c-0.3,0.6,0.3,1,0.8,0.8C1164.9,894.1,1165.5,897.5,1165.5,899.4
				c0,0.8,1.2,0.8,1.2,0c0-4-2.1-6.4-6-4.7c0.3,0.3,0.5,0.5,0.8,0.8c5.2-8.7,7.4-19.4,2.4-28.7c-6.2-11.6-20-16.3-32.2-17.9
				c-21.5-2.8-49.3,0.8-58.8,23.4c-3.8,9-3.1,17.2,0.4,26.1c0.3-0.2,0.6-0.4,0.9-0.7c-2.3-1.4-3.8-5.7-7.2-3.6
				c-4.3,2.6-2.4,9.3-1.4,13.1c1,3.6,6.5,24.7,12.7,15.7c-0.4-0.1-0.7-0.2-1.1-0.3c0.9,11.1,2.8,23,9.3,32.4
				c6,8.8,15.6,13.5,26.1,14.5c11.9,1.2,21.5-2.8,28.8-12.2c7-9,11.2-20.5,12.6-31.7c-0.4,0.1-0.7,0.2-1.1,0.3
				c1,2.2,2.8,5.4,5.5,5.8c3.4,0.4,5.1-3.9,6-6.4c2.6-8.1,2.7-17.4,2.4-25.8C1166.7,898.7,1165.5,898.7,1165.5,899.4z"/>
		</g>
	</g>
	<g>
		<path fill="#3F4251" d="M1106.2,915.3c-0.4,1.1-0.8,2.1-1.1,3.2c-0.3,1.1-0.5,2.1-0.7,3.2c-0.1,1-0.1,2.1,0.2,2.8
			c0.2,0.4,0.4,0.6,0.6,0.8c0.1,0.1,0.3,0.2,0.4,0.2c0.2,0.1,0.3,0.1,0.5,0.1l-0.7,0c3.9-1,7.8-2,11.7-2.8l3-0.6l0.3-0.1l0.1,0
			c0.1,0,0.2-0.1,0.3-0.1c0.2-0.1,0.3-0.3,0.4-0.4c0,0,0-0.1,0.1-0.1l0.1-0.2c0.1-0.3,0.1-0.3,0.2-0.6c0.1-0.4,0.2-0.8,0.3-1.1
			c0.1-0.8,0.1-1.5-0.1-2.3c-0.1-0.8-0.5-1.4-0.9-2.4l-1.3-2.7c-0.9-1.9-1.7-3.8-2.2-5.8c-0.3-1-0.5-2-0.7-3.1
			c-0.2-1-0.3-2.1-0.3-3.2c0-2.1,0.4-4.2,1.2-6.1c-0.1,2,0,4,0.5,5.9c0.2,0.9,0.5,1.9,0.8,2.8c0.3,0.9,0.7,1.8,1.1,2.7
			c0.8,1.8,1.8,3.4,2.8,5.2l1.5,2.6c0.5,0.8,1.1,2,1.3,3.2c0.3,1.2,0.4,2.5,0.2,3.7c-0.1,0.6-0.2,1.2-0.4,1.8
			c-0.1,0.3-0.2,0.7-0.3,0.9c0,0.1-0.1,0.3-0.2,0.5c-0.1,0.2-0.2,0.4-0.3,0.5c-0.4,0.7-1,1.3-1.7,1.7c-0.3,0.2-0.7,0.4-1.1,0.5
			c-0.2,0.1-0.4,0.1-0.6,0.2l-0.4,0.1l-3,0.5c-4,0.7-7.9,1.3-12,1.8l-0.2,0c-0.2,0-0.3,0-0.4-0.1c-0.3-0.1-0.7-0.3-1-0.5
			c-0.3-0.2-0.7-0.4-0.9-0.7c-0.6-0.6-0.9-1.3-1.1-2c-0.3-1.4,0-2.7,0.3-3.9c0.4-1.1,0.9-2.2,1.5-3.2
			C1104.8,917.1,1105.4,916.2,1106.2,915.3z"/>
	</g>
	<path fill="#3F4251" d="M1152.1,898.4c0.6-1.6,1.2-4.5-2.1-5.8c-4.5-1.7-6.4,2.7-10.1,3.3c-3.4,0.6-10.8-1.7-12.9-4.3
		c-2.1-2.7-3.3-4.6-6.7-3.2c-2.9,1.2-3.5,12.9-3.5,12.9s-2.4-13.2,4.3-16.4c3.8-1.9,10.1,4,16.4,3.5c16.5-1.1,17.8,4.2,17.8,4.2
		s1.6,3-2.4,6.3C1152.5,899.2,1151.9,898.9,1152.1,898.4z"/>
	<path fill="#3F4251" d="M1087.2,897.5c-1.7,1.8,0.4,4.6,2.6,3.5c2.6-1.3,5.6-2.4,7.5-2.2c1.5,0.2,3.5,0.8,5.3,1.4
		c2.1,0.7,3.8-1.7,2.5-3.5c-2-2.7-4.5-5.2-6.7-5.1C1096,891.8,1090.6,893.8,1087.2,897.5z"/>
	
		<ellipse transform="matrix(0.9502 -0.3116 0.3116 0.9502 -227.8801 387.5175)" fill="#3F4251" cx="1098.6" cy="906.8" rx="3.4" ry="3.4"/>
	
		<ellipse transform="matrix(0.9502 -0.3116 0.3116 0.9502 -225.4578 397.8729)" fill="#3F4251" cx="1132.2" cy="904.4" rx="3.4" ry="3.4"/>
	<g>
		<path fill="#3F4251" d="M1093.4,941.3c0,0,1.9-1,4.9-2c1.5-0.5,3.3-1.1,5.3-1.5c2-0.4,4.2-0.7,6.5-0.6c0.6,0,1.1,0.1,1.8,0.2
			c0.5,0.1,1,0.1,1.6,0.3c1.2,0.2,2.2,0.5,3.2,0.9c1.9,0.8,3.5,2,4.8,3c0.6,0.5,1.2,1.1,1.6,1.6c0.5,0.5,0.8,1,1.1,1.4
			c0.6,0.8,0.8,1.3,0.8,1.3l-0.3,0.3c0,0-0.6-0.1-1.5-0.4c-0.5-0.1-1-0.3-1.6-0.6c-0.6-0.2-1.3-0.5-2-0.8c-0.7-0.3-1.5-0.6-2.3-0.9
			c-0.8-0.3-1.6-0.7-2.5-1c-0.8-0.4-1.7-0.8-2.5-1.2c-0.4-0.2-1-0.4-1.4-0.5c-0.3-0.1-0.9-0.2-1.3-0.3c-0.9-0.2-1.9-0.3-2.9-0.3
			c-1,0-2,0-2.9,0c-1.9,0.1-3.7,0.3-5.3,0.6c-3.1,0.5-5.1,1-5.1,1L1093.4,941.3z"/>
	</g>
	<g>
		<path fill="#3F4251" d="M1066.5,902.8c0.1-2.3,0.1-4.6,0.3-6.8c0.1-2.3,0.2-4.6,0.3-6.8l0.4-6.8l0.4-6.8c0-0.7,0.6-1.2,1.3-1.2
			c0.6,0,1.1,0.5,1.2,1.1l0,0.1c0.5,4.5,1,9,1.5,13.5c0.5,4.5,0.9,9,1.2,13.6l0.1,1.7l0,0.9c0,0.2,0,0.4,0,0.5l0,0.3l0,0.1l0,0.1
			l0,0c1.1-1.1-1.5,1.5-1.2,1.2c-0.1,0,0.2,0-0.2,0.1c-0.3,0.1-1.3,0.1-1.9-0.6c-0.5-0.5-0.5-1.2-0.5-1l0-0.1l0-0.2l0-0.2l0-0.3
			c0-1.2,0-2.3,0.1-3.5l0.2-6.8c0.2-4.5,0.3-9.1,0.6-13.6l0,0c0.1-1.1,1-2,2.1-1.9c1,0.1,1.7,0.8,1.9,1.7l2.2,12.3
			c0.4,2,0.7,4.1,1,6.1l1,6.1l-3.6,0.4c0-3.2,0-6.4,0-9.6l0.1-9.6l0-0.1c0-0.7,0.6-1.3,1.4-1.3c0.6,0,1.1,0.4,1.3,1l2.5,8.5l2.4,8.5
			l-1.3,0.3l-0.3-6l-0.3-6l1,5.9l0.9,5.9c0.1,0.4-0.2,0.7-0.6,0.8c-0.3,0.1-0.6-0.1-0.7-0.4l0-0.1l-3.1-8.3l-3-8.3l2.6-0.4l0.4,9.6
			c0.1,3.2,0.3,6.4,0.4,9.6c0,1-0.7,1.8-1.7,1.8c-0.9,0-1.6-0.6-1.8-1.4l0,0l-1.2-6.1c-0.4-2-0.8-4.1-1.2-6.1l-2.3-12.2l4-0.3
			c-0.2,4.5-0.4,9-0.6,13.6l-0.3,6.8l-0.1,3.3l0,0.2l0,0l0-0.1l0,0c0,0.2,0-0.5-0.5-1c-0.5-0.6-1.5-0.7-1.8-0.5
			c-0.3,0.1-0.1,0-0.2,0l-1.2,1.2l0,0c0,0,0,0,0,0.1c0,0,0,0.1,0,0.1l0-0.8l-0.1-1.7l-0.8-13.5c-0.2-4.5-0.5-9-0.7-13.6l2.5,0
			l-0.9,6.8l-1,6.8c-0.3,2.3-0.7,4.5-1,6.8C1067.3,898.3,1066.9,900.5,1066.5,902.8z"/>
	</g>
	<g>
		<path fill="#3F4251" d="M1156.8,907.5c-0.1-1-0.1-2-0.1-3c0-1,0-2,0-3c0-1,0-2,0.1-3c0-1,0.1-2,0.1-3c0.1-0.8,0.7-1.4,1.5-1.3
			c0.7,0,1.2,0.6,1.3,1.2l0,0.2c0.5,2.7,0.9,5.4,1.2,8.1l-3.8-0.1c0.2-1.8,0.4-3.6,0.6-5.4c0.2-1.8,0.5-3.6,0.7-5.4l0-0.1
			c0.2-1.1,1.2-1.9,2.3-1.7c0.7,0.1,1.3,0.6,1.6,1.2l1.3,3.2l-3.7,0.7c0.2-2.5,0.5-5,0.8-7.5l0-0.2c0.1-0.9,0.9-1.5,1.7-1.4
			c0.7,0.1,1.2,0.6,1.4,1.3c0.3,1.5,0.5,3.1,0.7,4.7l-2.3,0.1c0.2-0.9,0.4-1.8,0.7-2.7c0.3-0.9,0.5-1.8,0.8-2.7l0-0.2
			c0.1-0.3,0.4-0.4,0.6-0.3c0.2,0.1,0.3,0.2,0.4,0.4c0.1,1.1,0.2,2.2,0.2,3.3c-0.5-1-0.9-2-1.3-3l1,0c0,0.9,0,1.8-0.1,2.8
			c0,0.9-0.1,1.8-0.1,2.8c0,0.6-0.6,1.1-1.2,1.1c-0.5,0-0.9-0.3-1-0.8l-0.1-0.2c-0.5-1.5-1-3-1.5-4.5l3.1-0.3c0,2.5,0,5.1,0,7.6
			c0,1.1-0.9,1.9-2,1.9c-0.8,0-1.4-0.5-1.7-1.1l0-0.1l-1.4-3.2l3.9-0.5c-0.2,1.8-0.4,3.6-0.7,5.4c-0.3,1.8-0.5,3.6-0.8,5.4l0,0.1
			c-0.2,1-1.2,1.7-2.2,1.6c-0.9-0.1-1.5-0.9-1.6-1.8c-0.2-2.7-0.3-5.4-0.3-8.1l2.9,0.1c-0.2,1-0.4,1.9-0.7,2.9
			c-0.2,1-0.4,1.9-0.7,2.9c-0.3,1-0.5,1.9-0.8,2.9C1157.4,905.6,1157.1,906.5,1156.8,907.5z"/>
	</g>
	<g>
		<path fill="#3F4251" d="M1086.8,862.6c0,0,0.2-0.2,0.6-0.6c0.4-0.4,0.9-1,1.7-1.7c0.8-0.7,1.7-1.6,2.8-2.5
			c1.1-0.9,2.4-1.9,3.9-2.9c1.5-1,3.1-2.1,4.9-3.1c1.8-1,3.7-2,5.8-2.9c2.1-0.9,4.3-1.7,6.7-2.2c2.3-0.6,4.8-0.9,7.3-1.1
			c2.5,0,5,0,7.4,0.6c1.2,0.2,2.4,0.6,3.5,0.9c1.1,0.4,2.2,0.9,3.3,1.4c0.5,0.3,1,0.6,1.5,0.8c0.5,0.3,1,0.5,1.5,0.9
			c0.5,0.3,0.9,0.7,1.3,1c0.4,0.3,0.9,0.6,1.3,1c0.8,0.7,1.6,1.4,2.2,2.1c0.6,0.7,1.3,1.5,1.9,2.2c0.6,0.7,1,1.4,1.5,2.1
			c0.2,0.3,0.5,0.7,0.7,1c0.2,0.3,0.4,0.7,0.6,1c0.7,1.3,1.4,2.4,1.7,3.3c0.8,1.9,1.3,3,1.3,3s-0.7-0.9-2-2.6
			c-0.6-0.9-1.4-1.7-2.3-2.8c-0.2-0.3-0.5-0.5-0.7-0.8c-0.3-0.3-0.5-0.5-0.8-0.8c-0.6-0.6-1.1-1.2-1.7-1.8c-0.6-0.6-1.3-1.1-2-1.7
			c-0.7-0.6-1.5-1.1-2.2-1.7c-0.4-0.3-0.8-0.5-1.2-0.8c-0.4-0.2-0.8-0.5-1.3-0.7c-0.9-0.5-1.8-0.9-2.7-1.3c-1-0.3-1.9-0.7-2.9-1
			c-1-0.2-2-0.5-3.1-0.7c-2.1-0.4-4.3-0.4-6.5-0.4c-1.1,0.1-2.2,0.1-3.3,0.3c-0.5,0.1-1.1,0.1-1.6,0.2c-0.5,0.1-1.1,0.2-1.6,0.3
			c-0.5,0.1-1.1,0.2-1.6,0.4c-0.5,0.1-1.1,0.3-1.6,0.4c-1,0.3-2.1,0.6-3.1,1c-2,0.7-3.9,1.5-5.8,2.2c-1.8,0.8-3.5,1.6-5.1,2.4
			c-1.6,0.8-3,1.5-4.2,2.2c-1.2,0.7-2.3,1.3-3.2,1.8C1087.8,862,1086.8,862.6,1086.8,862.6z"/>
	</g>
	<g>
		<path fill="#3F4251" d="M1086.1,858.4c0,0,0.5-0.8,1.7-2c1.2-1.2,3-2.9,5.5-4.4c1.3-0.8,2.7-1.6,4.2-2.2c1.6-0.7,3.3-1.3,5.1-1.7
			c1.8-0.4,3.8-0.7,5.8-0.7c2-0.1,4,0.2,6,0.5c1,0.2,2,0.4,2.9,0.7c1,0.3,1.9,0.6,2.8,1c0.9,0.4,1.8,0.7,2.7,1.2
			c0.9,0.4,1.7,0.8,2.5,1.4c1.6,0.9,3,2,4.4,3.1c1.3,1.1,2.5,2.1,3.5,3.2c0.5,0.5,1,1,1.5,1.5c0.4,0.5,0.8,1,1.2,1.4
			c0.4,0.5,0.7,0.9,1,1.3c0.3,0.4,0.6,0.8,0.8,1.1c1,1.4,1.5,2.2,1.5,2.2s-0.8-0.6-2.1-1.6c-0.3-0.3-0.7-0.6-1.1-0.9
			c-0.4-0.3-0.8-0.6-1.3-1c-0.5-0.3-0.9-0.7-1.5-1.1c-0.5-0.4-1.1-0.8-1.6-1.2c-1.1-0.8-2.4-1.6-3.7-2.5c-1.4-0.8-2.8-1.6-4.3-2.4
			c-1.5-0.8-3.1-1.4-4.8-2c-0.8-0.3-1.7-0.5-2.5-0.8c-0.9-0.2-1.7-0.4-2.6-0.6c-0.9-0.1-1.7-0.3-2.6-0.4l-1.3-0.1l-1.3,0
			c-0.4,0-0.9,0-1.3,0c-0.4,0-0.9,0-1.3,0c-0.9,0.1-1.7,0.1-2.5,0.3c-1.7,0.2-3.3,0.6-4.8,1c-1.5,0.4-2.9,0.9-4.2,1.4
			c-1.3,0.5-2.4,1.1-3.5,1.6c-1,0.5-1.9,1-2.6,1.4C1086.9,857.9,1086.1,858.4,1086.1,858.4z"/>
	</g>
	<g>
		<path fill="#3F4251" d="M1083,864c0,0,0.4-1,1.3-2.6c0.5-0.8,1-1.8,1.8-2.8c0.7-1.1,1.6-2.3,2.6-3.5c0.5-0.6,1.1-1.2,1.6-1.9
			c0.6-0.6,1.2-1.3,1.9-1.9c1.3-1.3,2.8-2.6,4.4-3.8c1.6-1.2,3.4-2.4,5.4-3.3c1-0.5,2-0.9,3-1.3c0.5-0.2,1.1-0.3,1.6-0.5
			c0.5-0.2,1.1-0.3,1.6-0.4c2.2-0.6,4.4-0.7,6.7-0.7c2.2,0.1,4.4,0.4,6.4,1.1c0.5,0.2,1,0.3,1.5,0.5c0.5,0.2,0.9,0.4,1.4,0.6
			c0.5,0.2,0.9,0.4,1.3,0.6c0.4,0.2,0.8,0.5,1.2,0.7c0.4,0.2,0.8,0.5,1.2,0.7c0.4,0.2,0.7,0.5,1.1,0.8c0.7,0.5,1.4,1,2,1.6
			c1.2,1.1,2.3,2.1,3.1,3.1c0.9,1,1.6,1.8,2.1,2.6c1.1,1.5,1.7,2.4,1.7,2.4s-0.8-0.6-2.2-1.8c-0.7-0.6-1.6-1.2-2.6-2
			c-1-0.8-2.2-1.5-3.4-2.4c-0.6-0.4-1.3-0.8-2.1-1.2c-0.4-0.2-0.7-0.4-1.1-0.6c-0.4-0.2-0.8-0.3-1.1-0.5c-0.4-0.2-0.8-0.4-1.2-0.5
			c-0.4-0.1-0.8-0.3-1.2-0.4c-0.4-0.1-0.8-0.3-1.3-0.4c-0.4-0.1-0.9-0.2-1.3-0.3c-1.8-0.5-3.6-0.6-5.5-0.7c-0.5,0-0.9,0.1-1.4,0.1
			l-0.7,0l-0.7,0.1l-1.4,0.2l-1.4,0.3c-0.5,0.1-0.9,0.2-1.4,0.4c-0.5,0.1-0.9,0.3-1.4,0.4c-0.9,0.4-1.8,0.7-2.7,1.1
			c-1.8,0.8-3.4,1.7-5,2.7c-1.6,1-3.1,2-4.5,3.1c-1.4,1.1-2.7,2.1-3.8,3.1c-1.1,1-2.2,2-3.1,2.9c-0.9,0.9-1.7,1.7-2.3,2.3
			C1083.7,863.2,1083,864,1083,864z"/>
	</g>
	<g>
		<g>
			<path fill="#3F4251" d="M1099.1,965.7c0.1,4.2,0.2,8.8,1.4,12.9c0.2,0.8,1.3,0.4,1.2-0.3c-0.6-4.2-1.6-8.3-2-12.6
				C1099.7,965.3,1099.1,965.3,1099.1,965.7L1099.1,965.7z"/>
		</g>
	</g>
	<g>
		<g>
			<path fill="#3F4251" d="M1131.9,963.3c0.4,3.5,1.2,7.2,2.5,10.5c0.3,0.8,1.6,0.5,1.4-0.4c-1.1-3.4-2.4-6.8-3.7-10.1
				C1132,963.2,1131.9,963.2,1131.9,963.3L1131.9,963.3z"/>
		</g>
	</g>
	<g>
		<g>
			<path fill="#3F4251" d="M1098.9,972.5c-1.6-0.2-4.3,2.1-5.3,3.1c-3.6,3.6-6.3,8.2-9.7,12c-0.4,0.4-0.2,1,0.3,1.2
				c4.5,1.8,8.2,4.6,12.3,7.2c2.8,1.8,5.9,2.9,8.8,4.5c3.8,2.1,9.2,6.2,13.8,5.8c0.4,0,0.9-0.3,1-0.7c0.9-5,2.3-9.9,4.3-14.6
				c0.1-0.3-0.1-0.9-0.4-1c-10.1-4.7-20.1-9.4-30.1-14.2c-0.9-0.4-1.7,0.9-0.8,1.4c8.7,4.1,18.2,7.8,26.5,12.7
				c4.1,2.4,1.4,4.6,0.2,8.6c-0.4,1.4-0.5,3.7-1.2,4.9c0.5,1.1,0.2,1.3-0.9,0.8c-0.6-0.2-1.1-0.3-1.6-0.5c-4.2-1.5-7.9-4-11.9-5.9
				c-6.6-3.1-12.6-7.7-19.4-10.3c0.1,0.4,0.2,0.8,0.3,1.2c2.8-3.3,5.1-6.9,7.7-10.3c2-2.7,4.1-3.7,6.4-5.8c0,0,0-0.1-0.1-0.1
				C1099,972.4,1098.9,972.4,1098.9,972.5C1098.8,972.4,1098.8,972.5,1098.9,972.5L1098.9,972.5z"/>
		</g>
	</g>
	<g>
		<g>
			<path fill="#3F4251" d="M1123.4,990.7c1.7,5.3,2.4,11.6,5.5,16.3c0.3,0.4,0.8,0.5,1.1,0.1c9.1-8.6,17.2-18.2,25.4-27.7
				c0.3-0.3,0.3-0.9-0.1-1.1c-3.5-2.2-8.8-5.7-8.3-10.5c0.1-0.6-0.8-0.9-1.2-0.5c-8.2,7.2-15.9,14.2-22.8,22.8
				c-0.5,0.7,0.4,1.6,0.9,0.9c6.9-8.6,14.6-15.5,22.8-22.7c-0.4-0.2-0.8-0.3-1.2-0.5c-0.4,4.1,2.9,7.3,5.9,9.6
				c2.2,1.7,2.3,1.3,0.6,3.6c-1,1.3-2.1,2.4-3.1,3.6c-2,2.3-4,4.6-6,6.9c-2,2.2-3.9,4.4-6,6.5c-1.7,1.8-4.9,6.5-7.1,6.9
				c-1.5,0.3-4.5-12.4-6.3-14.6C1123.5,990.5,1123.3,990.6,1123.4,990.7L1123.4,990.7z"/>
		</g>
	</g>
	<g>
		<g>
			<path fill="#3F4251" d="M1134.5,969.7c1.1-0.9,3.1-0.8,4.4-0.9c2.3-0.1,4.5,0.4,6.8,0.6c1.1,0.1,1.4-1.8,0.3-2
				c-2.7-0.5-5.5-0.4-8.1,0.1c-1.3,0.3-2.9,0.6-3.8,1.6C1133.7,969.5,1134.2,969.9,1134.5,969.7L1134.5,969.7z"/>
		</g>
	</g>
	<g>
		<g>
			<path fill="#3F4251" d="M1086.2,986.9c-5.5,0.4-11,3.2-16.1,5.4c-6,2.7-11.9,5.6-17.9,8.5c-0.7,0.3-0.9,1.6-0.3,2.1
				c8.2,6.4,16.3,12.9,24.7,19c1.1,0.8,2.6-1.1,1.5-2c-8-6.6-16.4-12.8-24.6-19.1c0,0.8,0,1.5,0,2.3c5.4-2.7,10.9-5.5,16.3-8.1
				c5.3-2.5,11.5-4.4,16.4-7.8C1086.3,987,1086.3,986.9,1086.2,986.9L1086.2,986.9z"/>
		</g>
	</g>
	<g>
		<g>
			<path fill="#3F4251" d="M1050.3,1003.7c-2.1,1-2.3,7.2-2.7,9.3c-1.1,5.4-2,10.9-3,16.3c-1.6,9.5-3.2,19.1-4,28.7
				c-0.1,1.1,1.6,1.1,1.7,0c1-9.9,2.6-19.8,4.1-29.6c0.8-5.2,1.7-10.4,2.7-15.6c0.4-2,2.5-7.3,1.3-9.1
				C1050.4,1003.7,1050.3,1003.7,1050.3,1003.7L1050.3,1003.7z"/>
		</g>
	</g>
	<g>
		<g>
			<path fill="#3F4251" d="M1142.4,978.6C1142.4,978.6,1142.4,978.5,1142.4,978.6C1142.3,978.5,1142.3,978.6,1142.4,978.6
				L1142.4,978.6z"/>
		</g>
	</g>
	<g>
		<g>
			<path fill="#3F4251" d="M1153.4,981.3c5.4,4.1,12.7,6.6,18.8,9.5c6,2.9,12,5.9,18.2,8.3c1.1,0.4,1.9-1.4,0.8-2
				c-6.3-3.1-12.9-5.8-19.3-8.7c-5.9-2.6-12.1-6.2-18.4-7.4C1153.3,981,1153.2,981.2,1153.4,981.3L1153.4,981.3z"/>
		</g>
	</g>
	<g>
		<path fill="#F79B36" d="M1159.4,981.1c14.8,6.5,22.5,10.4,37.2,16.9"/>
	</g>
	<g>
		<g>
			<path fill="#3F4251" d="M1184.7,999.1c-6.4,6.4-11.3,15.2-14.7,23.5c-0.4,0.9,1.2,1.6,1.6,0.7c3.7-8.6,8.6-15.9,13.7-23.7
				C1185.7,999.2,1185.1,998.7,1184.7,999.1L1184.7,999.1z"/>
		</g>
	</g>
	<g>
		<g>
			<path fill="#3F4251" d="M1190.9,1000.5c1.3,7.5,2.4,15,3.2,22.5c0.7,6.4,0.6,13,1.6,19.4c0.2,1.6,2.7,1.1,2.7-0.4
				c0-6.7-1.5-13.6-2.5-20.2c-1.1-7.2-2.5-14.4-4.1-21.6C1191.7,999.7,1190.8,999.9,1190.9,1000.5L1190.9,1000.5z"/>
		</g>
	</g>
</g>
<g>
	<g>
		<path fill="#47B549" d="M1796.1,981.9c7.5,12.4-0.5,30.2,9.7,55.8c8.7-15.2,14.4-41.5,22.8-53.5c7.3,3.5,14,8.2,19.7,13.9
			c-13.1,19.2-24,39.9-32.2,61.6c-5.6-1.1-19.1-0.1-24.6,1c-0.4-5.5-10.2-42.8-12.2-47.7c-3.7-8.9-1.8-19.6-6.6-28
			C1776.9,984.7,1791.8,982.3,1796.1,981.9"/>
	</g>
	<path fill="none" stroke="#3F4251" stroke-width="1.9573" stroke-miterlimit="10" d="M1807.5,851.5c0,0,27.4-7,43.1,10.2
		c15.7,17.2,29.5,32,27.6,39.8c-1.9,7.8-10.4,45-22.5,52.2s-17.7,10.4-17.7,10.4s-32.8,21-54.6-21.5c-22.1-43.1-13.5-48.2-13.5-48.2
		l26.3-39.4L1807.5,851.5z"/>
	<g opacity="0.9">
		<path fill="#3F4251" d="M1805.8,895.4c0,0,0.2,0.2,0.5,0.5c0.3,0.3,0.9,0.8,1.4,1.5c0.6,0.7,1.2,1.6,1.8,2.7
			c0.6,1.1,1.3,2.4,1.8,3.9c0.5,1.5,0.9,3.2,1.1,5c0.2,1.8,0.1,3.8-0.2,5.8c-0.2,1-0.4,2-0.7,3l-0.1,0.4c0,0.1-0.1,0.3-0.2,0.5
			c-0.2,0.4-0.3,0.6-0.5,0.9c-0.4,0.6-0.8,1-1.2,1.4c-1.7,1.6-3.5,2.6-4.8,3.8c-0.6,0.6-1.2,1.2-1.4,1.8c-0.3,0.6-0.3,1.2-0.3,1.9
			c0.1,0.7,0.4,1.5,0.8,2.2c0.4,0.7,0.8,1.3,1.4,1.9c0.6,0.5,1.2,1,1.9,1.4c0.4,0.3,0.7,0.4,1.1,0.5c0.3,0.1,0.7,0.3,1,0.4
			c1.4,0.4,2.7,0.2,3.8-0.4c1.1-0.6,2-1.6,2.7-2.5c0.7-0.9,1.2-1.9,1.6-2.6c0.8-1.6,1.1-2.5,1.1-2.5l0.2,0c0,0-0.2,1-0.8,2.7
			c-0.3,0.8-0.7,1.8-1.4,2.9c-0.6,1.1-1.5,2.2-2.8,3.1c-1.3,0.9-3,1.3-4.8,0.9c-0.9-0.2-1.7-0.5-2.5-0.9c-0.8-0.4-1.6-0.9-2.3-1.5
			c-1.4-1.3-2.5-3.1-2.9-5.1c-0.2-1-0.1-2.1,0.4-3c0.4-1,1.1-1.7,1.9-2.4c1.5-1.3,3.3-2.3,4.8-3.6c1.5-1.3,1.8-3.3,2.2-5.1
			c0.7-3.7,0.5-7.3-0.3-10.2c-0.8-2.9-2-5.1-3-6.6c-1-1.5-1.7-2.2-1.7-2.2L1805.8,895.4z"/>
	</g>
	<path fill="#3F4251" d="M1805.8,913.3c0.1,1.9-2.5,2.6-3.3,2.7c-1.8,0.3-3.4-0.5-3.5-2.4c-0.1-1.9,1.4-3.4,3.2-3.5
		C1804.1,910,1805.7,911.5,1805.8,913.3z"/>
	<path fill="#3F4251" d="M1826.7,912.8c0.1,1.3-1.4,2.6-3.3,2.7c-1.9,0.1-3.4-0.5-3.5-2.4s1.4-3.4,3.2-3.5S1826.7,911,1826.7,912.8z
		"/>
	<g>
		<path fill="#3F4251" d="M1799.2,894.1c0,0-0.1,0-0.2,0.1c-0.1,0.1-0.3,0.2-0.5,0.3c-0.4,0.3-1,0.6-1.7,1.1c-0.3,0.2-0.7,0.5-1,0.7
			c-0.3,0.3-0.7,0.6-1,0.9c-0.2,0.1-0.3,0.3-0.5,0.5c-0.2,0.2-0.3,0.3-0.5,0.5c-0.4,0.3-0.6,0.7-1,1c-0.3,0.4-0.6,0.7-0.9,1.1
			c-0.2,0.4-0.6,0.8-0.8,1.2c-0.2,0.4-0.5,0.8-0.8,1.2c-0.2,0.4-0.4,0.8-0.7,1.1c-0.2,0.3-0.4,0.7-0.6,1c-0.2,0.3-0.3,0.6-0.5,0.8
			c-0.3,0.4-0.5,0.7-0.5,0.7l-0.2,0c0,0,0.1-0.3,0.1-0.8c0-0.2,0.1-0.5,0.2-0.9c0-0.3,0.2-0.7,0.3-1.1c0.1-0.4,0.2-0.8,0.4-1.3
			c0.2-0.4,0.4-0.9,0.6-1.4c0.2-0.5,0.5-0.9,0.8-1.4c0.3-0.5,0.7-0.9,1-1.4c0.4-0.4,0.8-0.8,1.2-1.2c0.2-0.2,0.4-0.4,0.6-0.5
			c0.2-0.2,0.5-0.3,0.7-0.4c0.4-0.3,0.9-0.5,1.3-0.8c0.5-0.2,0.9-0.4,1.3-0.5c1.6-0.6,2.8-0.6,2.8-0.6L1799.2,894.1z"/>
	</g>
	<g>
		<path fill="#3F4251" d="M1836.8,903.4c0,0,0.2,0,0.6,0.2c0.4,0.1,0.9,0.4,1.5,0.8c0.3,0.2,0.6,0.4,0.9,0.7
			c0.3,0.3,0.6,0.6,0.9,0.9c0.3,0.3,0.5,0.7,0.8,1.1c0.2,0.4,0.4,0.8,0.6,1.3c0.1,0.5,0.3,0.9,0.4,1.4c0.1,0.5,0.1,0.9,0.1,1.4
			c0,0.5,0,0.9-0.1,1.3c-0.1,0.4-0.2,0.8-0.3,1.1c-0.1,0.3-0.3,0.6-0.4,0.9c-0.2,0.2-0.3,0.4-0.5,0.6c-0.3,0.3-0.5,0.5-0.5,0.5
			l-0.2-0.1c0,0,0-0.2,0.1-0.5c0-0.2,0.1-0.4,0.2-0.6c0-0.2,0.1-0.5,0.1-0.8c0.1-0.3,0-0.6,0-1c0-0.3,0-0.7-0.1-1.1
			c0-0.4-0.1-0.8-0.2-1.1c-0.1-0.4-0.2-0.8-0.4-1.1c-0.3-0.8-0.6-1.5-1-2.1c-0.4-0.7-0.8-1.2-1.2-1.7c-0.8-1-1.3-1.5-1.3-1.5
			L1836.8,903.4z"/>
	</g>
	<g>
		<path fill="#3F4251" d="M1803.2,949.4c0,0,0.6,0.2,1.7,0.5c1.1,0.3,2.6,0.6,4.4,1c0.9,0.2,1.9,0.3,3,0.5c1.1,0.1,2.2,0.2,3.3,0.3
			c0.6,0,1.2,0.1,1.8,0.1c0.6,0,1.2,0,1.8,0c1.2,0,2.4-0.1,3.7-0.3c0.6,0,1.2-0.2,1.8-0.3c0.6-0.1,1.2-0.2,1.8-0.4
			c0.6-0.1,1.2-0.3,1.7-0.5c0.6-0.2,1.1-0.4,1.6-0.6c1-0.5,2-1,2.9-1.5c0.9-0.6,1.7-1.2,2.4-1.8c0.7-0.6,1.3-1.2,1.8-1.8
			c0.5-0.6,0.9-1.1,1.2-1.5c0.6-0.9,0.9-1.5,0.9-1.5s-0.2,0.6-0.7,1.6c-0.3,0.5-0.6,1-1.1,1.7c-0.4,0.6-1,1.3-1.7,2
			c-0.7,0.7-1.5,1.3-2.3,2c-0.9,0.6-1.9,1.2-3,1.7c-0.5,0.2-1.1,0.5-1.7,0.7c-0.6,0.2-1.2,0.4-1.8,0.6c-0.6,0.2-1.2,0.3-1.8,0.4
			c-0.6,0.1-1.2,0.3-1.9,0.3c-1.3,0.1-2.5,0.2-3.8,0.2c-0.6,0-1.2,0-1.8,0c-0.6,0-1.2-0.1-1.8-0.1c-1.2-0.1-2.3-0.3-3.4-0.5
			c-1.1-0.2-2.1-0.4-3-0.6c-1.8-0.4-3.3-1-4.3-1.3C1803.8,949.6,1803.2,949.4,1803.2,949.4z"/>
	</g>
	<g>
		<g>
			<path fill="#3F4251" d="M1803,966.7c-0.2-0.1-5.2,17.7-2.7,19.8c0.6,0.5,1.2,0.5,1.8,0c0.1-0.1,0.2-0.2,0.3-0.2
				c0.4-0.3,0.4-1,0.2-1.4c-0.1-0.1-0.1-0.2-0.2-0.3c-0.5-0.9-2.2-0.6-2.1,0.6c0,0.1,0,0.2,0,0.3c0.3-0.4,0.6-0.8,0.9-1.1
				c-0.1,0-0.3,0.1-0.4,0.1c0.5,0.2,0.9,0.4,1.4,0.6c-0.9-1.9,0.5-7.8,0.8-9.8c0.4-2.9,1.3-5.7,1.3-8.6c0-0.3-0.3-0.5-0.6-0.3
				C1803.5,966.3,1803.3,966.5,1803,966.7C1803,966.6,1803,966.7,1803,966.7L1803,966.7z"/>
		</g>
	</g>
	<g>
		<g>
			<path fill="#3F4251" d="M1828.6,966.7c-1.1,2.8-1.1,5.9-1.4,8.9c-0.3,3.4-1,6.9-0.7,10.3c0.1,1.4,2.3,1.9,2.6,0.4
				c0.6-3.2,0.4-6.6,0.5-9.9c0.1-3.2,0.4-6.5-0.5-9.6C1829.1,966.4,1828.7,966.5,1828.6,966.7L1828.6,966.7z"/>
		</g>
	</g>
	<g>
		<g>
			<path fill="#3F4251" d="M1798.6,983.6c3.8,7.7,3.1,16.4,3.2,24.8c0.1,10.8,1.5,21.1,5.5,31.2c0.4,1,1.8,1.4,2.4,0.3
				c5.1-9.4,8.3-19.8,12.2-29.7c2.2-5.6,3.7-11.4,6.3-16.9c0.7-1.4,1.7-4.8,3.1-5.7c1.5-1,6.3,2.7,7.9,3.7c3,1.9,6.4,4,8.7,6.7
				c2.6,3.1-0.7,5.6-2.6,8.6c-3.7,5.7-7.3,11.6-10.6,17.6c-6.6,11.8-12.2,24.1-17,36.8c0.5-0.3,1-0.6,1.6-0.9
				c-8.2-1.3-17.2-0.4-25.3,1.1c0.5,0.4,1,0.8,1.5,1.1c-1.1-11.7-4.8-22.8-8-34c-1.3-4.6-2.6-9.2-4.2-13.7
				c-3.3-9.3-2.2-19.7-6.9-28.5c-0.3,0.5-0.6,1-0.9,1.5c7.9-0.7,15.7-2.4,23.6-3.1c1.2-0.1,1.2-2,0-1.9c-7.9,0.7-15.7,2.3-23.6,3
				c-0.8,0.1-1.3,0.8-0.9,1.5c4.5,8.7,3.3,19.1,6.6,28.2c1.6,4.4,2.7,9,3.9,13.6c1.7,6.4,2.5,13.1,4.5,19.4c1.4,4.3,3.2,9.4,3.6,14
				c0.1,0.8,0.7,1.3,1.5,1.1c7.6-1.4,16.3-2.2,24-0.9c0.7,0.1,1.3-0.2,1.6-0.9c8.3-21.6,19-42.3,31.9-61.5c0.2-0.4,0.1-0.9-0.2-1.2
				c-6-5.7-12.5-10.3-19.9-14c-0.5-0.2-1-0.1-1.3,0.3c-10.9,16.2-13.4,36.5-23.1,53.3c0.8,0.1,1.6,0.2,2.4,0.3
				c-4.1-11.2-5.7-22.6-6.2-34.4c-0.3-7.2-0.4-14.9-4.4-21.2C1798.9,982.9,1798.4,983.2,1798.6,983.6L1798.6,983.6z"/>
		</g>
	</g>
	<g>
		<g>
			<path fill="#3F4251" d="M1772.5,987.9c0,0,0,0.1,0,0.1c0,0,0,0,0.1,0c1.3-0.3,2.3-0.8,3.3-1.8c0.1-0.1,0-0.3-0.2-0.3
				c-12.8,4.5-18.5,20.5-22.6,32.2c-0.2,0.7,0.9,1.2,1.2,0.5c2.8-6.2,4.9-12.7,8.1-18.8c1.5-2.9,3.3-5.8,5.6-8.2c1-1,2-1.9,3.1-2.7
				c0.7-0.6,1.5-1.1,2.2-1.5C1774.6,987.3,1774.3,987.4,1772.5,987.9C1772.6,987.8,1772.5,987.9,1772.5,987.9L1772.5,987.9z"/>
		</g>
	</g>
	<g>
		<g>
			<path fill="#3F4251" d="M1851.3,1000.4c11.8,13.1,18.4,31.1,16.5,48.8c0,0.5,0.6,0.6,0.8,0.2c0.4-0.6,0.7-1.2,1.1-1.7
				c0.3-0.6-0.6-1.1-0.9-0.5c-0.7,1.4-0.1,0.7-0.1-0.4c0-1.1,0.1-2.2,0.1-3.2c0-2.4-0.2-4.8-0.5-7.2c-0.6-4.6-1.6-9.1-3.1-13.4
				c-3-8.5-7.6-16.2-13.7-22.8C1851.4,999.9,1851.1,1000.2,1851.3,1000.4L1851.3,1000.4z"/>
		</g>
	</g>
	<g>
		<g>
			<path fill="#3F4251" d="M1778.7,997c2.7,0.6,4.9-0.1,7.6-0.9c4-1.2,8-1.3,12.2-1.3c0.6,0,0.7-1,0-1c-3,0-6,0.1-8.9,0.6
				c-3.7,0.6-7,2.7-10.8,2.3C1778.5,996.6,1778.5,997,1778.7,997L1778.7,997z"/>
		</g>
	</g>
	<g>
		<g>
			<path fill="#3F4251" d="M1780.5,1006.4c3.2-0.7,6.2-2.3,9.4-3c3.5-0.7,7-0.5,10.5-0.7c0.6,0,0.6-0.9,0-0.9c-3.3,0-6.8,0-10.1,0.6
				c-3.5,0.6-6.6,2.3-9.9,3.8C1780.3,1006.2,1780.4,1006.4,1780.5,1006.4L1780.5,1006.4z"/>
		</g>
	</g>
	<g>
		<g>
			<path fill="#3F4251" d="M1783,1017.3c3.7-1.6,6.9-2.5,11-2.8c2.3-0.2,4.4-0.4,6.4-1.4c0.4-0.2,0.1-0.8-0.3-0.7
				c-3.1,1.1-6.2,1.1-9.5,1.6c-2.9,0.4-5.3,1.6-7.8,3.1C1782.7,1017.2,1782.8,1017.4,1783,1017.3L1783,1017.3z"/>
		</g>
	</g>
	<g>
		<g>
			<path fill="#3F4251" d="M1786.1,1024.1c2.3,0.7,4.2-0.6,6.3-1.5c2.3-0.9,4.1-0.5,6.5-0.4c0.9,0,1.1,0,1.9-0.4
				c0.5-0.3,0.1-1-0.4-0.8c-1.2,0.5-2.9-0.1-4.2-0.1c-1.1,0-2.1,0.2-3.2,0.5c-2.4,0.8-4.3,2.1-6.9,2.5
				C1786,1023.9,1786,1024,1786.1,1024.1L1786.1,1024.1z"/>
		</g>
	</g>
	<g>
		<g>
			<path fill="#3F4251" d="M1787.6,1032.5c1.2,1.5,3.7-0.1,5.2-0.5c3.7-0.9,7.4-1.2,11.2-1.7c0.5-0.1,0.4-0.9-0.1-0.9
				c-2.7-0.1-5.4,0.3-8,0.9c-1.5,0.3-2.9,0.7-4.4,1.2c-1,0.3-2.6,1.4-3.7,0.8C1787.7,1032.2,1787.6,1032.4,1787.6,1032.5
				L1787.6,1032.5z"/>
		</g>
	</g>
	<g>
		<g>
			<path fill="#3F4251" d="M1792.8,1045c2.4-0.1,4.7-1,7-1.6c2.9-0.8,5.8-1.6,8.6-2.6c0.6-0.2,0.3-1.1-0.3-0.9
				c-4.9,1.2-10.9,2.6-15.3,5.1C1792.8,1044.9,1792.8,1045,1792.8,1045L1792.8,1045z"/>
		</g>
	</g>
	<g>
		<g>
			<path fill="#3F4251" d="M1794.9,1056.5c4-1.4,7.9-3.3,11.7-5.1c0.4-0.2,0.1-0.8-0.3-0.7c-3.9,1.6-7.9,3.3-11.4,5.6
				C1794.8,1056.4,1794.8,1056.5,1794.9,1056.5L1794.9,1056.5z"/>
		</g>
	</g>
	<g>
		<g>
			<path fill="#3F4251" d="M1810.3,1040.3c3.9,2.7,8,5.2,12,7.7c0.7,0.4,1.3-0.6,0.6-1.1c-3.8-2.7-8.1-5.3-12.5-7
				C1810.2,1040,1810.1,1040.2,1810.3,1040.3L1810.3,1040.3z"/>
		</g>
	</g>
	<g>
		<g>
			<path fill="#3F4251" d="M1815.7,1032.1c-0.1,0-0.1,0-0.2,0.1c-0.1,0-0.1,0.1-0.1,0.1c-0.3,1.2,2,1.2,2.7,1.5
				c1.6,0.5,3.2,1,4.7,1.7c1.1,0.5,2.2,1.3,3.4,1.6c0.5,0.1,0.8-0.5,0.5-0.8c-1.4-1.3-3.4-1.9-5.1-2.6c-1-0.4-2.1-0.7-3.2-0.9
				c-0.3-0.1-2.6-0.5-2.5-0.6C1815.9,1032.2,1815.8,1032.1,1815.7,1032.1L1815.7,1032.1z"/>
		</g>
	</g>
	<g>
		<g>
			<path fill="#3F4251" d="M1817.8,1021.5c4.9,0.7,9.7,1.9,14.5,3.2c0.7,0.2,0.9-0.8,0.3-1c-4.8-1.4-9.8-2.1-14.7-2.4
				C1817.7,1021.3,1817.7,1021.5,1817.8,1021.5L1817.8,1021.5z"/>
		</g>
	</g>
	<g>
		<g>
			<path fill="#3F4251" d="M1822.7,1006.1c2.2,1.6,4.9,1.6,7.4,2.4c3.6,1.1,6.4,3.2,9.7,5c0.5,0.3,0.9-0.4,0.4-0.7
				c-2.3-1.7-5-3.2-7.7-4.3c-3.1-1.2-6.8-0.9-9.7-2.6C1822.7,1005.7,1822.6,1006,1822.7,1006.1L1822.7,1006.1z"/>
		</g>
	</g>
	<g>
		<g>
			<path fill="#3F4251" d="M1825.5,997c-0.4,1.3,3.9,1.9,4.7,2.1c5.1,1.1,8.7,3.2,12.8,6.3c0.5,0.4,1.1-0.4,0.7-0.9
				c-2-2.1-4.6-3.6-7.3-4.6c-1.3-0.5-10.7-1.7-10.8-2.8C1825.6,996.9,1825.5,996.9,1825.5,997L1825.5,997z"/>
		</g>
	</g>
	<g>
		<g>
			<path fill="#3F4251" d="M1849.7,1001c-0.1-2.8-2.8-4.1-5-5.3c-3.9-2.1-8-3.5-12.3-4.6c-0.8-0.2-1.1,1-0.3,1.2
				c2.9,0.7,5.7,1.5,8.5,2.6c2.7,1.1,8.3,2.7,9,6.1C1849.4,1001.2,1849.7,1001.1,1849.7,1001L1849.7,1001z"/>
		</g>
	</g>
	<path fill="#3F4251" d="M1783.7,952c0,0-16.9-26.4-1.9-49.6c16.8-26.1,10.8-37.6,15.2-41.4c6.7,3,6.5,18.9,41.6,36.2
		c35.1,17.3,25.9,10.2,29.9,18.3c4.1,8.1-11.2,46.5-17.2,50.8c-4.3,3.1,11.6,0.4,20.9-11c9.3-11.3,11.6-25.3,11.3-26.8
		c-0.2-1,3.7-8,6.3-12.6c1.7-2.9,2.5-6.2,2.4-9.5c-0.5-13.5-3.7-46.6-41.3-61.2c-37.8-14.7-67.7,0.2-74.7,8
		c-3.8,4.2-11.7,14.7-11.8,23.4C1764,898.2,1742.6,908.5,1783.7,952z"/>
</g>
<g>
	<g>
		<path fill="#FFCE1C" d="M1569,980.1c-2.4,0.3-9.7,9-9.6,11.5c0.1,1.7,15.3,1.6,21.3,1.6c8.2,0.1,30.7-0.8,32.3-4.6
			c0.4-1,0.7-2,0.6-3.1c-0.2-1.5-1.3-2.7-2.4-3.8c-1.7-1.7-3.5-3.5-5.9-4.2c-2.3-0.7-5.3,0.2-6.1,2.5"/>
	</g>
	<g>
		<path fill="#FFCE1C" d="M1567.4,980.1c-2.7-0.9-16.9-1.9-19-0.8c-3.4,1.8-5.3,5.8-5.4,9.7s1.3,7.6,2.9,11.2c1.4,2.9,3,5.8,5.5,7.8
			c2.3,1.8,5.3,2.6,8.2,3.1c10.5,1.7,21.2-0.7,31.6-3c4.4-1,8.8-2,12.8-4.1s11.6-5.1,13.2-9.3c1-2.7-2.5-10-3.7-9.1"/>
	</g>
	<g>
		<path fill="#FFCE1C" d="M1553,1009.5c0.8,7.4,8.5,12,15.7,13.9c10.8,2.9,22.3,2.3,33.4,1c8.2-0.9,16.3-2.3,24.4-3.6
			c8.9-1.5,19.3-4,22.7-12.4c3.4-8.3-2.9-18-11.1-21.7s-16.1-3.1-25-2.4"/>
	</g>
	<g>
		<path fill="#FFCE1C" d="M1552.3,1006.2c-4,17.3-7.9,12.4-20.2,25c12.9,2.1,25.4,7,36.3,14.4c-3-1.5,1.1-17.9,4.9-20.7"/>
	</g>
	<g opacity="0.9">
		<path fill="#3F4251" d="M1578.5,902.9c0,0,0.7,0.6,1.8,1.8c1,1.3,2.4,3.2,3.4,5.9c0.5,1.3,0.9,2.9,1.2,4.5
			c0.2,1.6,0.3,3.4,0.1,5.2c-0.1,0.9-0.2,1.8-0.4,2.7c-0.1,0.5-0.2,0.9-0.3,1.4l-0.2,0.7l0,0c0,0,0,0.1,0-0.1l0,0l0,0.1l0,0.2
			l-0.1,0.4c-0.4,1.8-1.1,3.5-1.6,5.3c-0.6,1.7-1.2,3.4-1.7,5c-0.2,0.8-0.5,1.6-0.6,2.2c0,0.1,0,0.3,0,0.3c0,0.1,0,0-0.2-0.3
			c-0.1-0.1-0.3-0.3-0.5-0.3l0.3,0.1l0.5,0.2c2.8,0.9,5.8,0.4,8-0.8c2.3-1.1,3.9-2.7,4.7-4c0.4-0.6,0.6-1.2,0.5-1.5
			c-0.1-0.3-0.4-0.3-0.4-0.3l0-0.2c0,0,0.1,0,0.2,0c0.1,0,0.3,0.1,0.4,0.3c0.2,0.5,0,1.1-0.3,1.9c-0.7,1.4-2.2,3.3-4.5,4.8
			c-1.2,0.7-2.6,1.3-4.1,1.6c-1.6,0.3-3.3,0.3-4.9-0.2c-0.2-0.1-0.4-0.1-0.6-0.2l-0.3-0.1c-0.1,0-0.3-0.1-0.3-0.2
			c-0.3-0.5-0.3-0.9-0.3-1.4c0.1-0.9,0.3-1.8,0.5-2.6c0.5-1.7,1-3.5,1.6-5.2c0.6-1.7,1.2-3.4,1.7-5.1c0.5-1.7,1-3.4,1.2-5.1
			c0.5-3.4,0.1-6.6-0.7-9.2c-0.8-2.6-1.9-4.6-2.7-5.9c-0.9-1.3-1.5-2-1.5-2L1578.5,902.9z"/>
	</g>
	<path fill="none" stroke="#3F4251" stroke-width="2.1716" stroke-miterlimit="10" d="M1529.7,885.3c0,0,21.5,86.5,51,87.4
		c0,0,26.7,7.4,46.7-44.2c16.1-41.6-17-76.1-17-76.1l-25-2.5l-26.6,3.9l-26.2,17L1529.7,885.3z"/>
	<g>
		<path fill="#3F4251" d="M1595.8,893.1c0,0,0.2-0.3,0.6-0.6c0.4-0.4,1.1-0.9,2-1.2c0.4-0.2,0.9-0.4,1.5-0.5
			c0.5-0.2,1.1-0.2,1.7-0.3c0.3,0,0.6,0,0.9,0c0.3,0,0.6,0,0.9,0c0.3,0,0.6,0,1,0.1c0.3,0.1,0.6,0.1,1,0.2c0.6,0.1,1.3,0.4,1.9,0.6
			c0.3,0.1,0.6,0.3,0.9,0.4c0.3,0.2,0.5,0.3,0.8,0.5c0.5,0.3,0.9,0.8,1.4,1.1c0.4,0.4,0.7,0.8,1,1.2c0.3,0.4,0.5,0.7,0.7,1.1
			c0.2,0.4,0.3,0.7,0.4,1c0.2,0.5,0.3,0.9,0.3,0.9s-0.3-0.1-0.9-0.2c-0.3-0.1-0.6-0.2-0.9-0.3c-0.3-0.1-0.7-0.2-1.1-0.4
			c-0.4-0.1-0.8-0.3-1.2-0.4c-0.4-0.1-0.9-0.3-1.3-0.4c-0.5-0.1-0.9-0.3-1.4-0.4c-0.5-0.1-0.9-0.3-1.4-0.4c-0.5-0.1-1-0.2-1.4-0.3
			c-0.5-0.1-1-0.2-1.4-0.3c-1-0.2-1.9-0.4-2.7-0.5c-0.9-0.2-1.6-0.3-2.1-0.4c-0.3,0-0.5-0.1-0.6-0.1
			C1595.9,893.2,1595.8,893.1,1595.8,893.1z"/>
	</g>
	<g>
		<path fill="#3F4251" d="M1569.6,949.9c0,0,2,0,4.9,0.2c1.4,0.1,3.1,0.2,4.9,0.3c0.9,0,1.8,0.1,2.7,0.1c0.5,0,0.9,0,1.4,0l0.6-0.1
			l0.7-0.1c1.9-0.3,3.8-0.6,5.6-0.9c1.8-0.3,3.5-0.5,4.9-0.6c2.9-0.3,4.9-0.4,4.9-0.4s-1.8,0.8-4.6,1.6c-1.4,0.4-3.1,0.9-4.8,1.3
			c-0.9,0.2-1.8,0.4-2.8,0.6c-0.9,0.2-1.9,0.4-2.9,0.5l-0.7,0.1l-0.8,0.1c-0.5,0-1,0-1.5,0c-1,0-2-0.2-2.9-0.3
			c-1.8-0.2-3.5-0.6-5-0.9C1571.4,950.7,1569.6,949.9,1569.6,949.9z"/>
	</g>
	<path fill="none" stroke="#3F4251" stroke-width="2.1716" stroke-miterlimit="10" d="M1580.1,916.8c0,0,5.4-1.6,8.4-0.2"/>
	
		<ellipse transform="matrix(0.9998 -1.929538e-02 1.929538e-02 0.9998 -17.3933 31.0972)" fill="#3F4251" cx="1602.8" cy="916.9" rx="15.7" ry="14.5"/>
	
		<ellipse transform="matrix(0.9998 -1.929538e-02 1.929538e-02 0.9998 -17.351 31.1105)" fill="#FFFFFF" stroke="#3F4251" stroke-width="1.6287" stroke-miterlimit="10" cx="1603.5" cy="914.7" rx="15.7" ry="15.5"/>
	<path fill="#3F4251" d="M1602.7,914.7c0,1.7-1.4,2.5-3.1,2.5c-1.8,0-3.2-0.7-3.2-2.4c0-1.7,1.4-3.1,3.1-3.2
		S1602.7,913,1602.7,914.7z"/>
	
		<ellipse transform="matrix(0.9998 -1.929538e-02 1.929538e-02 0.9998 -17.4287 30.3708)" fill="#3F4251" cx="1565.1" cy="918.4" rx="15.7" ry="14.5"/>
	
		<ellipse transform="matrix(0.9998 -1.929538e-02 1.929538e-02 0.9998 -17.3834 30.3895)" fill="#FFFFFF" stroke="#3F4251" stroke-width="1.6287" stroke-miterlimit="10" cx="1566.1" cy="916" rx="15.7" ry="15.5"/>
	<path fill="#3F4251" d="M1570.7,916.7c0,1.7-1.4,2.4-3.1,2.4s-3.2-0.6-3.2-2.3c0-1.7,1.4-3.1,3.1-3.2S1570.7,915,1570.7,916.7z"/>
	<path fill="#3F4251" stroke="#3F4251" stroke-width="2.1716" stroke-miterlimit="10" d="M1540.1,939.7c-1.2,3-4.7,2.2-5-1.1
		l-10.1-51.8c-1.1-10.4,4.3-38,22.5-39.7c18.2-1.7,25.8-0.4,35.3,2c3.7,0.9,8,6.7,8.6,11.6c1.2,9-0.6,11.3-13.2,28.3
		C1560,913.5,1551.5,912.4,1540.1,939.7z"/>
	<g>
		<g>
			<path fill="#3F4251" d="M1571.2,970.6c-1,1.6-0.7,3.7-0.9,5.6c-0.2,2.5-0.3,5.1-0.5,7.6c-0.1,1.2,1.9,1.2,1.9,0
				c0-2.5,0.1-5.1,0.1-7.6c0-1.9,0.5-3.9-0.4-5.6C1571.3,970.5,1571.2,970.5,1571.2,970.6L1571.2,970.6z"/>
		</g>
	</g>
	<g>
		<g>
			<path fill="#3F4251" d="M1590.7,973.4c0.5-0.8,1.4-1.2,2.4-1.1c0.2,0,0.2-0.2,0-0.3c-1-0.1-2,0.4-2.5,1.3
				C1590.5,973.4,1590.7,973.5,1590.7,973.4L1590.7,973.4z"/>
		</g>
	</g>
	<g>
		<g>
			<path fill="#3F4251" d="M1599.1,969.3c-0.8,1.4-0.1,3.6,0.3,5c0.5,1.9,1.4,3.7,2.7,5.1c0.5,0.5,1.4-0.2,1-0.7
				c-1.1-1.6-2.1-3.1-2.7-4.9c-0.5-1.4-0.3-3.1-1-4.4C1599.2,969.3,1599.1,969.3,1599.1,969.3L1599.1,969.3z"/>
		</g>
	</g>
	<g>
		<g>
			<path fill="#3F4251" d="M1571,977.1c-3.3-0.1-13,10.1-9.2,12.7c3.1,2.1,10.2,1.1,13.6,1.1c4.8,0.1,9.5,0.1,14.3-0.1
				c5.3-0.2,10.6-0.5,15.9-1.2c2.8-0.4,7.8-0.6,9.8-3.1c5.3-6.5-10.1-18.2-14.7-9.7c-0.4,0.8,0.8,1.5,1.2,0.7
				c1.8-0.7,3.5-1.5,5.3-2.2c1.1,0.7,2.3,1.3,3.4,2c0.6,0.5,1.7,1.3,2.1,2c0.5,0.9,1.3,6.2,0.6,6.9c-0.4,0.4-1.5,0.6-2.1,0.8
				c-2.8,0.9-5.8,1.2-8.7,1.5c-6.2,0.7-12.4,1-18.6,1c-6,0-12,0.1-17.9-0.4c-0.6,0-3.3,0-3.6-0.6c-0.5-0.9,1.3-3.1,1.7-3.8
				c1.8-2.6,4.2-5.6,6.9-7.4C1571.1,977.3,1571.1,977.1,1571,977.1L1571,977.1z"/>
		</g>
	</g>
	<g>
		<g>
			<path fill="#3F4251" d="M1569.5,977.1c-3.5-2.1-9.1-1.9-13-2c-4.7-0.1-8.2,0.3-10.7,4.8c-3.4,6.1-0.8,13.5,2.1,19.3
				c3.4,6.6,8.5,9.4,15.8,10.2c9.5,1.1,19-0.9,28.2-3c7.5-1.7,14.5-4,21.2-7.9c3.6-2.1,8-4.8,7.2-9.5c-0.3-1.8-2-7.8-4.8-7.1
				c-0.9,0.2-0.5,1.5,0.4,1.4c0.9-0.2,2.4,4.6,2.5,5.2c0.7,3.5-1.3,5.4-4.1,7.2c-3.7,2.4-8.1,4.5-12.3,6c-11.1,4-24.8,6.7-36.6,5.7
				c-7.3-0.6-12.8-3.2-16.2-10c-2.6-5.4-6.4-17.2,1.7-20.4C1556.2,975,1564,977,1569.5,977.1
				C1569.5,977.2,1569.5,977.2,1569.5,977.1L1569.5,977.1z"/>
		</g>
	</g>
	<g>
		<g>
			<path fill="#3F4251" d="M1554.9,1006.5c1.7,14.3,21.1,16.7,32.4,16.9c8.9,0.1,17.7-1,26.5-2.2c8-1.1,16.4-2,24.1-4.3
				c10.5-3.2,19-12,13.7-23.4c-6.3-13.7-23.6-15.3-36.7-13.2c-1.2,0.2-0.9,2.1,0.3,2.1c12.6-0.1,28-1.7,34.4,12.1
				c6.2,13.4-8.1,19.9-18.8,21.9c-13,2.5-26.5,4.7-39.8,5.1c-11.6,0.3-32.7-0.5-35.9-15C1555.1,1006.4,1554.8,1006.4,1554.9,1006.5
				L1554.9,1006.5z"/>
		</g>
	</g>
	<g>
		<g>
			<path fill="#3F4251" d="M1544.8,986.9c-9.8,3.3-14.6,14.1-19.1,22.6c-6.1,11.7-8.4,24.3-7.3,37.5c0.1,1.6,2.4,1.6,2.4,0
				c0.3-5.6-0.2-11.1,0.5-16.7c0.8-6.6,3-12.8,5.9-18.8c4.1-8.5,8.6-19.8,17.6-24.1C1545.2,987.3,1545.1,986.9,1544.8,986.9
				L1544.8,986.9z"/>
		</g>
	</g>
	<g>
		<g>
			<path fill="#3F4251" d="M1553.8,1003.2c-1.6,5.7-3.4,10.9-8.2,14.4c-4.3,3.2-8.6,6-12.6,9.8c-0.7,0.7-0.4,2.1,0.6,2.3
				c12.9,2.6,24.9,6.9,36,14.2c1.4,0.9,2.6-1.3,1.3-2.2c-1.8-1.3,0.2-7.9,0.6-9.5c0.8-3.1,1.8-7.1,4.4-9.3c1.1-0.9-0.5-2.4-1.5-1.5
				c-3.4,2.9-4.9,8.7-5.8,12.9c-0.6,2.8-1.8,7.6,1,9.7c0.4-0.7,0.9-1.5,1.3-2.2c-10.9-7.3-23.5-12.7-36.5-14.6
				c0.2,0.8,0.4,1.5,0.6,2.3c4.1-4.4,9.2-7.5,13.5-11.6c3.9-3.8,5.2-9.1,6.2-14.3C1554.8,1002.9,1554,1002.6,1553.8,1003.2
				L1553.8,1003.2z"/>
		</g>
	</g>
	<g>
		<g>
			<path fill="#3F4251" d="M1648.3,1009.9c4.2,7.6,3.4,16.3,4.2,24.7c0.3,3,0.3,10.9,4.9,10.3c0.8-0.1,1.4-1.3,1.1-2
				c0-0.1,0-0.1-0.1-0.2c-0.6-1.6-3.2-1.5-3.1,0.4c0,0.1,0,0.1,0,0.2c0.7-0.5,1.4-1,2.1-1.6c-0.9-0.2-1.8-7.2-2-8.3
				c-0.5-3.3-0.8-6.6-1.2-9.9c-0.7-5.1-1.9-9.9-4.8-14.3C1649,1008.5,1647.9,1009.1,1648.3,1009.9L1648.3,1009.9z"/>
		</g>
	</g>
	<g>
		<g>
			<path fill="#3F4251" d="M1555.6,978.4c0-0.1,0.1-0.3,0.1-0.4c0,0,0-0.1,0-0.1c-0.1-0.1-0.2-0.2-0.3-0.4c0,0-0.1-0.1-0.1,0
				c-5.9,2.2-4.2,12.1-3.2,16.7c1.8,8,9,11,16.7,10.3c5.7-0.5,11-2.9,16.7-3.3c0.5,0,3.5,0.2,3.7,0c1.1-1.1-2.4-0.6-2.7-0.6
				c-2.2,0.2-4.3,0.6-6.5,1c-6.5,1-13.8,1.1-19.6-2.6c-6.1-3.9-9.2-10.5-6.9-17.5c0.2-0.6-0.7-0.8-0.9-0.2c-2.6,7.6,1,15,7.9,18.9
				c9.9,5.6,20.1,0.8,30.5,1.3c0.5,0,0.6-0.8,0.1-0.9c-8.8-1.2-16.6,3.3-25.2,3.1c-6.4-0.1-11.4-3.1-13-9.6c-0.5-2.2-0.9-4.5-1-6.8
				c-0.1-1.4,0-2.8,0.2-4.3C1552.4,980.9,1553.5,979.4,1555.6,978.4C1555.5,978.5,1555.6,978.5,1555.6,978.4L1555.6,978.4z"/>
		</g>
	</g>
	<g>
		<g>
			<path fill="#3F4251" d="M1589.7,1024.1c-0.7,10,1.1,20.9,2.2,30.8c0.1,0.8,1.3,0.8,1.3,0
				C1592.5,1044.9,1592.2,1033.8,1589.7,1024.1C1589.7,1024.1,1589.7,1024.1,1589.7,1024.1L1589.7,1024.1z"/>
		</g>
	</g>
	<g>
		<path fill="#3F4251" d="M1597.2,1034.5c-0.2,0.3-0.4,0.6-0.6,0.9c-1,1.5-1.4,3.4-0.9,5.1c0.5,1.7,2.1,3.2,4.1,3.5
			c2,0.3,4.3-0.8,4.7-2.6c0.3-1.3-0.4-2.7-1.5-3.7c-1.2-1.2-3.1-2.2-5-2c-1.9,0.2-3.6,2-2.9,3.5"/>
		<g>
			<path fill="#3F4251" d="M1597.1,1034.5c-1.9,2.6-2.8,6.3,0,8.7c2.1,1.8,6,1.7,7.5-0.9c1.6-2.9-1.9-6.1-4.5-6.8
				c-2.4-0.7-6.4,0.8-5.4,3.9c0.2,0.5,1,0.3,0.9-0.2c-0.5-1.6,1.2-2.7,2.6-2.9c1.1-0.1,2.2,0.2,3.1,0.8c2.4,1.3,4.2,4.8,0.8,6.3
				c-2.1,0.9-4.6,0-5.8-2c-1.3-2.2-0.3-4.7,1-6.7C1597.3,1034.5,1597.2,1034.4,1597.1,1034.5L1597.1,1034.5z"/>
		</g>
	</g>
	<path fill="#FFCE1C" d="M1583.8,852.6c0,0,29.3-10.1,45.9,8.7c16.4,18.5,16.7,58.2-5.3,73.2c0,0,8.9-66.5-37.6-72.7L1583.8,852.6z"
		/>
	<path fill="none" stroke="#3F4251" stroke-width="2.1716" stroke-miterlimit="10" d="M1586.8,853c0,0,29.3-10.1,45.9,8.7
		c16.4,18.5,16.7,58.2-5.3,73.2c0,0,8.9-66.5-37.6-72.7L1586.8,853z"/>
</g>
<g>
	<g>
		<g>
			<path fill="#E86380" d="M845.2,1013.8c-6.1,12.1-6.2,25.2-5.5,38.4c0.4,7.4,11.4,11.8,15.1,4.1c2.3-4.6,4.5-9.3,6.8-13.9
				c1.1-2.3,2.2-4.6,3.4-7c0.4-0.9,0.9-1.9,1.4-2.8c-0.5,1.3,0.1,1.5,1.8,0.6c2.3,0.2,5.4-0.8,7.7-1.2c2.6-0.4,5.1-0.8,7.7-1.2
				c5.1-0.8,10.2-1.6,15.3-2.3c9.2-1.4,6.7-15.9-2.2-15.9c-10.5,0-20.9,1.3-31,4c-8.7,2.3-7.1,16.3,2.2,15.9
				c9.2-0.3,18.4-1.6,27.4-3.8c-2.6-4.5-5.3-9-7.9-13.6c-1.5,1.6-5.9,1.6-8,2.1c-3.8,0.8-7.5,1.6-11.3,2.4c-7.7,1.7-7.8,14.1,0,15.6
				c2.1,0.4,4.2,0.8,6.3,1.3c-1.6-4-3.2-7.9-4.8-11.9c-0.2,0.3-0.3,0.6-0.5,0.8c1-1,1.9-1.9,2.9-2.9c-2.2,1.6-5.3,2.3-7.9,3.2
				c-3.3,1.2-6.5,2.5-9.8,3.7c-8,3-7.6,16.3,2.2,15.9c8.5-0.3,17-0.6,25.5-0.9c-0.7-5.3-1.4-10.6-2.2-15.9
				c-4.3,1.8-8.7,3.2-13.3,4.2c-7.4,1.7-8,14.3,0,15.6c4.1,0.7,8.2,1.1,12.4,1c-2.3-4.1-4.7-8.1-7-12.2c0,0.8-0.4,1.4-1.1,1.6
				c-3.5,2.9-2.7,8.5,0,11.5c0.5,0.5,0.9,1.1,1.4,1.6c0.5-4.2,1.1-8.5,1.6-12.7c-3.7,2.7-7.5,4.9-11.8,6.4c-6,2.1-8.7,11.5-1.9,14.8
				c2.4,1.2,4.9,2.2,7.2,3.5c-1-1-1.9-1.9-2.9-2.9c0.1,0.1,0.2,0.3,0.3,0.4c-0.3-2.1-0.5-4.2-0.8-6.3c-0.3,0.7-2.4,2.7-2.9,3.3
				c-2.6,3.5-0.6,9.1,2.9,11.1c4.2,2.4,8.4,0.6,11.1-2.9c3-4,6.6-8.2,3.7-13.5c-2.1-3.8-6.7-5.1-10.3-6.9c-0.6,4.9-1.3,9.9-1.9,14.8
				c5.6-2,10.8-4.5,15.6-8c4.4-3.2,5.4-8.5,1.6-12.7c-0.5-0.5-0.9-1.1-1.4-1.6c0,3.8,0,7.6,0,11.5c1.6-1.3,2.9-2.9,3.7-4.8
				c2.3-5.3-0.3-12.4-7-12.2c-2.7,0.1-5.4,0-8.1-0.4c0,5.2,0,10.4,0,15.6c4.6-1.1,9-2.5,13.3-4.2c3.7-1.5,6.5-4.6,5.8-8.9
				c-0.6-3.8-3.9-7.2-8-7c-8.5,0.3-17,0.6-25.5,0.9c0.7,5.3,1.4,10.6,2.2,15.9c4.7-1.8,9.5-3.6,14.2-5.4c4.2-1.6,8.3-2.8,10.7-6.9
				c2.4-4.3,0.4-10.9-4.8-11.9c-2.1-0.4-4.2-0.8-6.3-1.3c0,5.2,0,10.4,0,15.6c8.3-1.8,20.3-2.2,26.5-8.7c5.6-5.9,0-15.5-7.9-13.6
				c-7.6,1.9-15.2,3-23.1,3.2c0.7,5.3,1.4,10.6,2.2,15.9c8.8-2.4,17.6-3.5,26.7-3.4c-0.7-5.3-1.4-10.6-2.2-15.9
				c-6.1,0.9-12.2,1.8-18.2,2.8c-5.7,0.9-12.8,0.8-18,3.3c-5,2.4-6.7,7-9,11.7c-2.8,5.8-5.6,11.6-8.5,17.4c5,1.4,10.1,2.7,15.1,4.1
				c-0.5-10-1.4-20.9,3.3-30.2C863.9,1012.7,849.9,1004.5,845.2,1013.8L845.2,1013.8z"/>
		</g>
	</g>
	<g>
		<path fill="#E86380" d="M915.3,1027.9c-5.6,2.5-11.5,4.4-17.5,5.8c1.8,2.9,2.8,6.2,4.2,9.3c1.3,3.1,3,6.2,5.7,8.4
			c2.7,2.1,6.5,3,9.6,1.4c0.6-0.3,1.2-0.8,1.5-1.4c0.2-0.4,0-0.9,0.3-1.2c3.2-3.9,0.9-7.3,1.3-11"/>
	</g>
	<g>
		<g>
			<g>
				<path fill="#3F4251" d="M887.8,871.7c-18.8,10.6-37.7,21.3-56.5,31.9c-2.3,1.3-5.7,2.5-7.6,4.3c-1.5,1.4-2.3,4.2-3.1,6.1
					c-5,12.2-7,26.5-1.7,38.9c7.3,17.2,27.2,27,44.7,29.9c16.6,2.7,34,0,49.2-7.2c12.1-5.8,24.9-15.4,29-28.8
					c1.5-4.8,1.9-11.3-0.5-16c-1.2-2.4-3.4-4.6-5-6.7c-8.9-11.6-17.7-23.2-26.6-34.8c-5.3-7-11.3-12.9-17.6-19.1
					c-0.3-0.3-0.8-0.4-1.2-0.2C889.9,870.6,888.8,871.2,887.8,871.7c-1.2,0.6-0.1,2.4,1,1.8c0.8-0.4,2-1.4,2.9-1.5
					c-1.3,0.2-0.8-0.4,0.1,0.8c1.8,2.3,4.4,4.4,6.5,6.5c2.3,2.3,4.2,4,5.9,6.2c6.6,8.6,13.1,17.2,19.7,25.8
					c3.5,4.6,7.1,9.3,10.6,13.9c1.6,2,3.7,4.2,4.9,6.4c6.3,12.2-4.9,26.5-13.7,33.6c-26.9,21.6-74.9,24.1-98.9-3.5
					c-10.7-12.3-10.7-29.2-5.5-43.8c0.9-2.5,1.9-6.4,3.7-8.5c-0.7,0.8,0.8-0.3,1.1-0.5c1.4-0.7,2.7-1.5,4-2.3
					c19.6-11.1,39.2-22.1,58.7-33.2C890,872.8,888.9,871.1,887.8,871.7z"/>
			</g>
		</g>
		<path fill="#2E3191" d="M914.6,887.9L914.6,887.9C914.6,887.7,914.6,887.9,914.6,887.9z"/>
		<path fill="#2E3191" d="M914.6,887.9L914.6,887.9C914.6,887.7,914.6,887.9,914.6,887.9z"/>
		<g>
			<path fill="#3F4251" d="M875.8,879.2c0,0,0.3,1.4,0.6,3.8c0.2,1.2,0.3,2.7,0.5,4.4c0.2,1.7,0.3,3.6,0.4,5.8
				c0.2,4.2,0.1,9.2-0.4,14.4c-0.5,5.3-1.5,10.9-3.1,16.3c-1.6,5.5-3.9,10.7-6.7,15.3c-0.3,0.6-0.5,0.9-0.5,1.3
				c0,0.4,0.2,0.8,0.5,1.2c0.6,0.8,1.6,1.4,2.7,1.8c2.1,0.8,4.3,1,6.3,0.8c1-0.1,1.9-0.3,2.6-0.7c0.7-0.4,1.2-1.1,1.4-1.8
				c0.4-1.5,0-3-0.5-4.1c-0.5-1.1-1-1.9-1.5-2.4c-0.5-0.5-0.8-0.5-0.8-0.5s0.1,0,0.3,0.1c0.2,0,0.4,0.2,0.7,0.4
				c0.5,0.4,1.2,1.2,1.8,2.3c0.3,0.6,0.6,1.2,0.8,1.9c0.2,0.7,0.3,1.6,0.1,2.5c-0.2,0.9-0.7,1.9-1.6,2.6c-0.9,0.7-2,0.9-3.1,1.1
				c-2.2,0.4-4.6,0.3-7.1-0.5c-1.2-0.4-2.5-1-3.5-2.2c-0.5-0.6-0.9-1.4-0.9-2.3c-0.1-0.9,0.4-1.8,0.7-2.3c1.3-2.2,2.5-4.6,3.6-7.1
				c1.1-2.5,2-5.1,2.8-7.8c0.8-2.6,1.5-5.3,2-8c0.6-2.7,1-5.3,1.3-7.9c0.3-2.6,0.6-5.1,0.7-7.5c0.1-2.4,0.3-4.7,0.3-6.8
				c0.1-4.2,0-7.7-0.1-10.1C875.9,880.6,875.8,879.2,875.8,879.2z"/>
		</g>
		<g>
			<path fill="#3F4251" d="M843.7,924c0,0,0.2-0.5,0.6-1.2c0.4-0.8,1.1-1.8,2-3c0.5-0.6,1-1.2,1.6-1.8c0.6-0.6,1.3-1.3,2-1.9
				c0.4-0.3,0.8-0.6,1.2-0.9c0.4-0.3,0.8-0.6,1.2-0.8c0.9-0.5,1.8-1.1,2.7-1.4l1.4-0.6c0.5-0.2,1-0.3,1.5-0.4c1-0.3,2-0.4,2.9-0.5
				c1-0.2,1.9-0.1,2.8,0c0.4,0,0.9,0,1.3,0.1c0.4,0.1,0.8,0.2,1.2,0.2c0.7,0.2,1.4,0.3,2,0.5c0.6,0.2,1.1,0.4,1.5,0.6
				c0.8,0.3,1.3,0.5,1.3,0.5s-0.5,0-1.4-0.1c-0.4-0.1-1-0.1-1.5-0.2c-0.6-0.1-1.3,0-2-0.1c-0.4,0-0.7,0-1.1,0
				c-0.4,0-0.8,0.1-1.2,0.1c-0.8,0.1-1.7,0.1-2.6,0.3c-0.4,0.1-0.9,0.2-1.3,0.3c-0.4,0.1-0.9,0.3-1.3,0.4c-0.4,0.1-0.9,0.3-1.3,0.4
				l-1.3,0.6c-0.9,0.3-1.7,0.8-2.5,1.2c-0.8,0.5-1.6,0.9-2.3,1.5c-0.7,0.5-1.5,1-2.1,1.6c-0.7,0.5-1.2,1-1.8,1.5
				c-1.1,1-2,1.8-2.6,2.5C844.1,923.6,843.7,924,843.7,924z"/>
		</g>
		<g>
			<path fill="#3F4251" d="M883.1,918.1c0,0,0.1-0.1,0.2-0.3c0.1-0.2,0.3-0.5,0.6-0.8c0.3-0.3,0.6-0.8,1-1.2
				c0.4-0.4,0.9-0.9,1.5-1.3c0.6-0.4,1.3-0.9,2.1-1.2c0.8-0.4,1.7-0.7,2.7-0.8c0.5-0.1,1-0.2,1.5-0.1c0.5,0,1,0,1.5,0.1
				c1,0.1,2,0.5,3,0.9l1.4,0.7c0.5,0.3,0.8,0.5,1.2,0.8c0.2,0.1,0.4,0.3,0.6,0.4l0.6,0.5c0.4,0.3,0.8,0.6,1.1,1
				c0.7,0.6,1.3,1.4,1.8,2.1c0.5,0.7,0.9,1.5,1.1,2.2c0.3,0.7,0.4,1.4,0.4,2c0,0.6,0,1.2-0.1,1.6c-0.1,0.4-0.2,0.7-0.3,1
				c-0.1,0.2-0.2,0.3-0.2,0.3s0.1-0.5,0-1.3c0-0.4-0.1-0.9-0.2-1.4c-0.2-0.5-0.4-1.1-0.7-1.7c-0.1-0.3-0.3-0.6-0.6-0.9
				c-0.2-0.3-0.4-0.6-0.7-0.9c-0.5-0.6-1.1-1.1-1.7-1.7c-0.3-0.3-0.7-0.5-1-0.8c-0.3-0.2-0.7-0.5-1.1-0.8c-0.4-0.2-0.8-0.6-1.2-0.7
				l-1.2-0.6c-0.8-0.3-1.6-0.6-2.5-0.8c-0.4-0.1-0.8-0.1-1.3-0.2c-0.4-0.1-0.8,0-1.2,0c-0.8,0.1-1.6,0.2-2.3,0.4
				c-0.7,0.2-1.4,0.5-2,0.8c-0.6,0.3-1.2,0.6-1.6,0.9c-0.5,0.3-0.9,0.6-1.2,0.9C883.5,917.7,883.1,918.1,883.1,918.1z"/>
		</g>
		
			<path fill="#3F4251" stroke="#3F4251" stroke-width="2.044" stroke-linecap="round" stroke-linejoin="round" stroke-miterlimit="10" d="
			M886.6,956.8c0,0,22.1-3,33-13c0,0-6.3,19.7-20.6,25c-14.3,5.3-20.4-11.2-20.4-11.2L886.6,956.8z"/>
		<path fill="#404041" d="M881.1,963.5c0,0,4.8,9.1,14.5,6.9c9.7-2.1,18.7-14.4,18.7-14.4S885.4,961.3,881.1,963.5z"/>
		<g>
			<path fill="#3F4251" d="M920.9,855.1c0,0,0.2-0.2,0.5-0.7c0.3-0.4,0.7-1,1.2-1.7c0.2-0.4,0.5-0.8,0.7-1.2
				c0.2-0.4,0.5-0.9,0.7-1.3c0.2-0.5,0.5-0.9,0.6-1.4l0.3-0.7l0.3-0.8c0.2-0.5,0.3-1,0.4-1.5c0.1-0.5,0.2-1,0.3-1.5
				c0.1-0.5,0.1-1,0.2-1.5c0.1-0.5,0.1-0.9,0.1-1.3c0-0.4,0.1-0.8,0.1-1.2c0-0.3,0-0.7,0-0.9c0-0.5,0-0.8,0-0.8s0.1,0.3,0.4,0.7
				c0.1,0.2,0.2,0.5,0.4,0.9c0.2,0.3,0.2,0.7,0.3,1.2c0.1,0.4,0.2,0.9,0.3,1.4c0,0.5,0.1,1.1,0.1,1.6c-0.1,0.6,0,1.2-0.2,1.8
				c-0.1,0.6-0.2,1.2-0.4,1.8l-0.3,0.9c-0.1,0.3-0.3,0.6-0.4,0.8c-0.2,0.6-0.6,1-0.9,1.5c-0.3,0.5-0.7,0.9-1,1.3
				c-0.3,0.4-0.7,0.7-1,1c-0.7,0.6-1.3,1-1.8,1.3C921.2,855,920.9,855.1,920.9,855.1z"/>
		</g>
		<g>
			<path fill="#3F4251" d="M926.9,854.2c0,0,0.9-0.9,2.7-1.6c0.4-0.2,0.9-0.4,1.5-0.5c0.5-0.2,1.1-0.3,1.7-0.4
				c0.6-0.1,1.2-0.1,1.9-0.2c0.6,0,1.3,0,1.9,0.1l1,0.2c0.3,0.1,0.6,0.2,0.9,0.3c0.6,0.2,1.2,0.5,1.7,0.8c0.6,0.2,1,0.7,1.5,1
				c0.2,0.2,0.4,0.3,0.6,0.5c0.2,0.2,0.3,0.4,0.5,0.6c0.3,0.4,0.6,0.7,0.8,1c0.2,0.3,0.4,0.6,0.5,0.9c0.3,0.5,0.4,0.8,0.4,0.8
				s-0.3-0.2-0.7-0.5c-0.2-0.2-0.5-0.4-0.8-0.6c-0.3-0.2-0.7-0.4-1-0.7c-0.4-0.2-0.8-0.5-1.2-0.7c-0.4-0.2-0.9-0.5-1.4-0.6
				c-0.2-0.1-0.5-0.2-0.8-0.3c-0.3-0.1-0.5-0.1-0.8-0.2c-0.3-0.1-0.5-0.1-0.8-0.2l-0.8-0.1c-0.5-0.1-1.1-0.1-1.7-0.2
				c-0.6,0-1.1-0.1-1.7,0c-0.5,0-1.1,0-1.6,0.1c-0.5,0-1,0.1-1.4,0.1c-0.9,0.1-1.6,0.2-2.2,0.3C927.2,854.2,926.9,854.2,926.9,854.2
				z"/>
		</g>
		<path fill="#3F4251" d="M912,887.4c3.3,2.8,6,7,18,3.7c14.8-4.1,15.3-23,13.2-27.6c-2.9-6.2-25-19.4-25-19.4
			c-26.7-5.7-26.4,17-26.4,17c0.1,0.3,0.3,0.7,0.4,1l0,0l-0.6,0.2l-0.1-0.2c0,0-50.7-12.8-74.6,39c-0.7,1.5-2.5,7.8,2.8,7.4
			c12.3-0.9,54.3,2.3,73.3-30.5c0,0,20.7,49.6,49,57.6c0,0-1.4-7.7-3.1-11.5C937.2,920.5,925.4,902.3,912,887.4z M914.6,887.9
			L914.6,887.9C914.6,887.7,914.6,887.9,914.6,887.9z"/>
		<g>
			<path fill="#E86380" d="M891.4,862.2c0,0,0.1,0.1,0.4,0.2c0.2,0.1,0.6,0.3,0.9,0.6c0.8,0.5,1.9,1.4,3.1,2.4
				c1.2,1,2.5,2.3,3.8,3.7c0.7,0.7,1.3,1.4,2,2.2c0.7,0.8,1.3,1.6,1.9,2.4c0.6,0.8,1.2,1.6,1.8,2.4c0.6,0.8,1.2,1.6,1.7,2.4
				c0.5,0.8,1,1.6,1.5,2.3c0.5,0.7,0.9,1.4,1.3,2.1c0.8,1.3,1.5,2.4,1.9,3.2c0.3,0.3,0.5,0.7,0.6,0.9c0.2,0.2,0.2,0.3,0.2,0.3
				s-0.1,0-0.4,0c-0.3,0-0.7-0.1-1.2-0.2c-0.5-0.2-1-0.3-1.7-0.6c-0.6-0.3-1.3-0.7-2-1.1c-0.7-0.4-1.4-0.9-2.2-1.5
				c-0.7-0.6-1.5-1.2-2.2-1.9c-0.7-0.7-1.5-1.4-2.2-2.2c-0.7-0.8-1.4-1.6-2-2.4c-0.6-0.8-1.3-1.7-1.8-2.5c-0.6-0.9-1.1-1.7-1.6-2.6
				c-1-1.7-1.8-3.4-2.4-4.9c-0.6-1.5-1-2.8-1.2-3.8c-0.1-0.5-0.2-0.9-0.2-1.1C891.4,862.4,891.4,862.2,891.4,862.2z"/>
		</g>
	</g>
	<g>
		<g>
			<path fill="#3F4251" d="M869.7,983.3c-0.8,6.8-2.1,13.4-3.8,20c-0.3,1,1.3,1.4,1.5,0.4c1.3-6.8,2.2-13.6,2.7-20.5
				C870.1,983,869.7,983,869.7,983.3L869.7,983.3z"/>
		</g>
	</g>
	<g>
		<g>
			<path fill="#3F4251" d="M898.1,981.3c0.8,7,2.6,14,6.1,20.2c0.5,1,2,0.1,1.5-0.9c-3.2-6.3-5.7-12.4-7-19.4
				C898.7,980.9,898.1,980.9,898.1,981.3L898.1,981.3z"/>
		</g>
	</g>
	<g>
		<g>
			<path fill="#3F4251" d="M864.9,995.4c-5.7,3.4-21.6,11.9-12.5,19.3c8.9,7.3,23,4.3,33.3,2.4c7.3-1.3,14.5-3.1,21.5-5.3
				c4.4-1.4,9.9-2.6,12.7-6.7c2.1-3.1,2.1-7.4-1-9.8c-4.2-3.2-10.4-1.4-15.2-1.8c-1-0.1-1.2,1.5-0.2,1.8c3.7,0.8,7.4-0.4,11,0.4
				c6.8,1.6,5.3,8,0.8,10.8c-1.6,1-3.3,1.5-5.1,2.1c-8.1,2.9-16.6,4.9-25,6.4c-8.1,1.5-17.6,3.5-25.7,1c-1.8-0.6-3.7-1.4-5.2-2.4
				c-4.2-2.8-2-6.9,0.9-9.6c3.2-3,6.6-5.6,10.3-8C865.8,995.9,865.4,995.2,864.9,995.4L864.9,995.4z"/>
		</g>
	</g>
	<g>
		<g>
			<path fill="#3F4251" d="M850.8,1005.8c-5.2,10.6-8.9,21.9-10.8,33.7c-0.9,5.4-1.3,10.9-1.4,16.5c0,2.5-0.5,5.9,2.3,6.8
				c1.1,0.3,1.8-1.3,0.8-1.9c-3-1.5-1.4-10.4-1.2-13.1c0.4-5.1,1-10.1,2.1-15.1c1.9-9.2,4.9-18,8.9-26.5
				C851.7,1005.7,851,1005.3,850.8,1005.8L850.8,1005.8z"/>
		</g>
	</g>
	<g>
		<g>
			<path fill="#3F4251" d="M913.1,1027.9c-5.7,2.3-11.6,4.1-17.6,5.5c-0.3,0.1-0.3,0.4-0.2,0.6c3.7,6.9,5.4,18.5,14.7,20.1
				c9.2,1.7,8.2-8.5,8.6-14.8c0-0.5-0.8-0.6-0.9-0.1c-0.9,5.1-0.1,15.4-8.1,13.6c-5.8-1.3-8.3-7.3-10.3-12.2c-0.5-1.2-1.4-2.8-1.7-4
				c-1-1-1-1.9,0-2.9c1.2-0.3,2.4-0.6,3.6-1C905.2,1031.4,909.2,1029.8,913.1,1027.9C913.2,1027.9,913.1,1027.9,913.1,1027.9
				L913.1,1027.9z"/>
		</g>
	</g>
	<g>
		<g>
			<path fill="#3F4251" d="M915.9,996.6c5,1,10.7,1.4,15.4,3.6c4.9,2.3,7.7,8.2,10.4,12.7c4.2,6.9,7.4,14.2,11.1,21.4
				c0.5,0.9,1.8,0.1,1.4-0.8c-3.9-9-8.6-17.8-13.9-26c-2.2-3.4-4.4-6.9-8.2-8.7c-4.7-2.1-11-2.1-16-2.7
				C915.6,996,915.6,996.5,915.9,996.6L915.9,996.6z"/>
		</g>
	</g>
	<g>
		<g>
			<path fill="#E86380" d="M861.1,1001.2c0.1,0,0.1-0.2,0-0.2C861,1001,861,1001.2,861.1,1001.2L861.1,1001.2z"/>
		</g>
	</g>
	<g>
		<g>
			<path fill="#E86380" d="M868,1044.5c5.2,0,5.2-8.1,0-8.1C862.8,1036.4,862.8,1044.5,868,1044.5L868,1044.5z"/>
		</g>
	</g>
</g>
<g>
	<g>
		<g>
			<path fill="#3F4251" d="M1302.8,1000.2c-7.2,8.6-16.6,14.9-23.8,23.5c-2.2,2.6-5.4,5.5-5.5,9.1c-0.1,2.7,0.5,5.4,0.2,8.1
				c-0.3,3.3-1.2,6.4-2.3,9.5c-0.5,1.4,1.7,2,2.3,0.6c1.8-4.3,2.8-8.9,2.8-13.5c0-2.8-0.8-4.9,0.6-7.4c1.5-2.7,3.9-5.2,5.9-7.6
				c3.5-4.1,7.3-7.9,11.2-11.6c3.4-3.1,7.2-6.2,9-10.5C1303.1,1000.3,1302.9,1000.1,1302.8,1000.2L1302.8,1000.2z"/>
		</g>
	</g>
	<g>
		<g>
			<path fill="#3F4251" d="M1397.5,1006.4c10.9,5.1,19.3,11.1,25.1,21.8c5.5,10.3,7.9,21.6,11.7,32.4c0.4,1.1,2,0.7,1.8-0.5
				c-2.5-11.7-6.9-24.5-13.1-34.8c-6-10-14.6-15.2-25.3-19.3C1397.4,1006,1397.3,1006.4,1397.5,1006.4L1397.5,1006.4z"/>
		</g>
	</g>
	<g>
		<g>
			<path fill="#3F4251" d="M1307.3,1009.4c0.1-0.4,0.3-0.8,0.6-1.1c-0.1-0.1-0.3-0.2-0.4-0.2c-0.3,1.1-1.3,2.1-2,2.9
				c-0.7,0.9-1.5,1.8-2.1,2.9c-0.5,0.8,0.7,1.9,1.4,1.1c0.9-1.2,1.6-2.5,2.3-3.8c0.6-1,1.1-1.8,0.9-3c0-0.2-0.4-0.2-0.5-0.1
				c-0.2,0.5-0.3,0.9-0.3,1.4C1307.2,1009.5,1307.3,1009.5,1307.3,1009.4L1307.3,1009.4z"/>
		</g>
	</g>
	<g>
		<g>
			<path fill="#3F4251" d="M1310.6,1010.5c-1.2,2.1-2.7,4.1-3.8,6.3c-0.4,0.9,0.8,1.6,1.3,0.8c1.4-2.1,2.2-4.5,3.2-6.8
				C1311.4,1010.3,1310.8,1010.1,1310.6,1010.5L1310.6,1010.5z"/>
		</g>
	</g>
	<g>
		<g>
			<path fill="none" stroke="#3F4251" stroke-width="2.044" stroke-miterlimit="10" d="M1395.9,907.3c-1.2,10-1.8,20.3-4.7,22.3
				c-1.4,0.9-2.8,1.1-3.9,1c-0.5,6.2-1.1,11-1.9,12.8c-3.3,7.4-18.1,34.5-41.4,33.9c-23.1-0.5-43.2-25.2-43.7-42.7
				c-0.1,1.1-0.2,1.8-0.2,1.8s-0.1,0.9-3,0.2c-4-1.1-4.5-27.8-2.3-34.4c2-6.2,4.1-7.7,6.4-2.6c0.7-11.8-0.2-25.9,1.9-27.1
				c4.1-2.3,28.4-11.4,28.4-11.4h45.5l12,19.4c0,0,0,10.7-0.4,23.3C1389.9,902.9,1396.9,898.2,1395.9,907.3z"/>
			<path fill="#3F4251" d="M1366.7,860.3c0,0,18.1-14.2,28.6,12.1c9.8,24.6-4.9,31.7-4.9,31.7s-1.8-21.4-9.6-23.8
				c-4.5-1.4-15.2-4.1-16.5-9.2C1362.8,865,1366.7,860.3,1366.7,860.3z"/>
			<path fill="#3F4251" d="M1367.8,848.1c0,0-41.4-20-68.1,2.2c-15.1,12.6-23.3,43.5,10.1,46.3c0,0-4.7-10.3-2.5-17.3
				c2.5-7.8,37.2-0.2,49.8-4.6C1369.7,870.3,1373.5,849.8,1367.8,848.1z"/>
			<g>
				<path fill="#3F4251" d="M1318.8,896.1c0,0,0-0.2,0-0.6c0-0.2,0.1-0.4,0.2-0.7c0.1-0.2,0.2-0.5,0.3-0.8c0.1-0.3,0.3-0.6,0.6-0.9
					c0.2-0.3,0.5-0.6,0.9-0.9c0.3-0.3,0.7-0.5,1.2-0.7c0.4-0.2,0.9-0.3,1.4-0.4c0.5,0,0.9-0.1,1.4-0.1c0.4,0.1,0.9,0.1,1.3,0.2
					c0.4,0.1,0.8,0.3,1.1,0.4c0.3,0.2,0.6,0.4,0.9,0.5c0.3,0.2,0.5,0.4,0.7,0.5c0.2,0.2,0.4,0.3,0.5,0.5c0.3,0.3,0.4,0.4,0.4,0.4
					s-0.2,0-0.6-0.1c-0.4,0-0.9-0.2-1.4-0.3c-0.3,0-0.6-0.1-0.9-0.2c-0.3,0-0.7-0.1-1-0.1c-0.3-0.1-0.7,0-1,0c-0.3,0-0.7,0.1-1,0.1
					c-0.3,0.1-0.7,0.1-1,0.3l-0.5,0.2c-0.1,0.1-0.3,0.2-0.4,0.2c-0.3,0.1-0.6,0.3-0.8,0.5c-0.3,0.2-0.5,0.4-0.7,0.5
					c-0.4,0.4-0.8,0.7-1.1,1C1319,896,1318.8,896.1,1318.8,896.1z"/>
			</g>
			<g>
				<path fill="#3F4251" d="M1366.1,888.2c0,0,0.2-0.1,0.6-0.2c0.2-0.1,0.4-0.1,0.7-0.2c0.3,0,0.6-0.1,0.9-0.1c0.3,0,0.7,0,1.1,0.1
					c0.4,0.1,0.8,0.2,1.2,0.4c0.4,0.2,0.8,0.4,1.2,0.7c0.4,0.3,0.7,0.7,1,1c0.2,0.4,0.5,0.8,0.7,1.2c0.2,0.4,0.4,0.8,0.4,1.3
					c0.1,0.4,0.1,0.8,0.2,1.2c0,0.4,0,0.7-0.1,1.1c0,0.3-0.1,0.6-0.1,0.9c-0.1,0.3-0.1,0.5-0.2,0.7c-0.1,0.4-0.2,0.6-0.2,0.6
					s-0.1-0.2-0.2-0.6c-0.1-0.3-0.2-0.8-0.4-1.4c-0.1-0.3-0.2-0.6-0.3-0.9c-0.1-0.3-0.2-0.6-0.4-0.9c-0.1-0.3-0.3-0.6-0.5-0.9
					c-0.2-0.3-0.4-0.6-0.6-0.8c-0.2-0.2-0.4-0.5-0.7-0.7l-0.4-0.3c-0.1-0.1-0.3-0.2-0.4-0.3c-0.3-0.2-0.5-0.3-0.8-0.5
					c-0.3-0.1-0.5-0.3-0.8-0.4c-0.5-0.2-1-0.4-1.4-0.5C1366.3,888.2,1366.1,888.2,1366.1,888.2z"/>
			</g>
			<path fill="#3F4251" d="M1357.9,905c0,1.8-1.5,2.6-3.4,2.6c-1.9,0-3.4-0.8-3.4-2.6c0-1.8,1.5-3.3,3.4-3.3
				C1356.4,901.7,1357.9,903.2,1357.9,905z"/>
			<path fill="#3F4251" d="M1334.6,906.8c0,1.8-1.5,2.5-3.4,2.5c-1.9,0-3.4-0.7-3.4-2.5c0-1.8,1.5-3.3,3.4-3.3
				C1333.1,903.5,1334.6,905,1334.6,906.8z"/>
			<path fill="#404041" d="M1347.2,939.4c9.3-2.2,16.9-8.6,22.4-2.7c8.4,9.1-7.3,24.4-20.7,25.3c-13.3,0.9-24.8,1.4-26.3-11.6
				C1321.5,939.9,1337.9,941.6,1347.2,939.4z"/>
			<path fill="#3F4251" d="M1328.3,960.1c0,0,1.8-5.2,19.4-8.4c17.5-3.2,20.3,0,20.3,0S1355.8,968.9,1328.3,960.1z"/>
			<g>
				<path fill="#3F4251" d="M1339.2,892.4c0,0,0.1,0.2,0.3,0.5c0.2,0.3,0.5,0.8,0.8,1.4c0.3,0.6,0.7,1.4,1,2.3
					c0.3,0.9,0.6,2,0.8,3.2c0.4,2.4,0.2,5.3-0.3,8.3c-0.5,3-1.5,6.1-2.6,9.1c-0.5,1.5-1.1,3-1.5,4.4c-0.3,0.8-0.3,1.1,0,1.6
					c0.3,0.5,0.8,0.8,1.3,0.9c0.3,0.1,0.5,0.1,0.9,0c0.4,0,0.8,0,1.1,0c0.7,0,1.4,0,2.1,0c1.4,0,2.6,0,3.8-0.1
					c1.2-0.1,2.2-0.4,3.1-0.7c0.9-0.3,1.6-0.7,2.1-1.2c0.5-0.4,0.9-0.8,1.1-1.1c0.2-0.3,0.3-0.5,0.3-0.5s-0.1,0.2-0.3,0.5
					c-0.2,0.3-0.5,0.8-1,1.3c-0.5,0.5-1.2,1.1-2.1,1.5c-0.9,0.5-2,0.8-3.2,1c-1.2,0.2-2.5,0.3-3.9,0.4c-0.7,0-1.4,0-2.1,0.1
					c-0.4,0-0.7,0-1,0.1c-0.3,0-0.8,0.1-1.3,0c-0.9-0.2-1.8-0.7-2.3-1.6c-0.3-0.4-0.4-0.9-0.4-1.5c0-0.6,0.2-0.9,0.3-1.3
					c0.5-1.5,1-3,1.6-4.5c1.1-3,2.1-5.9,2.7-8.8c0.6-2.9,0.9-5.6,0.7-7.9c-0.1-1.2-0.2-2.2-0.5-3.2c-0.2-0.9-0.5-1.7-0.7-2.4
					c-0.3-0.6-0.5-1.1-0.7-1.5C1339.3,892.5,1339.2,892.4,1339.2,892.4z"/>
			</g>
			<g>
				<g>
					<path fill="#3F4251" d="M1326.8,972.7c-1.8,2.2-2.3,5.2-3.2,7.9c-1.1,3.5-2.5,7.1-3.3,10.7c-0.3,1.3,1.6,1.8,2,0.6
						c1.2-3.3,2-6.7,2.9-10.1c0.8-2.9,2.1-5.9,1.8-9C1327.1,972.7,1326.9,972.6,1326.8,972.7L1326.8,972.7z"/>
				</g>
			</g>
			<g>
				<g>
					<path fill="#3F4251" d="M1366.6,967.8c3.1,5.8,6.1,11.5,7.7,17.9c0.4,1.5,2.7,0.8,2.3-0.6
						C1374.6,978.6,1371.7,972.4,1366.6,967.8C1366.6,967.7,1366.6,967.8,1366.6,967.8L1366.6,967.8z"/>
				</g>
			</g>
		</g>
		<g>
			<g>
				<path fill="#BFD749" d="M1346.4,1053.8c18.8-5.5,36-15.2,50.3-28.7c-4-3.1-8-6.2-12-9.3c-4.1,9-13,13.6-21.3,18.2
					c2.6,4.4,5.2,8.8,7.7,13.2c13.7-8,25.3-18.9,34-32.2c-4.4,0-8.8,0-13.2,0c4.9,6.7,10,13.3,14.7,20.2c4,5.9,8,12.3,8.8,19.6
					c5-0.7,10-1.4,15.1-2c-3.7-10.2-8.3-24-18.4-29.9c-2.6-1.5-5.6-2.3-8.6-2.2c-1.2,0-2.5,0.3-3.7,0.6c-2.1,0.5,2.1,0.1,2.4,0.2
					c-3.1-1.2-7.1,0.8-8.7,3.5c-1.8,3.2-0.9,6.6,1.2,9.3c2.1,2.6,4.1,5.3,5.9,8.1c0.9,1.4,1.8,2.9,2.5,4.4c0.2,0.4,0.4,0.9,0.6,1.3
					c0.5,1.8,0.5,1.6,0.2-0.5c0.7-1.1,1.3-2.3,2-3.4c0.7-0.9-0.2,0.1-0.9,0.4c-0.7,0.4-1.5,0.7-2.2,1.2c-2.5,1.6-4.2,3.6-5.8,5.9
					c4.7,0.6,9.3,1.2,14,1.8c-2.1-9.2-8.3-16.8-16.8-20.8c-4.8-2.2-12.1,0.3-11.5,6.6c0.6,7.1,1.9,14.1,4.2,20.9
					c4.3-2.5,8.5-5,12.8-7.5c-2.2-2.1-4-4.4-5.1-7.3c-3.2-8.3-14-6.7-15.1,2c-0.5,4.6-1.1,9.2-1.6,13.9c-0.5,4.1,3.9,7.7,7.7,7.7
					c4.5,0,7.2-3.5,7.7-7.7c0.5-4.6,1.1-9.2,1.6-13.9c-5,0.7-10,1.4-15.1,2c2.1,5.4,4.9,10,9.1,14.1c5.2,5.1,15.4,0.1,12.8-7.5
					c-1.9-5.5-3.2-11-3.7-16.8c-3.8,2.2-7.7,4.4-11.5,6.6c5.2,2.4,8.5,6,9.8,11.6c1.6,6.9,10.5,6.9,14,1.8c1.3-1.8,4.4-2.3,6.1-3.9
					c2.7-2.6,3.4-6.3,2.6-9.8c-1.8-8.4-8.2-15.7-13.4-22.3c-2.5,4.3-5,8.5-7.5,12.8c1.9,0.8,4.1,0.2,6-0.2c1.9-0.4-1.8,0.1,0,0
					c1.4,0-0.2,0.1-0.6-0.1c0.3,0.2,1.7,0.8,0.7,0.1c-1.2-0.8,0.5,0.3,0.6,0.4c0.4,0.3,0.3,0.2-0.4-0.3c0.3,0.3,0.7,0.6,1,0.9
					c1.2,1.3,1.6,1.6,2.5,3.1c3.4,5.2,5.7,11,7.8,16.8c2.7,7.5,16,7.1,15.1-2c-2-18.6-14.9-32.9-25.6-47.5c-3.4-4.7-9.9-5.1-13.2,0
					c-7.2,11.1-17,20.1-28.5,26.7c-8.5,5-0.9,18,7.7,13.2c10.4-5.7,21.6-12.4,26.8-23.7c3.5-7.7-5.4-15.6-12-9.3
					c-12.4,11.6-27.3,20-43.6,24.7C1332.9,1041.8,1336.9,1056.6,1346.4,1053.8L1346.4,1053.8z"/>
			</g>
		</g>
		<g>
			<g>
				<path fill="#3F4251" d="M1320.9,992c8.2,7,20.2,11.1,30.2,14.9c-0.2-0.6-0.3-1.3-0.5-1.9c-5.6,5.6-4,14.2-8.3,20.5
					c0.7,0,1.4,0,2,0c-1.4-2.1-3.2-3.2-5.4-4.3c-4-2.2-8.1-4.2-12-6.6c-7.9-4.9-15.5-10.3-22.7-16.2c-0.1,0.9-0.2,1.9-0.4,2.8
					c5.4-4,10.5-8.3,15.4-12.9c-0.8,0.1-1.5,0.2-2.3,0.3c2,1.1,3.5,2.4,5,4c1.5,1.7,4-0.8,2.5-2.5c-1.6-2-3.4-3.4-5.6-4.7
					c-0.7-0.4-1.6-0.3-2.3,0.3c-4.8,4.4-9.8,8.7-14.9,12.7c-1,0.8-0.5,2.2,0.4,2.8c6.3,4.8,12.8,9.3,19.6,13.3
					c3.1,1.9,6.3,3.6,9.6,5.4c3.5,1.9,8.7,3.5,11,6.8c0.5,0.7,1.5,0.8,2,0c4.1-6.1,2.6-14.7,7.9-20c0.7-0.7,0.3-1.6-0.5-1.9
					c-5.7-2.2-11.3-4.5-16.8-7.1c-4.5-2-8.9-4.7-13.6-6.2C1320.9,991.4,1320.6,991.8,1320.9,992L1320.9,992z"/>
			</g>
		</g>
		<g>
			<g>
				<path fill="#3F4251" d="M1353.2,1005.6c2.1,4.9,3.6,10.1,5.1,15.2c0.2,0.6,0.7,0.7,1.2,0.5c5.4-2.4,10.8-4.9,16.2-7.3
					c4.6-2.1,9.2-4.1,13.9-6c1.6-0.7,5.8-1.4,6.4-3.4c0.4-1.4-0.5-2.4-1.3-3.3c-2.5-3.2-4.5-6-5.8-9.9c-1-2.8-1.6-4.7-4.8-3
					c-2.6,1.3-4.8,3.3-7.4,4.6c-3.3,1.7-6.7,3-10.3,4c-2.4,0.7-4.9,1.2-7.2,2.4c-2.5,1.3-3.7,3.8-5.9,5.3c-0.8,0.5-0.3,2,0.7,1.6
					c1.6-0.5,1.4-0.5,2.6-1.8c2.7-2.8,5.2-4,8.9-5.1c4.5-1.3,8.8-2.8,12.9-5.1c1.9-1,4.1-3.3,6.1-3.9c2.9-0.8,2.7,2.6,3.5,4.6
					c0.8,1.9,1.9,3.7,3.2,5.4c1.9,2.5,2.6,3.5-0.4,5.1c-10.4,5.4-21.8,9.1-32.3,14.4c0.4,0.2,0.8,0.3,1.2,0.5
					c-1.8-5-3.4-10.5-6.4-15C1353.4,1005.2,1353.1,1005.4,1353.2,1005.6L1353.2,1005.6z"/>
			</g>
		</g>
		<g>
			<g>
				<path fill="#3F4251" d="M1300.6,1006.7c-0.1-0.7-0.7-1.1-1.4-0.7c-2.5,1.5,2,8.7,2.9,10c6.9,9.6,19.4,14.1,30.6,16
					c12.6,2.1,26.8,2.1,38.9-2.2c9.7-3.5,20.2-11.4,22.1-22.2c0.2-1.2-1.3-1.6-1.8-0.5c-3.4,8.5-8.5,14.9-17,19
					c-9.3,4.4-19.9,5.2-30.1,4.9c-9.1-0.2-18.3-1.6-26.8-5.3c-4.2-1.8-8.3-4.2-11.8-7.3c-1.8-1.6-3.4-3.4-4.6-5.4
					c-0.7-1.2-1.3-2.4-1.8-3.7c-0.8-1-0.6-1.8,0.6-2.4C1300.4,1006.8,1300.6,1006.8,1300.6,1006.7L1300.6,1006.7z"/>
			</g>
		</g>
		<g>
			<g>
				<path fill="#3F4251" d="M1302.3,1002.5c9.5,14,25.9,22.7,42.5,25c8.5,1.2,17.6,0.8,25.9-1.9c8.9-2.9,14.8-9.6,19.1-17.6
					c0.5-0.9-0.8-1.6-1.3-0.8c-2.7,3.9-5,8-8.5,11.2c-3.7,3.4-8.2,5.3-13.1,6.5c-8,2-16.6,2-24.7,0.6c-15.7-2.8-29.1-11.3-39.7-23
					C1302.4,1002.3,1302.2,1002.4,1302.3,1002.5L1302.3,1002.5z"/>
			</g>
		</g>
		<g>
			<g>
				<path fill="#3F4251" d="M1354.1,1015.4c0.3-0.5-0.4-1-0.8-1.2c-0.6-0.3-1.3-0.3-1.9,0c-0.2,0.1-0.3,0.4-0.2,0.6
					c0.1,0.8,0.5,1.4,1.2,1.8c0.7,0.4,1.3-0.6,0.6-1c-0.4-0.2-0.7-0.6-0.8-1c-0.1,0.2-0.2,0.4-0.2,0.6c0.4-0.3,0.8-0.3,1.2-0.2
					C1353.5,1015,1353.7,1015.4,1354.1,1015.4C1354.1,1015.5,1354.1,1015.5,1354.1,1015.4L1354.1,1015.4z"/>
			</g>
		</g>
		<g>
			<g>
				<path fill="#3F4251" d="M1314.6,1015.3c0-0.1,0-0.2,0-0.4c0-0.1-0.2-0.2-0.3-0.1c-0.8,1-1.2,2.2-1.8,3.3
					c-0.5,1.2-1.2,2.4-1.5,3.7c-0.2,0.9,1.1,1.6,1.6,0.7c0.6-1.2,0.9-2.5,1.2-3.8c0.3-1.2,0.8-2.5,0.8-3.7c-0.1,0-0.2,0.1-0.3,0.1
					c0.1,0.1,0.1,0.2,0.2,0.3C1314.5,1015.4,1314.6,1015.3,1314.6,1015.3L1314.6,1015.3z"/>
			</g>
		</g>
		<g>
			<g>
				<path fill="#3F4251" d="M1316.7,1017.9c0.5,0.7-0.1,2-0.3,2.7c-0.2,0.9-0.5,1.7-0.5,2.6c0,0.7,1.1,1.1,1.4,0.4
					c0.5-1.2,0.5-2.5,0.7-3.8c0.1-1,0.2-1.8-0.4-2.6C1317.2,1016.7,1316.4,1017.3,1316.7,1017.9L1316.7,1017.9z"/>
			</g>
		</g>
		<g>
			<g>
				<path fill="#3F4251" d="M1320,1018.6c0,1.2-0.1,2.3-0.3,3.5c-0.1,1.1-0.5,2.1-0.5,3.2c0,1,1.3,1.1,1.6,0.2
					c0.8-2,0.5-4.7,0.4-6.9C1321.2,1017.8,1320,1017.8,1320,1018.6L1320,1018.6z"/>
			</g>
		</g>
		<g>
			<g>
				<path fill="#3F4251" d="M1323.9,1020.6c0.1,1.9,0,4,0.5,5.8c0.2,0.9,1.3,0.6,1.4-0.2c0.2-1.8-0.2-3.8-0.4-5.6
					C1325.4,1019.7,1323.9,1019.6,1323.9,1020.6L1323.9,1020.6z"/>
			</g>
		</g>
		<g>
			<g>
				<path fill="#3F4251" d="M1327.9,1022c-0.2,1.7-0.1,3.5,0.2,5.2c0.2,0.9,1.6,0.5,1.4-0.4c-0.3-1.6-0.5-3.2-0.4-4.8
					C1329.2,1021.2,1328,1021.3,1327.9,1022L1327.9,1022z"/>
			</g>
		</g>
		<g>
			<g>
				<path fill="#3F4251" d="M1332.9,1024.9c0.2,1.3,0.4,2.6,0.5,4c0.1,1.1,1.7,0.6,1.6-0.4c-0.2-1.3-0.4-2.6-0.5-4
					C1334.3,1023.4,1332.7,1023.9,1332.9,1024.9L1332.9,1024.9z"/>
			</g>
		</g>
		<g>
			<g>
				<path fill="#3F4251" d="M1337.4,1025.5c-0.1,1.4-0.4,2.9-0.4,4.3c0,0.8,1.3,1.1,1.4,0.2c0.2-1.5,0.1-3,0.1-4.5
					C1338.6,1024.7,1337.5,1024.7,1337.4,1025.5L1337.4,1025.5z"/>
			</g>
		</g>
		<g>
			<g>
				<path fill="#3F4251" d="M1341.3,1026.5c0.1,1.3,0.4,3,1.5,3.8c0.4,0.3,1-0.2,0.8-0.6c-0.2-0.5-0.6-0.9-0.8-1.4
					c-0.3-0.6-0.4-1.2-0.5-1.8C1342.3,1025.8,1341.2,1025.8,1341.3,1026.5L1341.3,1026.5z"/>
			</g>
		</g>
		<g>
			<g>
				<path fill="#3F4251" d="M1346.2,1027.5c0.1,0.9,0.1,1.9,0.2,2.8c0.1,0.8,1.4,0.8,1.3,0c-0.1-0.9-0.2-1.9-0.3-2.8
					C1347.3,1026.8,1346.2,1026.8,1346.2,1027.5L1346.2,1027.5z"/>
			</g>
		</g>
		<g>
			<g>
				<path fill="#3F4251" d="M1350.5,1027.4c0,0.8,0,1.7,0.2,2.5c0.2,0.6,1.2,0.6,1.2-0.2c0-0.8-0.2-1.5-0.3-2.3
					C1351.6,1026.7,1350.5,1026.7,1350.5,1027.4L1350.5,1027.4z"/>
			</g>
		</g>
		<g>
			<g>
				<path fill="#3F4251" d="M1354.9,1027.3c0,0.8,0,1.6-0.1,2.4c0,0.8,1.3,0.8,1.3,0c0-0.8,0-1.6-0.1-2.4
					C1356.1,1026.5,1354.9,1026.5,1354.9,1027.3L1354.9,1027.3z"/>
			</g>
		</g>
		<g>
			<g>
				<path fill="#3F4251" d="M1358.2,1028.2c0,0.7,0.1,1.4,0.3,2.1c0.3,0.8,1.5,0.3,1.1-0.5c-0.2-0.5-0.4-1-0.4-1.6
					C1359.2,1027.5,1358.2,1027.5,1358.2,1028.2L1358.2,1028.2z"/>
			</g>
		</g>
		<g>
			<g>
				<path fill="#3F4251" d="M1362.2,1027.9c0.1,0.6,0.3,1.3,0.4,1.9c0.1,0.7,1.2,0.4,1-0.3c-0.1-0.6-0.2-1.3-0.4-1.9
					C1363.2,1026.9,1362.1,1027.2,1362.2,1027.9L1362.2,1027.9z"/>
			</g>
		</g>
		<g>
			<g>
				<path fill="#3F4251" d="M1366.6,1026.1c0,0.9,0.2,1.8,0.5,2.7c0.3,0.8,1.5,0.3,1.1-0.5c-0.4-0.8-0.6-1.5-0.8-2.4
					C1367.3,1025.6,1366.6,1025.7,1366.6,1026.1L1366.6,1026.1z"/>
			</g>
		</g>
		<g>
			<g>
				<path fill="#3F4251" d="M1370,1025.4c0,0.8,0.2,1.5,0.4,2.3c0.2,0.6,1,0.2,0.8-0.3c-0.3-0.6-0.4-1.3-0.5-2
					C1370.6,1025,1370,1024.9,1370,1025.4L1370,1025.4z"/>
			</g>
		</g>
		<g>
			<g>
				<path fill="#3F4251" d="M1372.8,1024.1c0.2,0.6,0.4,1.2,0.6,1.8c0.2,0.9,1.7,0.5,1.4-0.4c-0.2-0.7-0.5-1.3-0.8-2
					C1373.7,1023,1372.6,1023.4,1372.8,1024.1L1372.8,1024.1z"/>
			</g>
		</g>
		<g>
			<g>
				<path fill="#3F4251" d="M1376.1,1023.1c0.1,0.5,0.2,1,0.6,1.4c0.3,0.4,0.9,0.1,0.9-0.4c0-0.5-0.2-0.9-0.4-1.3
					C1377,1022.1,1375.9,1022.4,1376.1,1023.1L1376.1,1023.1z"/>
			</g>
		</g>
		<g>
			<g>
				<path fill="#3F4251" d="M1380.6,1021.3c0,0.4-0.1,0.9-0.1,1.3c0,0.5,0.8,0.5,0.8,0c0.1-0.4,0.1-0.9,0.2-1.3
					C1381.6,1020.7,1380.6,1020.7,1380.6,1021.3L1380.6,1021.3z"/>
			</g>
		</g>
	</g>
</g>
<path fill="#F79B36" d="M606.3-72.4c2-0.1,3.8,0.7,3.9,1.9c0.4,5.8,1.7,22.8,2,36.5c0.1,5.9-2.5,4.2-3.9,3.4
	c-1.8-1.1-1.2-21.3-2.3-26.3c-1-4.5-1.3-8.6-1.3-10.8c0-0.9-1.5-1.7-3.2-1.6c-12.3,0.6-56.1,2.5-66.1,3.4
	c-41.6,3.6-80.5,3.8-122.6,5.1c-85.8,2.6-172.9,1.2-258-0.8c-41.2-1-78.6-2.8-119.8-0.9c-9.6,0.5-18.5,1.4-21.8,1.8
	c-0.8,0.1-1.4,0.5-1.5,0.9c-1.1,4.5-6.6,27.7-3.1,37c1,2.7-1.5,3.2-4.4,1c-1.9-1.5,0.9-32.7,1.6-40.8c0.1-1.1,1.7-1.9,3.7-2
	c19.8-0.3,118.4-1.6,160.8,0.6c78.9,4,155.1,3,234.4,0.4c38.3-1.3,75.8,0.6,113.5-3.6C526.7-68.1,590.2-71.5,606.3-72.4"/>
<path fill="#F79B36" d="M606.3-72.4c2-0.1,3.8,0.7,3.9,1.9c0.4,5.8,1.7,22.8,2,36.5c0.1,5.9-2.5,4.2-3.9,3.4
	c-1.8-1.1-1.2-21.3-2.3-26.3c-1-4.5-1.3-8.6-1.3-10.8c0-0.9-1.5-1.7-3.2-1.6c-12.3,0.6-56.1,2.5-66.1,3.4
	c-41.6,3.6-80.5,3.8-122.6,5.1c-85.8,2.6-172.9,1.2-258-0.8c-41.2-1-78.6-2.8-119.8-0.9c-9.6,0.5-18.5,1.4-21.8,1.8
	c-0.8,0.1-1.4,0.5-1.5,0.9c-1.1,4.5-6.6,27.7-3.1,37c1,2.7-1.5,3.2-4.4,1c-1.9-1.5,0.9-32.7,1.6-40.8c0.1-1.1,1.7-1.9,3.7-2
	c19.8-0.3,118.4-1.6,160.8,0.6c78.9,4,155.1,3,234.4,0.4c38.3-1.3,75.8,0.6,113.5-3.6C526.7-68.1,590.2-71.5,606.3-72.4z"/>
<path fill="#F79B36" d="M-46.7-20.4c-16.1-0.9-79.6-4.3-88.1-5.2c-37.7-4.2-75.2-2.3-113.5-3.6c-79.3-2.6-155.5-3.6-234.4,0.4
	c-42.4,2.2-141,0.9-160.8,0.6c-2-0.1-3.6-0.9-3.7-2c-0.7-8.1-3.5-39.3-1.6-40.8c2.9-2.2,5.4-1.7,4.4,1c-3.5,9.3,2,32.5,3.1,37
	c0.1,0.4,0.7,0.8,1.5,0.9c3.3,0.4,12.2,1.3,21.8,1.8c41.2,1.9,78.6,0.1,119.8-0.9c85.1-2,172.2-3.4,258-0.8
	c42.1,1.3,81,1.5,122.6,5.1c10,0.9,53.8,2.8,66.1,3.4c1.7,0.1,3.2-0.7,3.2-1.6c0-2.2,0.3-6.3,1.3-10.8c1.1-5,0.5-25.2,2.3-26.3
	c1.4-0.8,4-2.5,3.9,3.4c-0.3,13.7-1.6,30.7-2,36.5C-42.9-21.1-44.7-20.3-46.7-20.4"/>
<path fill="#F79B36" d="M-134.8-25.6c-37.7-4.2-75.2-2.3-113.5-3.6c-79.3-2.6-155.5-3.6-234.4,0.4c-42.4,2.2-141,0.9-160.8,0.6
	c-2-0.1-3.6-0.9-3.7-2c-0.7-8.1-3.5-39.3-1.6-40.8c2.9-2.2,5.4-1.7,4.4,1c-3.5,9.3,2,32.5,3.1,37c0.1,0.4,0.7,0.8,1.5,0.9
	c3.3,0.4,12.2,1.3,21.8,1.8c41.2,1.9,78.6,0.1,119.8-0.9c85.1-2,172.2-3.4,258-0.8c42.1,1.3,81,1.5,122.6,5.1
	c10,0.9,53.8,2.8,66.1,3.4c1.7,0.1,3.2-0.7,3.2-1.6c0-2.2,0.3-6.3,1.3-10.8c1.1-5,0.5-25.2,2.3-26.3c1.4-0.8,4-2.5,3.9,3.4
	c-0.3,13.7-1.6,30.7-2,36.5c-0.1,1.2-1.9,2-3.9,1.9C-62.8-21.3-126.3-24.7-134.8-25.6z"/>
<path fill="#FFCE1C" d="M606.3,2.6c2-0.1,3.8,0.7,3.9,1.9c0.4,5.8,1.7,22.8,2,36.5c0.1,5.9-2.5,4.2-3.9,3.4
	c-1.8-1.1-1.2-21.3-2.3-26.3c-1-4.5-1.3-8.6-1.3-10.8c0-0.9-1.5-1.7-3.2-1.6c-12.3,0.6-56.1,2.5-66.1,3.4
	c-41.6,3.6-80.5,3.8-122.6,5.1c-85.8,2.6-172.9,1.2-258-0.8c-41.2-1-78.6-2.8-119.8-0.9c-9.6,0.5-18.5,1.4-21.8,1.8
	c-0.8,0.1-1.4,0.5-1.5,0.9c-1.1,4.5-6.6,27.7-3.1,37c1,2.7-1.5,3.2-4.4,1c-1.9-1.5,0.9-32.7,1.6-40.8c0.1-1.1,1.7-1.9,3.7-2
	c19.8-0.3,118.4-1.6,160.8,0.6c78.9,4,155.1,3,234.4,0.4c38.3-1.3,75.8,0.6,113.5-3.6C526.7,6.9,590.2,3.5,606.3,2.6"/>
<path fill="#FFCE1C" d="M606.3,2.6c2-0.1,3.8,0.7,3.9,1.9c0.4,5.8,1.7,22.8,2,36.5c0.1,5.9-2.5,4.2-3.9,3.4
	c-1.8-1.1-1.2-21.3-2.3-26.3c-1-4.5-1.3-8.6-1.3-10.8c0-0.9-1.5-1.7-3.2-1.6c-12.3,0.6-56.1,2.5-66.1,3.4
	c-41.6,3.6-80.5,3.8-122.6,5.1c-85.8,2.6-172.9,1.2-258-0.8c-41.2-1-78.6-2.8-119.8-0.9c-9.6,0.5-18.5,1.4-21.8,1.8
	c-0.8,0.1-1.4,0.5-1.5,0.9c-1.1,4.5-6.6,27.7-3.1,37c1,2.7-1.5,3.2-4.4,1c-1.9-1.5,0.9-32.7,1.6-40.8c0.1-1.1,1.7-1.9,3.7-2
	c19.8-0.3,118.4-1.6,160.8,0.6c78.9,4,155.1,3,234.4,0.4c38.3-1.3,75.8,0.6,113.5-3.6C526.7,6.9,590.2,3.5,606.3,2.6z"/>
<path fill="#FFCE1C" d="M-46.7,54.6c-16.1-0.9-79.6-4.3-88.1-5.2c-37.7-4.2-75.2-2.3-113.5-3.6c-79.3-2.6-155.5-3.6-234.4,0.4
	c-42.4,2.2-141,0.9-160.8,0.6c-2-0.1-3.6-0.9-3.7-2c-0.7-8.1-3.5-39.3-1.6-40.8c2.9-2.2,5.4-1.7,4.4,1c-3.5,9.3,2,32.5,3.1,37
	c0.1,0.4,0.7,0.8,1.5,0.9c3.3,0.4,12.2,1.3,21.8,1.8c41.2,1.9,78.6,0.1,119.8-0.9c85.1-2,172.2-3.4,258-0.8
	c42.1,1.3,81,1.5,122.6,5.1c10,0.9,53.8,2.8,66.1,3.4c1.7,0.1,3.2-0.7,3.2-1.6c0-2.2,0.3-6.3,1.3-10.8c1.1-5,0.5-25.2,2.3-26.3
	c1.4-0.8,4-2.5,3.9,3.4c-0.3,13.7-1.6,30.7-2,36.5C-42.9,53.9-44.7,54.7-46.7,54.6"/>
<path fill="#FFCE1C" d="M-134.8,49.4c-37.7-4.2-75.2-2.3-113.5-3.6c-79.3-2.6-155.5-3.6-234.4,0.4c-42.4,2.2-141,0.9-160.8,0.6
	c-2-0.1-3.6-0.9-3.7-2c-0.7-8.1-3.5-39.3-1.6-40.8c2.9-2.2,5.4-1.7,4.4,1c-3.5,9.3,2,32.5,3.1,37c0.1,0.4,0.7,0.8,1.5,0.9
	c3.3,0.4,12.2,1.3,21.8,1.8c41.2,1.9,78.6,0.1,119.8-0.9c85.1-2,172.2-3.4,258-0.8c42.1,1.3,81,1.5,122.6,5.1
	c10,0.9,53.8,2.8,66.1,3.4c1.7,0.1,3.2-0.7,3.2-1.6c0-2.2,0.3-6.3,1.3-10.8c1.1-5,0.5-25.2,2.3-26.3c1.4-0.8,4-2.5,3.9,3.4
	c-0.3,13.7-1.6,30.7-2,36.5c-0.1,1.2-1.9,2-3.9,1.9C-62.8,53.7-126.3,50.3-134.8,49.4z"/>
<path fill="#E53F26" d="M606.3,77.6c2-0.1,3.8,0.7,3.9,1.9c0.4,5.8,1.7,22.8,2,36.5c0.1,5.9-2.5,4.2-3.9,3.4
	c-1.8-1.1-1.2-21.3-2.3-26.3c-1-4.5-1.3-8.6-1.3-10.8c0-0.9-1.5-1.7-3.2-1.6c-12.3,0.6-56.1,2.5-66.1,3.4
	c-41.6,3.6-80.5,3.8-122.6,5.1c-85.8,2.6-172.9,1.2-258-0.8c-41.2-1-78.6-2.8-119.8-0.9c-9.6,0.5-18.5,1.4-21.8,1.8
	c-0.8,0.1-1.4,0.5-1.5,0.9c-1.1,4.5-6.6,27.7-3.1,37c1,2.7-1.5,3.2-4.4,1c-1.9-1.5,0.9-32.7,1.6-40.8c0.1-1.1,1.7-1.9,3.7-2
	c19.8-0.3,118.4-1.6,160.8,0.6c78.9,4,155.1,3,234.4,0.4c38.3-1.3,75.8,0.6,113.5-3.6C526.7,81.9,590.2,78.5,606.3,77.6"/>
<path fill="#E53F26" d="M606.3,77.6c2-0.1,3.8,0.7,3.9,1.9c0.4,5.8,1.7,22.8,2,36.5c0.1,5.9-2.5,4.2-3.9,3.4
	c-1.8-1.1-1.2-21.3-2.3-26.3c-1-4.5-1.3-8.6-1.3-10.8c0-0.9-1.5-1.7-3.2-1.6c-12.3,0.6-56.1,2.5-66.1,3.4
	c-41.6,3.6-80.5,3.8-122.6,5.1c-85.8,2.6-172.9,1.2-258-0.8c-41.2-1-78.6-2.8-119.8-0.9c-9.6,0.5-18.5,1.4-21.8,1.8
	c-0.8,0.1-1.4,0.5-1.5,0.9c-1.1,4.5-6.6,27.7-3.1,37c1,2.7-1.5,3.2-4.4,1c-1.9-1.5,0.9-32.7,1.6-40.8c0.1-1.1,1.7-1.9,3.7-2
	c19.8-0.3,118.4-1.6,160.8,0.6c78.9,4,155.1,3,234.4,0.4c38.3-1.3,75.8,0.6,113.5-3.6C526.7,81.9,590.2,78.5,606.3,77.6z"/>
<path fill="#E53F26" d="M-46.7,129.6c-16.1-0.9-79.6-4.3-88.1-5.2c-37.7-4.2-75.2-2.3-113.5-3.6c-79.3-2.6-155.5-3.6-234.4,0.4
	c-42.4,2.2-141,0.9-160.8,0.6c-2-0.1-3.6-0.9-3.7-2c-0.7-8.1-3.5-39.3-1.6-40.8c2.9-2.2,5.4-1.7,4.4,1c-3.5,9.3,2,32.5,3.1,37
	c0.1,0.4,0.7,0.8,1.5,0.9c3.3,0.4,12.2,1.3,21.8,1.8c41.2,1.9,78.6,0.1,119.8-0.9c85.1-2,172.2-3.4,258-0.8
	c42.1,1.3,81,1.5,122.6,5.1c10,0.9,53.8,2.8,66.1,3.4c1.7,0.1,3.2-0.7,3.2-1.6c0-2.2,0.3-6.3,1.3-10.8c1.1-5,0.5-25.2,2.3-26.3
	c1.4-0.8,4-2.5,3.9,3.4c-0.3,13.7-1.6,30.7-2,36.5C-42.9,128.9-44.7,129.7-46.7,129.6"/>
<path fill="#E53F26" d="M-134.8,124.4c-37.7-4.2-75.2-2.3-113.5-3.6c-79.3-2.6-155.5-3.6-234.4,0.4c-42.4,2.2-141,0.9-160.8,0.6
	c-2-0.1-3.6-0.9-3.7-2c-0.7-8.1-3.5-39.3-1.6-40.8c2.9-2.2,5.4-1.7,4.4,1c-3.5,9.3,2,32.5,3.1,37c0.1,0.4,0.7,0.8,1.5,0.9
	c3.3,0.4,12.2,1.3,21.8,1.8c41.2,1.9,78.6,0.1,119.8-0.9c85.1-2,172.2-3.4,258-0.8c42.1,1.3,81,1.5,122.6,5.1
	c10,0.9,53.8,2.8,66.1,3.4c1.7,0.1,3.2-0.7,3.2-1.6c0-2.2,0.3-6.3,1.3-10.8c1.1-5,0.5-25.2,2.3-26.3c1.4-0.8,4-2.5,3.9,3.4
	c-0.3,13.7-1.6,30.7-2,36.5c-0.1,1.2-1.9,2-3.9,1.9C-62.8,128.7-126.3,125.3-134.8,124.4z"/>
<path fill="#E86380" d="M606.3,155c2-0.1,3.8,0.7,3.9,1.9c0.4,5.8,1.7,22.8,2,36.5c0.1,5.9-2.5,4.2-3.9,3.4
	c-1.8-1.1-1.2-21.3-2.3-26.3c-1-4.5-1.3-8.6-1.3-10.8c0-0.9-1.5-1.7-3.2-1.6c-12.3,0.6-56.1,2.5-66.1,3.4
	c-41.6,3.6-80.5,3.8-122.6,5.1c-85.8,2.6-172.9,1.2-258-0.8c-41.2-1-78.6-2.8-119.8-0.9c-9.6,0.5-18.5,1.4-21.8,1.8
	c-0.8,0.1-1.4,0.5-1.5,0.9c-1.1,4.5-6.6,27.7-3.1,37c1,2.7-1.5,3.2-4.4,1c-1.9-1.5,0.9-32.7,1.6-40.8c0.1-1.1,1.7-1.9,3.7-2
	c19.8-0.3,118.4-1.6,160.8,0.6c78.9,4,155.1,3,234.4,0.4c38.3-1.3,75.8,0.6,113.5-3.6C526.7,159.3,590.2,155.9,606.3,155"/>
<path fill="#E86380" d="M606.3,155c2-0.1,3.8,0.7,3.9,1.9c0.4,5.8,1.7,22.8,2,36.5c0.1,5.9-2.5,4.2-3.9,3.4
	c-1.8-1.1-1.2-21.3-2.3-26.3c-1-4.5-1.3-8.6-1.3-10.8c0-0.9-1.5-1.7-3.2-1.6c-12.3,0.6-56.1,2.5-66.1,3.4
	c-41.6,3.6-80.5,3.8-122.6,5.1c-85.8,2.6-172.9,1.2-258-0.8c-41.2-1-78.6-2.8-119.8-0.9c-9.6,0.5-18.5,1.4-21.8,1.8
	c-0.8,0.1-1.4,0.5-1.5,0.9c-1.1,4.5-6.6,27.7-3.1,37c1,2.7-1.5,3.2-4.4,1c-1.9-1.5,0.9-32.7,1.6-40.8c0.1-1.1,1.7-1.9,3.7-2
	c19.8-0.3,118.4-1.6,160.8,0.6c78.9,4,155.1,3,234.4,0.4c38.3-1.3,75.8,0.6,113.5-3.6C526.7,159.3,590.2,155.9,606.3,155z"/>
<path fill="#E86380" d="M-42.7,207c-16.1-0.9-79.6-4.3-88.1-5.2c-37.7-4.2-75.2-2.3-113.5-3.6c-79.3-2.6-155.5-3.6-234.4,0.4
	c-42.4,2.2-141,0.9-160.8,0.6c-2-0.1-3.6-0.9-3.7-2c-0.7-8.1-3.5-39.3-1.6-40.8c2.9-2.2,5.4-1.7,4.4,1c-3.5,9.3,2,32.5,3.1,37
	c0.1,0.4,0.7,0.8,1.5,0.9c3.3,0.4,12.2,1.3,21.8,1.8c41.2,1.9,78.6,0.1,119.8-0.9c85.1-2,172.2-3.4,258-0.8
	c42.1,1.3,81,1.5,122.6,5.1c10,0.9,53.8,2.8,66.1,3.4c1.7,0.1,3.2-0.7,3.2-1.6c0-2.2,0.3-6.3,1.3-10.8c1.1-5,0.5-25.2,2.3-26.3
	c1.4-0.8,4-2.5,3.9,3.4c-0.3,13.7-1.6,30.7-2,36.5C-38.9,206.3-40.7,207.1-42.7,207"/>
<path fill="#E86380" d="M-130.8,201.8c-37.7-4.2-75.2-2.3-113.5-3.6c-79.3-2.6-155.5-3.6-234.4,0.4c-42.4,2.2-141,0.9-160.8,0.6
	c-2-0.1-3.6-0.9-3.7-2c-0.7-8.1-3.5-39.3-1.6-40.8c2.9-2.2,5.4-1.7,4.4,1c-3.5,9.3,2,32.5,3.1,37c0.1,0.4,0.7,0.8,1.5,0.9
	c3.3,0.4,12.2,1.3,21.8,1.8c41.2,1.9,78.6,0.1,119.8-0.9c85.1-2,172.2-3.4,258-0.8c42.1,1.3,81,1.5,122.6,5.1
	c10,0.9,53.8,2.8,66.1,3.4c1.7,0.1,3.2-0.7,3.2-1.6c0-2.2,0.3-6.3,1.3-10.8c1.1-5,0.5-25.2,2.3-26.3c1.4-0.8,4-2.5,3.9,3.4
	c-0.3,13.7-1.6,30.7-2,36.5c-0.1,1.2-1.9,2-3.9,1.9C-58.8,206.1-122.3,202.7-130.8,201.8z"/>
<path fill="#C9549E" d="M606.3,230c2-0.1,3.8,0.7,3.9,1.9c0.4,5.8,1.7,22.8,2,36.5c0.1,5.9-2.5,4.2-3.9,3.4
	c-1.8-1.1-1.2-21.3-2.3-26.3c-1-4.5-1.3-8.6-1.3-10.8c0-0.9-1.5-1.7-3.2-1.6c-12.3,0.6-56.1,2.5-66.1,3.4
	c-41.6,3.6-80.5,3.8-122.6,5.1c-85.8,2.6-172.9,1.2-258-0.8c-41.2-1-78.6-2.8-119.8-0.9c-9.6,0.5-18.5,1.4-21.8,1.8
	c-0.8,0.1-1.4,0.5-1.5,0.9c-1.1,4.5-6.6,27.7-3.1,37c1,2.7-1.5,3.2-4.4,1c-1.9-1.5,0.9-32.7,1.6-40.8c0.1-1.1,1.7-1.9,3.7-2
	c19.8-0.3,118.4-1.6,160.8,0.6c78.9,4,155.1,3,234.4,0.4c38.3-1.3,75.8,0.6,113.5-3.6C526.7,234.3,590.2,230.9,606.3,230"/>
<path fill="#C9549E" d="M606.3,230c2-0.1,3.8,0.7,3.9,1.9c0.4,5.8,1.7,22.8,2,36.5c0.1,5.9-2.5,4.2-3.9,3.4
	c-1.8-1.1-1.2-21.3-2.3-26.3c-1-4.5-1.3-8.6-1.3-10.8c0-0.9-1.5-1.7-3.2-1.6c-12.3,0.6-56.1,2.5-66.1,3.4
	c-41.6,3.6-80.5,3.8-122.6,5.1c-85.8,2.6-172.9,1.2-258-0.8c-41.2-1-78.6-2.8-119.8-0.9c-9.6,0.5-18.5,1.4-21.8,1.8
	c-0.8,0.1-1.4,0.5-1.5,0.9c-1.1,4.5-6.6,27.7-3.1,37c1,2.7-1.5,3.2-4.4,1c-1.9-1.5,0.9-32.7,1.6-40.8c0.1-1.1,1.7-1.9,3.7-2
	c19.8-0.3,118.4-1.6,160.8,0.6c78.9,4,155.1,3,234.4,0.4c38.3-1.3,75.8,0.6,113.5-3.6C526.7,234.3,590.2,230.9,606.3,230z"/>
<path fill="#C9549E" d="M-42.7,282c-16.1-0.9-79.6-4.3-88.1-5.2c-37.7-4.2-75.2-2.3-113.5-3.6c-79.3-2.6-155.5-3.6-234.4,0.4
	c-42.4,2.2-141,0.9-160.8,0.6c-2-0.1-3.6-0.9-3.7-2c-0.7-8.1-3.5-39.3-1.6-40.8c2.9-2.2,5.4-1.7,4.4,1c-3.5,9.3,2,32.5,3.1,37
	c0.1,0.4,0.7,0.8,1.5,0.9c3.3,0.4,12.2,1.3,21.8,1.8c41.2,1.9,78.6,0.1,119.8-0.9c85.1-2,172.2-3.4,258-0.8
	c42.1,1.3,81,1.5,122.6,5.1c10,0.9,53.8,2.8,66.1,3.4c1.7,0.1,3.2-0.7,3.2-1.6c0-2.2,0.3-6.3,1.3-10.8c1.1-5,0.5-25.2,2.3-26.3
	c1.4-0.8,4-2.5,3.9,3.4c-0.3,13.7-1.6,30.7-2,36.5C-38.9,281.3-40.7,282.1-42.7,282"/>
<path fill="#C9549E" d="M-130.8,276.8c-37.7-4.2-75.2-2.3-113.5-3.6c-79.3-2.6-155.5-3.6-234.4,0.4c-42.4,2.2-141,0.9-160.8,0.6
	c-2-0.1-3.6-0.9-3.7-2c-0.7-8.1-3.5-39.3-1.6-40.8c2.9-2.2,5.4-1.7,4.4,1c-3.5,9.3,2,32.5,3.1,37c0.1,0.4,0.7,0.8,1.5,0.9
	c3.3,0.4,12.2,1.3,21.8,1.8c41.2,1.9,78.6,0.1,119.8-0.9c85.1-2,172.2-3.4,258-0.8c42.1,1.3,81,1.5,122.6,5.1
	c10,0.9,53.8,2.8,66.1,3.4c1.7,0.1,3.2-0.7,3.2-1.6c0-2.2,0.3-6.3,1.3-10.8c1.1-5,0.5-25.2,2.3-26.3c1.4-0.8,4-2.5,3.9,3.4
	c-0.3,13.7-1.6,30.7-2,36.5c-0.1,1.2-1.9,2-3.9,1.9C-58.8,281.1-122.3,277.7-130.8,276.8z"/>
<path fill="#6880BF" d="M606.3,303c2-0.1,3.8,0.7,3.9,1.9c0.4,5.8,1.7,22.8,2,36.5c0.1,5.9-2.5,4.2-3.9,3.4
	c-1.8-1.1-1.2-21.3-2.3-26.3c-1-4.5-1.3-8.6-1.3-10.8c0-0.9-1.5-1.7-3.2-1.6c-12.3,0.6-56.1,2.5-66.1,3.4
	c-41.6,3.6-80.5,3.8-122.6,5.1c-85.8,2.6-172.9,1.2-258-0.8c-41.2-1-78.6-2.8-119.8-0.9c-9.6,0.5-18.5,1.4-21.8,1.8
	c-0.8,0.1-1.4,0.5-1.5,0.9c-1.1,4.5-6.6,27.7-3.1,37c1,2.7-1.5,3.2-4.4,1c-1.9-1.5,0.9-32.7,1.6-40.8c0.1-1.1,1.7-1.9,3.7-2
	c19.8-0.3,118.4-1.6,160.8,0.6c78.9,4,155.1,3,234.4,0.4c38.3-1.3,75.8,0.6,113.5-3.6C526.7,307.3,590.2,303.9,606.3,303"/>
<path fill="#6880BF" d="M606.3,303c2-0.1,3.8,0.7,3.9,1.9c0.4,5.8,1.7,22.8,2,36.5c0.1,5.9-2.5,4.2-3.9,3.4
	c-1.8-1.1-1.2-21.3-2.3-26.3c-1-4.5-1.3-8.6-1.3-10.8c0-0.9-1.5-1.7-3.2-1.6c-12.3,0.6-56.1,2.5-66.1,3.4
	c-41.6,3.6-80.5,3.8-122.6,5.1c-85.8,2.6-172.9,1.2-258-0.8c-41.2-1-78.6-2.8-119.8-0.9c-9.6,0.5-18.5,1.4-21.8,1.8
	c-0.8,0.1-1.4,0.5-1.5,0.9c-1.1,4.5-6.6,27.7-3.1,37c1,2.7-1.5,3.2-4.4,1c-1.9-1.5,0.9-32.7,1.6-40.8c0.1-1.1,1.7-1.9,3.7-2
	c19.8-0.3,118.4-1.6,160.8,0.6c78.9,4,155.1,3,234.4,0.4c38.3-1.3,75.8,0.6,113.5-3.6C526.7,307.3,590.2,303.9,606.3,303z"/>
<path fill="#6880BF" d="M-46.7,355c-16.1-0.9-79.6-4.3-88.1-5.2c-37.7-4.2-75.2-2.3-113.5-3.6c-79.3-2.6-155.5-3.6-234.4,0.4
	c-42.4,2.2-141,0.9-160.8,0.6c-2-0.1-3.6-0.9-3.7-2c-0.7-8.1-3.5-39.3-1.6-40.8c2.9-2.2,5.4-1.7,4.4,1c-3.5,9.3,2,32.5,3.1,37
	c0.1,0.4,0.7,0.8,1.5,0.9c3.3,0.4,12.2,1.3,21.8,1.8c41.2,1.9,78.6,0.1,119.8-0.9c85.1-2,172.2-3.4,258-0.8
	c42.1,1.3,81,1.5,122.6,5.1c10,0.9,53.8,2.8,66.1,3.4c1.7,0.1,3.2-0.7,3.2-1.6c0-2.2,0.3-6.3,1.3-10.8c1.1-5,0.5-25.2,2.3-26.3
	c1.4-0.8,4-2.5,3.9,3.4c-0.3,13.7-1.6,30.7-2,36.5C-42.9,354.3-44.7,355.1-46.7,355"/>
<path fill="#6880BF" d="M-134.8,349.8c-37.7-4.2-75.2-2.3-113.5-3.6c-79.3-2.6-155.5-3.6-234.4,0.4c-42.4,2.2-141,0.9-160.8,0.6
	c-2-0.1-3.6-0.9-3.7-2c-0.7-8.1-3.5-39.3-1.6-40.8c2.9-2.2,5.4-1.7,4.4,1c-3.5,9.3,2,32.5,3.1,37c0.1,0.4,0.7,0.8,1.5,0.9
	c3.3,0.4,12.2,1.3,21.8,1.8c41.2,1.9,78.6,0.1,119.8-0.9c85.1-2,172.2-3.4,258-0.8c42.1,1.3,81,1.5,122.6,5.1
	c10,0.9,53.8,2.8,66.1,3.4c1.7,0.1,3.2-0.7,3.2-1.6c0-2.2,0.3-6.3,1.3-10.8c1.1-5,0.5-25.2,2.3-26.3c1.4-0.8,4-2.5,3.9,3.4
	c-0.3,13.7-1.6,30.7-2,36.5c-0.1,1.2-1.9,2-3.9,1.9C-62.8,354.1-126.3,350.7-134.8,349.8z"/>
<path fill="#47B549" d="M606.3,378c2-0.1,3.8,0.7,3.9,1.9c0.4,5.8,1.7,22.8,2,36.5c0.1,5.9-2.5,4.2-3.9,3.4
	c-1.8-1.1-1.2-21.3-2.3-26.3c-1-4.5-1.3-8.6-1.3-10.8c0-0.9-1.5-1.7-3.2-1.6c-12.3,0.6-56.1,2.5-66.1,3.4
	c-41.6,3.6-80.5,3.8-122.6,5.1c-85.8,2.6-172.9,1.2-258-0.8c-41.2-1-78.6-2.8-119.8-0.9c-9.6,0.5-18.5,1.4-21.8,1.8
	c-0.8,0.1-1.4,0.5-1.5,0.9c-1.1,4.5-6.6,27.7-3.1,37c1,2.7-1.5,3.2-4.4,1c-1.9-1.5,0.9-32.7,1.6-40.8c0.1-1.1,1.7-1.9,3.7-2
	c19.8-0.3,118.4-1.6,160.8,0.6c78.9,4,155.1,3,234.4,0.4c38.3-1.3,75.8,0.6,113.5-3.6C526.7,382.3,590.2,378.9,606.3,378"/>
<path fill="#47B549" d="M606.3,378c2-0.1,3.8,0.7,3.9,1.9c0.4,5.8,1.7,22.8,2,36.5c0.1,5.9-2.5,4.2-3.9,3.4
	c-1.8-1.1-1.2-21.3-2.3-26.3c-1-4.5-1.3-8.6-1.3-10.8c0-0.9-1.5-1.7-3.2-1.6c-12.3,0.6-56.1,2.5-66.1,3.4
	c-41.6,3.6-80.5,3.8-122.6,5.1c-85.8,2.6-172.9,1.2-258-0.8c-41.2-1-78.6-2.8-119.8-0.9c-9.6,0.5-18.5,1.4-21.8,1.8
	c-0.8,0.1-1.4,0.5-1.5,0.9c-1.1,4.5-6.6,27.7-3.1,37c1,2.7-1.5,3.2-4.4,1c-1.9-1.5,0.9-32.7,1.6-40.8c0.1-1.1,1.7-1.9,3.7-2
	c19.8-0.3,118.4-1.6,160.8,0.6c78.9,4,155.1,3,234.4,0.4c38.3-1.3,75.8,0.6,113.5-3.6C526.7,382.3,590.2,378.9,606.3,378z"/>
<path fill="#47B549" d="M-42.7,430c-16.1-0.9-79.6-4.3-88.1-5.2c-37.7-4.2-75.2-2.3-113.5-3.6c-79.3-2.6-155.5-3.6-234.4,0.4
	c-42.4,2.2-141,0.9-160.8,0.6c-2-0.1-3.6-0.9-3.7-2c-0.7-8.1-3.5-39.3-1.6-40.8c2.9-2.2,5.4-1.7,4.4,1c-3.5,9.3,2,32.5,3.1,37
	c0.1,0.4,0.7,0.8,1.5,0.9c3.3,0.4,12.2,1.3,21.8,1.8c41.2,1.9,78.6,0.1,119.8-0.9c85.1-2,172.2-3.4,258-0.8
	c42.1,1.3,81,1.5,122.6,5.1c10,0.9,53.8,2.8,66.1,3.4c1.7,0.1,3.2-0.7,3.2-1.6c0-2.2,0.3-6.3,1.3-10.8c1.1-5,0.5-25.2,2.3-26.3
	c1.4-0.8,4-2.5,3.9,3.4c-0.3,13.7-1.6,30.7-2,36.5C-38.9,429.3-40.7,430.1-42.7,430"/>
<path fill="#47B549" d="M-130.8,424.8c-37.7-4.2-75.2-2.3-113.5-3.6c-79.3-2.6-155.5-3.6-234.4,0.4c-42.4,2.2-141,0.9-160.8,0.6
	c-2-0.1-3.6-0.9-3.7-2c-0.7-8.1-3.5-39.3-1.6-40.8c2.9-2.2,5.4-1.7,4.4,1c-3.5,9.3,2,32.5,3.1,37c0.1,0.4,0.7,0.8,1.5,0.9
	c3.3,0.4,12.2,1.3,21.8,1.8c41.2,1.9,78.6,0.1,119.8-0.9c85.1-2,172.2-3.4,258-0.8c42.1,1.3,81,1.5,122.6,5.1
	c10,0.9,53.8,2.8,66.1,3.4c1.7,0.1,3.2-0.7,3.2-1.6c0-2.2,0.3-6.3,1.3-10.8c1.1-5,0.5-25.2,2.3-26.3c1.4-0.8,4-2.5,3.9,3.4
	c-0.3,13.7-1.6,30.7-2,36.5c-0.1,1.2-1.9,2-3.9,1.9C-58.8,429.1-122.3,425.7-130.8,424.8z"/>
<path fill="#BFD749" d="M606.3,455c2-0.1,3.8,0.7,3.9,1.9c0.4,5.8,1.7,22.8,2,36.5c0.1,5.9-2.5,4.2-3.9,3.4
	c-1.8-1.1-1.2-21.3-2.3-26.3c-1-4.5-1.3-8.6-1.3-10.8c0-0.9-1.5-1.7-3.2-1.6c-12.3,0.6-56.1,2.5-66.1,3.4
	c-41.6,3.6-80.5,3.8-122.6,5.1c-85.8,2.6-172.9,1.2-258-0.8c-41.2-1-78.6-2.8-119.8-0.9c-9.6,0.5-18.5,1.4-21.8,1.8
	c-0.8,0.1-1.4,0.5-1.5,0.9c-1.1,4.5-6.6,27.7-3.1,37c1,2.7-1.5,3.2-4.4,1c-1.9-1.5,0.9-32.7,1.6-40.8c0.1-1.1,1.7-1.9,3.7-2
	c19.8-0.3,118.4-1.6,160.8,0.6c78.9,4,155.1,3,234.4,0.4c38.3-1.3,75.8,0.6,113.5-3.6C526.7,459.3,590.2,455.9,606.3,455"/>
<path fill="#BFD749" d="M606.3,455c2-0.1,3.8,0.7,3.9,1.9c0.4,5.8,1.7,22.8,2,36.5c0.1,5.9-2.5,4.2-3.9,3.4
	c-1.8-1.1-1.2-21.3-2.3-26.3c-1-4.5-1.3-8.6-1.3-10.8c0-0.9-1.5-1.7-3.2-1.6c-12.3,0.6-56.1,2.5-66.1,3.4
	c-41.6,3.6-80.5,3.8-122.6,5.1c-85.8,2.6-172.9,1.2-258-0.8c-41.2-1-78.6-2.8-119.8-0.9c-9.6,0.5-18.5,1.4-21.8,1.8
	c-0.8,0.1-1.4,0.5-1.5,0.9c-1.1,4.5-6.6,27.7-3.1,37c1,2.7-1.5,3.2-4.4,1c-1.9-1.5,0.9-32.7,1.6-40.8c0.1-1.1,1.7-1.9,3.7-2
	c19.8-0.3,118.4-1.6,160.8,0.6c78.9,4,155.1,3,234.4,0.4c38.3-1.3,75.8,0.6,113.5-3.6C526.7,459.3,590.2,455.9,606.3,455z"/>
<path fill="#BFD749" d="M-46.7,507c-16.1-0.9-79.6-4.3-88.1-5.2c-37.7-4.2-75.2-2.3-113.5-3.6c-79.3-2.6-155.5-3.6-234.4,0.4
	c-42.4,2.2-141,0.9-160.8,0.6c-2-0.1-3.6-0.9-3.7-2c-0.7-8.1-3.5-39.3-1.6-40.8c2.9-2.2,5.4-1.7,4.4,1c-3.5,9.3,2,32.5,3.1,37
	c0.1,0.4,0.7,0.8,1.5,0.9c3.3,0.4,12.2,1.3,21.8,1.8c41.2,1.9,78.6,0.1,119.8-0.9c85.1-2,172.2-3.4,258-0.8
	c42.1,1.3,81,1.5,122.6,5.1c10,0.9,53.8,2.8,66.1,3.4c1.7,0.1,3.2-0.7,3.2-1.6c0-2.2,0.3-6.3,1.3-10.8c1.1-5,0.5-25.2,2.3-26.3
	c1.4-0.8,4-2.5,3.9,3.4c-0.3,13.7-1.6,30.7-2,36.5C-42.9,506.3-44.7,507.1-46.7,507"/>
<path fill="#BFD749" d="M-134.8,501.8c-37.7-4.2-75.2-2.3-113.5-3.6c-79.3-2.6-155.5-3.6-234.4,0.4c-42.4,2.2-141,0.9-160.8,0.6
	c-2-0.1-3.6-0.9-3.7-2c-0.7-8.1-3.5-39.3-1.6-40.8c2.9-2.2,5.4-1.7,4.4,1c-3.5,9.3,2,32.5,3.1,37c0.1,0.4,0.7,0.8,1.5,0.9
	c3.3,0.4,12.2,1.3,21.8,1.8c41.2,1.9,78.6,0.1,119.8-0.9c85.1-2,172.2-3.4,258-0.8c42.1,1.3,81,1.5,122.6,5.1
	c10,0.9,53.8,2.8,66.1,3.4c1.7,0.1,3.2-0.7,3.2-1.6c0-2.2,0.3-6.3,1.3-10.8c1.1-5,0.5-25.2,2.3-26.3c1.4-0.8,4-2.5,3.9,3.4
	c-0.3,13.7-1.6,30.7-2,36.5c-0.1,1.2-1.9,2-3.9,1.9C-62.8,506.1-126.3,502.7-134.8,501.8z"/>
<g>
	<rect x="764.3" y="-79.9" fill="#F79B36" width="67" height="67"/>
	<rect x="838.9" y="-79.9" fill="#FFCE1C" width="67" height="67"/>
	<rect x="913.5" y="-79.9" fill="#E53F26" width="67" height="67"/>
	<rect x="988" y="-79.9" fill="#E86380" width="67" height="67"/>
	<rect x="1062.6" y="-79.9" fill="#C9549E" width="67" height="67"/>
	<rect x="1137.2" y="-79.9" fill="#6880BF" width="67" height="67"/>
	<rect x="1211.8" y="-79.9" fill="#47B549" width="67" height="67"/>
	<rect x="1286.4" y="-79.9" fill="#BFD749" width="67" height="67"/>
</g>
<g>
</g>
<g>
</g>
<g>
</g>
<g>
</g>
<g>
</g>
<g>
</g>
<g>
</g>
<g>
</g>
<g>
</g>
<g>
</g>
<g>
</g>
<g>
</g>
<g>
</g>
<g>
</g>
<g>
</g>
</svg>
