<?xml version="1.0" encoding="utf-8"?>
<!-- Generator: Adobe Illustrator 19.1.0, SVG Export Plug-In . SVG Version: 6.00 Build 0)  -->
<!DOCTYPE svg PUBLIC "-//W3C//DTD SVG 1.1//EN" "http://www.w3.org/Graphics/SVG/1.1/DTD/svg11.dtd">
<svg version="1.1" xmlns="http://www.w3.org/2000/svg" xmlns:xlink="http://www.w3.org/1999/xlink" x="0px" y="0px" width="333.3px"
	 height="97px" viewBox="0 0 333.3 97" enable-background="new 0 0 333.3 97" xml:space="preserve">
<g id="paint" display="none">
</g>
<g id="Layer_1">
</g>
<g id="doodles">
</g>
<g id="Layer_4">
</g>
<g id="Layer_6">
</g>
<g id="light">
	<g>
		<path fill="#E1ECED" d="M285.3,76.1c-0.1,2.1,1,2.2,0.9,4.3c0,0.7,0.6,3.9,0.9,4.6c0.3,0.8,7.2,6.6,8,7c1.2,0.5,2.6,0.4,3.8,0
			c3.6-1,6.5-3.8,8.1-7.2c1.6-3.4,1.9-7.2,1.3-10.9C305.1,76.2,289.2,75.6,285.3,76.1"/>
	</g>
	<g>
		<g>
			<path fill="#FBB040" d="M284.3,67.1c-3-11.2-13.6-31.4-13.1-33.7c0.4-2,3.3-17.7,24.2-17.2c19.1,0.4,22.2,13.6,22.6,17.4
				c0.2,2.2-9.8,24.9-11.2,30.2c-0.5,2.1-0.7,4.2-0.9,6.3c-6.7-1-13.6-0.8-20.3,0.4C285.1,69.4,284.7,68.2,284.3,67.1"/>
		</g>
		<g>
			<g>
				<path d="M282.7,68.2c-2.7-11.7-9.5-21.9-12.9-33.3c-2-6.7,5.6-14.4,11-17c11.7-5.5,30-2.7,35.2,10.4c2.9,7.5-2.9,16-5.7,22.8
					c-2,4.9-4.5,9.9-5.5,15.1c-0.4,2.3,0.2,3.5-2.3,4c-2.3,0.5-5.6-0.3-8-0.3c-2.4,0-4.8,0.2-7.1,0.5c-2.6,0.3-3.1-0.1-4.2-2.5
					c-0.4-0.8-1.6-0.2-1.4,0.6c0.3,1.3,0.7,2.5,1.1,3.7c0.2,0.5,0.6,0.8,1.2,0.7c6.9-1.2,13.9-1.5,20.9-0.4c0.7,0.1,1.2-0.3,1.2-0.9
					c1-11.9,7.3-22.7,11.2-33.8c2.2-6.2,0.1-12.1-4.6-16.8c-8.2-8.1-23.6-8.9-33.5-3.7c-5.2,2.8-11.1,9.3-11.2,15.7
					c-0.1,3.9,3.2,8.8,4.7,12.2c3.4,7.6,7,15.3,9.6,23.2C282.3,68.7,282.8,68.6,282.7,68.2L282.7,68.2z"/>
			</g>
		</g>
		<g>
			<g>
				<path d="M290.5,70.9c-0.8-1.7-0.8-4-1.1-5.8c-0.6-3.3-1.2-6.6-2-9.8c-0.7-2.9-1.9-10.3-5.4-11.4c-3.1-1-4.7,3-3.1,5.2
					c2.6,3.7,7.5,4.4,10.9,1.8c3.4-2.6,8-8.4,7.5-13.1c-0.4-3.6-5.5-4.7-7.7-1.9c-3,3.9,1.6,10,4.5,12.2c2.6,2.1,10,5.2,13,2.2
					c2.6-2.6,0.4-9.1-3.7-6.5c-2.1,1.4-4,4.4-4.8,6.7c-2,5.9-2.1,14.5-1.7,20.6c0,0.5,0.8,0.7,0.9,0.1c1.1-6.9-0.4-15.5,2.7-21.9
					c0.4-0.9,1.2-2.2,1.9-2.9c1.8-1.6,4.7-1.9,3.8,1.5c-0.8,3.1-3.7,2.3-6.2,1.6c-2.9-0.8-5.4-2.2-7.3-4.5c-1.4-1.7-5.8-9.3,0.6-9.5
					c6.7-0.2-0.2,10.3-1.9,12.2c-2.7,3.1-7.9,5.6-11,1.1c-3.2-4.6,0.9-4.6,2.2-3.4c0.6,0.5,1,1.4,1.3,2.1c0.9,1.8,1.5,3.8,2,5.7
					c1.1,3.8,1.9,7.7,2.7,11.6c0.4,1.9,0.7,4.4,1.8,6.1C290.5,71,290.6,71,290.5,70.9L290.5,70.9z"/>
			</g>
		</g>
		<g>
			<g>
				<path d="M283,76.1c0.1,2.5,0.5,7.2,1.8,9.5c1.3,2.3,5.4,5.5,7.7,6.7c3.6,1.8,8-1.1,10.4-3.7c3.7-4.1,4.4-9.5,3.7-14.8
					c0-0.3-0.4-0.4-0.6-0.2c-6.7,3.9-15.9-0.1-22.9,2.1c-0.5,0.2-0.4,0.9,0.1,0.9c4.3,0.3,9-0.2,13.4-0.5c2-0.1,4-0.3,6-0.6
					c0.7-0.1,2.2-0.8,2.8-0.7c1.3,0.2,0.8,1.6,0.7,3.1c-0.3,5.6-3.3,12.3-9.4,13.6c-3.7,0.8-5.5-1.4-7.9-3.5c-1.6-1.4-3-2.4-3.7-4.5
					c-0.7-2.3-1.3-5.2-1.7-7.5C283.4,75.8,283,75.9,283,76.1L283,76.1z"/>
			</g>
		</g>
		<g>
			<g>
				<path d="M285.8,78.5c6.1,1.1,12.3,1.6,18.4,2.6c0-0.3,0-0.6,0-0.9c-4.1,1.1-8.1,2.2-12.2,3.3c-0.5,0.1-0.4,1,0.1,1
					c0.5,0,5.1-0.2,5.2,0.3c0.1,0.3-3.3,2.7-3.6,3c-0.3,0.2-0.1,0.6,0.1,0.8c1.2,0.9,0.7,0.6,2.2,1.1c0.4,0.1,0.6-0.5,0.3-0.6
					c-2.6-1.3,2-2.9,2.2-4.6c0-0.2-0.1-0.4-0.2-0.4c-1.8-0.9-4.2-0.6-6.2-0.6c0,0.3,0.1,0.6,0.1,1c4.1-1.1,8.1-2.3,12.2-3.4
					c0.4-0.1,0.5-0.8,0-0.9c-6.1-1-12.4-2.2-18.6-2C285.7,78.3,285.7,78.5,285.8,78.5L285.8,78.5z"/>
			</g>
		</g>
	</g>
	<g>
		<g>
			<path fill="#E1ECED" d="M196,66.6c-3-11.2-13.6-31.4-13.1-33.7c0.4-2,3.3-17.7,24.2-17.2c19.1,0.4,22.2,13.6,22.6,17.4
				c0.2,2.2-9.8,24.9-11.2,30.2c-0.5,2.1-0.7,4.2-0.9,6.3c-6.7-1-13.6-0.8-20.3,0.4C196.8,68.9,196.4,67.7,196,66.6"/>
		</g>
		<g>
			<g>
				<path d="M219,73.3c-3.8-0.5-7.7-0.7-11.5-0.7c-1.2,0-4.6,0.9-5.8,0.3c-2.5-1.2-0.9-0.7-1.7-2.8c-1-2.7-1.4-5.5-2.5-8.2
					c-1.4-3.2-3.1-6.3-4.8-9.3c-3.1-5.5-8-11.2-9.4-17.4c-1.2-5.6,1.1-11.7,6.6-13.9c2.9-1.2,6.3-1.4,9.4-2.1
					c6.5-1.4,15.8-5.1,22-2.1c1.9,0.9,2.1,1.9,3.5,3.4c3.8,4,5,8.3,4.4,13.8c-0.7,6.2-2.7,12.1-5,17.8c-1.4,3.3-2.3,6.8-3.1,10.3
					c-0.3,1.5-1.1,11-3.2,10.8c-0.4,0-0.5,0.5-0.2,0.7c0.6,0.3,1.1,0.5,1.7,0.8c0.4,0.2,1,0.1,1-0.4c1.3-9.2,3.4-17.1,6.6-25.7
					c2-5.3,3.6-12.3,3.2-17.9c-0.2-2.7-0.9-5.5-2.3-7.8c-0.9-1.4-2.4-2.2-3.2-3.5c0,0-0.5-1.8-0.9-2.3c-2.5-3.4-10-1.6-13.6-1
					c-3.8,0.6-7.6,1.6-11.3,2.5c-3.3,0.7-6.9,1.1-10,2.4c-4.3,1.9-7,6.4-7.1,11c-0.2,6.1,4,11.2,7,16.1c4.7,7.8,9.9,16.3,10.5,25.6
					c0,0.2,0.2,0.5,0.5,0.5c6.4-0.8,12.8-0.9,19.2-0.7C219.1,73.4,219.1,73.3,219,73.3L219,73.3z"/>
			</g>
		</g>
		<g>
			<g>
				<path d="M207,72.5c-2.4,1.7-1.7-4.3-1.6-4.8c0.1-1.3,0-2.6-0.2-3.9c-0.3-2.8-0.7-5.6-1.1-8.3c-0.3-2.1,0-5.5-2.3-6.4
					c-0.1,0-0.2,0-0.3,0.1c-1.5,1.4-0.8,3.9,1.4,3.8c3.3-0.1,5-6.3,3.5-8.5c-0.1-0.2-0.4-0.2-0.5,0.1c-0.9,6.5,2.4,8.6,8.4,8.8
					c1.4,0.1,3.9,0.3,4.9-1c0.8-1,0.6-2-0.6-2.5c-0.1,0-0.3,0-0.3,0.1c-2.1,3.6-3.4,8.5-4.3,12.5c-0.5,1.9-0.8,3.8-0.9,5.8
					c-0.2,3,0.1,5.5-3.3,6.7c-0.4,0.2-0.3,0.8,0.2,0.7c6.3-1.1,3.4-5.4,4.2-10.5c0.6-3.7,2.9-7.5,3.2-11.2c0.2-3,1-0.6-1-1.2
					c-1.6-0.4-3.6,0-5.2-0.3c-0.7-0.1-1.3-0.3-1.9-0.4c-2.2-1.1-3.1-2.6-2.8-4.6c0.2-2.5-0.2-1.7-1,2.3c-2,1.7-2.6,3.6-2,5.7
					c0,3.8,1.2,7.6,1.3,11.5C204.8,67.6,204.2,75,207,72.5C207,72.5,207,72.4,207,72.5L207,72.5z"/>
			</g>
		</g>
		<g>
			<g>
				<path d="M206.5,76.5c-1.7,0.3-7.4,0-8.3,2c-0.1,0.3,0,0.7,0,1c0,0.6,0.9,1.5,1.1,2c0.8,1.5,1.3,3,1.8,4.5
					c1.7,5.5,7.7,7,12.8,4.8c2.1-0.9,4.4-2.5,4.8-4.9c0.3-1.7-0.3-2.9,0.1-4.7c-0.3,1.4,1.1-3.9,1.1-3.2c-0.3-4.8-12.8-1.7-15.8-0.9
					c-0.4,0.1-0.2,0.6,0.2,0.5c2.6-0.5,5.2-1,7.9-1.2c1.2-0.1,2.5-0.2,3.7-0.1c2.5,0.1,2.5,0.8,2.1,3.3c-0.2,1.2-0.6,1-0.7,2.4
					c-0.2,2.9,1.2,4.7-1.8,6.8c-2.8,2-6.9,2.8-10,1.1c-2.5-1.4-3.2-3.7-4.2-6.3c-0.7-1.7-3.1-4.2-1.1-5.7
					C201.5,77,204.9,76.9,206.5,76.5C206.6,76.5,206.6,76.5,206.5,76.5L206.5,76.5z"/>
			</g>
		</g>
	</g>
	<g>
		<g>
			<path fill="#E1ECED" d="M108.1,65.1c-3-11.2-13.6-31.4-13.1-33.7c0.4-2,3.3-17.7,24.2-17.2c19.1,0.4,22.2,13.6,22.6,17.4
				c0.2,2.2-9.8,24.9-11.2,30.2c-0.5,2.1-0.7,4.2-0.9,6.3c-6.7-1-13.6-0.8-20.3,0.4C108.9,67.4,108.5,66.3,108.1,65.1"/>
		</g>
		<g>
			<g>
				<path d="M119.4,72.1c-2.6-0.2-8.2,0.2-10.2-1.3c-1.6-1.2-3.2-6.2-4.3-8.1c-3.5-6.3-6.9-12.7-6.6-20.1c0.1-2.8,0.9-5.4,1.2-8.1
					c0.5-4.5-0.1-8.4,4.3-11.2c2.6-1.7,6.1-2.4,8.9-3.5c3.2-1.2,6.4-2.6,9.9-2.5c5.4,0.1,14.1,2.8,17.8,7c4.7,5.3,0.3,16-2.4,21.5
					c-1,2.1-2.4,4-3.2,6.2c-0.9,2.4-0.8,5-1.6,7.4c-0.8,2.3-2.9,3.9-3.7,6.1c-0.8,2.1,0.4,4.6-1.2,6.6c-1,1.2,1,2.6,1.6,1.3
					c1.6-3.3,0.8-6,2.7-9.4c1.3-2.4,2.2-4.3,2.7-7.2c0.8-4.5,3-7.8,4.7-11.9c1.5-3.5,2.7-7.4,3.4-11.2c1.1-5.6-0.4-9.8-5.4-12.7
					c-5.6-3.2-12.7-5.8-19.1-4.5c-4.1,0.8-8.2,2.7-12.1,4.2c-2.3,0.9-4.7,1.8-6.4,3.8c-1.6,1.8-1.9,3.6-2.2,5.9
					c-0.6,4.3-2,9-1.9,13.3c0.1,8,4.2,14.9,7.8,21.7c1.1,2,2.2,6.5,4.2,7.7c2.5,1.5,8.2,0.1,10.9,0
					C119.9,72.9,119.9,72.1,119.4,72.1L119.4,72.1z"/>
			</g>
		</g>
		<g>
			<g>
				<path d="M123.8,78.2c-3.9,2.2-8.1-0.4-12.2,0c-1.7,0.1-4.2,0.6-4.9,2.4c-1,2.3,0.6,8.8,2.3,10.5c1.5,1.5,5.1,2.2,7.2,2.4
					c2.9,0.3,6.1-0.2,8.8-1.4c4.5-2,7.1-7.7,4-12.1c-0.4-0.5-1.5-0.2-1.2,0.5c1.4,3.4,1.5,6.7-1.4,9.2c-1.9,1.7-5.2,2.4-7.7,2.5
					c-2.5,0.1-5.1-0.4-7.4-1.4c-2-0.9-2.3-2.4-2.8-4.4c-0.3-1-1.1-2.9-0.9-3.9c0.9-4.3,5.7-3.6,8.8-3.2c2.7,0.4,5.1,0.7,7.5-0.8
					C124.2,78.4,124,78.1,123.8,78.2L123.8,78.2z"/>
			</g>
		</g>
		<g>
			<g>
				<path d="M114,70.5c0,0,0.1-1.7,0.1-1.9c0.1-0.9,0.5-1.9,0.8-2.8c0.5-1.9,1-3.9,1.6-5.8c0.7-2.5,1.5-5.1,2.7-7.4
					c1.5-2.9,3.3-4.1,5.8-6c1.7-1.3,1.9-1.5,1.7-4c-0.2-2.2-0.2-6.2-2.6-7.3c-4.3-2.1-8.2,4-9.3,7.1c-0.9,2.5-1.9,5.6-1.3,8.2
					c0.2,1,0.6,1.8,1.3,2.6c1.1,1.2,6.7,3.9,3.8,6.2c-0.6,0.4,0.2,1.4,0.8,1c2.4-1.8,1.7-4.1-0.4-5.9c-2.6-2.3-4.3-4.7-3.6-8.7
					c0.3-1.6,1-3.2,1.7-4.6c0.7-1.4,2-4,3.5-4.5c5.9-2,4.6,4.8,3.8,6.9c-1,2.7-2.7,3.3-4.3,5.7c-1.7,2.4-2.8,5.2-3.6,8
					c-1,3.1-1.8,6.4-2.6,9.6c-0.3,1.3-1.1,2.7-0.5,4c0,0.1,0.1,0.1,0.2,0.1c0.2,0,0.3,0,0.5,0c0.1,0,0.2,0,0.2-0.1
					c0-0.1,0-0.3,0.1-0.4C114.2,70.5,114.1,70.4,114,70.5L114,70.5z"/>
			</g>
		</g>
	</g>
	<g>
		<g>
			<path fill="#E1ECED" d="M19,66.5C16.1,55.2,5.4,35,5.9,32.8c0.4-2,3.3-17.7,24.2-17.2C49.3,16,52.4,29.2,52.7,33
				c0.2,2.2-9.8,24.9-11.2,30.2c-0.5,2.1-0.7,4.2-0.9,6.3c-6.7-1-13.6-0.8-20.3,0.4C19.9,68.8,19.5,67.6,19,66.5"/>
		</g>
		<g>
			<g>
				<path d="M47.6,82c-1.8-5.4,2.7-9.2,5.4-13.1c2.3-3.2,3.9-6.8,4.9-10.6c1.3-5,2.3-11.7-2-15.5c-3.4-3-7.3-4.4-10-8.2
					c-2.7-3.7-3.9-8-5.9-12.1c-2.3-4.7-7.2-9.4-12.8-8c-6.3,1.7-8.3,8.8-10.3,14.1c-2.7,7-9.6,12.5-10.1,20.2
					c-0.6,9,9.7,15.7,7.2,24.5c-1.3,4.6-6.8,9.9-0.6,13.3c3.3,1.8,8,2.2,11.6,2.2c2.8,0,6-0.9,8.7-0.2c1.8,0.4,3.3,1.6,4.9,2.3
					c5.7,2.2,12.7-0.2,13.2-6.8c0-0.6-0.9-0.7-1-0.1c-1.1,4.7-5.3,7.3-10.2,6c-1.9-0.5-3.3-1.7-5.1-2.4c-3.2-1.2-6.2-0.5-9.6-0.4
					c-5,0.1-16.2-0.6-12.6-9c1.1-2.6,2.6-4,2.7-7c0.2-7.9-7.5-13.2-7.9-21c-0.4-8,7.3-14.2,10-21.4c1.7-4.4,3.7-12.2,9.4-12.9
					c6.8-0.8,10,5.8,12.1,10.9c2.5,6,5,9.9,10.5,13.6c4.7,3.1,7.8,5.6,7.4,11.7c-0.3,4.9-1.7,9.6-4.2,13.9c-3,5.2-8.6,9.2-6.1,15.8
					C47.5,82.2,47.7,82.1,47.6,82L47.6,82z"/>
			</g>
		</g>
		<g>
			<g>
				<path d="M35.3,91.9c-3.1-2.1-6.4-4.3-10.2-4.7c-3.5-0.3-7.1,1.5-8.8-3.8c-0.9-2.7-0.8-6.5-0.3-9.3c1.1-5.9,4.8-8.7,9.2-12.3
					c2.7-2.3,4.1-4.6,4.3-8.2c0-0.8-1.2-1-1.4-0.2c-0.4,2.3-0.7,4.5-0.2,6.8c0.1,0.6,1,0.4,1-0.1c0-2.2-0.1-4.2,0.5-6.3
					c-0.4,0-0.9,0-1.3,0c1.6,6.2-8.3,9.8-11,14.6c-2,3.7-2.5,8-2.1,12.2c0.3,2.5,0.5,5.9,3.1,7.1c1.6,0.7,3.6,0,5.3,0
					C27.9,87.7,31.6,89.8,35.3,91.9C35.3,92,35.3,92,35.3,91.9L35.3,91.9z"/>
			</g>
		</g>
	</g>
	<g>
		<g>
			<path d="M317.9,20.7c3-1,6-2.5,8.3-4.6c0.3-0.2-0.2-0.7-0.4-0.5c-2.8,1.6-5.5,3.1-8.4,4.5C317,20.2,317.5,20.8,317.9,20.7
				L317.9,20.7z"/>
		</g>
	</g>
	<g>
		<g>
			<path d="M320.1,38.9c2.8,1.7,6,2.4,9.2,1.7c0.4-0.1,0.1-0.7-0.3-0.7c-3,0.4-6,0-8.7-1.5C319.9,38.3,319.8,38.7,320.1,38.9
				L320.1,38.9z"/>
		</g>
	</g>
	<g>
		<g>
			<path d="M312.9,57.7c0.5,1.2,1.9,1.9,3,2.4c1.5,0.7,3.1,1.1,4.8,1c0.5,0,0.1-0.7-0.2-0.8c-2.1-0.4-5.4-1-6.8-2.9
				C313.4,57.2,312.7,57.2,312.9,57.7L312.9,57.7z"/>
		</g>
	</g>
	<g>
		<g>
			<path d="M284,12c-0.1-1.1-0.7-2.2-0.9-3.4c-0.3-1.3-0.3-2.7-0.3-4c0-0.4-0.6-0.7-0.7-0.2c-0.6,2.4-0.6,5.9,1.3,7.8
				C283.6,12.4,284,12.3,284,12L284,12z"/>
		</g>
	</g>
	<g>
		<g>
			<path d="M268.4,21.7c-1.1-0.8-2.5-1.3-3.7-2c-1.3-0.8-2.5-1.8-3.4-3c-0.3-0.3-1.1-0.3-0.8,0.3c0.8,1.7,2.2,2.8,3.8,3.7
				c1,0.6,3.2,2,4.2,1.2C268.5,21.8,268.5,21.7,268.4,21.7L268.4,21.7z"/>
		</g>
	</g>
	<g>
		<g>
			<path d="M267.5,41.4c-0.4,0.4-1.3,0.4-1.8,0.5c-0.7,0.1-1.3,0.3-2,0.4c-1.4,0.2-2.9,0.1-4.2,0.4c-0.7,0.1-0.2,1,0.3,1.1
				C260.9,44,268.4,43.4,267.5,41.4C267.6,41.4,267.5,41.4,267.5,41.4L267.5,41.4z"/>
		</g>
	</g>
	<g>
		<g>
			<path d="M275,58.9c-2.1,1.7-4.3,3.1-6.8,4.1c-0.7,0.3,0.1,1.3,0.7,1.1C271.5,63.2,273.8,61.4,275,58.9
				C275,58.9,275,58.9,275,58.9L275,58.9z"/>
		</g>
	</g>
	<g>
		<g>
			<path d="M301.8,11.7c0.9-0.5,1.5-1.8,1.9-2.7c0.7-1.4,1.1-2.8,1.4-4.3c0.1-0.3-0.5-0.7-0.7-0.3c-0.6,1.2-1,2.5-1.6,3.8
				c-0.4,1-0.8,2.1-1.6,2.9C301,11.3,301.4,11.8,301.8,11.7L301.8,11.7z"/>
		</g>
	</g>
</g>
</svg>
