<?xml version="1.0" encoding="utf-8"?>
<!-- Generator: Adobe Illustrator 19.1.0, SVG Export Plug-In . SVG Version: 6.00 Build 0)  -->
<!DOCTYPE svg PUBLIC "-//W3C//DTD SVG 1.1//EN" "http://www.w3.org/Graphics/SVG/1.1/DTD/svg11.dtd">
<svg version="1.1" xmlns="http://www.w3.org/2000/svg" xmlns:xlink="http://www.w3.org/1999/xlink" x="0px" y="0px" width="364.8px"
	 height="100.9px" viewBox="0 0 364.8 100.9" enable-background="new 0 0 364.8 100.9" xml:space="preserve">
<g id="paint" display="none">
</g>
<g id="Layer_1">
</g>
<g id="doodles">
</g>
<g id="Layer_4">
</g>
<g id="Layer_6">
</g>
<g id="light">
	<g>
		<path d="M1.9,39.1c3.8-0.2,4.3-0.4,4.3-3.2V9c0-2.8-0.4-3-4.3-3.2V3.7h17.2v2.1c-3.8,0.2-4.3,0.4-4.3,3.2v26.9
			c0,2.8,0.4,3,4.3,3.2v2.1H1.9V39.1z"/>
		<path d="M22.4,39.1c3.1-0.2,3.5-0.4,3.5-2.7V20.5c0-2.2-0.4-2.7-1.3-2.8l-1.9-0.3v-1.9L33.3,14l0.7,3.7c3-1.9,5.5-3.7,9-3.7
			c4.1,0,6.3,2.1,7.4,4.1c2.3-1.5,5.7-4.1,9.4-4.1c5.7,0,8.4,3.4,8.4,8.4v14.1c0,2.3,0.4,2.5,3.5,2.7v2.1H57.2v-2.1l1.1-0.1
			c1.1-0.1,1.7-0.4,1.7-2.2V23.3c0-3-1.4-5.2-4.1-5.2c-2.4,0-4.9,1.5-4.9,6.2v12.4c0,1.8,0.6,2.1,1.7,2.2l1.1,0.1v2.1H40.1v-2.1
			l1.1-0.1c1.1-0.1,1.7-0.4,1.7-2.2V23.3c0-3-1.2-5.2-3.9-5.2c-2.4,0-5,1.5-5,6.2v12.4c0,1.8,0.6,2.1,1.7,2.2l1.1,0.1v2.1H22.4V39.1
			z"/>
		<path d="M75.8,48.9V20.5c0-2.2-0.4-2.7-1.3-2.8l-1.9-0.3v-1.9L83,14l1,3.7c2.7-2,5.1-3.7,8.9-3.7c5.1,0,9.8,4.2,9.8,13.1
			c0,11.8-6.4,14.7-14.4,14.7c-1.5,0-3.4-0.3-4.3-0.6v7.7c0,2.3,0.5,2.5,4.5,2.7v2.1H72.3v-2.1C75.4,51.4,75.8,51.1,75.8,48.9z
			 M84.2,35.7c0.5,2.4,1.9,3.6,4.3,3.6c4.2,0,5.6-4.3,5.6-11c0-8.8-2.9-10.2-5.4-10.2c-2.3,0-3.6,1.2-4.3,3.2
			c-0.3,0.8-0.4,1.8-0.4,3v8.5C84,33.9,84,34.9,84.2,35.7z"/>
		<path d="M104.5,39.1c3.1-0.2,3.5-0.4,3.5-2.7V7.5c0-2.2-0.4-2.7-1.3-2.8l-1.9-0.3V2.5l11-1.5l0.4,0.3v35.1c0,2.3,0.4,2.5,3.5,2.7
			v2.1h-15.2V39.1z"/>
		<path d="M134.4,14c10.4,0,12.1,6.8,12.1,11.2c0,1.7-1,2.3-2.9,2.3h-14c0,5.7,1.8,10.1,7.2,10.1c3.3,0,5.6-1.7,7.2-4.8l1.9,1.1
			c-1.8,4.8-5.4,7.9-11.8,7.9c-10.1,0-13.2-6.5-13.2-13.9C121.1,20.3,124.7,14,134.4,14z M136.4,24.9c1.2,0,1.7-0.3,1.7-1.8
			c0-2.5-0.5-6.7-3.8-6.7c-3.5,0-4.5,4.5-4.5,8.4H136.4z"/>
		<path d="M148.1,39.1c3.1-0.2,3.5-0.4,3.5-2.7V20.5c0-2.2-0.4-2.7-1.3-2.8l-1.9-0.3v-1.9l10.7-1.6l0.7,3.7c3-1.9,5.5-3.7,9-3.7
			c4.1,0,6.3,2.1,7.4,4.1c2.3-1.5,5.7-4.1,9.4-4.1c5.7,0,8.4,3.4,8.4,8.4v14.1c0,2.3,0.4,2.5,3.5,2.7v2.1h-14.5v-2.1l1.1-0.1
			c1.1-0.1,1.7-0.4,1.7-2.2V23.3c0-3-1.4-5.2-4.1-5.2c-2.4,0-4.9,1.5-4.9,6.2v12.4c0,1.8,0.6,2.1,1.7,2.2l1.1,0.1v2.1h-13.9v-2.1
			L167,39c1.1-0.1,1.7-0.4,1.7-2.2V23.3c0-3-1.2-5.2-3.9-5.2c-2.4,0-5,1.5-5,6.2v12.4c0,1.8,0.6,2.1,1.7,2.2l1.1,0.1v2.1h-14.5V39.1
			z"/>
		<path d="M212.2,14c10.4,0,12.1,6.8,12.1,11.2c0,1.7-1,2.3-2.9,2.3h-14c0,5.7,1.8,10.1,7.2,10.1c3.3,0,5.6-1.7,7.2-4.8l1.9,1.1
			c-1.8,4.8-5.4,7.9-11.8,7.9c-10.1,0-13.2-6.5-13.2-13.9C198.9,20.3,202.5,14,212.2,14z M214.2,24.9c1.2,0,1.7-0.3,1.7-1.8
			c0-2.5-0.5-6.7-3.8-6.7c-3.5,0-4.5,4.5-4.5,8.4H214.2z"/>
		<path d="M225.9,39.1c3.1-0.2,3.5-0.4,3.5-2.7V20.5c0-2.2-0.4-2.7-1.3-2.8l-1.9-0.3v-1.9l10.7-1.6l0.7,3.7c3.6-2.1,6.1-3.7,9.2-3.7
			c5.6,0,8.1,3.2,8.2,8.3v14.1c0,2.3,0.4,2.5,3.5,2.7v2.1H244v-2.1l1.1-0.1c1.1-0.1,1.7-0.4,1.7-2.2V23.1c-0.1-3.2-1.5-4.9-4.3-4.9
			c-2.3,0-3.7,1.2-4.4,2.7c-0.4,0.8-0.5,2-0.5,3.2v12.8c0,1.8,0.6,2.1,1.7,2.2l1.1,0.1v2.1h-14.5V39.1z"/>
		<path d="M259.1,14.6h3.4l4.8-6.8h3.1v6.8h5.6v2.7h-5.6v15.4c0,3.5,1.4,5,3.5,5c1.2,0,2.3-0.2,3.1-0.5l0.6,1.7
			c-3,1.9-6.4,2.9-8.6,2.9c-3,0-6.7-2.1-6.7-7V17.3h-3.1V14.6z"/>
		<path d="M279.7,39.1c3.1-0.2,3.5-0.4,3.5-2.7V20.5c0-2.2-0.4-2.7-1.3-2.8l-1.9-0.3v-1.9l11-1.6l0.4,0.3v22.1
			c0,2.3,0.4,2.5,3.5,2.7v2.1h-15.2V39.1z M287,2.2c3.1,0,5,2.2,5,4.7c0,2.6-2,4.8-5,4.8c-3,0-4.9-2.2-4.9-4.8
			C282.1,4.4,284,2.2,287,2.2z"/>
		<path d="M297.3,39.1c3.1-0.2,3.5-0.4,3.5-2.7V20.5c0-2.2-0.4-2.7-1.3-2.8l-1.9-0.3v-1.9l10.7-1.6l0.7,3.7c3.6-2.1,6.1-3.7,9.2-3.7
			c5.6,0,8.1,3.2,8.2,8.3v14.1c0,2.3,0.4,2.5,3.5,2.7v2.1h-14.5v-2.1l1.1-0.1c1.1-0.1,1.7-0.4,1.7-2.2V23.1
			c-0.1-3.2-1.5-4.9-4.3-4.9c-2.3,0-3.7,1.2-4.4,2.7c-0.4,0.8-0.5,2-0.5,3.2v12.8c0,1.8,0.6,2.1,1.7,2.2l1.1,0.1v2.1h-14.5V39.1z"/>
		<path d="M337.6,41.2v-0.1c-2.4-0.5-5-2.7-5-5.1c0-2.2,2.3-4.1,5.8-5v-0.1c-3.3-0.5-6.6-3.2-6.6-7.7c0-4.2,2.9-9.2,12.6-9.2
			c2.9,0,5.9,0.8,7.7,1.8l6.8-2.3l0.6,0.6l-1.1,4.1l-3.6,0.6c0.7,0.9,1.2,2.6,1.2,4.2c0,6.4-5.7,8.8-12.1,8.8c-0.6,0-1.5,0-2.5-0.1
			c-0.8,0.2-2.2,0.8-2.2,2c0,1,1,1.8,3.6,1.8h5c5.7,0,10.7,2,10.7,8.5c0,3.9-2.1,6.7-5,8.3c-2.7,1.5-6.7,2-9,2
			c-7.7,0-13.4-2.6-13.4-7.9C331.3,42.7,335.3,41.7,337.6,41.2z M345.5,51.7c3.6,0,6.7-1.6,6.7-5.4c0-3.3-2.9-4.3-7.5-4.3
			c-2.4,0-4,0.3-4.8,0.8c-0.8,0.5-1.4,1.5-1.4,3C338.6,49.6,341.8,51.7,345.5,51.7z M344.3,29.2c2.5,0,4.1-2.4,4.1-6.3
			c0-4.5-1.9-6.5-4-6.5c-2.2,0-4.1,1.9-4.1,6.5C340.2,26.7,341.9,29.2,344.3,29.2z"/>
		<path d="M1.9,97.2C5.7,97,6.2,96.7,6.2,94V67c0-2.8-0.4-3-4.3-3.2v-2.1h17.2v2.1c-3.8,0.2-4.3,0.4-4.3,3.2V94c0,2.8,0.4,3,4.3,3.2
			v2.1H1.9V97.2z"/>
		<path d="M22.4,97.2c3.1-0.2,3.5-0.4,3.5-2.7V78.6c0-2.2-0.4-2.7-1.3-2.8l-1.9-0.3v-1.9l10.7-1.6l0.7,3.7c3.6-2.1,6.1-3.7,9.2-3.7
			c5.6,0,8.1,3.2,8.2,8.3v14.1c0,2.3,0.4,2.5,3.5,2.7v2.1H40.4v-2.1l1.1-0.1c1.1-0.1,1.7-0.4,1.7-2.2V81.1c-0.1-3.2-1.5-4.9-4.3-4.9
			c-2.3,0-3.7,1.2-4.4,2.7c-0.4,0.8-0.5,2-0.5,3.2v12.8c0,1.8,0.6,2.1,1.7,2.2l1.1,0.1v2.1H22.4V97.2z"/>
		<path d="M57.5,97.2c3.1-0.2,3.5-0.4,3.5-2.7V78.6c0-2.2-0.4-2.7-1.3-2.8l-1.9-0.3v-1.9l10.7-1.6l0.7,3.7c3.6-2.1,6.1-3.7,9.2-3.7
			c5.6,0,8.1,3.2,8.2,8.3v14.1c0,2.3,0.4,2.5,3.5,2.7v2.1H75.6v-2.1l1.1-0.1c1.1-0.1,1.7-0.4,1.7-2.2V81.1c-0.1-3.2-1.5-4.9-4.3-4.9
			c-2.3,0-3.7,1.2-4.4,2.7c-0.4,0.8-0.5,2-0.5,3.2v12.8c0,1.8,0.6,2.1,1.7,2.2l1.1,0.1v2.1H57.5V97.2z"/>
		<path d="M105.4,72.1c9.8,0,14,5.2,14,13.9c0,8.7-4.2,13.9-14,13.9c-9.8,0-14-5.2-14-13.9C91.4,77.3,95.6,72.1,105.4,72.1z
			 M105.4,97.4c3.8,0,5.4-4.2,5.4-11.4c0-7.2-1.6-11.4-5.4-11.4S100,78.7,100,86C100,93.2,101.6,97.4,105.4,97.4z"/>
		<path d="M119.9,72.7h14.3v2.1l-2,0.3c-1,0.1-1.1,0.5-0.8,1.6l5.3,15.5h0.2c1.8-5.5,3.6-10.4,4.9-15.3c0.3-1,0.1-1.6-0.9-1.7
			l-2.3-0.3v-2.1h11.2v2.1c-2.2,0.2-2.8,0.4-3.7,2.3c-1,1.9-2.4,5.4-3.9,9.4l-4.7,12.8h-6l-4.2-11.6c-1.3-3.5-2.5-7-3.9-10.4
			c-0.7-1.7-1.4-2.2-3.5-2.4V72.7z"/>
		<path d="M156.5,85.3c3.5-1.2,8.1-2.5,10-3.8v-2.9c0-3.1-1.6-4-3.1-4c-1.5,0-3.2,0.8-4.8,5.4c-0.4,1.3-1,2.2-2.2,2.2
			c-1.4,0-4.9-1-4.9-3.4c0-3.5,4.9-6.7,12.8-6.7c9.6,0,10.1,4.2,10.1,7.6v12.5c0,3.2,1,3.8,1.7,4.1c0.8,0.3,1.9,0.3,2.6,0.3l0.2,1.8
			c-1.8,0.7-5.2,1.6-8,1.6c-2.6,0-3.5-1.5-4.2-3.1c-1.9,1.2-4.3,3.1-7.7,3.1c-5.5,0-8.2-3.8-8.2-7.8
			C150.7,88.9,152.2,86.7,156.5,85.3z M163.1,95.6c1.5,0,3.2-0.8,3.4-3.7v-7.8c-1.3,0.6-3.2,1.4-4.9,2.3c-1.6,0.9-2.5,2.2-2.5,4.7
			C159.1,94,161,95.6,163.1,95.6z"/>
		<path d="M178.9,72.7h3.4l4.8-6.8h3.1v6.8h5.6v2.7h-5.6v15.4c0,3.5,1.4,5,3.5,5c1.2,0,2.3-0.2,3.1-0.5l0.6,1.7
			c-3,1.9-6.4,2.9-8.6,2.9c-3,0-6.7-2.1-6.7-7V75.4h-3.1V72.7z"/>
		<path d="M199.5,97.2c3.1-0.2,3.5-0.4,3.5-2.7V78.6c0-2.2-0.4-2.7-1.3-2.8l-1.9-0.3v-1.9l11-1.6l0.4,0.3v22.1
			c0,2.3,0.4,2.5,3.5,2.7v2.1h-15.2V97.2z M206.8,60.3c3.1,0,5,2.2,5,4.7c0,2.6-2,4.8-5,4.8c-3,0-4.9-2.2-4.9-4.8
			C201.9,62.4,203.8,60.3,206.8,60.3z"/>
		<path d="M230.2,72.1c9.8,0,14,5.2,14,13.9c0,8.7-4.2,13.9-14,13.9c-9.8,0-14-5.2-14-13.9C216.2,77.3,220.3,72.1,230.2,72.1z
			 M230.2,97.4c3.8,0,5.4-4.2,5.4-11.4c0-7.2-1.6-11.4-5.4-11.4c-3.8,0-5.4,4.2-5.4,11.4C224.8,93.2,226.3,97.4,230.2,97.4z"/>
		<path d="M246.2,97.2c3.1-0.2,3.5-0.4,3.5-2.7V78.6c0-2.2-0.4-2.7-1.3-2.8l-1.9-0.3v-1.9l10.7-1.6l0.7,3.7c3.6-2.1,6.1-3.7,9.2-3.7
			c5.6,0,8.1,3.2,8.2,8.3v14.1c0,2.3,0.4,2.5,3.5,2.7v2.1h-14.5v-2.1l1.1-0.1c1.1-0.1,1.7-0.4,1.7-2.2V81.1
			c-0.1-3.2-1.5-4.9-4.3-4.9c-2.3,0-3.7,1.2-4.4,2.7c-0.4,0.8-0.5,2-0.5,3.2v12.8c0,1.8,0.6,2.1,1.7,2.2l1.1,0.1v2.1h-14.5V97.2z"/>
	</g>
</g>
</svg>
