<?xml version="1.0" encoding="utf-8"?>
<!-- Generator: Adobe Illustrator 19.1.0, SVG Export Plug-In . SVG Version: 6.00 Build 0)  -->
<!DOCTYPE svg PUBLIC "-//W3C//DTD SVG 1.1//EN" "http://www.w3.org/Graphics/SVG/1.1/DTD/svg11.dtd">
<svg version="1.1" id="Layer_1" xmlns="http://www.w3.org/2000/svg" xmlns:xlink="http://www.w3.org/1999/xlink" x="0px" y="0px"
	 width="593.4px" height="343.3px" viewBox="0 0 593.4 343.3" enable-background="new 0 0 593.4 343.3" xml:space="preserve">
<g>
	<g>
		
			<rect x="43.7" y="144.9" transform="matrix(0.8843 -0.4668 0.4668 0.8843 -93.3205 75.0181)" fill="#BAC2E2" width="122.2" height="162"/>
		<g>
			<g>
				<path fill="#3F4251" d="M124,127.4c-18.9,6.2-36.7,15.6-54.6,24.3c-18.7,9-37.3,18-56,27.1c-0.6,0.3-0.8,1.2-0.5,1.8
					c21.6,35.9,35,75.8,54.5,112.8c4.9,9.2,10.1,18.3,15.8,27c2.8,4.3,5.5,9,8.9,12.8c1.5,1.7,2.5,1.7,4.8,0.9
					c3.1-1.2,5.9-3.4,8.7-5.2c4.4-2.9,8.8-5,13.7-7c8.6-3.5,16.9-7.7,25-12.2c19.7-11.1,38.4-24,59.3-32.7c0.8-0.3,1.4-1,1.1-1.9
					c-3.7-11.8-9.7-21.9-16.9-31.8c-8.1-11.1-14.5-22.6-20.8-34.7c-7-13.5-14.6-26.7-21.2-40.6c-6.9-14.7-13.1-29.8-18.4-45.2
					c-0.7-2-3.9-1.1-3.2,0.9c10.1,29.1,23.7,56.1,38.2,83.3c6.6,12.4,12.6,24.4,20.9,35.8c7.7,10.5,14.3,20.8,18.3,33.2
					c0.4-0.6,0.7-1.3,1.1-1.9c-17.1,7.2-32.8,17.1-48.8,26.6c-7.9,4.7-15.9,9.3-24.1,13.4c-8.1,4-16.9,6.6-24.5,11.5
					c-2.4,1.6-6.4,5.5-9.4,5.8c-3.3,0.3-7.3-8.2-9.1-10.9c-5.3-8.2-10.3-16.7-14.9-25.4c-9.5-17.9-17.7-36.5-26.1-55
					c-9.4-20.7-19-41.3-30.8-60.7c-0.2,0.6-0.3,1.2-0.5,1.8c36.4-17.8,73.4-34.7,109.4-53.3C124.3,127.6,124.2,127.3,124,127.4
					L124,127.4z"/>
			</g>
		</g>
		<g>
			<g>
				<path fill="#3F4251" d="M117.1,151.4c-14.3,5.9-28.2,12.7-42.2,19.4c-6.9,3.4-13.9,6.7-20.8,10.2c-3.5,1.7-6.9,3.5-10.4,5.2
					c-4.2,2-8.4,3-12.2,5.8c-1.4,1.1-0.7,3.8,1.3,3.1c3.8-1.3,6.2-3.4,9.6-5.4c3.3-1.9,6.9-3.5,10.3-5.3c7.2-3.6,14.3-7.3,21.5-10.8
					c14.4-7.1,29-13.8,43.2-21.2C118,152.1,117.6,151.1,117.1,151.4L117.1,151.4z"/>
			</g>
		</g>
		<g>
			<g>
				<path fill="#3F4251" d="M120.7,161.1c-27.1,15.2-54.5,30-81.3,45.6c-1,0.6-0.1,2.1,0.9,1.6c27.3-14.9,54.2-30.6,81.2-45.9
					C122.3,161.9,121.5,160.6,120.7,161.1L120.7,161.1z"/>
			</g>
		</g>
		<g>
			<g>
				<path fill="#3F4251" d="M128.6,178.8c-13.1,7.2-26.2,14.3-39.4,21.2c-6.3,3.3-12.6,6.6-19,9.9c-3.5,1.8-6.9,3.6-10.4,5.3
					c-3.5,1.8-7.5,2.6-10.8,4.7c-1.7,1.1-0.7,4.4,1.5,3.5c3.3-1.2,5.7-3.6,8.8-5.2c3.4-1.9,6.9-3.6,10.4-5.4
					c6.6-3.5,13.2-7,19.8-10.5c13.4-7.2,26.7-14.6,40-22.2C130.3,179.7,129.5,178.3,128.6,178.8L128.6,178.8z"/>
			</g>
		</g>
		<g>
			<g>
				<path fill="#3F4251" d="M138.4,191.8c-14.3,5.9-28.2,12.7-42.2,19.4c-6.9,3.4-13.9,6.7-20.8,10.2c-3.5,1.7-6.9,3.5-10.4,5.2
					c-4.2,2-8.4,3-12.2,5.8c-1.4,1.1-0.7,3.8,1.3,3.1c3.8-1.3,6.2-3.4,9.6-5.4c3.3-1.9,6.9-3.5,10.3-5.3c7.2-3.6,14.3-7.3,21.5-10.8
					c14.4-7.1,29-13.8,43.2-21.2C139.3,192.5,139,191.6,138.4,191.8L138.4,191.8z"/>
			</g>
		</g>
		<g>
			<g>
				<path fill="#3F4251" d="M142,201.5c-27.1,15.2-54.5,30-81.3,45.6c-1,0.6-0.1,2.1,0.9,1.6c27.3-14.9,54.2-30.6,81.2-45.9
					C143.6,202.3,142.9,201.1,142,201.5L142,201.5z"/>
			</g>
		</g>
		<g>
			<g>
				<path fill="#3F4251" d="M150,219.2c-13.1,7.2-26.2,14.3-39.4,21.2c-6.3,3.3-12.6,6.6-19,9.9c-3.5,1.8-6.9,3.6-10.4,5.3
					c-3.5,1.8-7.5,2.6-10.8,4.7c-1.7,1.1-0.7,4.4,1.5,3.5c3.3-1.2,5.7-3.6,8.8-5.2c3.4-1.9,6.9-3.6,10.4-5.4
					c6.6-3.5,13.2-7,19.8-10.5c13.4-7.2,26.7-14.6,40-22.2C151.6,220.1,150.9,218.8,150,219.2L150,219.2z"/>
			</g>
		</g>
		<g>
			<g>
				<path fill="#3F4251" d="M163.3,239c-14.3,5.9-28.2,12.7-42.2,19.4c-6.9,3.4-13.9,6.7-20.8,10.2c-3.5,1.7-6.9,3.5-10.4,5.2
					c-4.2,2-8.4,3-12.2,5.8c-1.4,1.1-0.7,3.8,1.3,3.1c3.8-1.3,6.2-3.4,9.6-5.4c3.3-1.9,6.9-3.5,10.3-5.3c7.2-3.6,14.3-7.3,21.5-10.8
					c14.4-7.1,29-13.8,43.2-21.2C164.2,239.7,163.9,238.8,163.3,239L163.3,239z"/>
			</g>
		</g>
		<g>
			<g>
				<path fill="#3F4251" d="M167,248.7c-27.1,15.2-54.5,30-81.3,45.6c-1,0.6-0.1,2.1,0.9,1.6c27.3-14.9,54.2-30.6,81.2-45.9
					C168.5,249.5,167.8,248.3,167,248.7L167,248.7z"/>
			</g>
		</g>
		<g>
			<g>
				<path fill="#3F4251" d="M174.9,266.4c-13.1,7.2-26.2,14.3-39.4,21.2c-6.3,3.3-12.6,6.6-19,9.9c-3.5,1.8-6.9,3.6-10.4,5.3
					c-3.5,1.8-7.5,2.6-10.8,4.7c-1.7,1.1-0.7,4.4,1.5,3.5c3.3-1.2,5.7-3.6,8.8-5.2c3.4-1.9,6.9-3.6,10.4-5.4
					c6.6-3.5,13.2-7,19.8-10.5c13.4-7.2,26.7-14.6,40-22.2C176.6,267.3,175.8,266,174.9,266.4L174.9,266.4z"/>
			</g>
		</g>
	</g>
	<g>
		
			<rect x="148" y="96.7" transform="matrix(-0.993 0.1182 -0.1182 -0.993 437.7226 329.4939)" fill="#BAC2E2" width="122.2" height="162"/>
		<g>
			<g>
				<path fill="#3F4251" d="M137.4,107.9c40.3-5.2,80.4-12.3,120.5-18.3c-0.6-0.4-1.1-0.8-1.7-1.3c2.4,39.7,12.2,78.3,17.7,117.6
					c1.5,10.5,2.5,21,3.1,31.6c0.3,4.9,0.4,9.7,0.4,14.6c0,1.7,0.7,5-0.3,6.5c-0.9,1.4-3.7,1.2-5.5,1.3c-3.7,0.2-7.5,0-11.2,0.3
					c-4.1,0.4-7.9,1.5-11.9,2.4c-9.8,2.1-19.8,3.2-29.8,3.9c-21.1,1.7-42.3,2-63.1,6.3c0.6,0.4,1.3,0.7,1.9,1.1
					c-3.7-12.2-4.2-24.2-3.9-36.9c0.4-14-1.3-27.3-3-41.2c-3.7-30.9-7.7-61.1-16-91.2c-0.6-2.1-3.8-1.2-3.2,0.9
					c4.2,15.2,7.7,30.7,10.3,46.2c2.7,15.8,4,31.8,6,47.8c1.7,13.6,2.8,26.5,2.5,40.2c-0.3,12,0.6,23.5,4.2,35.1
					c0.3,0.9,1.1,1.3,1.9,1.1c20.2-4.3,40.8-4.6,61.3-6.2c9.3-0.7,18.7-1.7,27.9-3.4c4.9-0.9,9.8-2.5,14.7-3
					c4.2-0.4,8.4-0.1,12.5-0.4c1.8-0.1,4.8-0.1,6.2-1.4c2.3-2,1.2-6.5,1.2-9.3c0.1-10.4-0.5-20.8-1.5-31.1c-2-20.5-5.7-40.8-9.5-61
					c-4.5-23.7-9.1-47.5-10.6-71.6c-0.1-0.9-0.8-1.4-1.7-1.3c-20.1,3.1-40.3,6.2-60.4,9.4c-19.9,3.1-40.2,5.4-59.5,11.2
					C137.1,107.7,137.2,108,137.4,107.9L137.4,107.9z"/>
			</g>
		</g>
		<g>
			<g>
				<path fill="#3F4251" d="M156.8,124.5c15.3-2,30.6-4.7,45.9-6.9c8.1-1.2,16.1-2.3,24.2-3.4c4.1-0.6,8.4-1.3,12.5-1.6
					c4-0.3,7.2,0.1,11.2-1c1.9-0.5,1.5-3.3-0.5-3.4c-3.8-0.1-6.4,0.9-10.1,1.8c-3.8,0.9-7.9,1.1-11.7,1.6
					c-8.1,1.2-16.2,2.4-24.3,3.6c-15.8,2.5-31.8,4.8-47.4,8.2C156.1,123.5,156.2,124.5,156.8,124.5L156.8,124.5z"/>
			</g>
		</g>
		<g>
			<g>
				<path fill="#3F4251" d="M159.2,134.9c31-2.7,62-5.1,92.9-8.3c1.1-0.1,1.2-1.9,0-1.8c-31,2.4-61.9,5.7-92.9,8.7
					C158.3,133.6,158.3,135,159.2,134.9L159.2,134.9z"/>
			</g>
		</g>
		<g>
			<g>
				<path fill="#3F4251" d="M162.8,154.2c15.2-1.3,30.4-2.8,45.5-4.5c7.3-0.8,14.5-1.6,21.7-2.5c4-0.5,7.9-1,11.8-1.5
					c3.5-0.4,6.9,0.2,10.4-0.7c2.1-0.5,1.7-3.9-0.5-3.8c-4,0.1-7.8,1.7-11.8,2.3c-3.3,0.4-6.6,0.9-9.9,1.3c-7.6,1-15.1,1.9-22.7,2.8
					c-14.8,1.8-29.7,3.4-44.5,4.9C161.8,152.7,161.8,154.2,162.8,154.2L162.8,154.2z"/>
			</g>
		</g>
		<g>
			<g>
				<path fill="#3F4251" d="M162.2,169.9c15.3-2,30.6-4.7,45.9-6.9c8.1-1.2,16.1-2.3,24.2-3.4c4.1-0.6,8.4-1.3,12.5-1.6
					c4-0.3,7.2,0.1,11.2-1c1.9-0.5,1.5-3.3-0.5-3.4c-3.8-0.1-6.4,0.9-10.1,1.8c-3.8,0.9-7.9,1.1-11.7,1.6
					c-8.1,1.2-16.2,2.4-24.3,3.6c-15.8,2.5-31.8,4.8-47.4,8.2C161.5,168.9,161.6,169.9,162.2,169.9L162.2,169.9z"/>
			</g>
		</g>
		<g>
			<g>
				<path fill="#3F4251" d="M164.6,180.3c31-2.7,62-5.1,92.9-8.3c1.1-0.1,1.2-1.9,0-1.8c-31,2.4-61.9,5.7-92.9,8.7
					C163.7,179,163.7,180.4,164.6,180.3L164.6,180.3z"/>
			</g>
		</g>
		<g>
			<g>
				<path fill="#3F4251" d="M168.2,199.6c15.2-1.3,30.4-2.8,45.5-4.5c7.3-0.8,14.5-1.6,21.7-2.5c4-0.5,7.9-1,11.8-1.5
					c3.5-0.4,6.9,0.2,10.4-0.7c2.1-0.5,1.7-3.9-0.5-3.8c-4,0.1-7.8,1.7-11.8,2.3c-3.3,0.4-6.6,0.9-9.9,1.3c-7.6,1-15.1,1.9-22.7,2.8
					c-14.8,1.8-29.7,3.4-44.5,4.9C167.2,198.1,167.2,199.6,168.2,199.6L168.2,199.6z"/>
			</g>
		</g>
		<g>
			<g>
				<path fill="#3F4251" d="M168.5,222.9c15.3-2,30.6-4.7,45.9-6.9c8.1-1.2,16.1-2.3,24.2-3.4c4.1-0.6,8.4-1.3,12.5-1.6
					c4-0.3,7.2,0.1,11.2-1c1.9-0.5,1.5-3.3-0.5-3.4c-3.8-0.1-6.4,0.9-10.1,1.8c-3.8,0.9-7.9,1.1-11.7,1.6
					c-8.1,1.2-16.2,2.4-24.3,3.6c-15.8,2.5-31.8,4.8-47.4,8.2C167.8,221.9,167.9,222.9,168.5,222.9L168.5,222.9z"/>
			</g>
		</g>
		<g>
			<g>
				<path fill="#3F4251" d="M170.9,233.3c31-2.7,62-5.1,92.9-8.3c1.1-0.1,1.2-1.9,0-1.8c-31,2.4-61.9,5.7-92.9,8.7
					C170,232,170,233.4,170.9,233.3L170.9,233.3z"/>
			</g>
		</g>
		<g>
			<g>
				<path fill="#3F4251" d="M174.5,252.5c15.2-1.3,30.4-2.8,45.5-4.5c7.3-0.8,14.5-1.6,21.7-2.5c4-0.5,7.9-1,11.8-1.5
					c3.5-0.4,6.9,0.2,10.4-0.7c2.1-0.5,1.7-3.9-0.5-3.8c-4,0.1-7.8,1.7-11.8,2.3c-3.3,0.4-6.6,0.9-9.9,1.3c-7.6,1-15.1,1.9-22.7,2.8
					c-14.8,1.8-29.7,3.4-44.5,4.9C173.5,251.1,173.5,252.6,174.5,252.5L174.5,252.5z"/>
			</g>
		</g>
	</g>
	<g>
		
			<rect x="212" y="95.2" transform="matrix(-0.999 4.488546e-02 -4.488546e-02 -0.999 553.739 339.8614)" fill="#BAC2E2" width="122.2" height="162"/>
		<g>
			<g>
				<path fill="#3F4251" d="M206.6,101.3c40.5-2.2,80.9-6.3,121.3-9.4c-0.4-0.4-0.9-0.9-1.3-1.3c-0.5,39.6,6.4,78.7,9,118.2
					c0.6,10.1,1,20.1,0.8,30.2c-0.1,4.9-0.2,9.7-0.5,14.6c-0.1,2.2,0,4.7-0.5,6.8c-0.6,2.6-2.2,2.4-4.7,2.4
					c-7.5,0-14.4-0.5-21.9,0.6c-9.8,1.5-19.7,1.9-29.6,2.1c-22,0.3-44.1-1.2-66,1.7c0.5,0.4,1,0.8,1.5,1.2
					c-2.7-12.2-2.5-24-1.2-36.3c1.4-13.6,0.9-26.6,0.2-40.2c-0.8-15.7-1-31.4-2.5-47.1c-1.5-15.7-3.8-31.4-6.9-46.8
					c-0.4-2.1-3.6-1.2-3.2,0.9c3.3,16.5,5.7,33.1,7.1,49.9c1.4,15.6,1.3,31.3,2.3,47c0.8,13.2,0.6,25.9-0.6,39.1
					c-1.1,11.7-0.9,23,1.7,34.6c0.2,0.9,1.1,1.2,1.9,1.1c20.5-2.8,41.2-1.6,61.8-1.7c10,0,20.1-0.4,30.1-1.7
					c4.5-0.6,8.9-1.6,13.5-1.6c4.1,0,8.2,0.6,12.4,0.5c1.7,0,4.7,0.1,6-1.2c2-1.9,1.4-7.4,1.6-10c0.8-10.4,1-20.8,0.7-31.2
					c-0.5-20.8-2.8-41.4-5.2-62.1c-2.7-23.5-5.4-47-5.1-70.7c0-0.7-0.6-1.4-1.3-1.3c-20.7,1.7-41.3,3.3-62,5
					c-19.8,1.6-39.9,2.4-59.4,6.7C206.4,101,206.5,101.3,206.6,101.3L206.6,101.3z"/>
			</g>
		</g>
		<g>
			<g>
				<path fill="#3F4251" d="M224.9,119.2c16-0.8,32-2.5,48-3.6c7.8-0.6,15.7-1.1,23.6-1.5c3.9-0.2,7.9-0.7,11.8-0.7
					c4.1,0,7.2,0.6,11.3-0.2c2-0.4,1.3-3.2-0.5-3.4c-4.2-0.4-7.6,0.7-11.8,1.1c-3.9,0.4-7.9,0.5-11.8,0.8
					c-8.2,0.6-16.4,1.2-24.5,1.9c-15.4,1.3-30.9,2.4-46.2,4.6C224.2,118.2,224.3,119.2,224.9,119.2L224.9,119.2z"/>
			</g>
		</g>
		<g>
			<g>
				<path fill="#3F4251" d="M226.5,129.8c31.1-0.4,62.2-0.5,93.3-1.5c1.2,0,1.2-1.8,0-1.8c-31.1,0.1-62.2,1.1-93.3,1.8
					C225.6,128.4,225.6,129.8,226.5,129.8L226.5,129.8z"/>
			</g>
		</g>
		<g>
			<g>
				<path fill="#3F4251" d="M228.6,149.2c15.3-0.2,30.5-0.5,45.8-1.1c7.3-0.3,14.6-0.6,21.9-0.9c4-0.2,8-0.4,11.9-0.6
					c3.6-0.2,6.9,0.6,10.4,0.1c2.2-0.4,1.6-3.7-0.5-3.8c-4-0.2-7.9,1.2-11.9,1.4c-3.3,0.2-6.6,0.4-9.9,0.6
					c-7.6,0.4-15.2,0.8-22.9,1.1c-14.9,0.7-29.8,1.2-44.8,1.6C227.6,147.7,227.6,149.3,228.6,149.2L228.6,149.2z"/>
			</g>
		</g>
		<g>
			<g>
				<path fill="#3F4251" d="M226.9,164.9c16-0.8,32-2.5,48-3.6c7.8-0.6,15.7-1.1,23.6-1.5c3.9-0.2,7.9-0.7,11.8-0.7
					c4.1,0,7.2,0.6,11.3-0.2c2-0.4,1.3-3.2-0.5-3.4c-4.2-0.4-7.6,0.7-11.8,1.1c-3.9,0.4-7.9,0.5-11.8,0.8
					c-8.2,0.6-16.4,1.2-24.5,1.9c-15.4,1.3-30.9,2.4-46.2,4.6C226.2,163.9,226.3,164.9,226.9,164.9L226.9,164.9z"/>
			</g>
		</g>
		<g>
			<g>
				<path fill="#3F4251" d="M228.6,175.5c31.1-0.4,62.2-0.5,93.3-1.5c1.2,0,1.2-1.8,0-1.8c-31.1,0.1-62.2,1.1-93.3,1.8
					C227.6,174.1,227.6,175.5,228.6,175.5L228.6,175.5z"/>
			</g>
		</g>
		<g>
			<g>
				<path fill="#3F4251" d="M262.8,194.8c19.6-0.4,39.2-1.4,58.7-2.7c2-0.1,2-3.4,0-3.1c-19.5,2.3-39.1,3.7-58.7,4.5
					C262,193.5,262,194.8,262.8,194.8L262.8,194.8z"/>
			</g>
		</g>
		<g>
			<g>
				<path fill="#3F4251" d="M261.9,218.1c10.6-0.9,21.2-2.6,31.8-3.8c5.2-0.6,10.3-1.1,15.5-1.6c4.9-0.5,10.1,0.2,14.9-0.9
					c1.6-0.4,1.1-2.6-0.4-2.7c-2.4-0.2-3.9,0.3-6.1,0.8c-3,0.7-6.3,0.7-9.4,1c-5.5,0.6-11,1.2-16.4,1.9c-10,1.2-20.1,2.3-30,4.4
					C261.3,217.3,261.4,218.1,261.9,218.1L261.9,218.1z"/>
			</g>
		</g>
		<g>
			<g>
				<path fill="#3F4251" d="M263,228.7c20.4-0.5,40.8-0.6,61.2-1.5c0.9,0,0.9-1.5,0-1.5c-20.4,0.2-40.8,1.1-61.2,1.8
					C262.2,227.5,262.2,228.7,263,228.7L263,228.7z"/>
			</g>
		</g>
		<g>
			<g>
				<path fill="#3F4251" d="M264.4,248.1c19.6-0.4,39.2-1.4,58.7-2.7c2-0.1,2-3.4,0-3.1c-19.5,2.3-39.1,3.7-58.7,4.5
					C263.6,246.8,263.6,248.1,264.4,248.1L264.4,248.1z"/>
			</g>
		</g>
	</g>
	<g>
		
			<rect x="335.8" y="93.8" transform="matrix(-0.9589 -0.2838 0.2838 -0.9589 727.8331 455.0811)" fill="#BAC2E2" width="122.2" height="162"/>
		<g>
			<g>
				<path fill="#3F4251" d="M358.6,82.4c39,11.1,78.6,20.5,117.8,30.7c-0.3-0.5-0.6-1.1-0.9-1.6c-13.5,37.4-19.7,76.7-30.2,114.9
					c-2.6,9.5-5.5,18.9-8.8,28.1c-1.6,4.3-3.2,8.6-4.9,12.9c-0.8,2-1.9,6.6-3.5,8.1c-1.6,1.4-3.3,0.6-5,0c-3.7-1.3-7.2-3.1-10.9-4.3
					c-4.2-1.4-8.6-1.9-12.9-2.8c-9.3-1.9-18.4-4.7-27.4-7.7c-20.3-6.8-40.2-15.1-61.3-19.4c0.4,0.5,0.8,1,1.2,1.5
					c1.4-12.7,5.8-24,11.2-35.5c5.6-12.1,9.2-24.4,12.9-37.1c4.4-15,9.3-29.7,13-44.9c3.7-15.4,6.6-30.9,8.8-46.6
					c0.3-2.1-2.9-3-3.2-0.9c-2.2,16-5.2,31.8-9,47.5c-3.8,15.4-8.9,30.5-13.2,45.7c-3.8,13.2-8,25.6-13.7,38.2
					c-5,10.9-8.5,21.7-9.8,33.6c-0.1,0.6,0.5,1.4,1.2,1.5c19.9,4,38.8,11.6,57.9,18.2c9.3,3.2,18.6,6.1,28.2,8.3
					c4.6,1,9.4,1.5,14,2.9c4,1.2,7.8,3.1,11.8,4.6c1.9,0.7,4.9,2,6.9,1.3c2.8-1,4-6.6,5.1-9.1c3.9-9.1,7.4-18.5,10.4-28
					c6.4-20.1,11.1-40.7,15.7-61.3c5.1-23.2,10.3-46.4,18.3-68.8c0.2-0.7-0.3-1.4-0.9-1.6c-20.1-5.2-40.1-10.4-60.2-15.5
					c-19.2-4.9-38.5-10.7-58.2-13C358.4,82,358.4,82.3,358.6,82.4L358.6,82.4z"/>
			</g>
		</g>
		<g>
			<g>
				<path fill="#3F4251" d="M370,105.3c15.4,4.4,31.1,8.1,46.6,12.3c7.6,2,15.2,4.1,22.8,6.2c4,1.1,8.2,2.1,12.1,3.6
					c3.5,1.3,6.3,2.6,10,3.1c1.7,0.2,2.4-2.5,0.9-3.2c-2.8-1.3-5.4-1.8-8.4-2.3c-4.4-0.6-8.7-2.1-13-3.3c-7.9-2.1-15.8-4.2-23.8-6.3
					c-15.5-4-31.1-8.2-46.9-11.2C369.6,104.1,369.3,105.1,370,105.3L370,105.3z"/>
			</g>
		</g>
		<g>
			<g>
				<path fill="#3F4251" d="M368.1,115.8c29.5,9.7,58.9,19.8,88.6,29.1c1.1,0.3,1.6-1.4,0.5-1.7c-29.4-10-59.1-19.2-88.7-28.7
					C367.6,114.1,367.2,115.5,368.1,115.8L368.1,115.8z"/>
			</g>
		</g>
		<g>
			<g>
				<path fill="#3F4251" d="M363.8,134.9c14.2,4.7,28.4,9.3,42.7,13.6c6.8,2.1,13.7,4.1,20.5,6.2c3.7,1.1,7.5,2.2,11.2,3.3
					c3.8,1.1,7.3,3.2,11.1,3.9c2.5,0.4,3.3-2.8,1-3.7c-3.6-1.4-7.6-1.4-11.4-2.5c-3.4-1-6.9-1.9-10.3-2.9
					c-7.2-2.1-14.3-4.1-21.5-6.3c-14.3-4.2-28.6-8.6-42.8-13.1C363.2,133.1,362.8,134.6,363.8,134.9L363.8,134.9z"/>
			</g>
		</g>
		<g>
			<g>
				<path fill="#3F4251" d="M357,149.1c15.4,4.4,31.1,8.1,46.6,12.3c7.6,2,15.2,4.1,22.8,6.2c4,1.1,8.2,2.1,12.1,3.6
					c3.5,1.3,6.3,2.6,10,3.1c1.7,0.2,2.4-2.5,0.9-3.2c-2.8-1.3-5.4-1.8-8.4-2.3c-4.4-0.6-8.7-2.1-13-3.3c-7.9-2.1-15.8-4.2-23.8-6.3
					c-15.5-4-31.1-8.2-46.9-11.2C356.6,147.9,356.4,148.9,357,149.1L357,149.1z"/>
			</g>
		</g>
		<g>
			<g>
				<path fill="#3F4251" d="M355.1,159.7c29.5,9.7,58.9,19.8,88.6,29.1c1.1,0.3,1.6-1.4,0.5-1.7c-29.4-10-59.1-19.2-88.7-28.7
					C354.6,158,354.2,159.4,355.1,159.7L355.1,159.7z"/>
			</g>
		</g>
		<g>
			<g>
				<path fill="#3F4251" d="M350.8,178.7c14.2,4.7,28.4,9.3,42.7,13.6c6.8,2.1,13.7,4.1,20.5,6.2c3.7,1.1,7.5,2.2,11.2,3.3
					c3.8,1.1,7.3,3.2,11.1,3.9c2.5,0.4,3.3-2.8,1-3.7c-3.6-1.4-7.6-1.4-11.4-2.5c-3.4-1-6.9-1.9-10.3-2.9
					c-7.2-2.1-14.3-4.1-21.5-6.3c-14.3-4.2-28.6-8.6-42.8-13.1C350.2,176.9,349.8,178.4,350.8,178.7L350.8,178.7z"/>
			</g>
		</g>
		<g>
			<g>
				<path fill="#3F4251" d="M341.9,200.3c15.4,4.4,31.1,8.1,46.6,12.3c7.6,2,15.2,4.1,22.8,6.2c4,1.1,8.2,2.1,12.1,3.6
					c3.5,1.3,6.3,2.6,10,3.1c1.7,0.2,2.4-2.5,0.9-3.2c-2.8-1.3-5.4-1.8-8.4-2.3c-4.4-0.6-8.7-2.1-13-3.3c-7.9-2.1-15.8-4.2-23.8-6.3
					c-15.5-4-31.1-8.2-46.9-11.2C341.5,199.1,341.2,200.1,341.9,200.3L341.9,200.3z"/>
			</g>
		</g>
		<g>
			<g>
				<path fill="#3F4251" d="M339.9,210.9c29.5,9.7,58.9,19.8,88.6,29.1c1.1,0.3,1.6-1.4,0.5-1.7c-29.4-10-59.1-19.2-88.7-28.7
					C339.4,209.2,339.1,210.6,339.9,210.9L339.9,210.9z"/>
			</g>
		</g>
		<g>
			<g>
				<path fill="#3F4251" d="M335.6,229.9c14.2,4.7,28.4,9.3,42.7,13.6c6.8,2.1,13.7,4.1,20.5,6.2c3.7,1.1,7.5,2.2,11.2,3.3
					c3.8,1.1,7.3,3.2,11.1,3.9c2.5,0.4,3.3-2.8,1-3.7c-3.6-1.4-7.6-1.4-11.4-2.5c-3.4-1-6.9-1.9-10.3-2.9
					c-7.2-2.1-14.3-4.1-21.5-6.3c-14.3-4.2-28.6-8.6-42.8-13.1C335.1,228.1,334.7,229.6,335.6,229.9L335.6,229.9z"/>
			</g>
		</g>
	</g>
	<g>
		
			<rect x="449.8" y="17.2" transform="matrix(-0.9955 9.477907e-02 -9.477907e-02 -0.9955 1028.7516 147.6249)" fill="#BAC2E2" width="122.2" height="162"/>
		<g>
			<g>
				<path fill="#3F4251" d="M440.8,26.8c40.3-4.2,80.4-10.3,120.6-15.5c-0.4-0.4-0.9-0.9-1.3-1.3c1.5,40.3,10.6,79.6,15.1,119.5
					c1.1,10,1.9,20.1,2.2,30.1c0.1,4.9,0.2,9.7,0.1,14.6c0,1.7,0.6,5-0.4,6.4c-1,1.4-3.8,1.1-5.5,1.1c-3.7,0.1-7.5-0.2-11.2,0.1
					c-4.1,0.3-8,1.3-12,2.1c-9.9,1.8-19.9,2.7-29.9,3.2c-21.1,1.2-42.3,1-63.2,4.9c0.6,0.4,1.3,0.7,1.9,1.1c-3.4-12.3-3.7-24.3-3-37
					c0.7-14-0.7-27.4-2-41.3c-2.9-31-6.3-61.3-13.8-91.5c-0.5-2.1-3.7-1.2-3.2,0.9c3.8,15.3,7,30.8,9.2,46.5
					c2.3,15.9,3.2,31.9,4.9,47.9c1.4,13.6,2.2,26.6,1.5,40.2c-0.6,12,0.1,23.5,3.4,35.1c0.2,0.9,1.1,1.3,1.9,1.1
					c20.3-3.8,40.9-3.7,61.4-4.8c9.4-0.5,18.7-1.3,28-2.8c4.9-0.8,9.8-2.3,14.8-2.6c4.2-0.3,8.4,0.1,12.5-0.1c1.8-0.1,4.8,0,6.3-1.3
					c2.3-1.9,1.3-6.5,1.4-9.3c0.3-10.4,0-20.8-0.8-31.1c-1.5-20.6-4.7-40.9-8.1-61.2c-4-23.8-8-47.7-8.9-71.9c0-0.6-0.6-1.4-1.3-1.3
					c-20.6,2.7-41.1,5.4-61.7,8.1c-19.7,2.6-39.8,4.4-59,9.7C440.6,26.5,440.6,26.8,440.8,26.8L440.8,26.8z"/>
			</g>
		</g>
		<g>
			<path fill="#3F4251" d="M551.4,25.6c1.6,7.6,2.7,15.3,3.7,22.9c1.5,10.7,3,21.5,4.4,32.2c-20.1,0.9-40,4.9-60,7.4
				c-12.4,1.6-24.9,2.6-37.4,2.3c-1.5-1.7,0.1-6.9-1-10.8c-3.9-14.7-1.2-30.7-4.3-45.5c14.9-3.7,21.8-0.4,38.2-2.5
				c7.9-1,15.1-1.3,23.1-2.2c11.7-1.3,23.4-3.2,34.9-5.8"/>
		</g>
		<g>
			<g>
				<path fill="#3F4251" d="M466.4,99.8c31-2,62.1-3.6,93.1-6.1c1.1-0.1,1.2-1.9,0-1.8c-31,1.7-62.1,4.3-93.1,6.5
					C465.4,98.4,465.4,99.9,466.4,99.8L466.4,99.8z"/>
			</g>
		</g>
		<g>
			<g>
				<path fill="#3F4251" d="M469.5,119.1c15.2-1,30.4-2.1,45.6-3.4c7.3-0.6,14.5-1.3,21.8-2c4-0.4,7.9-0.8,11.9-1.2
					c3.6-0.4,6.9,0.3,10.4-0.4c2.2-0.5,1.6-3.8-0.5-3.8c-4,0-7.8,1.6-11.9,2c-3.3,0.4-6.6,0.7-9.9,1.1c-7.6,0.8-15.2,1.6-22.8,2.3
					c-14.9,1.4-29.7,2.7-44.6,3.9C468.5,117.6,468.5,119.2,469.5,119.1L469.5,119.1z"/>
			</g>
		</g>
		<g>
			<g>
				<path fill="#3F4251" d="M469.3,142.4c16-1.6,31.8-4.1,47.7-6c7.8-0.9,15.6-1.9,23.4-2.7c3.9-0.4,7.8-1.1,11.7-1.3
					c4-0.2,7.2,0.3,11.2-0.8c1.9-0.5,1.4-3.3-0.5-3.4c-4.2-0.2-7.6,1.1-11.7,1.7c-3.9,0.6-7.8,0.9-11.7,1.4c-8.1,1-16.3,2-24.4,3.1
					c-15.3,2-30.7,3.9-45.9,6.9C468.6,141.5,468.7,142.5,469.3,142.4L469.3,142.4z"/>
			</g>
		</g>
		<g>
			<g>
				<path fill="#3F4251" d="M471.4,152.9c31-2,62.1-3.6,93.1-6.1c1.1-0.1,1.2-1.9,0-1.8c-31,1.7-62.1,4.3-93.1,6.5
					C470.5,151.5,470.5,153,471.4,152.9L471.4,152.9z"/>
			</g>
		</g>
		<g>
			<g>
				<path fill="#3F4251" d="M474.5,172.2c15.2-1,30.4-2.1,45.6-3.4c7.3-0.6,14.5-1.3,21.8-2c4-0.4,7.9-0.8,11.9-1.2
					c3.6-0.4,6.9,0.3,10.4-0.4c2.2-0.5,1.6-3.8-0.5-3.8c-4,0-7.8,1.6-11.9,2c-3.3,0.4-6.6,0.7-9.9,1.1c-7.6,0.8-15.2,1.6-22.8,2.3
					c-14.9,1.4-29.7,2.7-44.6,3.9C473.5,170.7,473.5,172.3,474.5,172.2L474.5,172.2z"/>
			</g>
		</g>
	</g>
	<g>
		<path fill="#3F4251" d="M258.4,246.8c-5,0.7-10,1.1-14.9,1.4c-7,0.5-14,1-21,1.5c0.2-13-1.5-26-2.3-39c-0.5-8.1-0.6-16.2,0.1-24.2
			c1.1-0.9,4.4,0.3,7-0.2c9.6-1.9,19.8,0.5,29.5-0.9c1.8,9.8-0.6,14.1,0,24.7c0.3,5.2,0.2,9.8,0.4,15c0.3,7.6,1.1,15.2,2.2,22.7"/>
	</g>
</g>
</svg>
