<?xml version="1.0" encoding="utf-8"?>
<!-- Generator: Adobe Illustrator 19.1.0, SVG Export Plug-In . SVG Version: 6.00 Build 0)  -->
<!DOCTYPE svg PUBLIC "-//W3C//DTD SVG 1.1//EN" "http://www.w3.org/Graphics/SVG/1.1/DTD/svg11.dtd">
<svg version="1.1" id="Layer_1" xmlns="http://www.w3.org/2000/svg" xmlns:xlink="http://www.w3.org/1999/xlink" x="0px" y="0px"
	 width="584.3px" height="410.4px" viewBox="0 0 584.3 410.4" enable-background="new 0 0 584.3 410.4" xml:space="preserve">
<g>
	<g>
		<g>
			<path fill="#3F4251" d="M309.4,178.8c7.7-11.6,14.6-23.7,22.9-34.9c8.6-11.6,18.2-22.5,28.4-32.7C381,91,404.3,73.8,429.4,60
				c14.4-7.9,29.4-14.6,44.9-20.1c1.6-0.6,1.8-2.9,0-3.4c-13.4-4-26.8-8-40.2-12c0,1.2,0,2.3,0,3.5c26.1-4.7,52.2-9.3,78.3-14
				c-0.7-0.7-1.5-1.5-2.2-2.2c-6.7,16.2-13.4,32.5-20.1,48.7c1.2,0,2.4,0,3.5,0c-2.4-6.9-6.7-14.2-13.5-17.6
				c-0.7-0.4-1.6-0.3-2.2,0.3C462,59.9,445.2,76,431,94.3c-10.4,13.5-18,30.8-18.2,48.1c0,2.4,3.7,2.4,3.7,0
				c0.2-18.3,9-35.3,20.1-49.3c13.5-16.8,29.1-31.8,43.9-47.4c-0.7,0.1-1.5,0.2-2.2,0.3c5.9,2.9,9.7,9.3,11.8,15.4
				c0.6,1.8,2.9,1.7,3.5,0c6.7-16.2,13.4-32.5,20.1-48.7c0.6-1.4-1.1-2.5-2.2-2.2c-26.1,4.7-52.2,9.4-78.3,14.1
				c-1.8,0.3-1.6,3,0,3.5c13.4,4,26.8,8,40.2,11.9c0-1.1,0-2.3,0-3.4C418.9,55.9,369,90.6,333.8,136.8
				c-9.8,12.9-19.2,26.6-24.7,41.9C309.1,178.8,309.3,178.9,309.4,178.8L309.4,178.8z"/>
		</g>
	</g>
	<g>
		<g>
			<path fill="#3F4251" d="M414.5,142.4c-0.2,0.8-1.2,1.3-1.6,2.1c-0.5,1-0.5,2.6-0.7,3.7c-0.7,3.4-1.3,6.7-2,10.1
				c-1.9,9.2-3.8,18.4-5.7,27.7c-4.1,20.1-8.3,40.2-11.7,60.5c-1.1,6.7-2.5,13.5-2.8,20.3c-0.1,2,3,2,3.2,0c1-15.2,5-30.4,7.8-45.3
				c3.8-20.1,7.7-40.1,11.6-60.2c0.7-3.9,1.5-7.8,2.2-11.7c0.2-1.3,0.8-2.8,0.7-4.1c0-0.9-0.8-2.1-0.7-3
				C414.9,142.3,414.5,142.1,414.5,142.4L414.5,142.4z"/>
		</g>
	</g>
	<g>
		<g>
			<path fill="#3F4251" d="M17.7,190.7c7.6-8.1,19.9-12.2,30.1-15.6c19.8-6.6,40.7-9.7,61.4-11.5c75.3-6.4,152,5.1,225.3,21.8
				c27.6,6.3,54.7,15.2,82.6,19.8c24.9,4.1,49.4,2.3,74-2.9c1-0.2,1.5-1.8,0.7-2.5c-5.7-4.7-10.6-10.3-15.3-16.1
				c-0.4,0.8-0.7,1.7-1.1,2.5c26.2-1.1,52.3-2.2,78.5-3.3c3.8-0.2,7.6-0.3,11.3-0.5c-0.4-0.9-0.7-1.8-1.1-2.7
				c-13.9,16-27.9,32-41.8,48c0.7,0,1.5,0,2.2,0c-6.3-5.2-12.5-10.4-18.8-15.6c-2.7-2.3-3.5-1.8-7-0.7c-5,1.5-10.2,2.4-15.3,3.1
				c-27.8,3.7-56.6,1.7-84.4-0.4c-31.9-2.4-63.7-6-95.5-9.4c-35.3-3.8-70.3-6.2-105.7-2.6c-44.2,4.5-87.5,16.4-127.9,35
				c-2,0.9-0.3,3.8,1.7,2.9c36.5-16.9,75.5-28.2,115.4-33.4c35.9-4.7,71.5-3.4,107.4,0.4c30.7,3.2,61.4,6.8,92.2,9.4
				c28.6,2.4,57.7,4.5,86.4,2.4c6-0.4,11.9-1.1,17.8-2.2c2.5-0.5,5.1-1,7.5-1.7c1-0.3,2.6-0.5,3.4-1c1.2-0.8-0.7-1,0.4-0.5
				c3.9,2,7.5,6.3,10.9,9.1c3.1,2.5,6.1,5.1,9.2,7.6c0.6,0.5,1.6,0.7,2.2,0c13.9-16,27.9-32,41.8-48.1c0.8-1,0.3-2.7-1.1-2.7
				c-26.2,1.2-52.3,2.3-78.5,3.5c-3.8,0.2-7.6,0.3-11.3,0.5c-1.4,0.1-1.9,1.6-1.1,2.5c4.6,5.7,9.6,11.4,15.3,16
				c0.2-0.8,0.4-1.6,0.7-2.5c-23.5,5-47.1,6.9-70.9,3.2c-25.1-3.9-49.6-11.8-74.3-17.6c-43.6-10.3-87.8-18.3-132.5-22.5
				c-32.4-3.1-65.2-4.1-97.7-1.7c-21.5,1.6-43.1,4.7-63.7,11.1c-11.8,3.7-25.7,8.6-33.8,18.4C17.3,190.6,17.6,190.8,17.7,190.7
				L17.7,190.7z"/>
		</g>
	</g>
	<g>
		<g>
			<path fill="#3F4251" d="M225.8,297.8c9-2.8,17.3-10.2,24-16.5c7-6.6,15.4-15,19.5-24c0.6-1.3-1-2.9-2.1-1.6
				c-3.1,3.7-5.5,8-8.4,11.8c-3.2,4-6.6,7.8-10.2,11.4C241.5,285.9,232.9,290.9,225.8,297.8C225.7,297.8,225.8,297.9,225.8,297.8
				L225.8,297.8z"/>
		</g>
	</g>
	<g>
		<g>
			<path fill="#3F4251" d="M91,260.2c16.5-13.8,30.9-29.6,46.4-44.4c1.2-1.1-0.6-2.8-1.7-1.7c-15.5,14.8-29.6,31-45.2,45.6
				C90.1,260.1,90.6,260.5,91,260.2L91,260.2z"/>
		</g>
	</g>
	<g>
		<g>
			<path fill="#3F4251" d="M164.7,163.1c21.8-16.5,44.5-31.7,69.5-43.1c20.6-9.4,43.9-17.3,58.2-35.8c0.5-0.6-0.1-1.4-0.7-1.7
				c-8.7-3.2-17.6-6.1-26.4-9.1c0,0.8,0,1.5,0,2.3c22.7-5.1,45.5-10.1,68.2-15.2c-0.5-0.4-1.1-0.8-1.6-1.2
				c-1.4,12.8-2.7,25.6-4.1,38.4c0.5-0.4,1.1-0.8,1.6-1.2c-8.1-2.9-16.2-5.9-24.3-8.8c-0.4-0.2-1,0-1.3,0.3
				c-9.7,9.3-19.1,18.9-28.4,28.6c-14.8,15.5-29.8,31.4-41.8,49.2c-1.1,1.6,1.5,3,2.5,1.5c12.7-19,28.8-35.8,44.6-52.2
				c6.3-6.6,12.7-13.1,19.2-19.5c1.5-1.5,3.7-3.1,4.9-4.9c0.2-0.3,0.5-0.6,0.8-0.8c-1.3,0.9-1.1,0.4,0.8,1.1
				c7.4,2.7,14.8,5.3,22.3,8c0.9,0.3,1.5-0.5,1.6-1.2c1.3-12.8,2.7-25.6,4-38.4c0.1-0.8-0.9-1.4-1.6-1.2
				c-22.7,5.1-45.4,10.2-68.2,15.3c-1.2,0.3-1,1.9,0,2.3c8.8,3,17.7,5.9,26.4,9c-0.2-0.6-0.5-1.1-0.7-1.7
				c-14.7,19.2-39.6,26.8-60.6,36.7C206.4,130.9,183.7,145.3,164.7,163.1C164.6,163.1,164.7,163.2,164.7,163.1L164.7,163.1z"/>
		</g>
	</g>
	<g>
		<g>
			<path fill="#3F4251" d="M227.4,203.7c-5,9.9-5.4,24.1-4.3,34.9c0.1,1.2,2,1.3,2,0c-0.2-5.9-0.3-11.7,0.2-17.6
				c0.5-5.8,2.1-11.5,2.5-17.3C227.8,203.6,227.5,203.5,227.4,203.7L227.4,203.7z"/>
		</g>
	</g>
	<g>
		<path fill="#EA4E3D" d="M41.1,289.4c13.1-11,26.6-21.9,42.2-28.7c13.1-5.8,27.3-8.5,41.3-11.3c23.9-4.7,47.9-9.3,71.8-14
			c80.8-15.8,156.1-26.7,222-76c-7.1-0.7-21-8.1-26-12.8c24.2,0.5,48.4-4,72-9.3c-6.6,11.4-11,26.2-12.7,39.2
			c-8.9-4.2-18.2-7.6-27.7-10.1c-13,20-41.2,49.4-69.9,63.8c-28.7,14.4-59.7,23.3-89.7,34.6c-30,11.3-59.8,25.5-82.4,48.3
			c-22.6,22.8-37.1,55.5-31.3,87.1"/>
	</g>
	<g>
		<g>
			<path fill="#3F4251" d="M35.8,286.5c10.9-8.8,22.1-17.6,34.5-24.2c12.4-6.6,26-10.2,39.8-13.1c28.6-5.9,57.4-11.2,86.1-16.7
				c48.5-9.3,97.7-17.4,144-35.2c26.1-10,50.9-23.1,73.4-39.9c1.6-1.2,0.9-3.2-0.9-3.5c-8.5-1.1-18.3-6.6-24.7-12.3
				c-0.4,1.1-0.9,2.2-1.3,3.2c24.5,0.4,48.7-4,72.6-9.3c-0.7-1-1.5-1.9-2.2-2.9c-6.9,12.2-11,25.9-13,39.7c1-0.4,2-0.8,2.9-1.2
				c-9.1-4.2-18.4-7.7-28.1-10.4c-1-0.3-1.9,0.2-2.4,1c-13.1,19.7-30.9,37.2-50.2,50.8c-22.3,15.8-48.8,24.5-74.4,33.4
				c-47.4,16.5-99.7,33.4-130.6,75.8c-15.9,21.8-24.4,48.6-18.6,75.4c0.6,2.7,5.2,2.1,4.8-0.7c-3.2-24.4,4.6-49.2,18.4-69.2
				c14.4-20.8,35.6-35.9,57.9-47.4c23.7-12.2,49.1-20.4,74.1-29.3c24.5-8.8,49.8-18,71-33.4c19.8-14.4,37.9-32.6,51.2-53.2
				c-0.8,0.3-1.6,0.7-2.4,1c9.4,2.4,18.4,5.6,27.2,9.7c1,0.5,2.8,0.2,2.9-1.2c1.9-13.5,5.8-26.9,12.5-38.8c0.9-1.5-0.6-3.3-2.2-2.9
				c-23.5,5.3-47.3,9.7-71.5,9.3c-1.6,0-2.6,2.1-1.3,3.2c7.2,6.4,17.7,12.1,27.4,13.4c-0.3-1.2-0.6-2.3-0.9-3.5
				c-41,30.6-88.9,47.7-138.3,59.3c-53.1,12.4-107,21.3-160.4,32c-14.6,2.9-29.2,6.5-42.4,13.6c-13.1,7-24.5,16.6-35.6,26.4
				C34.2,286.1,35.1,287.1,35.8,286.5L35.8,286.5z"/>
		</g>
	</g>
</g>
</svg>
