<?xml version="1.0" encoding="utf-8"?>
<!-- Generator: Adobe Illustrator 19.1.0, SVG Export Plug-In . SVG Version: 6.00 Build 0)  -->
<!DOCTYPE svg PUBLIC "-//W3C//DTD SVG 1.1//EN" "http://www.w3.org/Graphics/SVG/1.1/DTD/svg11.dtd">
<svg version="1.1" id="Layer_1" xmlns="http://www.w3.org/2000/svg" xmlns:xlink="http://www.w3.org/1999/xlink" x="0px" y="0px"
	 width="185.6px" height="250px" viewBox="0 0 185.6 250" enable-background="new 0 0 185.6 250" xml:space="preserve">
<g>
	<g>
		<g>
			<path fill="#F79B36" d="M100.1,149.3c-3.8,6.8-7.6,13.6-11.4,20.4c-4,7.2-1.8,16.7,5.5,21c7.3,4.3,16.6,1.6,21-5.5
				c0.9-1.5,1.8-2.9,2.8-4.3c-1,1.4,0.9-1.1,1.2-1.4c0.9-1,1.8-2,2.7-2.9c0.4-0.4,3.6-3.2,1.6-1.6c-7.5-5.8-15-11.5-22.5-17.3
				c-3.3,14.5,8.2,26.1,18.7,34.2c4.3,3.4,8.8,6.6,13.8,8.9c6.4,2.9,15,5.6,21.3,0.9c-7.7-4.4-15.4-8.8-23.1-13.2
				c1,9.6,1.2,19.1,0.6,28.7c-0.5,8.4,7.5,15.1,15.3,15.3c4.9,0.1,9.8,0.1,14.7-0.1c8-0.3,15.7-6.8,15.3-15.3
				c-0.4-8-6.7-15.7-15.3-15.3c-4.9,0.2-9.8,0.2-14.7,0.1c5.1,5.1,10.2,10.2,15.3,15.3c0.6-9.6,0.4-19.1-0.6-28.7
				c-0.6-5.5-2.5-10.3-7.6-13.2c-4.3-2.5-11.2-3.2-15.5,0c-2.5,1.8,9.4-1.6,6.1-1.7c4,0.1,3.9,0.6,2,0.1c-2.7-0.7,1.1-0.6,1.1,0.5
				c0-0.2-2-1-2.2-1.1c-1.5-0.8-2.9-1.7-4.4-2.6c-0.8-0.5-1.7-1.1-2.5-1.7c-0.4-0.3-3.2-2.5-1.3-1c1.9,1.5-0.5-0.4-0.9-0.8
				c-0.8-0.7-1.6-1.3-2.3-2c-1.4-1.3-2.7-2.9-4.1-4.2c-2.1-2,1.5,2.7,0.3,0.4c-0.3-0.6-0.8-1.4-1.2-2c-1.4-1.9,1.1,3,0.7,1.5
				c-0.3-1.2-0.2-0.4,0.3,2.6c0-1.6-0.1-0.7-0.4,2.5c1.4-6-0.4-12.3-5.5-16.1c-4.4-3.3-12.2-4.9-17-1.2c-7.9,6-14.1,12.7-19.3,21.3
				c8.8,5.2,17.6,10.3,26.5,15.5c3.8-6.8,7.6-13.6,11.4-20.4c4-7.2,1.8-16.7-5.5-21C114.1,139.7,104.2,142,100.1,149.3L100.1,149.3z
				"/>
		</g>
	</g>
	<g>
		<path fill="#F79B36" d="M59.4,160c-13.2,4.7-20.7,8.8-33.3,14.9c6.8,5.2,13.3,10.7,20.3,15.6c12.2,8.5,26.6-18.2,28-17.1"/>
	</g>
	<g>
		<path fill="#F79B36" d="M65.7,147.8c1-0.3-3.6,2-4.4,2.8c-3.7,4.2-6.4,8.7-10.1,12.9c7.9,2.9,11.1,7.5,19,10.4
			c1.7,0.6,12.7,7.4,15.7,6.8c0.9-5,2.3-9.9,4.3-14.6c-10-4.8-20-9.5-30.1-14.3"/>
	</g>
	<g>
		<g>
			<path fill="#3F4251" d="M132.7,72.4c0.1,5.2,0,10.5-0.6,15.8c-0.4,3.5-0.6,8.3-2.5,11.4c-0.8,1.4-3.3,3.8-5.1,3.4
				c-0.8-0.2-1.8-1.8-2.3-2.5c-0.5-0.7-0.9-1.5-1.3-2.3c-0.3-0.6-1-0.2-1.1,0.3c-1.3,10.3-5,20.7-11,29.2
				c-7.2,10.2-16.9,14.8-29.3,13.6c-10.9-1.1-20.5-6.2-26.2-15.7c-5.4-9-7.1-19.7-7.9-30c0-0.6-0.8-0.8-1.1-0.3
				c-3.1,4.5-4.9-1.1-6.1-3.6c-1.6-3.5-3.1-7.1-4.1-10.8c-0.8-2.8-2.4-7.4-1.2-10.2c2.4-5.4,5.4-0.3,7.8,1.1
				c0.4,0.3,1.1-0.2,0.9-0.7c-2.8-7.2-3.9-13.7-1.8-21.3c2.1-7.7,7-14.4,13.6-19c9.9-6.9,22.3-8.8,34.1-8.6
				c13.3,0.2,29.1,2.5,38.7,12.8c8.8,9.4,7.7,22.4,1.5,32.9c-0.3,0.6,0.3,1,0.8,0.8C132.2,67.1,132.7,70.5,132.7,72.4
				c0,0.8,1.2,0.8,1.2,0c0-4-2.1-6.4-6-4.7c0.3,0.3,0.5,0.5,0.8,0.8c5.2-8.7,7.4-19.4,2.4-28.7c-6.2-11.6-20-16.3-32.2-17.9
				c-21.5-2.8-49.3,0.8-58.8,23.4c-3.8,9-3.1,17.2,0.4,26.1c0.3-0.2,0.6-0.4,0.9-0.7c-2.3-1.4-3.8-5.7-7.2-3.6
				c-4.3,2.6-2.4,9.3-1.4,13.1c1,3.6,6.5,24.7,12.7,15.7c-0.4-0.1-0.7-0.2-1.1-0.3c0.9,11.1,2.8,23,9.3,32.4
				c6,8.8,15.6,13.5,26.1,14.5c11.9,1.2,21.5-2.8,28.8-12.2c7-9,11.2-20.5,12.6-31.7c-0.4,0.1-0.7,0.2-1.1,0.3
				c1,2.2,2.8,5.4,5.5,5.8c3.4,0.4,5.1-3.9,6-6.4c2.6-8.1,2.7-17.4,2.4-25.8C133.9,71.7,132.7,71.7,132.7,72.4z"/>
		</g>
	</g>
	<g>
		<path fill="#3F4251" d="M73.4,88.3c-0.4,1.1-0.8,2.1-1.1,3.2c-0.3,1.1-0.5,2.1-0.7,3.2c-0.1,1-0.1,2.1,0.2,2.8
			c0.2,0.4,0.4,0.6,0.6,0.8c0.1,0.1,0.3,0.2,0.4,0.2c0.2,0.1,0.3,0.1,0.5,0.1l-0.7,0c3.9-1,7.8-2,11.7-2.8l3-0.6l0.3-0.1l0.1,0
			c0.1,0,0.2-0.1,0.3-0.1c0.2-0.1,0.3-0.3,0.4-0.4c0,0,0-0.1,0.1-0.1l0.1-0.2c0.1-0.3,0.1-0.3,0.2-0.6c0.1-0.4,0.2-0.8,0.3-1.1
			c0.1-0.8,0.1-1.5-0.1-2.3c-0.1-0.8-0.5-1.4-0.9-2.4L87,85c-0.9-1.9-1.7-3.8-2.2-5.8c-0.3-1-0.5-2-0.7-3.1c-0.2-1-0.3-2.1-0.3-3.2
			c0-2.1,0.4-4.2,1.2-6.1c-0.1,2,0,4,0.5,5.9c0.2,0.9,0.5,1.9,0.8,2.8c0.3,0.9,0.7,1.8,1.1,2.7c0.8,1.8,1.8,3.4,2.8,5.2l1.5,2.6
			c0.5,0.8,1.1,2,1.3,3.2c0.3,1.2,0.4,2.5,0.2,3.7c-0.1,0.6-0.2,1.2-0.4,1.8c-0.1,0.3-0.2,0.7-0.3,0.9c0,0.1-0.1,0.3-0.2,0.5
			c-0.1,0.2-0.2,0.4-0.3,0.5c-0.4,0.7-1,1.3-1.7,1.7c-0.3,0.2-0.7,0.4-1.1,0.5c-0.2,0.1-0.4,0.1-0.6,0.2l-0.4,0.1l-3,0.5
			c-4,0.7-7.9,1.3-12,1.8l-0.2,0c-0.2,0-0.3,0-0.4-0.1c-0.3-0.1-0.7-0.3-1-0.5c-0.3-0.2-0.7-0.4-0.9-0.7c-0.6-0.6-0.9-1.3-1.1-2
			c-0.3-1.4,0-2.7,0.3-3.9c0.4-1.1,0.9-2.2,1.5-3.2C72,90.1,72.6,89.2,73.4,88.3z"/>
	</g>
	<path fill="#3F4251" d="M119.3,71.4c0.6-1.6,1.2-4.5-2.1-5.8c-4.5-1.7-6.4,2.7-10.1,3.3c-3.4,0.6-10.8-1.7-12.9-4.3
		c-2.1-2.7-3.3-4.6-6.7-3.2c-2.9,1.2-3.5,12.9-3.5,12.9s-2.4-13.2,4.3-16.4c3.8-1.9,10.1,4,16.4,3.5c16.5-1.1,17.8,4.2,17.8,4.2
		s1.6,3-2.4,6.3C119.7,72.2,119.1,71.9,119.3,71.4z"/>
	<path fill="#3F4251" d="M54.4,70.5c-1.7,1.8,0.4,4.6,2.6,3.5c2.6-1.3,5.6-2.4,7.5-2.2c1.5,0.2,3.5,0.8,5.3,1.4
		c2.1,0.7,3.8-1.7,2.5-3.5c-2-2.7-4.5-5.2-6.7-5.1C63.2,64.8,57.8,66.8,54.4,70.5z"/>
	
		<ellipse transform="matrix(0.9502 -0.3116 0.3116 0.9502 -21.5852 24.4745)" fill="#3F4251" cx="65.8" cy="79.8" rx="3.4" ry="3.4"/>
	
		<ellipse transform="matrix(0.9502 -0.3116 0.3116 0.9502 -19.1628 34.8299)" fill="#3F4251" cx="99.4" cy="77.4" rx="3.4" ry="3.4"/>
	<g>
		<path fill="#3F4251" d="M60.6,114.3c0,0,1.9-1,4.9-2c1.5-0.5,3.3-1.1,5.3-1.5c2-0.4,4.2-0.7,6.5-0.6c0.6,0,1.1,0.1,1.8,0.2
			c0.5,0.1,1,0.1,1.6,0.3c1.2,0.2,2.2,0.5,3.2,0.9c1.9,0.8,3.5,2,4.8,3c0.6,0.5,1.2,1.1,1.6,1.6c0.5,0.5,0.8,1,1.1,1.4
			c0.6,0.8,0.8,1.3,0.8,1.3l-0.3,0.3c0,0-0.6-0.1-1.5-0.4c-0.5-0.1-1-0.3-1.6-0.6c-0.6-0.2-1.3-0.5-2-0.8c-0.7-0.3-1.5-0.6-2.3-0.9
			c-0.8-0.3-1.6-0.7-2.5-1c-0.8-0.4-1.7-0.8-2.5-1.2c-0.4-0.2-1-0.4-1.4-0.5c-0.3-0.1-0.9-0.2-1.3-0.3c-0.9-0.2-1.9-0.3-2.9-0.3
			c-1,0-2,0-2.9,0c-1.9,0.1-3.7,0.3-5.3,0.6c-3.1,0.5-5.1,1-5.1,1L60.6,114.3z"/>
	</g>
	<g>
		<path fill="#3F4251" d="M33.7,75.8c0.1-2.3,0.1-4.6,0.3-6.8c0.1-2.3,0.2-4.6,0.3-6.8l0.4-6.8l0.4-6.8c0-0.7,0.6-1.2,1.3-1.2
			c0.6,0,1.1,0.5,1.2,1.1l0,0.1c0.5,4.5,1,9,1.5,13.5c0.5,4.5,0.9,9,1.2,13.6l0.1,1.7l0,0.9c0,0.2,0,0.4,0,0.5l0,0.3l0,0.1l0,0.1
			l0,0c1.1-1.1-1.5,1.5-1.2,1.2c-0.1,0,0.2,0-0.2,0.1c-0.3,0.1-1.3,0.1-1.9-0.6c-0.5-0.5-0.5-1.2-0.5-1l0-0.1l0-0.2l0-0.2l0-0.3
			c0-1.2,0-2.3,0.1-3.5L37,68c0.2-4.5,0.3-9.1,0.6-13.6l0,0c0.1-1.1,1-2,2.1-1.9c1,0.1,1.7,0.8,1.9,1.7l2.2,12.3
			c0.4,2,0.7,4.1,1,6.1l1,6.1L42.2,79c0-3.2,0-6.4,0-9.6l0.1-9.6l0-0.1c0-0.7,0.6-1.3,1.4-1.3c0.6,0,1.1,0.4,1.3,1l2.5,8.5l2.4,8.5
			l-1.3,0.3l-0.3-6l-0.3-6l1,5.9l0.9,5.9c0.1,0.4-0.2,0.7-0.6,0.8c-0.3,0.1-0.6-0.1-0.7-0.4l0-0.1l-3.1-8.3l-3-8.3l2.6-0.4l0.4,9.6
			c0.1,3.2,0.3,6.4,0.4,9.6c0,1-0.7,1.8-1.7,1.8c-0.9,0-1.6-0.6-1.8-1.4l0,0L41,73.2c-0.4-2-0.8-4.1-1.2-6.1l-2.3-12.2l4-0.3
			c-0.2,4.5-0.4,9-0.6,13.6l-0.3,6.8l-0.1,3.3l0,0.2l0,0l0-0.1l0,0c0,0.2,0-0.5-0.5-1c-0.5-0.6-1.5-0.7-1.8-0.5
			c-0.3,0.1-0.1,0-0.2,0l-1.2,1.2l0,0c0,0,0,0,0,0.1c0,0,0,0.1,0,0.1l0-0.8l-0.1-1.7l-0.8-13.5c-0.2-4.5-0.5-9-0.7-13.6l2.5,0
			l-0.9,6.8l-1,6.8c-0.3,2.3-0.7,4.5-1,6.8C34.5,71.3,34.1,73.5,33.7,75.8z"/>
	</g>
	<g>
		<path fill="#3F4251" d="M124,80.5c-0.1-1-0.1-2-0.1-3c0-1,0-2,0-3c0-1,0-2,0.1-3c0-1,0.1-2,0.1-3c0.1-0.8,0.7-1.4,1.5-1.3
			c0.7,0,1.2,0.6,1.3,1.2l0,0.2c0.5,2.7,0.9,5.4,1.2,8.1l-3.8-0.1c0.2-1.8,0.4-3.6,0.6-5.4c0.2-1.8,0.5-3.6,0.7-5.4l0-0.1
			c0.2-1.1,1.2-1.9,2.3-1.7c0.7,0.1,1.3,0.6,1.6,1.2l1.3,3.2l-3.7,0.7c0.2-2.5,0.5-5,0.8-7.5l0-0.2c0.1-0.9,0.9-1.5,1.7-1.4
			c0.7,0.1,1.2,0.6,1.4,1.3c0.3,1.5,0.5,3.1,0.7,4.7l-2.3,0.1c0.2-0.9,0.4-1.8,0.7-2.7c0.3-0.9,0.5-1.8,0.8-2.7l0-0.2
			c0.1-0.3,0.4-0.4,0.6-0.3c0.2,0.1,0.3,0.2,0.4,0.4c0.1,1.1,0.2,2.2,0.2,3.3c-0.5-1-0.9-2-1.3-3l1,0c0,0.9,0,1.8-0.1,2.8
			c0,0.9-0.1,1.8-0.1,2.8c0,0.6-0.6,1.1-1.2,1.1c-0.5,0-0.9-0.3-1-0.8l-0.1-0.2c-0.5-1.5-1-3-1.5-4.5l3.1-0.3c0,2.5,0,5.1,0,7.6
			c0,1.1-0.9,1.9-2,1.9c-0.8,0-1.4-0.5-1.7-1.1l0-0.1l-1.4-3.2l3.9-0.5c-0.2,1.8-0.4,3.6-0.7,5.4c-0.3,1.8-0.5,3.6-0.8,5.4l0,0.1
			c-0.2,1-1.2,1.7-2.2,1.6c-0.9-0.1-1.5-0.9-1.6-1.8c-0.2-2.7-0.3-5.4-0.3-8.1l2.9,0.1c-0.2,1-0.4,1.9-0.7,2.9
			c-0.2,1-0.4,1.9-0.7,2.9c-0.3,1-0.5,1.9-0.8,2.9C124.6,78.6,124.3,79.5,124,80.5z"/>
	</g>
	<g>
		<path fill="#3F4251" d="M54.1,35.6c0,0,0.2-0.2,0.6-0.6c0.4-0.4,0.9-1,1.7-1.7c0.8-0.7,1.7-1.6,2.8-2.5c1.1-0.9,2.4-1.9,3.9-2.9
			c1.5-1,3.1-2.1,4.9-3.1c1.8-1,3.7-2,5.8-2.9c2.1-0.9,4.3-1.7,6.7-2.2c2.3-0.6,4.8-0.9,7.3-1.1c2.5,0,5,0,7.4,0.6
			c1.2,0.2,2.4,0.6,3.5,0.9c1.1,0.4,2.2,0.9,3.3,1.4c0.5,0.3,1,0.6,1.5,0.8c0.5,0.3,1,0.5,1.5,0.9c0.5,0.3,0.9,0.7,1.3,1
			c0.4,0.3,0.9,0.6,1.3,1c0.8,0.7,1.6,1.4,2.2,2.1c0.6,0.7,1.3,1.5,1.9,2.2c0.6,0.7,1,1.4,1.5,2.1c0.2,0.3,0.5,0.7,0.7,1
			c0.2,0.3,0.4,0.7,0.6,1c0.7,1.3,1.4,2.4,1.7,3.3c0.8,1.9,1.3,3,1.3,3s-0.7-0.9-2-2.6c-0.6-0.9-1.4-1.7-2.3-2.8
			c-0.2-0.3-0.5-0.5-0.7-0.8c-0.3-0.3-0.5-0.5-0.8-0.8c-0.6-0.6-1.1-1.2-1.7-1.8c-0.6-0.6-1.3-1.1-2-1.7c-0.7-0.6-1.5-1.1-2.2-1.7
			c-0.4-0.3-0.8-0.5-1.2-0.8c-0.4-0.2-0.8-0.5-1.3-0.7c-0.9-0.5-1.8-0.9-2.7-1.3c-1-0.3-1.9-0.7-2.9-1c-1-0.2-2-0.5-3.1-0.7
			c-2.1-0.4-4.3-0.4-6.5-0.4c-1.1,0.1-2.2,0.1-3.3,0.3c-0.5,0.1-1.1,0.1-1.6,0.2c-0.5,0.1-1.1,0.2-1.6,0.3c-0.5,0.1-1.1,0.2-1.6,0.4
			c-0.5,0.1-1.1,0.3-1.6,0.4c-1,0.3-2.1,0.6-3.1,1c-2,0.7-3.9,1.5-5.8,2.2c-1.8,0.8-3.5,1.6-5.1,2.4c-1.6,0.8-3,1.5-4.2,2.2
			c-1.2,0.7-2.3,1.3-3.2,1.8C55.1,35,54.1,35.6,54.1,35.6z"/>
	</g>
	<g>
		<path fill="#3F4251" d="M53.3,31.4c0,0,0.5-0.8,1.7-2c1.2-1.2,3-2.9,5.5-4.4c1.3-0.8,2.7-1.6,4.2-2.2c1.6-0.7,3.3-1.3,5.1-1.7
			c1.8-0.4,3.8-0.7,5.8-0.7c2-0.1,4,0.2,6,0.5c1,0.2,2,0.4,2.9,0.7c1,0.3,1.9,0.6,2.8,1c0.9,0.4,1.8,0.7,2.7,1.2
			c0.9,0.4,1.7,0.8,2.5,1.4c1.6,0.9,3,2,4.4,3.1c1.3,1.1,2.5,2.1,3.5,3.2c0.5,0.5,1,1,1.5,1.5c0.4,0.5,0.8,1,1.2,1.4
			c0.4,0.5,0.7,0.9,1,1.3c0.3,0.4,0.6,0.8,0.8,1.1c1,1.4,1.5,2.2,1.5,2.2s-0.8-0.6-2.1-1.6c-0.3-0.3-0.7-0.6-1.1-0.9
			c-0.4-0.3-0.8-0.6-1.3-1c-0.5-0.3-0.9-0.7-1.5-1.1c-0.5-0.4-1.1-0.8-1.6-1.2c-1.1-0.8-2.4-1.6-3.7-2.5c-1.4-0.8-2.8-1.6-4.3-2.4
			c-1.5-0.8-3.1-1.4-4.8-2c-0.8-0.3-1.7-0.5-2.5-0.8c-0.9-0.2-1.7-0.4-2.6-0.6c-0.9-0.1-1.7-0.3-2.6-0.4L77,24.3l-1.3,0
			c-0.4,0-0.9,0-1.3,0c-0.4,0-0.9,0-1.3,0c-0.9,0.1-1.7,0.1-2.5,0.3c-1.7,0.2-3.3,0.6-4.8,1c-1.5,0.4-2.9,0.9-4.2,1.4
			c-1.3,0.5-2.4,1.1-3.5,1.6c-1,0.5-1.9,1-2.6,1.4C54.1,30.9,53.3,31.4,53.3,31.4z"/>
	</g>
	<g>
		<path fill="#3F4251" d="M50.2,37c0,0,0.4-1,1.3-2.6c0.5-0.8,1-1.8,1.8-2.8c0.7-1.1,1.6-2.3,2.6-3.5c0.5-0.6,1.1-1.2,1.6-1.9
			c0.6-0.6,1.2-1.3,1.9-1.9c1.3-1.3,2.8-2.6,4.4-3.8c1.6-1.2,3.4-2.4,5.4-3.3c1-0.5,2-0.9,3-1.3c0.5-0.2,1.1-0.3,1.6-0.5
			c0.5-0.2,1.1-0.3,1.6-0.4c2.2-0.6,4.4-0.7,6.7-0.7c2.2,0.1,4.4,0.4,6.4,1.1c0.5,0.2,1,0.3,1.5,0.5c0.5,0.2,0.9,0.4,1.4,0.6
			c0.5,0.2,0.9,0.4,1.3,0.6c0.4,0.2,0.8,0.5,1.2,0.7c0.4,0.2,0.8,0.5,1.2,0.7c0.4,0.2,0.7,0.5,1.1,0.8c0.7,0.5,1.4,1,2,1.6
			c1.2,1.1,2.3,2.1,3.1,3.1c0.9,1,1.6,1.8,2.1,2.6c1.1,1.5,1.7,2.4,1.7,2.4s-0.8-0.6-2.2-1.8c-0.7-0.6-1.6-1.2-2.6-2
			c-1-0.8-2.2-1.5-3.4-2.4c-0.6-0.4-1.3-0.8-2.1-1.2c-0.4-0.2-0.7-0.4-1.1-0.6c-0.4-0.2-0.8-0.3-1.1-0.5c-0.4-0.2-0.8-0.4-1.2-0.5
			c-0.4-0.1-0.8-0.3-1.2-0.4c-0.4-0.1-0.8-0.3-1.3-0.4c-0.4-0.1-0.9-0.2-1.3-0.3c-1.8-0.5-3.6-0.6-5.5-0.7c-0.5,0-0.9,0.1-1.4,0.1
			l-0.7,0l-0.7,0.1l-1.4,0.2l-1.4,0.3c-0.5,0.1-0.9,0.2-1.4,0.4c-0.5,0.1-0.9,0.3-1.4,0.4c-0.9,0.4-1.8,0.7-2.7,1.1
			c-1.8,0.8-3.4,1.7-5,2.7c-1.6,1-3.1,2-4.5,3.1c-1.4,1.1-2.7,2.1-3.8,3.1c-1.1,1-2.2,2-3.1,2.9c-0.9,0.9-1.7,1.7-2.3,2.3
			C50.9,36.2,50.2,37,50.2,37z"/>
	</g>
	<g>
		<g>
			<path fill="#3F4251" d="M66.4,138.7c0.1,4.2,0.2,8.8,1.4,12.9c0.2,0.8,1.3,0.4,1.2-0.3c-0.6-4.2-1.6-8.3-2-12.6
				C66.9,138.3,66.3,138.3,66.4,138.7L66.4,138.7z"/>
		</g>
	</g>
	<g>
		<g>
			<path fill="#3F4251" d="M99.1,136.3c0.4,3.5,1.2,7.2,2.5,10.5c0.3,0.8,1.6,0.5,1.4-0.4c-1.1-3.4-2.4-6.8-3.7-10.1
				C99.2,136.2,99.1,136.2,99.1,136.3L99.1,136.3z"/>
		</g>
	</g>
	<g>
		<g>
			<path fill="#3F4251" d="M66.1,145.5c-1.6-0.2-4.3,2.1-5.3,3.1c-3.6,3.6-6.3,8.2-9.7,12c-0.4,0.4-0.2,1,0.3,1.2
				c4.5,1.8,8.2,4.6,12.3,7.2c2.8,1.8,5.9,2.9,8.8,4.5c3.8,2.1,9.2,6.2,13.8,5.8c0.4,0,0.9-0.3,1-0.7c0.9-5,2.3-9.9,4.3-14.6
				c0.1-0.3-0.1-0.9-0.4-1c-10.1-4.7-20.1-9.4-30.1-14.2c-0.9-0.4-1.7,0.9-0.8,1.4c8.7,4.1,18.2,7.8,26.5,12.7
				c4.1,2.4,1.4,4.6,0.2,8.6c-0.4,1.4-0.5,3.7-1.2,4.9c0.5,1.1,0.2,1.3-0.9,0.8c-0.6-0.2-1.1-0.3-1.6-0.5c-4.2-1.5-7.9-4-11.9-5.9
				c-6.6-3.1-12.6-7.7-19.4-10.3c0.1,0.4,0.2,0.8,0.3,1.2c2.8-3.3,5.1-6.9,7.7-10.3c2-2.7,4.1-3.7,6.4-5.8c0,0,0-0.1-0.1-0.1
				C66.2,145.4,66.1,145.4,66.1,145.5C66.1,145.4,66.1,145.5,66.1,145.5L66.1,145.5z"/>
		</g>
	</g>
	<g>
		<g>
			<path fill="#3F4251" d="M90.6,163.7c1.7,5.3,2.4,11.6,5.5,16.3c0.3,0.4,0.8,0.5,1.1,0.1c9.1-8.6,17.2-18.2,25.4-27.7
				c0.3-0.3,0.3-0.9-0.1-1.1c-3.5-2.2-8.8-5.7-8.3-10.5c0.1-0.6-0.8-0.9-1.2-0.5c-8.2,7.2-15.9,14.2-22.8,22.8
				c-0.5,0.7,0.4,1.6,0.9,0.9c6.9-8.6,14.6-15.5,22.8-22.7c-0.4-0.2-0.8-0.3-1.2-0.5c-0.4,4.1,2.9,7.3,5.9,9.6
				c2.2,1.7,2.3,1.3,0.6,3.6c-1,1.3-2.1,2.4-3.1,3.6c-2,2.3-4,4.6-6,6.9c-2,2.2-3.9,4.4-6,6.5c-1.7,1.8-4.9,6.5-7.1,6.9
				c-1.5,0.3-4.5-12.4-6.3-14.6C90.7,163.5,90.5,163.6,90.6,163.7L90.6,163.7z"/>
		</g>
	</g>
	<g>
		<g>
			<path fill="#3F4251" d="M101.7,142.7c1.1-0.9,3.1-0.8,4.4-0.9c2.3-0.1,4.5,0.4,6.8,0.6c1.1,0.1,1.4-1.8,0.3-2
				c-2.7-0.5-5.5-0.4-8.1,0.1c-1.3,0.3-2.9,0.6-3.8,1.6C100.9,142.5,101.4,142.9,101.7,142.7L101.7,142.7z"/>
		</g>
	</g>
	<g>
		<g>
			<path fill="#3F4251" d="M53.4,159.9c-5.5,0.4-11,3.2-16.1,5.4c-6,2.7-11.9,5.6-17.9,8.5c-0.7,0.3-0.9,1.6-0.3,2.1
				c8.2,6.4,16.3,12.9,24.7,19c1.1,0.8,2.6-1.1,1.5-2c-8-6.6-16.4-12.8-24.6-19.1c0,0.8,0,1.5,0,2.3c5.4-2.7,10.9-5.5,16.3-8.1
				c5.3-2.5,11.5-4.4,16.4-7.8C53.5,160,53.5,159.9,53.4,159.9L53.4,159.9z"/>
		</g>
	</g>
	<g>
		<g>
			<path fill="#3F4251" d="M17.5,176.7c-2.1,1-2.3,7.2-2.7,9.3c-1.1,5.4-2,10.9-3,16.3c-1.6,9.5-3.2,19.1-4,28.7
				c-0.1,1.1,1.6,1.1,1.7,0c1-9.9,2.6-19.8,4.1-29.6c0.8-5.2,1.7-10.4,2.7-15.6c0.4-2,2.5-7.3,1.3-9.1
				C17.6,176.7,17.6,176.7,17.5,176.7L17.5,176.7z"/>
		</g>
	</g>
	<g>
		<g>
			<path fill="#3F4251" d="M109.6,151.6C109.6,151.6,109.6,151.5,109.6,151.6C109.6,151.5,109.6,151.6,109.6,151.6L109.6,151.6z"/>
		</g>
	</g>
	<g>
		<g>
			<path fill="#3F4251" d="M120.6,154.3c5.4,4.1,12.7,6.6,18.8,9.5c6,2.9,12,5.9,18.2,8.3c1.1,0.4,1.9-1.4,0.8-2
				c-6.3-3.1-12.9-5.8-19.3-8.7c-5.9-2.6-12.1-6.2-18.4-7.4C120.5,154,120.5,154.2,120.6,154.3L120.6,154.3z"/>
		</g>
	</g>
	<g>
		<path fill="#F79B36" d="M126.6,154.1c14.8,6.5,22.5,10.4,37.2,16.9"/>
	</g>
	<g>
		<g>
			<path fill="#3F4251" d="M152,172.1c-6.4,6.4-11.3,15.2-14.7,23.5c-0.4,0.9,1.2,1.6,1.6,0.7c3.7-8.6,8.6-15.9,13.7-23.7
				C152.9,172.2,152.3,171.7,152,172.1L152,172.1z"/>
		</g>
	</g>
	<g>
		<g>
			<path fill="#3F4251" d="M158.1,173.5c1.3,7.5,2.4,15,3.2,22.5c0.7,6.4,0.6,13,1.6,19.4c0.2,1.6,2.7,1.1,2.7-0.4
				c0-6.7-1.5-13.6-2.5-20.2c-1.1-7.2-2.5-14.4-4.1-21.6C158.9,172.7,158,172.9,158.1,173.5L158.1,173.5z"/>
		</g>
	</g>
</g>
</svg>
