<?xml version="1.0" encoding="utf-8"?>
<!-- Generator: Adobe Illustrator 19.1.0, SVG Export Plug-In . SVG Version: 6.00 Build 0)  -->
<!DOCTYPE svg PUBLIC "-//W3C//DTD SVG 1.1//EN" "http://www.w3.org/Graphics/SVG/1.1/DTD/svg11.dtd">
<svg version="1.1" id="Layer_1" xmlns="http://www.w3.org/2000/svg" xmlns:xlink="http://www.w3.org/1999/xlink" x="0px" y="0px"
	 width="155.5px" height="249px" viewBox="0 0 155.5 249" enable-background="new 0 0 155.5 249" xml:space="preserve">
<g>
	<g>
		<path fill="#47B549" d="M51.3,154.9c7.5,12.4-0.5,30.2,9.7,55.8c8.7-15.2,14.4-41.5,22.8-53.5c7.3,3.5,14,8.2,19.7,13.9
			c-13.1,19.2-24,39.9-32.2,61.6c-5.6-1.1-19.1-0.1-24.6,1c-0.4-5.5-10.2-42.8-12.2-47.7c-3.7-8.9-1.8-19.6-6.6-28
			C32,157.7,46.9,155.3,51.3,154.9"/>
	</g>
	<path fill="none" stroke="#3F4251" stroke-width="1.9573" stroke-miterlimit="10" d="M62.6,24.5c0,0,27.4-7,43.1,10.2
		s29.5,32,27.6,39.8c-1.9,7.8-10.4,45-22.5,52.2c-12.1,7.3-17.7,10.4-17.7,10.4s-32.8,21-54.6-21.5C16.4,72.5,25,67.4,25,67.4
		L51.3,28L62.6,24.5z"/>
	<g opacity="0.9">
		<path fill="#3F4251" d="M60.9,68.4c0,0,0.2,0.2,0.5,0.5c0.3,0.3,0.9,0.8,1.4,1.5c0.6,0.7,1.2,1.6,1.8,2.7c0.6,1.1,1.3,2.4,1.8,3.9
			c0.5,1.5,0.9,3.2,1.1,5c0.2,1.8,0.1,3.8-0.2,5.8c-0.2,1-0.4,2-0.7,3l-0.1,0.4c0,0.1-0.1,0.3-0.2,0.5c-0.2,0.4-0.3,0.6-0.5,0.9
			c-0.4,0.6-0.8,1-1.2,1.4c-1.7,1.6-3.5,2.6-4.8,3.8c-0.6,0.6-1.2,1.2-1.4,1.8c-0.3,0.6-0.3,1.2-0.3,1.9c0.1,0.7,0.4,1.5,0.8,2.2
			c0.4,0.7,0.8,1.3,1.4,1.9c0.6,0.5,1.2,1,1.9,1.4c0.4,0.3,0.7,0.4,1.1,0.5c0.3,0.1,0.7,0.3,1,0.4c1.4,0.4,2.7,0.2,3.8-0.4
			c1.1-0.6,2-1.6,2.7-2.5c0.7-0.9,1.2-1.9,1.6-2.6c0.8-1.6,1.1-2.5,1.1-2.5l0.2,0c0,0-0.2,1-0.8,2.7c-0.3,0.8-0.7,1.8-1.4,2.9
			c-0.6,1.1-1.5,2.2-2.8,3.1c-1.3,0.9-3,1.3-4.8,0.9c-0.9-0.2-1.7-0.5-2.5-0.9c-0.8-0.4-1.6-0.9-2.3-1.5c-1.4-1.3-2.5-3.1-2.9-5.1
			c-0.2-1-0.1-2.1,0.4-3c0.4-1,1.1-1.7,1.9-2.4c1.5-1.3,3.3-2.3,4.8-3.6c1.5-1.3,1.8-3.3,2.2-5.1c0.7-3.7,0.5-7.3-0.3-10.2
			c-0.8-2.9-2-5.1-3-6.6c-1-1.5-1.7-2.2-1.7-2.2L60.9,68.4z"/>
	</g>
	<path fill="#3F4251" d="M60.9,86.3c0.1,1.9-2.5,2.6-3.3,2.7c-1.8,0.3-3.4-0.5-3.5-2.4s1.4-3.4,3.2-3.5S60.8,84.5,60.9,86.3z"/>
	<path fill="#3F4251" d="M81.9,85.8c0.1,1.3-1.4,2.6-3.3,2.7s-3.4-0.5-3.5-2.4s1.4-3.4,3.2-3.5S81.8,84,81.9,85.8z"/>
	<g>
		<path fill="#3F4251" d="M54.3,67.1c0,0-0.1,0-0.2,0.1c-0.1,0.1-0.3,0.2-0.5,0.3c-0.4,0.3-1,0.6-1.7,1.1c-0.3,0.2-0.7,0.5-1,0.7
			c-0.3,0.3-0.7,0.6-1,0.9c-0.2,0.1-0.3,0.3-0.5,0.5c-0.2,0.2-0.3,0.3-0.5,0.5c-0.4,0.3-0.6,0.7-1,1c-0.3,0.4-0.6,0.7-0.9,1.1
			c-0.2,0.4-0.6,0.8-0.8,1.2c-0.2,0.4-0.5,0.8-0.8,1.2c-0.2,0.4-0.4,0.8-0.7,1.1c-0.2,0.3-0.4,0.7-0.6,1c-0.2,0.3-0.3,0.6-0.5,0.8
			c-0.3,0.4-0.5,0.7-0.5,0.7l-0.2,0c0,0,0.1-0.3,0.1-0.8c0-0.2,0.1-0.5,0.2-0.9c0-0.3,0.2-0.7,0.3-1.1c0.1-0.4,0.2-0.8,0.4-1.3
			c0.2-0.4,0.4-0.9,0.6-1.4c0.2-0.5,0.5-0.9,0.8-1.4c0.3-0.5,0.7-0.9,1-1.4c0.4-0.4,0.8-0.8,1.2-1.2c0.2-0.2,0.4-0.4,0.6-0.5
			c0.2-0.2,0.5-0.3,0.7-0.4c0.4-0.3,0.9-0.5,1.3-0.8c0.5-0.2,0.9-0.4,1.3-0.5c1.6-0.6,2.8-0.6,2.8-0.6L54.3,67.1z"/>
	</g>
	<g>
		<path fill="#3F4251" d="M91.9,76.4c0,0,0.2,0,0.6,0.2c0.4,0.1,0.9,0.4,1.5,0.8c0.3,0.2,0.6,0.4,0.9,0.7c0.3,0.3,0.6,0.6,0.9,0.9
			c0.3,0.3,0.5,0.7,0.8,1.1c0.2,0.4,0.4,0.8,0.6,1.3c0.1,0.5,0.3,0.9,0.4,1.4c0.1,0.5,0.1,0.9,0.1,1.4c0,0.5,0,0.9-0.1,1.3
			c-0.1,0.4-0.2,0.8-0.3,1.1c-0.1,0.3-0.3,0.6-0.4,0.9c-0.2,0.2-0.3,0.4-0.5,0.6c-0.3,0.3-0.5,0.5-0.5,0.5l-0.2-0.1
			c0,0,0-0.2,0.1-0.5c0-0.2,0.1-0.4,0.2-0.6c0-0.2,0.1-0.5,0.1-0.8c0.1-0.3,0-0.6,0-1c0-0.3,0-0.7-0.1-1.1c0-0.4-0.1-0.8-0.2-1.1
			c-0.1-0.4-0.2-0.8-0.4-1.1c-0.3-0.8-0.6-1.5-1-2.1c-0.4-0.7-0.8-1.2-1.2-1.7c-0.8-1-1.3-1.5-1.3-1.5L91.9,76.4z"/>
	</g>
	<g>
		<path fill="#3F4251" d="M58.4,122.4c0,0,0.6,0.2,1.7,0.5c1.1,0.3,2.6,0.6,4.4,1c0.9,0.2,1.9,0.3,3,0.5c1.1,0.1,2.2,0.2,3.3,0.3
			c0.6,0,1.2,0.1,1.8,0.1c0.6,0,1.2,0,1.8,0c1.2,0,2.4-0.1,3.7-0.3c0.6,0,1.2-0.2,1.8-0.3c0.6-0.1,1.2-0.2,1.8-0.4
			c0.6-0.1,1.2-0.3,1.7-0.5c0.6-0.2,1.1-0.4,1.6-0.6c1-0.5,2-1,2.9-1.5c0.9-0.6,1.7-1.2,2.4-1.8c0.7-0.6,1.3-1.2,1.8-1.8
			c0.5-0.6,0.9-1.1,1.2-1.5c0.6-0.9,0.9-1.5,0.9-1.5s-0.2,0.6-0.7,1.6c-0.3,0.5-0.6,1-1.1,1.7c-0.4,0.6-1,1.3-1.7,2
			c-0.7,0.7-1.5,1.3-2.3,2c-0.9,0.6-1.9,1.2-3,1.7c-0.5,0.2-1.1,0.5-1.7,0.7c-0.6,0.2-1.2,0.4-1.8,0.6c-0.6,0.2-1.2,0.3-1.8,0.4
			c-0.6,0.1-1.2,0.3-1.9,0.3c-1.3,0.1-2.5,0.2-3.8,0.2c-0.6,0-1.2,0-1.8,0c-0.6,0-1.2-0.1-1.8-0.1c-1.2-0.1-2.3-0.3-3.4-0.5
			c-1.1-0.2-2.1-0.4-3-0.6c-1.8-0.4-3.3-1-4.3-1.3C59,122.6,58.4,122.4,58.4,122.4z"/>
	</g>
	<g>
		<g>
			<path fill="#3F4251" d="M58.1,139.7c-0.2-0.1-5.2,17.7-2.7,19.8c0.6,0.5,1.2,0.5,1.8,0c0.1-0.1,0.2-0.2,0.3-0.2
				c0.4-0.3,0.4-1,0.2-1.4c-0.1-0.1-0.1-0.2-0.2-0.3c-0.5-0.9-2.2-0.6-2.1,0.6c0,0.1,0,0.2,0,0.3c0.3-0.4,0.6-0.8,0.9-1.1
				c-0.1,0-0.3,0.1-0.4,0.1c0.5,0.2,0.9,0.4,1.4,0.6c-0.9-1.9,0.5-7.8,0.8-9.8c0.4-2.9,1.3-5.7,1.3-8.6c0-0.3-0.3-0.5-0.6-0.3
				C58.7,139.3,58.4,139.5,58.1,139.7C58.1,139.6,58.1,139.7,58.1,139.7L58.1,139.7z"/>
		</g>
	</g>
	<g>
		<g>
			<path fill="#3F4251" d="M83.8,139.7c-1.1,2.8-1.1,5.9-1.4,8.9c-0.3,3.4-1,6.9-0.7,10.3c0.1,1.4,2.3,1.9,2.6,0.4
				c0.6-3.2,0.4-6.6,0.5-9.9c0.1-3.2,0.4-6.5-0.5-9.6C84.2,139.4,83.9,139.5,83.8,139.7L83.8,139.7z"/>
		</g>
	</g>
	<g>
		<g>
			<path fill="#3F4251" d="M53.7,156.6c3.8,7.7,3.1,16.4,3.2,24.8c0.1,10.8,1.5,21.1,5.5,31.2c0.4,1,1.8,1.4,2.4,0.3
				c5.1-9.4,8.3-19.8,12.2-29.7c2.2-5.6,3.7-11.4,6.3-16.9c0.7-1.4,1.7-4.8,3.1-5.7c1.5-1,6.3,2.7,7.9,3.7c3,1.9,6.4,4,8.7,6.7
				c2.6,3.1-0.7,5.6-2.6,8.6c-3.7,5.7-7.3,11.6-10.6,17.6c-6.6,11.8-12.2,24.1-17,36.8c0.5-0.3,1-0.6,1.6-0.9
				c-8.2-1.3-17.2-0.4-25.3,1.1c0.5,0.4,1,0.8,1.5,1.1c-1.1-11.7-4.8-22.8-8-34c-1.3-4.6-2.6-9.2-4.2-13.7
				c-3.3-9.3-2.2-19.7-6.9-28.5c-0.3,0.5-0.6,1-0.9,1.5c7.9-0.7,15.7-2.4,23.6-3.1c1.2-0.1,1.2-2,0-1.9c-7.9,0.7-15.7,2.3-23.6,3
				c-0.8,0.1-1.3,0.8-0.9,1.5c4.5,8.7,3.3,19.1,6.6,28.2c1.6,4.4,2.7,9,3.9,13.6c1.7,6.4,2.5,13.1,4.5,19.4c1.4,4.3,3.2,9.4,3.6,14
				c0.1,0.8,0.7,1.3,1.5,1.1c7.6-1.4,16.3-2.2,24-0.9c0.7,0.1,1.3-0.2,1.6-0.9c8.3-21.6,19-42.3,31.9-61.5c0.2-0.4,0.1-0.9-0.2-1.2
				c-6-5.7-12.5-10.3-19.9-14c-0.5-0.2-1-0.1-1.3,0.3c-10.9,16.2-13.4,36.5-23.1,53.3c0.8,0.1,1.6,0.2,2.4,0.3
				c-4.1-11.2-5.7-22.6-6.2-34.4c-0.3-7.2-0.4-14.9-4.4-21.2C54.1,155.9,53.6,156.2,53.7,156.6L53.7,156.6z"/>
		</g>
	</g>
	<g>
		<g>
			<path fill="#3F4251" d="M27.6,160.9c0,0,0,0.1,0,0.1c0,0,0,0,0.1,0c1.3-0.3,2.3-0.8,3.3-1.8c0.1-0.1,0-0.3-0.2-0.3
				c-12.8,4.5-18.5,20.5-22.6,32.2c-0.2,0.7,0.9,1.2,1.2,0.5c2.8-6.2,4.9-12.7,8.1-18.8c1.5-2.9,3.3-5.8,5.6-8.2c1-1,2-1.9,3.1-2.7
				c0.7-0.6,1.5-1.1,2.2-1.5C29.7,160.3,29.5,160.4,27.6,160.9C27.7,160.8,27.6,160.9,27.6,160.9L27.6,160.9z"/>
		</g>
	</g>
	<g>
		<g>
			<path fill="#3F4251" d="M106.4,173.4c11.8,13.1,18.4,31.1,16.5,48.8c0,0.5,0.6,0.6,0.8,0.2c0.4-0.6,0.7-1.2,1.1-1.7
				c0.3-0.6-0.6-1.1-0.9-0.5c-0.7,1.4-0.1,0.7-0.1-0.4c0-1.1,0.1-2.2,0.1-3.2c0-2.4-0.2-4.8-0.5-7.2c-0.6-4.6-1.6-9.1-3.1-13.4
				c-3-8.5-7.6-16.2-13.7-22.8C106.5,172.9,106.2,173.2,106.4,173.4L106.4,173.4z"/>
		</g>
	</g>
	<g>
		<g>
			<path fill="#3F4251" d="M33.9,170c2.7,0.6,4.9-0.1,7.6-0.9c4-1.2,8-1.3,12.2-1.3c0.6,0,0.7-1,0-1c-3,0-6,0.1-8.9,0.6
				c-3.7,0.6-7,2.7-10.8,2.3C33.7,169.6,33.7,170,33.9,170L33.9,170z"/>
		</g>
	</g>
	<g>
		<g>
			<path fill="#3F4251" d="M35.7,179.4c3.2-0.7,6.2-2.3,9.4-3c3.5-0.7,7-0.5,10.5-0.7c0.6,0,0.6-0.9,0-0.9c-3.3,0-6.8,0-10.1,0.6
				c-3.5,0.6-6.6,2.3-9.9,3.8C35.4,179.2,35.5,179.4,35.7,179.4L35.7,179.4z"/>
		</g>
	</g>
	<g>
		<g>
			<path fill="#3F4251" d="M38.1,190.3c3.7-1.6,6.9-2.5,11-2.8c2.3-0.2,4.4-0.4,6.4-1.4c0.4-0.2,0.1-0.8-0.3-0.7
				c-3.1,1.1-6.2,1.1-9.5,1.6c-2.9,0.4-5.3,1.6-7.8,3.1C37.9,190.2,38,190.4,38.1,190.3L38.1,190.3z"/>
		</g>
	</g>
	<g>
		<g>
			<path fill="#3F4251" d="M41.2,197.1c2.3,0.7,4.2-0.6,6.3-1.5c2.3-0.9,4.1-0.5,6.5-0.4c0.9,0,1.1,0,1.9-0.4c0.5-0.3,0.1-1-0.4-0.8
				c-1.2,0.5-2.9-0.1-4.2-0.1c-1.1,0-2.1,0.2-3.2,0.5c-2.4,0.8-4.3,2.1-6.9,2.5C41.1,196.9,41.1,197,41.2,197.1L41.2,197.1z"/>
		</g>
	</g>
	<g>
		<g>
			<path fill="#3F4251" d="M42.8,205.5c1.2,1.5,3.7-0.1,5.2-0.5c3.7-0.9,7.4-1.2,11.2-1.7c0.5-0.1,0.4-0.9-0.1-0.9
				c-2.7-0.1-5.4,0.3-8,0.9c-1.5,0.3-2.9,0.7-4.4,1.2c-1,0.3-2.6,1.4-3.7,0.8C42.8,205.2,42.7,205.4,42.8,205.5L42.8,205.5z"/>
		</g>
	</g>
	<g>
		<g>
			<path fill="#3F4251" d="M48,218c2.4-0.1,4.7-1,7-1.6c2.9-0.8,5.8-1.6,8.6-2.6c0.6-0.2,0.3-1.1-0.3-0.9
				c-4.9,1.2-10.9,2.6-15.3,5.1C47.9,217.9,47.9,218,48,218L48,218z"/>
		</g>
	</g>
	<g>
		<g>
			<path fill="#3F4251" d="M50.1,229.5c4-1.4,7.9-3.3,11.7-5.1c0.4-0.2,0.1-0.8-0.3-0.7c-3.9,1.6-7.9,3.3-11.4,5.6
				C50,229.4,50,229.5,50.1,229.5L50.1,229.5z"/>
		</g>
	</g>
	<g>
		<g>
			<path fill="#3F4251" d="M65.4,213.3c3.9,2.7,8,5.2,12,7.7c0.7,0.4,1.3-0.6,0.6-1.1c-3.8-2.7-8.1-5.3-12.5-7
				C65.4,213,65.3,213.2,65.4,213.3L65.4,213.3z"/>
		</g>
	</g>
	<g>
		<g>
			<path fill="#3F4251" d="M70.9,205.1c-0.1,0-0.1,0-0.2,0.1c-0.1,0-0.1,0.1-0.1,0.1c-0.3,1.2,2,1.2,2.7,1.5c1.6,0.5,3.2,1,4.7,1.7
				c1.1,0.5,2.2,1.3,3.4,1.6c0.5,0.1,0.8-0.5,0.5-0.8c-1.4-1.3-3.4-1.9-5.1-2.6c-1-0.4-2.1-0.7-3.2-0.9c-0.3-0.1-2.6-0.5-2.5-0.6
				C71.1,205.2,71,205.1,70.9,205.1L70.9,205.1z"/>
		</g>
	</g>
	<g>
		<g>
			<path fill="#3F4251" d="M73,194.5c4.9,0.7,9.7,1.9,14.5,3.2c0.7,0.2,0.9-0.8,0.3-1c-4.8-1.4-9.8-2.1-14.7-2.4
				C72.9,194.3,72.8,194.5,73,194.5L73,194.5z"/>
		</g>
	</g>
	<g>
		<g>
			<path fill="#3F4251" d="M77.9,179.1c2.2,1.6,4.9,1.6,7.4,2.4c3.6,1.1,6.4,3.2,9.7,5c0.5,0.3,0.9-0.4,0.4-0.7
				c-2.3-1.7-5-3.2-7.7-4.3c-3.1-1.2-6.8-0.9-9.7-2.6C77.9,178.7,77.8,179,77.9,179.1L77.9,179.1z"/>
		</g>
	</g>
	<g>
		<g>
			<path fill="#3F4251" d="M80.6,170c-0.4,1.3,3.9,1.9,4.7,2.1c5.1,1.1,8.7,3.2,12.8,6.3c0.5,0.4,1.1-0.4,0.7-0.9
				c-2-2.1-4.6-3.6-7.3-4.6c-1.3-0.5-10.7-1.7-10.8-2.8C80.8,169.9,80.7,169.9,80.6,170L80.6,170z"/>
		</g>
	</g>
	<g>
		<g>
			<path fill="#3F4251" d="M104.8,174c-0.1-2.8-2.8-4.1-5-5.3c-3.9-2.1-8-3.5-12.3-4.6c-0.8-0.2-1.1,1-0.3,1.2
				c2.9,0.7,5.7,1.5,8.5,2.6c2.7,1.1,8.3,2.7,9,6.1C104.6,174.2,104.8,174.1,104.8,174L104.8,174z"/>
		</g>
	</g>
	<path fill="#3F4251" d="M38.9,125c0,0-16.9-26.4-1.9-49.6C53.8,49.4,47.8,37.8,52.1,34c6.7,3,6.5,18.9,41.6,36.2
		s25.9,10.2,29.9,18.3s-11.2,46.5-17.2,50.8c-4.3,3.1,11.6,0.4,20.9-11s11.6-25.3,11.3-26.8c-0.2-1,3.7-8,6.3-12.6
		c1.7-2.9,2.5-6.2,2.4-9.5c-0.5-13.5-3.7-46.6-41.3-61.2c-37.8-14.7-67.7,0.2-74.7,8c-3.8,4.2-11.7,14.7-11.8,23.4
		C19.1,71.2-2.3,81.5,38.9,125z"/>
</g>
</svg>
