<?xml version="1.0" encoding="utf-8"?>
<!-- Generator: Adobe Illustrator 19.1.0, SVG Export Plug-In . SVG Version: 6.00 Build 0)  -->
<!DOCTYPE svg PUBLIC "-//W3C//DTD SVG 1.1//EN" "http://www.w3.org/Graphics/SVG/1.1/DTD/svg11.dtd">
<svg version="1.1" id="Layer_1" xmlns="http://www.w3.org/2000/svg" xmlns:xlink="http://www.w3.org/1999/xlink" x="0px" y="0px"
	 width="151.8px" height="248px" viewBox="0 0 151.8 248" enable-background="new 0 0 151.8 248" xml:space="preserve">
<g>
	<g>
		<path fill="#FFCE1C" d="M56.4,152.1c-2.4,0.3-9.7,9-9.6,11.5c0.1,1.7,15.3,1.6,21.3,1.6c8.2,0.1,30.7-0.8,32.3-4.6
			c0.4-1,0.7-2,0.6-3.1c-0.2-1.5-1.3-2.7-2.4-3.8c-1.7-1.7-3.5-3.5-5.9-4.2c-2.3-0.7-5.3,0.2-6.1,2.5"/>
	</g>
	<g>
		<path fill="#FFCE1C" d="M54.9,152.1c-2.7-0.9-16.9-1.9-19-0.8c-3.4,1.8-5.3,5.8-5.4,9.7c-0.1,3.9,1.3,7.6,2.9,11.2
			c1.4,2.9,3,5.8,5.5,7.8c2.3,1.8,5.3,2.6,8.2,3.1c10.5,1.7,21.2-0.7,31.6-3c4.4-1,8.8-2,12.8-4.1c4-2,11.6-5.1,13.2-9.3
			c1-2.7-2.5-10-3.7-9.1"/>
	</g>
	<g>
		<path fill="#FFCE1C" d="M40.4,181.5c0.8,7.4,8.5,12,15.7,13.9c10.8,2.9,22.3,2.3,33.4,1c8.2-0.9,16.3-2.3,24.4-3.6
			c8.9-1.5,19.3-4,22.7-12.4c3.4-8.3-2.9-18-11.1-21.7c-8.2-3.7-16.1-3.1-25-2.4"/>
	</g>
	<g>
		<path fill="#FFCE1C" d="M39.7,178.2c-4,17.3-7.9,12.4-20.2,25c12.9,2.1,25.4,7,36.3,14.4c-3-1.5,1.1-17.9,4.9-20.7"/>
	</g>
	<g opacity="0.9">
		<path fill="#3F4251" d="M66,74.9c0,0,0.7,0.6,1.8,1.8c1,1.3,2.4,3.2,3.4,5.9c0.5,1.3,0.9,2.9,1.2,4.5c0.2,1.6,0.3,3.4,0.1,5.2
			c-0.1,0.9-0.2,1.8-0.4,2.7c-0.1,0.5-0.2,0.9-0.3,1.4l-0.2,0.7l0,0c0,0,0,0.1,0-0.1l0,0l0,0.1l0,0.2l-0.1,0.4
			c-0.4,1.8-1.1,3.5-1.6,5.3c-0.6,1.7-1.2,3.4-1.7,5c-0.2,0.8-0.5,1.6-0.6,2.2c0,0.1,0,0.3,0,0.3c0,0.1,0,0-0.2-0.3
			c-0.1-0.1-0.3-0.3-0.5-0.3l0.3,0.1l0.5,0.2c2.8,0.9,5.8,0.4,8-0.8c2.3-1.1,3.9-2.7,4.7-4c0.4-0.6,0.6-1.2,0.5-1.5
			c-0.1-0.3-0.4-0.3-0.4-0.3l0-0.2c0,0,0.1,0,0.2,0c0.1,0,0.3,0.1,0.4,0.3c0.2,0.5,0,1.1-0.3,1.9c-0.7,1.4-2.2,3.3-4.5,4.8
			c-1.2,0.7-2.6,1.3-4.1,1.6c-1.6,0.3-3.3,0.3-4.9-0.2c-0.2-0.1-0.4-0.1-0.6-0.2l-0.3-0.1c-0.1,0-0.3-0.1-0.3-0.2
			c-0.3-0.5-0.3-0.9-0.3-1.4c0.1-0.9,0.3-1.8,0.5-2.6c0.5-1.7,1-3.5,1.6-5.2c0.6-1.7,1.2-3.4,1.7-5.1c0.5-1.7,1-3.4,1.2-5.1
			c0.5-3.4,0.1-6.6-0.7-9.2c-0.8-2.6-1.9-4.6-2.7-5.9c-0.9-1.3-1.5-2-1.5-2L66,74.9z"/>
	</g>
	<path fill="none" stroke="#3F4251" stroke-width="2.1716" stroke-miterlimit="10" d="M17.2,57.3c0,0,21.5,86.5,51,87.4
		c0,0,26.7,7.4,46.7-44.2c16.1-41.6-17-76.1-17-76.1l-25-2.5l-26.6,3.9L20,42.8L17.2,57.3z"/>
	<g>
		<path fill="#3F4251" d="M83.3,65.1c0,0,0.2-0.3,0.6-0.6c0.4-0.4,1.1-0.9,2-1.2c0.4-0.2,0.9-0.4,1.5-0.5c0.5-0.2,1.1-0.2,1.7-0.3
			c0.3,0,0.6,0,0.9,0c0.3,0,0.6,0,0.9,0c0.3,0,0.6,0,1,0.1c0.3,0.1,0.6,0.1,1,0.2c0.6,0.1,1.3,0.4,1.9,0.6c0.3,0.1,0.6,0.3,0.9,0.4
			c0.3,0.2,0.5,0.3,0.8,0.5c0.5,0.3,0.9,0.8,1.4,1.1c0.4,0.4,0.7,0.8,1,1.2c0.3,0.4,0.5,0.7,0.7,1.1c0.2,0.4,0.3,0.7,0.4,1
			c0.2,0.5,0.3,0.9,0.3,0.9s-0.3-0.1-0.9-0.2c-0.3-0.1-0.6-0.2-0.9-0.3c-0.3-0.1-0.7-0.2-1.1-0.4c-0.4-0.1-0.8-0.3-1.2-0.4
			c-0.4-0.1-0.9-0.3-1.3-0.4c-0.5-0.1-0.9-0.3-1.4-0.4c-0.5-0.1-0.9-0.3-1.4-0.4c-0.5-0.1-1-0.2-1.4-0.3c-0.5-0.1-1-0.2-1.4-0.3
			c-1-0.2-1.9-0.4-2.7-0.5c-0.9-0.2-1.6-0.3-2.1-0.4c-0.3,0-0.5-0.1-0.6-0.1C83.4,65.2,83.3,65.1,83.3,65.1z"/>
	</g>
	<g>
		<path fill="#3F4251" d="M57.1,121.9c0,0,2,0,4.9,0.2c1.4,0.1,3.1,0.2,4.9,0.3c0.9,0,1.8,0.1,2.7,0.1c0.5,0,0.9,0,1.4,0l0.6-0.1
			l0.7-0.1c1.9-0.3,3.8-0.6,5.6-0.9c1.8-0.3,3.5-0.5,4.9-0.6c2.9-0.3,4.9-0.4,4.9-0.4s-1.8,0.8-4.6,1.6c-1.4,0.4-3.1,0.9-4.8,1.3
			c-0.9,0.2-1.8,0.4-2.8,0.6c-0.9,0.2-1.9,0.4-2.9,0.5l-0.7,0.1l-0.8,0.1c-0.5,0-1,0-1.5,0c-1,0-2-0.2-2.9-0.3
			c-1.8-0.2-3.5-0.6-5-0.9C58.9,122.7,57.1,121.9,57.1,121.9z"/>
	</g>
	<path fill="none" stroke="#3F4251" stroke-width="2.1716" stroke-miterlimit="10" d="M67.6,88.8c0,0,5.4-1.6,8.4-0.2"/>
	
		<ellipse transform="matrix(0.9998 -1.929538e-02 1.929538e-02 0.9998 -1.6983 1.7582)" fill="#3F4251" cx="90.3" cy="88.9" rx="15.7" ry="14.5"/>
	
		<ellipse transform="matrix(0.9998 -1.929538e-02 1.929538e-02 0.9998 -1.656 1.7715)" fill="#FFFFFF" stroke="#3F4251" stroke-width="1.6287" stroke-miterlimit="10" cx="91" cy="86.7" rx="15.7" ry="15.5"/>
	<path fill="#3F4251" d="M90.2,86.7c0,1.7-1.4,2.5-3.1,2.5c-1.8,0-3.2-0.7-3.2-2.4c0-1.7,1.4-3.1,3.1-3.2
		C88.7,83.6,90.2,85,90.2,86.7z"/>
	
		<ellipse transform="matrix(0.9998 -1.929538e-02 1.929538e-02 0.9998 -1.7337 1.0318)" fill="#3F4251" cx="52.6" cy="90.4" rx="15.7" ry="14.5"/>
	
		<ellipse transform="matrix(0.9998 -1.929538e-02 1.929538e-02 0.9998 -1.6884 1.0505)" fill="#FFFFFF" stroke="#3F4251" stroke-width="1.6287" stroke-miterlimit="10" cx="53.6" cy="88" rx="15.7" ry="15.5"/>
	<path fill="#3F4251" d="M58.2,88.7c0,1.7-1.4,2.4-3.1,2.4c-1.8,0-3.2-0.6-3.2-2.3c0-1.7,1.4-3.1,3.1-3.2
		C56.7,85.6,58.1,87,58.2,88.7z"/>
	<path fill="#3F4251" stroke="#3F4251" stroke-width="2.1716" stroke-miterlimit="10" d="M27.6,111.7c-1.2,3-4.7,2.2-5-1.1
		L12.4,58.8c-1.1-10.4,4.3-38,22.5-39.7c18.2-1.7,25.8-0.4,35.3,2c3.7,0.9,8,6.7,8.6,11.6C80,41.7,78.2,44,65.6,61
		C47.5,85.5,39,84.4,27.6,111.7z"/>
	<g>
		<g>
			<path fill="#3F4251" d="M58.6,142.6c-1,1.6-0.7,3.7-0.9,5.6c-0.2,2.5-0.3,5.1-0.5,7.6c-0.1,1.2,1.9,1.2,1.9,0
				c0-2.5,0.1-5.1,0.1-7.6c0-1.9,0.5-3.9-0.4-5.6C58.8,142.5,58.7,142.5,58.6,142.6L58.6,142.6z"/>
		</g>
	</g>
	<g>
		<g>
			<path fill="#3F4251" d="M78.2,145.4c0.5-0.8,1.4-1.2,2.4-1.1c0.2,0,0.2-0.2,0-0.3c-1-0.1-2,0.4-2.5,1.3
				C78,145.4,78.1,145.5,78.2,145.4L78.2,145.4z"/>
		</g>
	</g>
	<g>
		<g>
			<path fill="#3F4251" d="M86.5,141.3c-0.8,1.4-0.1,3.6,0.3,5c0.5,1.9,1.4,3.7,2.7,5.1c0.5,0.5,1.4-0.2,1-0.7
				c-1.1-1.6-2.1-3.1-2.7-4.9c-0.5-1.4-0.3-3.1-1-4.4C86.7,141.3,86.6,141.3,86.5,141.3L86.5,141.3z"/>
		</g>
	</g>
	<g>
		<g>
			<path fill="#3F4251" d="M58.5,149.1c-3.3-0.1-13,10.1-9.2,12.7c3.1,2.1,10.2,1.1,13.6,1.1c4.8,0.1,9.5,0.1,14.3-0.1
				c5.3-0.2,10.6-0.5,15.9-1.2c2.8-0.4,7.8-0.6,9.8-3.1c5.3-6.5-10.1-18.2-14.7-9.7c-0.4,0.8,0.8,1.5,1.2,0.7
				c1.8-0.7,3.5-1.5,5.3-2.2c1.1,0.7,2.3,1.3,3.4,2c0.6,0.5,1.7,1.3,2.1,2c0.5,0.9,1.3,6.2,0.6,6.9c-0.4,0.4-1.5,0.6-2.1,0.8
				c-2.8,0.9-5.8,1.2-8.7,1.5c-6.2,0.7-12.4,1-18.6,1c-6,0-12,0.1-17.9-0.4c-0.6,0-3.3,0-3.6-0.6c-0.5-0.9,1.3-3.1,1.7-3.8
				c1.8-2.6,4.2-5.6,6.9-7.4C58.6,149.3,58.6,149.1,58.5,149.1L58.5,149.1z"/>
		</g>
	</g>
	<g>
		<g>
			<path fill="#3F4251" d="M56.9,149.1c-3.5-2.1-9.1-1.9-13-2c-4.7-0.1-8.2,0.3-10.7,4.8c-3.4,6.1-0.8,13.5,2.1,19.3
				c3.4,6.6,8.5,9.4,15.8,10.2c9.5,1.1,19-0.9,28.2-3c7.5-1.7,14.5-4,21.2-7.9c3.6-2.1,8-4.8,7.2-9.5c-0.3-1.8-2-7.8-4.8-7.1
				c-0.9,0.2-0.5,1.5,0.4,1.4c0.9-0.2,2.4,4.6,2.5,5.2c0.7,3.5-1.3,5.4-4.1,7.2c-3.7,2.4-8.1,4.5-12.3,6c-11.1,4-24.8,6.7-36.6,5.7
				c-7.3-0.6-12.8-3.2-16.2-10c-2.6-5.4-6.4-17.2,1.7-20.4C43.7,147,51.5,149,56.9,149.1C57,149.2,57,149.2,56.9,149.1L56.9,149.1z"
				/>
		</g>
	</g>
	<g>
		<g>
			<path fill="#3F4251" d="M42.3,178.5c1.7,14.3,21.1,16.7,32.4,16.9c8.9,0.1,17.7-1,26.5-2.2c8-1.1,16.4-2,24.1-4.3
				c10.5-3.2,19-12,13.7-23.4c-6.3-13.7-23.6-15.3-36.7-13.2c-1.2,0.2-0.9,2.1,0.3,2.1c12.6-0.1,28-1.7,34.4,12.1
				c6.2,13.4-8.1,19.9-18.8,21.9c-13,2.5-26.5,4.7-39.8,5.1c-11.6,0.3-32.7-0.5-35.9-15C42.6,178.4,42.3,178.4,42.3,178.5
				L42.3,178.5z"/>
		</g>
	</g>
	<g>
		<g>
			<path fill="#3F4251" d="M32.3,158.9c-9.8,3.3-14.6,14.1-19.1,22.6c-6.1,11.7-8.4,24.3-7.3,37.5c0.1,1.6,2.4,1.6,2.4,0
				c0.3-5.6-0.2-11.1,0.5-16.7c0.8-6.6,3-12.8,5.9-18.8c4.1-8.5,8.6-19.8,17.6-24.1C32.7,159.3,32.5,158.9,32.3,158.9L32.3,158.9z"
				/>
		</g>
	</g>
	<g>
		<g>
			<path fill="#3F4251" d="M41.3,175.2c-1.6,5.7-3.4,10.9-8.2,14.4c-4.3,3.2-8.6,6-12.6,9.8c-0.7,0.7-0.4,2.1,0.6,2.3
				c12.9,2.6,24.9,6.9,36,14.2c1.4,0.9,2.6-1.3,1.3-2.2c-1.8-1.3,0.2-7.9,0.6-9.5c0.8-3.1,1.8-7.1,4.4-9.3c1.1-0.9-0.5-2.4-1.5-1.5
				c-3.4,2.9-4.9,8.7-5.8,12.9c-0.6,2.8-1.8,7.6,1,9.7c0.4-0.7,0.9-1.5,1.3-2.2c-10.9-7.3-23.5-12.7-36.5-14.6
				c0.2,0.8,0.4,1.5,0.6,2.3c4.1-4.4,9.2-7.5,13.5-11.6c3.9-3.8,5.2-9.1,6.2-14.3C42.3,174.9,41.5,174.6,41.3,175.2L41.3,175.2z"/>
		</g>
	</g>
	<g>
		<g>
			<path fill="#3F4251" d="M135.8,181.9c4.2,7.6,3.4,16.3,4.2,24.7c0.3,3,0.3,10.9,4.9,10.3c0.8-0.1,1.4-1.3,1.1-2
				c0-0.1,0-0.1-0.1-0.2c-0.6-1.6-3.2-1.5-3.1,0.4c0,0.1,0,0.1,0,0.2c0.7-0.5,1.4-1,2.1-1.6c-0.9-0.2-1.8-7.2-2-8.3
				c-0.5-3.3-0.8-6.6-1.2-9.9c-0.7-5.1-1.9-9.9-4.8-14.3C136.5,180.5,135.4,181.1,135.8,181.9L135.8,181.9z"/>
		</g>
	</g>
	<g>
		<g>
			<path fill="#3F4251" d="M43.1,150.4c0-0.1,0.1-0.3,0.1-0.4c0,0,0-0.1,0-0.1c-0.1-0.1-0.2-0.2-0.3-0.4c0,0-0.1-0.1-0.1,0
				c-5.9,2.2-4.2,12.1-3.2,16.7c1.8,8,9,11,16.7,10.3c5.7-0.5,11-2.9,16.7-3.3c0.5,0,3.5,0.2,3.7,0c1.1-1.1-2.4-0.6-2.7-0.6
				c-2.2,0.2-4.3,0.6-6.5,1c-6.5,1-13.8,1.1-19.6-2.6c-6.1-3.9-9.2-10.5-6.9-17.5c0.2-0.6-0.7-0.8-0.9-0.2c-2.6,7.6,1,15,7.9,18.9
				c9.9,5.6,20.1,0.8,30.5,1.3c0.5,0,0.6-0.8,0.1-0.9c-8.8-1.2-16.6,3.3-25.2,3.1c-6.4-0.1-11.4-3.1-13-9.6c-0.5-2.2-0.9-4.5-1-6.8
				c-0.1-1.4,0-2.8,0.2-4.3C39.9,152.9,41,151.4,43.1,150.4C43,150.5,43.1,150.5,43.1,150.4L43.1,150.4z"/>
		</g>
	</g>
	<g>
		<g>
			<path fill="#3F4251" d="M77.2,196.1c-0.7,10,1.1,20.9,2.2,30.8c0.1,0.8,1.3,0.8,1.3,0C80,216.9,79.7,205.8,77.2,196.1
				C77.2,196.1,77.2,196.1,77.2,196.1L77.2,196.1z"/>
		</g>
	</g>
	<g>
		<path fill="#3F4251" d="M84.7,206.5c-0.2,0.3-0.4,0.6-0.6,0.9c-1,1.5-1.4,3.4-0.9,5.1s2.1,3.2,4.1,3.5c2,0.3,4.3-0.8,4.7-2.6
			c0.3-1.3-0.4-2.7-1.5-3.7c-1.2-1.2-3.1-2.2-5-2c-1.9,0.2-3.6,2-2.9,3.5"/>
		<g>
			<path fill="#3F4251" d="M84.6,206.5c-1.9,2.6-2.8,6.3,0,8.7c2.1,1.8,6,1.7,7.5-0.9c1.6-2.9-1.9-6.1-4.5-6.8
				c-2.4-0.7-6.4,0.8-5.4,3.9c0.2,0.5,1,0.3,0.9-0.2c-0.5-1.6,1.2-2.7,2.6-2.9c1.1-0.1,2.2,0.2,3.1,0.8c2.4,1.3,4.2,4.8,0.8,6.3
				c-2.1,0.9-4.6,0-5.8-2c-1.3-2.2-0.3-4.7,1-6.7C84.8,206.5,84.7,206.4,84.6,206.5L84.6,206.5z"/>
		</g>
	</g>
	<path fill="#FFCE1C" d="M71.2,24.6c0,0,29.3-10.1,45.9,8.7c16.4,18.5,16.7,58.2-5.3,73.2c0,0,8.9-66.5-37.6-72.7L71.2,24.6z"/>
	<path fill="none" stroke="#3F4251" stroke-width="2.1716" stroke-miterlimit="10" d="M74.3,25c0,0,29.3-10.1,45.9,8.7
		c16.4,18.5,16.7,58.2-5.3,73.2c0,0,8.9-66.5-37.6-72.7L74.3,25z"/>
</g>
</svg>
