<?xml version="1.0" encoding="utf-8"?>
<!-- Generator: Adobe Illustrator 19.1.0, SVG Export Plug-In . SVG Version: 6.00 Build 0)  -->
<!DOCTYPE svg PUBLIC "-//W3C//DTD SVG 1.1//EN" "http://www.w3.org/Graphics/SVG/1.1/DTD/svg11.dtd">
<svg version="1.1" id="Layer_1" xmlns="http://www.w3.org/2000/svg" xmlns:xlink="http://www.w3.org/1999/xlink" x="0px" y="0px"
	 width="604px" height="342px" viewBox="352.7 105 604 342" style="enable-background:new 352.7 105 604 342;" xml:space="preserve"
	>
<style type="text/css">
	.st0{clip-path:url(#SVGID_2_);}
	.st1{opacity:0.18;fill:#C9549E;enable-background:new    ;}
	.st2{opacity:0.3;fill:#E86380;enable-background:new    ;}
	.st3{fill:none;stroke:#C9549E;stroke-width:1.8137;stroke-miterlimit:10;}
	.st4{fill:none;stroke:#3F4251;stroke-width:0.8043;stroke-miterlimit:10;stroke-dasharray:6.4342;}
	.st5{fill:none;stroke:#3F4251;stroke-width:0.8038;stroke-miterlimit:10;stroke-dasharray:6.4301;}
	.st6{fill:#231F20;}
	.st7{fill:#C9549E;}
	.st8{fill:#3F4251;}
	.st9{fill:#FFCE1C;}
</style>
<g>
	<defs>
		<rect id="SVGID_1_" x="352.7" y="104" width="604" height="343"/>
	</defs>
	<clipPath id="SVGID_2_">
		<use xlink:href="#SVGID_1_"  style="overflow:visible;"/>
	</clipPath>
	<g class="st0">
		<path class="st1" d="M20.1,485c572.7,8.9,566.5-262.6,633.6-262.7c80.4-0.2,78,292.2,621.3,263.3"/>
		<polygon class="st2" points="715.8,689.1 592.9,690.1 593,206.5 716,206.5 		"/>
		<path class="st3" d="M9.9,473.6c548.4,18.7,555.7-259,644.6-260.3c96.3-1.4,73.2,262.3,620.6,272.2"/>
		<line class="st4" x1="720.4" y1="203.1" x2="720.4" y2="690.7"/>
		<line class="st5" x1="584.9" y1="203.1" x2="584.9" y2="690.1"/>
		<g>
			<g>
				<path class="st6" d="M600,168.2c-2.1-1.2-6-1.6-6,1c0,1.2,1.5,1.7,2.8,2.1c2.9,1,4.6,2,4.6,4.5c0,6.2-8.4,4.9-10,3.1l1.1-1.9
					c2.3,1.8,6.5,2,6.5-1.1c0-1.5-1.6-2.1-3.1-2.6c-2.6-1-4.3-1.8-4.3-4.1c0-4.6,5.5-4.7,9.2-3.1L600,168.2z"/>
				<path class="st6" d="M613.6,170.7l-4.3,10.1l-6.1-15.3h2.6l3.7,9.5l4.1-9.8l4.1,9.7l3.7-9.5h2.6l-6.1,15.3L613.6,170.7z"/>
				<path class="st6" d="M628.8,171.6h7v2.1h-7v4.3h7.5v2.2h-9.9v-14.6h9.9v2.2h-7.5V171.6z"/>
				<path class="st6" d="M641.8,171.6h7v2.1h-7v4.3h7.5v2.2h-9.9v-14.6h9.9v2.2h-7.5V171.6z"/>
				<path class="st6" d="M658.2,167.7v12.5h-2.4v-12.5h-4.4v-2.1h11.2v2.1H658.2z"/>
				<path class="st6" d="M679.3,168.2c-2.1-1.2-6-1.6-6,1c0,1.2,1.5,1.7,2.8,2.1c2.9,1,4.6,2,4.6,4.5c0,6.2-8.4,4.9-10,3.1l1.1-1.9
					c2.3,1.8,6.5,2,6.5-1.1c0-1.5-1.6-2.1-3.1-2.6c-2.6-1-4.3-1.8-4.3-4.1c0-4.6,5.5-4.7,9.2-3.1L679.3,168.2z"/>
				<path class="st6" d="M687.5,165.6c4.3,0,6.1,2.1,6.1,5.1c0,3.3-2.1,4.8-5.2,4.8H686v4.8h-2.4v-14.6h3.9V165.6z M688.3,173.3
					c2.3,0,3-0.9,3-2.7c0-1.6-0.8-2.9-4.2-2.9h-1v5.6L688.3,173.3L688.3,173.3z"/>
				<path class="st6" d="M710.3,172.9c0,4.9-3.3,7.6-7.3,7.6c-4.1,0-7.3-2.8-7.3-7.6c0-4,2.5-7.6,7.3-7.6S710.3,168.8,710.3,172.9z
					 M698.2,172.9c0,3.4,1.7,5.4,4.8,5.4s4.8-2,4.8-5.4c0-3.5-1.7-5.4-4.8-5.4S698.2,169.4,698.2,172.9z"/>
				<path class="st6" d="M719.2,167.7v12.5h-2.4v-12.5h-4.4v-2.1h11.2v2.1H719.2z"/>
			</g>
		</g>
		<g>
			<g>
				<path class="st7" d="M701.2,294.8c-18.3,15.4-32.5,33.8-46.9,52.7c-15.9,20.9-32.4,41.5-47.5,63c-0.7,0.9,0.9,2.1,1.6,1.2
					c15.9-19.7,30.7-40.5,45.8-60.8c7.6-10.2,15-20.8,23.3-30.5c7.5-8.9,15.9-16.9,23.9-25.4C701.5,294.8,701.3,294.7,701.2,294.8
					L701.2,294.8z"/>
			</g>
		</g>
		<g>
			<g>
				<path class="st7" d="M709.5,313c-19.5,19-38.3,38.7-55.9,59.4c-17.3,20.2-34.6,41.2-49,63.6c-0.7,1,0.9,1.9,1.6,0.9
					c16.5-21.7,32.2-43.8,49.7-64.8C672.9,351.7,690.7,331.9,709.5,313L709.5,313L709.5,313z"/>
			</g>
		</g>
		<g>
			<g>
				<path class="st7" d="M711.3,336.8c-19.7,19.6-39,39.8-57.8,60.4c-9.4,10.3-18.6,20.8-27.7,31.4c-8.7,10.1-18.1,20.1-25.7,31
					c-0.6,0.8,0.7,1.8,1.4,1.1c9.5-10.1,17.9-21.6,26.9-32.2c8.8-10.4,17.8-20.7,26.9-30.9c18.3-20.6,37.1-40.8,56.3-60.5
					C711.6,336.9,711.4,336.7,711.3,336.8L711.3,336.8z"/>
			</g>
		</g>
		<g>
			<g>
				<path class="st7" d="M703.2,365.1c-18.2,20.1-35.6,40.8-52.1,62.3c-8.3,10.7-16.3,21.6-24.1,32.7c-8,11.4-17.2,22.9-23.6,35.2
					c-0.5,0.9,0.8,2.1,1.5,1.2c7.9-10.2,14.3-21.8,21.6-32.4c7.8-11.4,15.9-22.6,24.2-33.7c16.7-22.3,34.3-44,52.8-64.9
					C703.7,365.2,703.4,364.8,703.2,365.1L703.2,365.1z"/>
			</g>
		</g>
		<g>
			<g>
				<path class="st7" d="M706,499.2c-35.3,47.7-71.4,95-105.6,143.5c-0.9,1.3,1.2,2.5,2.2,1.3c35.8-47.3,69.9-96,104.7-144
					C707.7,499.1,706.5,498.5,706,499.2L706,499.2z"/>
			</g>
		</g>
		<g>
			<g>
				<path class="st7" d="M702.4,534c-15.7,20.6-31.5,41.1-47.3,61.6c-8,10.4-16,20.8-24,31.2c-7.7,10-16.5,19.8-23,30.5
					c-0.6,0.9,0.8,2,1.5,1.2c8.3-8.8,15.1-19.5,22.4-29.2c8.1-10.7,16.2-21.3,24.3-32c15.9-20.8,31.7-41.6,47.4-62.6
					C704.3,534,703,533.2,702.4,534L702.4,534z"/>
			</g>
		</g>
		<g>
			<g>
				<path class="st7" d="M707.3,556.2c-26.7,40.9-60.7,76.8-92.2,113.9c-0.8,0.9,0.5,2.3,1.4,1.4c16.3-18.7,32.4-37.5,48.2-56.6
					c15.4-18.7,30.7-37.6,43.9-58C709.1,556.1,707.8,555.4,707.3,556.2L707.3,556.2z"/>
			</g>
		</g>
		<g>
			<g>
				<path class="st7" d="M712.7,575.4c-24.2,33.8-54.6,62.8-78.1,97.1c-0.7,1,0.9,1.8,1.6,0.9c24.7-33.4,53.7-63.4,77.7-97.3
					C714.5,575.3,713.2,574.6,712.7,575.4L712.7,575.4z"/>
			</g>
		</g>
		<g>
			<g>
				<path class="st7" d="M703.8,607.6c-13.6,23-30.8,43-47.8,63.5c-0.8,0.9,0.5,2.3,1.4,1.4c18.3-19.1,34.7-41.1,47.9-64
					C705.9,607.5,704.4,606.6,703.8,607.6L703.8,607.6z"/>
			</g>
		</g>
		<g>
			<g>
				<path class="st7" d="M708.2,639.2c-9.5,12-19.2,23.9-28.4,36.1c-0.7,0.9,0.8,2.1,1.6,1.2c9.6-11.8,18.8-24,28.1-36.1
					C710.1,639.6,708.9,638.3,708.2,639.2L708.2,639.2z"/>
			</g>
		</g>
		<g>
			<g>
				<path class="st7" d="M690.1,276.6c-33,29.4-51.2,71.7-86.1,99.4c-0.8,0.7,0.3,2.1,1.1,1.5C640.5,350.4,658,307,690.5,277
					C690.7,276.7,690.4,276.4,690.1,276.6L690.1,276.6z"/>
			</g>
		</g>
		<g>
			<g>
				<path class="st7" d="M673.6,248.3c-10.4,11.3-20.8,22.5-31.5,33.5c-10.6,11-22.1,21.4-32.2,32.8c-1.1,1.2,0.6,2.8,1.8,1.8
					c11.4-10.1,21.7-21.8,32.2-32.9s20.9-22.4,31.2-33.8C676,248.8,674.5,247.4,673.6,248.3L673.6,248.3z"/>
			</g>
		</g>
		<g>
			<g>
				<path class="st7" d="M607.4,343.9c6-3.5,11-9.2,16.1-13.9c5.4-5.1,10.8-10.2,15.9-15.6c4.9-5.2,9.5-10.6,14.4-15.7
					c9.7-10.3,20.4-20.2,29.3-31.2c0.8-1-0.5-2.3-1.4-1.4c-9.3,10.8-19.5,20.9-29.3,31.3c-4.9,5.2-9.5,10.6-14.3,15.8
					c-5.1,5.4-10.4,10.6-15.8,15.7c-5,4.7-11.1,9.2-15.1,14.9C607.1,343.8,607.3,344,607.4,343.9L607.4,343.9z"/>
			</g>
		</g>
		<g>
			<g>
				<path class="st7" d="M703.6,388.1c-18.9,22.3-36.4,45.8-53.2,69.7c-17.2,24.4-33.4,49.5-53,72.1c-1.1,1.3,0.8,3.1,1.8,1.8
					c18.9-22.1,34.8-46.6,51.4-70.5c17.2-24.7,35.4-48.6,53.6-72.6C704.4,388.2,703.9,387.7,703.6,388.1L703.6,388.1z"/>
			</g>
		</g>
		<g>
			<g>
				<path class="st7" d="M600,612.3c10.9-10.5,19.8-23.5,29.2-35.4c9.3-11.8,18.7-23.5,27.7-35.5c8.8-11.7,17-24,25.3-36.1
					c4-5.9,8.1-11.8,12.5-17.5c4.8-6.3,10.3-12.1,15.3-18.2c0.8-0.9-0.4-2.1-1.3-1.3c-10.3,9.2-18.5,21.7-26.3,33
					c-8.5,12.3-16.6,24.8-25.5,36.7c-9.4,12.7-19.3,25-29.1,37.4c-9.5,12.1-19.8,23.7-28.7,36.2C598.7,612.1,599.6,612.7,600,612.3
					L600,612.3z"/>
			</g>
		</g>
		<g>
			<g>
				<path class="st7" d="M702,450.6c-19.3,18.3-36.5,38.8-52.7,59.8c-8,10.3-15.7,20.8-23,31.6c-3.7,5.5-7.4,11-11,16.6
					c-3.7,5.8-8,11.6-10.9,17.8c-0.6,1.3,1,2.2,1.9,1.1c4-5.2,7.2-11.3,10.7-16.8c3.6-5.6,7.3-11.1,11-16.6
					c7.3-10.7,14.9-21.2,22.8-31.5c16.3-21.3,34-41.3,51.7-61.5C702.7,450.7,702.3,450.3,702,450.6L702,450.6z"/>
			</g>
		</g>
		<g>
			<g>
				<path class="st7" d="M699.6,426.9c-19.2,18-35.3,38.3-51,59.4c-16.6,22.4-33.1,44.7-49.7,67.1c-0.8,1.1,1,2.2,1.9,1.1
					c16.1-21.9,32.3-43.7,48.4-65.6c15.9-21.5,32.2-42.3,50.9-61.5C700.4,427,699.9,426.6,699.6,426.9L699.6,426.9z"/>
			</g>
		</g>
		<g>
			<g>
				<path class="st7" d="M665.4,240.2c-11.8,9.5-22.5,21.2-33,32c-9.8,10-20.3,20.6-27.7,32.7c-0.5,0.9,0.8,1.9,1.4,1.1
					c9.2-11.4,18.1-22.5,28.3-33c10.4-10.7,22-20.7,31.5-32.2C666.1,240.4,665.7,239.9,665.4,240.2L665.4,240.2z"/>
			</g>
		</g>
		<g>
			<g>
				<path class="st7" d="M626,259.8c9.7-8.1,20.3-18.8,25.5-30.5c0.6-1.3-1-2.2-1.9-1.1c-4.1,5.8-7.9,11.6-12.5,17.1
					c-3.9,4.7-8,9.2-11.7,14.1C625.2,259.7,625.7,260,626,259.8L626,259.8z"/>
			</g>
		</g>
		<g>
			<g>
				<path class="st7" d="M709.8,655.8c-3.3,2.1-6.3,4.6-8.8,7.6c-2.8,3.5-4.2,7.9-6.9,11.3c-0.9,1.2,0.2,3.2,1.7,2.2
					c1.8-1.1,2.2-2.7,3.1-4.6c1.3-2.8,3-5.4,4.9-7.9c1.6-2.1,3.5-3.8,5.1-5.8C709.7,657.6,710.2,657.1,709.8,655.8
					C709.9,655.8,709.8,655.7,709.8,655.8L709.8,655.8z"/>
			</g>
		</g>
		<g>
			<g>
				<path class="st7" d="M702.8,625.9c-4.5,9.1-10.7,17.2-17.1,25c-5.7,7.1-12.3,14-16.8,22c-0.6,1.1,0.9,1.9,1.7,1
					c6-7.9,12-15.9,18.1-23.9c5.8-7.5,10.8-15.3,14.3-24.1C702.9,625.9,702.8,625.9,702.8,625.9L702.8,625.9z"/>
			</g>
		</g>
		<g>
			<g>
				<path class="st8" d="M325.8,604.9C325.8,604.9,325.8,604.8,325.8,604.9C325.7,604.8,325.7,604.9,325.8,604.9L325.8,604.9z"/>
			</g>
		</g>
		<g>
			<g>
				<path class="st9" d="M546.3,157c-2.5-11.5,4.4-22.3,15.4-26.2c12.4-4.4,25.6-0.9,38,1.1c17.6,2.8,42.5,1.9,48.1-19.4
					c-1.4-0.2-2.8-0.4-4.2-0.6c0.8,9,7.1,15.4,15.2,18.7c11.2,4.5,23.2,1.2,34.3-2.2c12.6-3.9,26.6-8.1,39.6-3
					c11.6,4.5,17.9,16.8,13.4,28.5c-0.9,2.2,2.5,3.4,3.7,1.6c5.1-7.9,2.4-18.4-3.1-25.4c-7-8.9-18.3-12-29.2-11.6
					c-13.6,0.6-25.7,6.7-38.9,9.1c-11.7,2.2-29.3-1.2-30.8-15.8c-0.2-2.3-3.5-3-4.2-0.6c-3.2,12.5-16.5,17.8-28.4,17.9
					c-13.2,0.2-26-4.2-39.2-4.1c-9.8,0-20,2.5-26.7,10.1c-5.3,6-8.4,14.7-4.3,22.1C545.5,158.1,546.4,157.7,546.3,157L546.3,157z"/>
			</g>
		</g>
	</g>
</g>
</svg>
