<?xml version="1.0" encoding="utf-8"?>
<!-- Generator: Adobe Illustrator 19.1.0, SVG Export Plug-In . SVG Version: 6.00 Build 0)  -->
<!DOCTYPE svg PUBLIC "-//W3C//DTD SVG 1.1//EN" "http://www.w3.org/Graphics/SVG/1.1/DTD/svg11.dtd">
<svg version="1.1" id="Layer_1" xmlns="http://www.w3.org/2000/svg" xmlns:xlink="http://www.w3.org/1999/xlink" x="0px" y="0px"
	 width="1307.5px" height="239.4px" viewBox="0 0 1307.5 239.4" enable-background="new 0 0 1307.5 239.4" xml:space="preserve">
<g>
	<g>
		<g>
			<path fill="#3F4251" d="M0.8,152.5c18.4,0.4,36.8,0.9,55.2,1.3c8,0.2,16,0.4,24,0.6c8.7,0.2,18.2,1.6,26.8,0.2
				c11-1.8,16.2-14.2,21.5-22.7c6.9-11.2,13.9-23,23.9-31.8c11.5-10.3,26.4-14.2,41.5-10.4c15.6,4,28.2,14.4,38.6,26.3
				c10.3,11.7,18.9,24.8,28.7,36.9c9.3,11.5,19.2,22.6,30.2,32.5c9.7,8.6,20.3,16.9,32,22.6c8.3,4.1,17.3,6.6,26.3,8.6
				c21.7,4.9,44.4,7,66.6,6.2c9.8-0.3,19.8-1.2,29.4-3.6c5.6-1.4,10.6-3.9,16-5.9c9.8-3.6,20.1-5.8,30.2-8.4
				c69.6-18.2,143.6-47,179.7-114c5.1-9.4,8.7-19.3,12.4-29.3c4.8-12.9,14.7-23,26.3-30c22.7-13.6,49.7-14.9,73-2.2
				c20.6,11.2,38.2,29.5,61.7,34.7c22.5,4.9,42.4-6.9,60.7-18.5C926.5,32,949.8,18,974.9,29.8c22.6,10.7,36.5,33.7,58.9,44.7
				c19.2,9.5,41.9,11.2,63,11.3c24.8,0,49.5-2.8,74-6.3c10.5-1.5,20.9-3.1,31.4-4.7c1-0.1,0.6-1.7-0.4-1.5
				c-23.6,3.5-47.1,7.3-70.9,9.4c-24.6,2.1-50.2,3.1-74.5-2.1c-10.5-2.3-20.9-5.8-29.8-11.9c-10.9-7.4-20-17.1-30-25.7
				c-17.5-15-37.4-24.1-60.3-16C914.3,34.7,897,52,875,60c-26.1,9.4-48-3.4-69.1-17.9c-19-13.1-38.1-25.3-62.2-23.1
				c-21.9,2-44.6,13.2-56.6,32.2c-6,9.5-8.4,20.9-13.2,31c-4.5,9.5-9.9,18.6-16.1,27.2c-12.5,17.1-28.2,31.7-45.5,43.7
				c-30.1,20.9-64.8,34.3-99.8,44.4c-12.6,3.6-25.4,6.8-38.1,10.2c-9.8,2.6-18.9,7.2-28.7,9.7c-21.1,5.4-44.2,4.5-65.7,2.3
				c-21-2.1-43.7-5.7-62-16.6c-26.9-16-47.6-40.2-66.2-65c-16.3-21.8-34.3-47.2-63.3-51.2c-25.3-3.6-42.4,14.5-55,33.9
				c-3.1,4.8-6,9.7-9,14.5c-4.8,7.7-9.2,16.9-19.3,17.8c-7.8,0.7-15.9-0.2-23.7-0.4c-9.2-0.2-18.4-0.4-27.6-0.6
				c-17.6-0.4-35.2-0.8-52.8-1.2C-0.3,150.9-0.3,152.5,0.8,152.5L0.8,152.5z"/>
		</g>
	</g>
	<g>
		<path fill="#FFFFFF" d="M232.9,108.3c-3.7-0.5-6.8,2.5-9.1,5.4c-4.2,5.5-7.5,12.9-4.9,19.3c1.8,4.4,6,7.4,10.4,9.1
			c5,1.9,10.7,2.5,15.6,0.4c5.6-2.4,9.3-8,11.3-13.7c0.7-1.8,1.2-3.8,1-5.7c-0.2-1.7-0.9-3.3-1.7-4.8c-5-8.5-16.1-12.7-25.5-9.6"/>
		<g>
			<path fill="#3F4251" d="M232.9,107.5c-10.1-0.1-17.5,15.6-15.2,24.2c2.8,10.6,18,15.6,27.4,11.6c8.6-3.7,16.2-16.6,11.1-25.4
				c-5.2-9-16.6-12.8-26.3-10c-1,0.3-0.6,1.8,0.4,1.5c7.9-2.3,16.8-0.1,22.3,6.2c4.1,4.6,4.4,9.9,1.9,15.5c-1.7,3.7-4.1,7.2-7.5,9.5
				c-7.8,5.1-20.7,2.3-26-5.4c-5.3-7.8,1.5-26.2,12-26C233.9,109.1,233.9,107.5,232.9,107.5L232.9,107.5z"/>
		</g>
	</g>
	<g>
		<path fill="#E53F26" d="M234.6,114.6c-2.3-0.3-4.3,1.6-5.8,3.4c-2.7,3.5-4.8,8.2-3.1,12.3c1.1,2.8,3.8,4.7,6.6,5.8
			c3.2,1.2,6.8,1.6,9.9,0.2c3.6-1.5,5.9-5.1,7.2-8.7c0.4-1.2,0.8-2.4,0.6-3.6c-0.1-1.1-0.5-2.1-1.1-3.1c-3.2-5.4-10.3-8.1-16.2-6.1"
			/>
		<g>
			<path fill="#FFFFFF" d="M234.6,113.2c-6.8,0.3-12,9.8-10.7,16.1c1.6,7.3,11.3,10.8,17.9,8.7c5.8-1.9,11.5-10.1,9.1-16.3
				c-2.8-7.2-11.5-10.1-18.5-8.2c-1.7,0.5-1,3.1,0.7,2.7c4.3-1.2,8.9-0.3,12.3,2.7c4.9,4.4,3,11.2-1.7,14.9
				c-4.5,3.5-12.1,2.4-15.6-2.1c-3.5-4.5-0.1-15.3,6.4-15.7C236.4,115.9,236.4,113.1,234.6,113.2L234.6,113.2z"/>
		</g>
	</g>
	<g>
		<path fill="#FFFFFF" d="M462.3,192c-3.7-0.5-6.8,2.5-9.1,5.4c-4.2,5.5-7.5,12.9-4.9,19.3c1.8,4.4,6,7.4,10.4,9.1
			c5,1.9,10.7,2.5,15.6,0.4c5.6-2.4,9.3-8,11.3-13.7c0.7-1.8,1.2-3.8,1-5.7c-0.2-1.7-0.9-3.3-1.7-4.8c-5-8.5-16.1-12.7-25.5-9.6"/>
		<g>
			<path fill="#3F4251" d="M462.3,191.3c-10.1-0.1-17.5,15.6-15.2,24.2c2.8,10.6,18,15.6,27.4,11.6c8.6-3.7,16.2-16.6,11.1-25.4
				c-5.2-9-16.6-12.8-26.3-10c-1,0.3-0.6,1.8,0.4,1.5c7.9-2.3,16.8-0.1,22.3,6.2c4.1,4.6,4.4,9.9,1.9,15.5c-1.7,3.7-4.1,7.2-7.5,9.5
				c-7.8,5.1-20.7,2.3-26-5.4c-5.3-7.8,1.5-26.2,12-26C463.3,192.8,463.3,191.3,462.3,191.3L462.3,191.3z"/>
		</g>
	</g>
	<g>
		<path fill="#FFFFFF" d="M719.4,12.3c-3.7-0.5-6.8,2.5-9.1,5.4c-4.2,5.5-7.5,12.9-4.9,19.3c1.8,4.4,6,7.4,10.4,9.1
			c5,1.9,10.7,2.5,15.6,0.4c5.6-2.4,9.3-8,11.3-13.7c0.7-1.8,1.2-3.8,1-5.7c-0.2-1.7-0.9-3.3-1.7-4.8c-5-8.5-16.1-12.7-25.5-9.6"/>
		<g>
			<path fill="#3F4251" d="M719.4,11.5c-10.1-0.1-17.5,15.6-15.2,24.2c2.8,10.6,18,15.6,27.4,11.6c8.6-3.7,16.2-16.6,11.1-25.4
				c-5.2-9-16.6-12.8-26.3-10c-1,0.3-0.6,1.8,0.4,1.5c7.9-2.3,16.8-0.1,22.3,6.2c4.1,4.6,4.4,9.9,1.9,15.5c-1.7,3.7-4.1,7.2-7.5,9.5
				c-7.8,5.1-20.7,2.3-26-5.4c-5.3-7.8,1.5-26.2,12-26C720.4,13.1,720.4,11.5,719.4,11.5L719.4,11.5z"/>
		</g>
	</g>
	<g>
		<path fill="#FFFFFF" d="M1003.5,35.1c-3.7-0.5-6.8,2.5-9.1,5.4c-4.2,5.5-7.5,12.9-4.9,19.3c1.8,4.4,6,7.4,10.4,9.1
			c5,1.9,10.7,2.5,15.6,0.4c5.6-2.4,9.3-8,11.3-13.7c0.7-1.8,1.2-3.8,1-5.7c-0.2-1.7-0.9-3.3-1.7-4.8c-5-8.5-16.1-12.7-25.5-9.6"/>
		<g>
			<path fill="#3F4251" d="M1003.5,34.3c-10.1-0.1-17.5,15.6-15.2,24.2c2.8,10.6,18,15.6,27.4,11.6c8.6-3.7,16.2-16.6,11.1-25.4
				c-5.2-9-16.6-12.8-26.3-10c-1,0.3-0.6,1.8,0.4,1.5c7.9-2.3,16.8-0.1,22.3,6.2c4.1,4.6,4.4,9.9,1.9,15.5c-1.7,3.7-4.1,7.2-7.5,9.5
				c-7.8,5.1-20.7,2.3-26-5.4c-5.3-7.8,1.5-26.2,12-26C1004.5,35.9,1004.5,34.4,1003.5,34.3L1003.5,34.3z"/>
		</g>
	</g>
	<g>
		<path fill="#E53F26" d="M464,198.3c-2.3-0.3-4.3,1.6-5.8,3.4c-2.7,3.5-4.8,8.2-3.1,12.3c1.1,2.8,3.8,4.7,6.6,5.8
			c3.2,1.2,6.8,1.6,9.9,0.2c3.6-1.5,5.9-5.1,7.2-8.7c0.4-1.2,0.8-2.4,0.6-3.6c-0.1-1.1-0.5-2.1-1.1-3.1c-3.2-5.4-10.3-8.1-16.2-6.1"
			/>
		<g>
			<path fill="#FFFFFF" d="M464,196.9c-6.8,0.3-12,9.8-10.7,16.1c1.6,7.3,11.3,10.8,17.9,8.7c5.8-1.9,11.5-10.1,9.1-16.3
				c-2.8-7.2-11.5-10.1-18.5-8.2c-1.7,0.5-1,3.1,0.7,2.7c4.3-1.2,8.9-0.3,12.3,2.7c4.9,4.4,3,11.2-1.7,14.9
				c-4.5,3.5-12.1,2.4-15.6-2.1c-3.5-4.5-0.1-15.3,6.4-15.7C465.8,199.6,465.8,196.8,464,196.9L464,196.9z"/>
		</g>
	</g>
	<g>
		<path fill="#E53F26" d="M721.1,18.6c-2.3-0.3-4.3,1.6-5.8,3.4c-2.7,3.5-4.8,8.2-3.1,12.3c1.1,2.8,3.8,4.7,6.6,5.8
			c3.2,1.2,6.8,1.6,9.9,0.2c3.6-1.5,5.9-5.1,7.2-8.7c0.4-1.2,0.8-2.4,0.6-3.6c-0.1-1.1-0.5-2.1-1.1-3.1c-3.2-5.4-10.3-8.1-16.2-6.1"
			/>
		<g>
			<path fill="#FFFFFF" d="M721.1,17.2c-6.8,0.3-12,9.8-10.7,16.1c1.6,7.3,11.3,10.8,17.9,8.7c5.8-1.9,11.5-10.1,9.1-16.3
				c-2.8-7.2-11.5-10.1-18.5-8.2c-1.7,0.5-1,3.1,0.7,2.7c4.3-1.2,8.9-0.3,12.3,2.7c4.9,4.4,3,11.2-1.7,14.9
				c-4.5,3.5-12.1,2.4-15.6-2.1c-3.5-4.5-0.1-15.3,6.4-15.7C722.9,19.9,722.9,17.1,721.1,17.2L721.1,17.2z"/>
		</g>
	</g>
	<g>
		<path fill="#E53F26" d="M1005.2,41.4c-2.3-0.3-4.3,1.6-5.8,3.4c-2.7,3.5-4.8,8.2-3.1,12.3c1.1,2.8,3.8,4.7,6.6,5.8
			c3.2,1.2,6.8,1.6,9.9,0.2c3.6-1.5,5.9-5.1,7.2-8.7c0.4-1.2,0.8-2.4,0.6-3.6c-0.1-1.1-0.5-2.1-1.1-3.1c-3.2-5.4-10.3-8.1-16.2-6.1"
			/>
		<g>
			<path fill="#FFFFFF" d="M1005.2,40c-6.8,0.3-12,9.8-10.7,16.1c1.6,7.3,11.3,10.8,17.9,8.7c5.8-1.9,11.5-10.1,9.1-16.3
				c-2.8-7.2-11.5-10.1-18.5-8.2c-1.7,0.5-1,3.1,0.7,2.7c4.3-1.2,8.9-0.3,12.3,2.7c4.9,4.4,3,11.2-1.7,14.9
				c-4.5,3.5-12.1,2.4-15.6-2.1c-3.5-4.5-0.1-15.3,6.4-15.7C1007,42.7,1007,39.9,1005.2,40L1005.2,40z"/>
		</g>
	</g>
	<g>
		<g>
			<path fill="#3F4251" d="M1174.4,59c7.9,6.4,17.9,12.2,27.5,15.7c-0.1-0.5-0.1-1-0.2-1.4c-9.3,5.6-17.7,12.3-25.1,20.2
				c-0.7,0.7,0.4,1.8,1.1,1.1c7.3-7.8,15.6-14.5,24.7-20c0.6-0.4,0.4-1.2-0.2-1.4c-9.3-3.3-19.1-9-26.8-15.3
				C1174.7,57.3,1173.6,58.4,1174.4,59L1174.4,59z"/>
		</g>
	</g>
</g>
</svg>
